<?xml version="1.0" encoding="UTF-8" standalone="no"?>
<!-- Created with Inkscape (http://www.inkscape.org/) -->

<svg
   width="768"
   height="512"
   viewBox="0 0 203.2 135.46667"
   version="1.1"
   id="SVGRoot"
   inkscape:version="1.2.1 (9c6d41e410, 2022-07-14)"
   sodipodi:docname="anchor.svg"
   inkscape:export-filename="anchor.png"
   inkscape:export-xdpi="96"
   inkscape:export-ydpi="96"
   xmlns:inkscape="http://www.inkscape.org/namespaces/inkscape"
   xmlns:sodipodi="http://sodipodi.sourceforge.net/DTD/sodipodi-0.dtd"
   xmlns="http://www.w3.org/2000/svg"
   xmlns:svg="http://www.w3.org/2000/svg"
   xmlns:rdf="http://www.w3.org/1999/02/22-rdf-syntax-ns#"
   xmlns:cc="http://creativecommons.org/ns#"
   xmlns:dc="http://purl.org/dc/elements/1.1/">
  <sodipodi:namedview
     id="base"
     pagecolor="#ffffff"
     bordercolor="#666666"
     borderopacity="1.0"
     inkscape:pageopacity="0.0"
     inkscape:pageshadow="2"
     inkscape:zoom="0.35"
     inkscape:cx="1444.2857"
     inkscape:cy="971.42857"
     inkscape:document-units="mm"
     inkscape:current-layer="SVGRoot"
     showgrid="false"
     inkscape:window-width="853"
     inkscape:window-height="623"
     inkscape:window-x="-8"
     inkscape:window-y="-8"
     inkscape:window-maximized="1"
     inkscape:showpageshadow="0"
     inkscape:pagecheckerboard="true"
     inkscape:deskcolor="#d1d1d1" />
  <defs
     id="defs10953" />
  <metadata
     id="metadata10956">
    <rdf:RDF>
      <cc:Work
         rdf:about="">
        <dc:format>image/svg+xml</dc:format>
        <dc:type
           rdf:resource="http://purl.org/dc/dcmitype/StillImage" />
      </cc:Work>
    </rdf:RDF>
  </metadata>
  <g
     id="Group_246"
     inkscape:label="anker"
     transform="matrix(0.30709882,0,0,0.26584359,45.631239,8.9985257)">
    <g
       id="Graphic_272"
       style="display:inline;stroke:none"
       inkscape:label="omtrek">
      <path
         d="m 169.36885,64.19158 c -9.63728,3.62815 -14.85275,8.3901 -20.40835,18.93441 -2.15421,4.19505 -2.72111,6.68941 -2.60773,14.17247 0,12.69852 1.58731,16.32667 10.99783,25.85057 l 8.16334,8.16334 0.22676,11.79149 c 0.11338,8.27672 0.68028,12.13163 1.7007,12.69852 1.13379,0.79366 1.13379,1.02042 -0.34015,1.02042 -0.90703,0 -2.26759,-0.5669 -2.94787,-1.24717 -0.79366,-0.79366 -2.49435,-0.90704 -5.21547,-0.11338 -3.17463,0.90703 -4.53518,0.68027 -7.36968,-1.1338 -4.4218,-2.72111 -22.9027,-3.40139 -27.43788,-0.90704 -1.92746,1.02042 -5.78237,1.47394 -11.56473,1.24718 -13.03867,-0.45352 -17.12034,2.49435 -18.36752,13.37881 -0.79365,7.93657 4.87533,16.2133 11.45135,16.2133 7.14293,0.11337 15.0795,2.38096 15.75978,4.53518 0.90704,3.06125 5.44223,4.53519 15.19288,4.87532 8.04996,0.34014 15.98654,-0.90703 18.82103,-3.06125 0.90704,-0.56689 2.49436,0.22676 4.64857,2.2676 1.70069,1.81407 3.85491,3.51477 4.76195,3.74153 1.36056,0.45352 1.58732,12.13162 1.36056,73.69682 -0.22676,78.7989 -0.22676,78.1186 -6.12251,78.1186 -4.30843,0 -15.0795,-4.30843 -23.69636,-9.4105 -9.18375,-5.44224 -34.92095,-30.2724 -34.92095,-33.78716 0,-1.92746 0.22676,-1.92746 4.30843,-0.22676 6.00913,2.60772 20.74849,2.60772 27.66465,0 8.73024,-3.40138 9.86404,-6.80278 2.72112,-8.04998 -6.12251,-1.13378 -20.97525,-6.46263 -24.71678,-8.95698 -5.32885,-3.74152 -17.46048,-18.48089 -20.86187,-25.73719 -3.85491,-8.16333 -7.2563,-21.42877 -7.70982,-30.61253 -0.22676,-4.08166 -0.45352,-8.04995 -0.5669,-8.8436 -0.11338,-2.04084 -4.081665,-1.7007 -6.00912,0.5669 -1.814075,2.1542 -7.93658,14.73935 -10.77107,22.44917 -1.02042,2.83449 -1.92746,10.54431 -2.267596,20.40835 -0.566898,13.3788 -0.226759,17.68723 1.814076,27.66464 3.28801,15.75978 9.297135,31.17944 12.24501,31.63294 2.04083,0.34014 2.15421,-0.34014 2.15421,-10.43093 -0.11338,-5.89575 0.22676,-11.11121 0.79366,-11.56473 1.02042,-1.1338 3.85491,2.72111 4.76195,6.46266 0.90704,3.96827 12.13163,20.86185 17.91399,26.87097 13.37881,13.94571 36.8484,28.23153 51.13425,31.06603 5.32884,1.02043 7.59644,2.15423 10.99783,5.5556 3.74153,3.74155 5.10208,4.30845 11.56473,4.98872 10.77107,1.13378 16.55344,-0.11338 20.63511,-4.53518 2.49434,-2.72112 5.32884,-4.30844 10.31754,-5.55561 24.71678,-6.34926 50.11384,-24.49003 63.26588,-45.12513 2.2676,-3.51476 4.08167,-6.91615 4.08167,-7.36967 0,-1.92746 4.98871,-12.81191 5.89575,-12.81191 1.81407,0 3.17463,5.78238 3.17463,13.15205 0,6.1225 0.34014,7.36968 1.81407,7.02953 1.81408,-0.34013 3.17464,-2.38097 7.59644,-11.6781 6.12251,-13.15205 9.41052,-34.1273 7.59646,-48.86665 -1.7007,-13.60557 -2.381,-16.2133 -5.44224,-23.01608 -6.1225,-13.37881 -12.69853,-19.84145 -16.44006,-16.09992 -0.79366,0.79365 -1.47393,4.76195 -1.5873,8.84361 -0.22677,9.75066 -1.8141,15.53302 -7.9366,28.68507 -7.59643,16.2133 -18.3675,28.11817 -31.7463,35.14771 -4.19506,2.15421 -7.8232,4.64856 -8.04997,5.44222 -0.5669,1.92746 6.57602,4.76194 12.35839,4.76194 2.60773,0 8.16334,-0.79365 12.47178,-1.92744 4.3084,-1.02042 8.16332,-1.58732 8.50346,-1.1338 1.02042,0.90704 -8.84361,13.37881 -13.3788,16.89358 -2.04084,1.70069 -6.6894,5.78236 -10.31756,9.07036 -3.62815,3.4014 -8.957,7.3697 -11.90486,8.957 -2.94788,1.47395 -5.55561,2.9479 -5.89574,3.28802 -1.36056,1.36056 -8.73025,4.42181 -12.13164,5.10208 -2.04083,0.45353 -3.74153,1.2472 -3.74153,1.8141 0,1.36054 -6.46263,1.24716 -9.18375,-0.22678 -2.2676,-1.13379 -2.2676,-2.15422 -1.7007,-76.75806 0.68028,-69.275 0.79366,-75.73764 2.60773,-76.98482 2.94788,-2.26759 6.46265,-1.70069 9.29714,1.24718 2.49435,2.72111 2.94787,2.72111 16.32668,2.15421 11.33797,-0.34013 14.39922,-0.90703 16.89357,-2.72111 2.04084,-1.36055 4.9887,-2.15422 8.50348,-2.15422 11.90487,0 15.53302,-2.7211 16.89358,-12.58514 0.5669,-3.51477 -1.24718,-9.41052 -3.51476,-12.13163 -0.22677,-0.22676 -4.87534,-1.24718 -10.43095,-2.38097 -6.23588,-1.36056 -11.67811,-3.17463 -14.39922,-5.10209 -2.94787,-1.92745 -6.1225,-3.06125 -9.63727,-3.17463 -2.8345,-0.11338 -6.91616,-0.22676 -9.07038,-0.34014 -2.15421,-0.11338 -6.23588,0.5669 -9.07038,1.47394 -4.76194,1.47393 -5.66898,1.47393 -9.86403,-0.45352 l -4.64857,-1.92746 0.45352,-8.61686 c 0.5669,-14.28584 1.36056,-18.14075 3.85491,-19.5013 3.74153,-1.92746 9.97741,-9.18376 13.15205,-15.19288 2.72112,-4.98871 3.06125,-7.02955 3.06125,-15.87316 0.11337,-11.90487 -1.7007,-16.66682 -9.07038,-24.0365 -7.2563,-7.2563 -13.03866,-9.750655 -23.69635,-10.204174 -5.78237,-0.226756 -10.54432,0.226759 -13.15205,1.133794 z m 21.08862,17.00696 v 0 c 7.8232,4.42181 11.67811,14.62598 8.50348,22.9027 l -1.1338,2.94787 -3.62815,-2.72111 c -6.80278,-5.21547 -11.79149,-6.57602 -17.68723,-5.21547 -2.94787,0.79366 -6.57602,2.49436 -8.27672,3.96829 -4.08167,3.96829 -5.21547,3.40139 -6.1225,-2.83449 -1.24718,-9.18376 2.83449,-15.98654 11.56473,-19.38793 7.2563,-2.83449 11.33797,-2.72111 16.78019,0.34014 z"
         fill="#000000"
         id="path317"
         style="display:inline;stroke:none" />
    </g>
    <g
       id="Graphic_271"
       style="display:inline"
       inkscape:label="ring">
      <path
         d="m 195.78632,70.31409 c 2.83448,1.58731 6.80278,4.42181 8.61686,6.46264 4.53518,4.64857 7.8232,14.73936 7.36968,22.22242 -0.34014,6.23589 -4.64856,16.55344 -8.27672,19.84145 -3.74154,3.40139 -3.85491,1.02042 -0.22676,-3.62815 3.62815,-4.53519 5.89574,-11.67811 3.74152,-11.67811 -0.79365,0 -1.5873,1.47394 -1.92745,3.40139 -0.68027,3.40139 -3.40139,6.57602 -4.53518,5.32885 -0.34014,-0.34014 0.34013,-2.72112 1.58731,-5.32885 4.42182,-9.63727 -0.5669,-23.4696 -10.54431,-29.13858 -3.28801,-1.92746 -6.34927,-2.60774 -11.56473,-2.60774 -6.1225,0 -7.59644,0.45352 -11.90487,3.74153 -8.957,6.68941 -12.13163,17.80062 -8.27672,28.57169 0.90704,2.49435 1.7007,4.76195 1.7007,5.10209 -0.11338,1.36055 -4.53519,-4.98871 -4.53519,-6.46265 0,-0.90703 -0.45352,-1.36055 -1.02042,-0.90703 -1.47394,0.79366 0.34014,6.57602 3.28801,10.88445 3.28802,4.53519 1.81408,5.89574 -1.70069,1.58731 -5.44223,-6.57602 -7.36968,-12.13162 -7.36968,-20.74848 0,-8.84362 1.13379,-12.24501 5.89574,-18.59427 8.957,-11.67811 26.53085,-15.192884 39.6829,-8.04996 z"
         fill="#f3f3f3"
         id="path320"
         style="fill:#000080;fill-opacity:1" />
    </g>
    <g
       id="Graphic_270"
       style="display:inline"
       inkscape:label="bovenstuk">
      <path
         d="m 187.62298,105.00828 c 4.98871,1.70069 9.07038,7.70982 8.957,13.15204 l -0.22676,4.08167 -1.1338,-4.30843 c -1.47394,-5.32884 -3.06125,-5.44222 -3.06125,-0.22676 0,2.72112 -0.5669,3.9683 -1.7007,3.9683 -1.02041,0 -1.70069,1.02041 -1.70069,2.7211 0,1.47394 -0.79366,3.28802 -1.7007,4.08168 -1.47393,1.13379 -1.70069,1.02042 -1.70069,-1.02042 0,-2.72111 -2.04084,-3.17463 -2.94788,-0.68028 -0.45351,0.90704 -1.13379,1.7007 -1.70069,1.7007 -0.5669,0 -1.02042,-0.79366 -1.02042,-1.7007 0,-2.38098 -7.70982,-2.38098 -8.73024,0.11338 -1.02041,2.72111 0.90704,3.85491 8.27672,4.76194 l 6.6894,0.79367 0.34014,9.41051 c 0.22676,5.10209 0.79366,9.29714 1.36056,9.29714 1.36056,0 1.47394,-1.24718 1.1338,-12.24501 -0.11338,-5.21547 0.22676,-8.16334 1.02042,-8.16334 0.68027,0 1.24717,1.1338 1.36055,2.49435 0.22675,5.10209 -0.34014,20.74848 -0.79365,21.20201 -0.5669,0.5669 -18.93442,0.11337 -19.6147,-0.5669 -0.34013,-0.34014 -0.45351,-4.53519 -0.22676,-9.5239 0.22676,-7.70982 -0.11337,-9.97741 -2.83449,-15.75977 -4.19505,-9.41052 -3.28801,-15.30626 3.06125,-20.97525 4.87533,-4.53519 9.41052,-5.21547 16.89358,-2.60773 z"
         fill="#f3f3f3"
         id="path323"
         style="fill:#000080;fill-opacity:1" />
    </g>
    <g
       id="g630"
       style="display:inline"
       inkscape:label="hout">
      <g
         id="Graphic_258"
         inkscape:label="uiteinde rechts">
        <path
           d="m 253.60997,171.10864 c 5.10209,0.90704 6.1225,1.92746 7.14293,7.25631 0.5669,3.28801 0.22675,4.64856 -1.7007,6.80278 -2.04084,2.38097 -2.38098,2.49435 -1.58732,0.5669 0.45352,-1.24718 1.02042,-3.62815 1.36055,-5.44223 0.45352,-2.8345 0.22677,-3.06125 -3.06125,-3.06125 -2.83448,0 -3.51478,0.45352 -3.62815,2.49435 v 2.60774 l -1.81407,-2.60774 c -2.60774,-3.62815 -3.74153,-3.06125 -3.28801,1.7007 0.34013,3.17463 1.02041,4.4218 3.06125,5.21546 l 2.7211,1.1338 -2.83448,0.79366 c -5.32885,1.70069 -5.44222,1.47394 -5.89575,-8.27672 -0.34014,-5.10209 -0.34014,-9.75065 0,-10.20417 0.22676,-0.5669 1.58733,-0.68028 2.94788,-0.34014 1.24717,0.34014 4.30842,1.02041 6.57602,1.36055 z"
           fill="#f3f3f3"
           id="path359"
           style="fill:#00ff80;fill-opacity:1" />
      </g>
      <g
         id="Graphic_261"
         inkscape:label="hout rechts">
        <path
           d="m 234.22204,164.30586 c 3.85491,1.92746 6.6894,9.07038 6.6894,16.7802 0,7.2563 -1.92744,9.86404 -8.84362,12.01824 -5.89574,1.81408 -7.70982,0.68029 -5.89574,-3.8549 1.92745,-4.9887 1.36056,-16.55344 -1.02042,-21.88229 -1.24717,-2.60773 -1.92746,-4.98871 -1.47393,-5.44222 0.90703,-0.90704 6.80277,0.45351 10.54431,2.38097 z"
           fill="#f3f3f3"
           id="path350"
           style="fill:#66ffb3;fill-opacity:1" />
      </g>
      <g
         id="Graphic_259"
         inkscape:label="schaduw hout rechts">
        <path
           d="m 223.7911,173.603 c 1.36056,5.78236 0.22677,16.44006 -1.92745,18.59427 -2.15421,2.15421 -2.94787,0.11338 -1.36055,-3.62815 1.47393,-3.40139 1.0204,-13.9457 -0.79366,-20.40835 -0.68028,-2.49435 -0.5669,-2.60773 1.02041,-1.36055 1.02042,0.79365 2.38098,3.85491 3.06125,6.80278 z"
           fill="#f3f3f3"
           id="path356"
           style="fill:#00994d;fill-opacity:1" />
      </g>
      <g
         id="Graphic_260"
         inkscape:label="middenstuk 3">
        <path
           d="m 212.56652,164.75938 c 3.17463,1.7007 4.87532,5.32885 5.78236,12.24501 1.02042,7.25631 -0.5669,12.69853 -3.62815,12.69853 -1.81408,0 -1.92746,-0.5669 -1.36056,-3.74153 1.1338,-5.44223 1.02043,-9.07039 -0.34014,-9.52389 -0.68027,-0.22677 -1.24717,1.24717 -1.36055,3.288 0,2.04084 -0.45352,5.66899 -0.79366,8.04996 -0.68028,3.51477 -0.45352,4.64857 1.24718,5.89574 2.04083,1.58732 2.04083,1.58732 -0.34014,1.7007 -1.47394,0 -2.60774,-0.68028 -2.60774,-1.58731 0,-0.90704 -1.47392,-2.15422 -3.40139,-2.83449 -4.19505,-1.36056 -4.30843,-2.15422 -0.5669,-3.51478 2.49437,-0.90704 2.8345,-1.81407 2.8345,-6.34926 0,-3.06126 -0.68028,-6.12251 -1.58733,-7.14292 -0.90703,-1.02042 -1.92744,-3.74154 -2.38096,-6.12251 -0.79366,-4.08167 -0.79366,-4.19505 2.83449,-4.19505 1.92746,0 4.53519,0.5669 5.66899,1.1338 z"
           fill="#f3f3f3"
           id="path353"
           style="fill:#03ff81;fill-opacity:1" />
      </g>
      <g
         id="Graphic_265"
         style="display:inline"
         inkscape:label="hout midden">
        <path
           d="m 192.95183,161.8115 c 4.08167,3.74154 4.30843,4.19506 4.64857,12.58516 0.5669,10.43093 -1.81408,17.23371 -6.46265,18.36751 -3.96829,1.02042 -12.24501,1.02042 -13.15205,0.11338 -0.45351,-0.45352 0.34014,-2.38098 1.7007,-4.30843 3.62815,-4.98871 3.74153,-16.66682 0.34014,-23.80974 -1.36056,-2.83449 -2.15421,-5.44222 -1.92745,-5.89574 0.34013,-0.5669 2.83449,-0.90704 5.66898,-0.90704 4.08167,0 5.78237,0.68028 9.18376,3.8549 z"
           fill="#f3f3f3"
           id="path338"
           style="fill:#66ffb3;fill-opacity:1" />
      </g>
      <g
         id="Graphic_266"
         style="display:inline"
         inkscape:label="schaduw hout midden">
        <path
           d="m 176.62515,164.75938 c 2.72111,5.21547 3.17463,7.36968 2.83449,13.03867 -0.45352,6.91615 -3.28801,12.92528 -6.23588,13.03866 -0.90704,0 -0.68028,-2.04083 0.90704,-6.57601 2.7211,-7.70983 2.1542,-13.4922 -1.92746,-21.20201 -2.38097,-4.64857 -2.49435,-5.21547 -0.79366,-4.87533 1.1338,0.22676 3.51477,3.17463 5.21547,6.57602 z"
           fill="#f3f3f3"
           id="path335"
           style="fill:#00994d;fill-opacity:1" />
      </g>
      <g
         id="Graphic_263"
         inkscape:label="middenstuk 2">
        <path
           d="m 168.0083,162.03827 c 1.24717,0.79366 3.06124,3.40139 3.74152,5.66898 1.92746,5.55561 0.90704,15.87316 -1.70069,18.36752 -1.92746,1.81407 -1.92746,1.70069 -1.24718,-3.74153 0.34014,-3.17464 0.11338,-6.46264 -0.45352,-7.36969 -0.79366,-1.24717 -1.1338,-0.79365 -1.1338,1.92745 0,2.04084 -0.45352,3.74154 -1.13379,3.74154 -0.5669,0 -1.1338,-1.02042 -1.1338,-2.15421 0,-2.94788 -1.1338,-5.78237 -2.26759,-5.78237 -0.5669,0 -0.68028,1.7007 -0.45352,3.62815 0.68027,4.19505 -1.1338,9.97742 -3.06126,9.97742 -0.90703,0 -1.13379,-1.92746 -0.68027,-6.80279 0.45351,-3.62814 0.22676,-9.29714 -0.34014,-12.58514 -0.5669,-3.17464 -0.79366,-6.23589 -0.5669,-6.80279 0.79366,-1.24717 7.2563,-0.11338 10.43094,1.92746 z"
           fill="#f3f3f3"
           id="path344"
           style="fill:#03ff81;fill-opacity:1" />
      </g>
      <g
         id="Graphic_269"
         style="display:inline"
         inkscape:label="hout links">
        <path
           d="m 148.3936,157.27632 c 2.72112,1.1338 4.30843,2.83449 5.5556,6.23588 1.92746,4.64857 2.60774,16.32668 1.24718,19.84145 -0.79365,2.04084 -10.65768,9.07038 -10.65768,7.48306 0,-0.45351 -1.47394,-1.24717 -3.4014,-1.70069 -3.74153,-0.79366 -4.4218,-2.83449 -1.7007,-5.10209 2.38098,-1.92745 2.38098,-19.27455 0,-23.69636 -0.90703,-1.81407 -1.24717,-3.51477 -0.90703,-3.96829 1.24717,-1.13379 5.89574,-0.79365 9.86403,0.90704 z"
           fill="#f3f3f3"
           id="path326"
           style="fill:#66ffb3;fill-opacity:1" />
      </g>
      <g
         id="Graphic_268"
         style="display:inline"
         inkscape:label="schaduw hout links">
        <path
           d="m 136.03521,160.45095 c 2.38098,5.89575 3.17464,13.71895 1.81408,18.59427 -1.47394,5.32885 -4.64857,9.63728 -5.44223,7.48306 -0.34014,-0.68028 -1.02041,-1.36055 -1.70069,-1.36055 -0.5669,0 -1.81407,-0.79366 -2.72111,-1.7007 -1.58732,-1.47393 -1.58732,-1.81407 0.11338,-2.38097 1.02041,-0.45352 2.38097,-0.22676 3.17463,0.5669 0.90703,0.90704 1.58731,0.34014 2.72111,-2.2676 1.92745,-4.53519 1.81408,-12.8119 -0.11338,-18.36751 -1.92745,-5.10209 0,-5.66898 2.15421,-0.5669 z"
           fill="#f3f3f3"
           id="path329"
           style="fill:#00994d;fill-opacity:1" />
      </g>
      <g
         id="Graphic_264"
         inkscape:label="middenstuk 1">
        <path
           d="m 131.72679,164.646 c 1.47393,5.21547 1.02041,7.70982 -1.1338,6.00913 -0.79366,-0.5669 -2.60773,-1.02043 -4.08167,-1.1338 -2.49435,-0.11338 -2.60773,0.22676 -2.15422,4.76195 0.5669,4.87532 -0.90703,8.61685 -3.51477,8.61685 -0.90703,0 -1.02041,-1.02041 -0.45351,-3.17463 0.45351,-1.7007 0.90703,-6.6894 0.90703,-10.99783 0,-4.42181 0.5669,-8.27672 1.1338,-8.84362 0.68028,-0.45351 2.60773,-0.68027 4.53519,-0.56689 2.83449,0.34014 3.51477,1.02041 4.76195,5.32884 z"
           fill="#f3f3f3"
           id="path341"
           style="fill:#03ff81;fill-opacity:1" />
      </g>
      <g
         id="Graphic_262"
         inkscape:label="ring uiteinde">
        <path
           d="m 119.48178,169.97485 c 0.11338,5.10208 -2.04084,10.65769 -4.08167,10.65769 -1.81408,0 -1.81408,-0.22676 0.22676,-4.08167 0.90703,-1.81407 1.70069,-6.34927 1.81407,-10.09079 0.11338,-5.10209 0.34014,-6.12251 1.02042,-3.96829 0.45352,1.58731 0.90704,4.87532 1.02042,7.48306 z"
           fill="#f3f3f3"
           id="path347"
           style="fill:#00ff80;fill-opacity:1" />
      </g>
      <g
         id="Graphic_267"
         style="display:inline"
         inkscape:label="uiteinde links">
        <path
           d="m 110.75154,159.54391 c 3.74153,1.7007 4.98871,10.65769 2.15421,15.41964 -4.30842,6.91617 -7.82319,7.25631 -12.35838,1.1338 -2.94787,-3.96829 -3.28801,-5.21546 -2.49436,-8.61685 1.7007,-7.59645 6.68941,-10.6577 12.69853,-7.93659 z"
           fill="#f3f3f3"
           id="path332"
           style="fill:#00994d;fill-opacity:1" />
      </g>
    </g>
    <g
       id="Graphic_255"
       inkscape:label="middenstuk">
      <path
         d="m 185.242,198.31977 c 0.45353,0.45353 1.02042,30.04563 1.24718,62.47223 0,0.79365 0.45352,1.47393 0.90704,1.47393 0.45352,0 0.90704,-6.00913 0.90704,-13.37881 -0.11338,-24.37663 0.5669,-46.14554 1.47394,-44.1047 0.68027,1.81408 0.68027,38.43572 0.11337,114.51348 -0.22676,26.9844 -0.11337,28.34494 2.04083,30.61254 7.2563,7.8232 5.89575,22.9027 -2.1542,24.37664 -5.5556,0.90702 -15.87316,0.45352 -17.3471,-0.90704 -1.47394,-1.1338 -1.47394,-1.92744 0,-5.89574 2.04083,-6.00913 2.04083,-7.59645 -0.68028,-13.4922 -2.15422,-4.8753 -2.15422,-7.1429 -1.47393,-78.6855 0.34013,-46.48569 1.02041,-74.26371 1.70069,-75.17075 2.2676,-2.72111 10.88445,-3.96829 13.26542,-1.81408 z"
         fill="#f3f3f3"
         id="path368"
         style="display:inline;fill:#000080;fill-opacity:1" />
    </g>
    <g
       id="Graphic_254"
       inkscape:label="ankerpunt rechts">
      <path
         d="m 293.40624,244.4653 c 4.42181,12.3584 6.00913,26.871 4.19506,37.18856 -0.79366,4.64856 -1.81408,10.65769 -2.2676,13.49218 -1.02042,6.34926 -4.64857,16.09992 -6.2359,16.66682 -0.68026,0.22674 -2.38096,-3.85491 -3.62813,-9.18376 -2.49437,-9.29713 -2.49437,-9.63727 -0.45352,-17.8006 1.81407,-7.2563 3.06125,-29.25198 1.70069,-27.89142 -0.34014,0.34014 -1.02042,6.00912 -1.58731,12.81192 -1.1338,12.1316 -4.42181,25.6238 -8.84363,35.6012 -4.76194,10.88447 -17.8006,29.47874 -24.6034,35.14772 -1.81406,1.58732 -4.19504,3.62815 -5.10207,4.53518 -3.17463,3.06126 -20.40835,12.58516 -26.98437,14.85275 -19.84146,6.80279 -18.70766,6.80279 -19.95483,-0.22675 -0.90703,-4.9887 -0.45353,-5.44223 10.09079,-8.84362 4.42181,-1.47394 10.54432,-3.96828 13.60558,-5.44223 7.2563,-3.74153 22.7893,-14.85275 27.43788,-19.72805 4.19504,-4.5352 13.9457,-16.66683 13.9457,-17.3471 0,-0.34015 1.47392,-2.72113 3.28802,-5.44224 3.17462,-4.76196 8.04995,-16.66682 8.04995,-19.38793 -0.11338,-0.79366 -1.36055,0.90704 -2.72111,3.74153 -2.72112,5.21547 -6.12251,8.27672 -12.92529,11.79149 -4.30843,2.2676 -21.7689,3.96829 -21.7689,2.04085 0,-0.6803 1.24717,-1.58733 2.72111,-2.15423 1.47394,-0.45352 5.44224,-3.17463 8.61686,-6.00912 15.19288,-13.03867 28.68506,-37.41531 31.17942,-56.12295 1.24716,-9.41052 1.47393,-9.5239 5.66898,-4.76195 2.04084,2.26759 4.98871,7.93658 6.57602,12.47175 z"
         fill="#f3f3f3"
         id="path371"
         style="fill:#000080;fill-opacity:1" />
    </g>
    <g
       id="Graphic_253"
       style="display:inline"
       inkscape:label="ankerpunt links">
      <path
         d="m 78.77846,231.31327 c 0.11338,7.14293 4.87533,24.94353 8.73024,32.53997 8.04996,15.87316 22.9027,29.93226 34.46743,32.76674 1.58732,0.45352 4.87533,1.58732 7.36968,2.60772 l 4.42181,1.92747 -5.10209,1.47393 c -2.83449,0.90704 -7.70982,1.5873 -10.88445,1.7007 -11.45135,0.34014 -24.94353,-8.61686 -31.06604,-20.40835 -2.26759,-4.30843 -3.28801,-5.5556 -3.40139,-3.85491 0,2.15422 2.94787,8.27672 10.20418,21.31539 2.49435,4.53517 6.6894,10.43093 9.29713,13.26542 0.79366,0.79365 4.53519,4.98871 8.27672,9.29715 11.56473,13.2654 33.33363,26.1907 49.88707,29.4787 7.70982,1.58733 9.86403,4.19506 8.84362,10.54432 -0.5669,3.28801 -0.90704,3.62815 -3.62815,3.06125 -8.61686,-1.81407 -25.05692,-7.02954 -26.87099,-8.50347 -0.79366,-0.5669 -1.81408,-1.0204 -2.2676,-0.79366 -1.02042,0.22676 -4.53519,-1.7007 -10.88445,-6.00914 -1.7007,-1.24716 -3.51477,-2.1542 -3.96829,-2.1542 -0.45352,0 -2.60773,-1.5873 -4.76195,-3.4014 -2.04083,-1.92745 -4.19504,-3.4014 -4.64856,-3.4014 -1.1338,0 -18.25414,-21.31537 -20.18159,-25.28366 -0.90704,-2.04084 -2.72112,-5.10208 -4.08167,-7.02954 -1.24718,-1.81407 -2.38098,-3.8549 -2.38098,-4.5352 0,-0.68026 -1.13379,-3.8549 -2.49435,-6.91615 -3.17463,-7.36968 -6.91616,-21.08862 -7.8232,-29.13858 -0.45352,-3.62815 -1.247175,-6.80277 -1.92745,-7.2563 -1.7007,-1.02042 0,12.245 3.06125,24.37663 2.49435,9.75066 2.60773,10.6577 0.90704,15.75978 -0.90704,2.94787 -1.92746,6.12252 -2.15422,7.02954 -0.5669,2.15422 -3.74153,-0.5669 -3.74153,-3.28802 0,-1.1338 -1.133796,-5.21545 -2.49435,-9.18374 -3.40139,-10.20418 -3.74153,-40.13642 -0.45352,-50.34059 1.24718,-3.74153 2.49435,-7.02954 2.94787,-7.36967 0.45352,-0.34015 1.7007,-2.49437 2.607735,-4.87534 1.587315,-3.62816 4.195045,-5.78236 4.195045,-3.40139 z"
         fill="#f3f3f3"
         id="path374"
         style="fill:#000080;fill-opacity:1" />
    </g>
    <g
       id="g604"
       inkscape:label="arcering"
       style="display:none">
      <g
         id="Graphic_252"
         style="display:inline">
        <path
           d="m 99.86709,167.70725 c -1.1338,4.08167 0.22676,7.2563 3.51477,8.50348 2.83449,1.02042 7.14292,-0.34013 7.14292,-2.38097 0,-1.47394 -1.47394,-1.47394 -3.06125,0.11338 -1.92746,1.92746 -3.51477,0.34014 -4.30843,-4.64857 -0.90704,-5.21547 -2.26759,-5.89575 -3.28801,-1.58732 z"
           fill="#000000"
           id="path377" />
      </g>
      <g
         id="Graphic_251"
         style="display:inline">
        <path
           d="m 186.48918,269.0687 c 0,0.90705 -0.34014,13.03868 -0.68028,26.75762 -0.45351,16.78018 -0.22675,25.39705 0.5669,25.85058 1.36056,0.90703 2.38098,-47.27934 1.02042,-51.70115 -0.34014,-1.47395 -0.79366,-1.81408 -0.90704,-0.90705 z"
           fill="#000000"
           id="path380" />
      </g>
      <g
         id="Graphic_250"
         style="display:inline">
        <path
           d="m 185.46877,337.09653 c 0.11338,6.23587 0.11338,6.23587 1.24717,2.04084 0.79366,-2.8345 0.68028,-4.87533 -0.11338,-6.23587 -0.90703,-1.58733 -1.13379,-0.6803 -1.13379,4.19503 z"
           fill="#000000"
           id="path383" />
      </g>
      <g
         id="Graphic_249"
         style="display:inline">
        <path
           d="m 175.8315,357.16474 c 1.81407,5.32886 2.04083,9.63726 0.34013,11.33796 -1.92745,1.92747 -0.11338,4.19506 1.92746,2.49436 2.83449,-2.38096 0.79365,-16.55343 -2.60774,-17.68723 -0.79365,-0.34013 -0.68028,1.02042 0.34015,3.85491 z"
           fill="#000000"
           id="path386" />
      </g>
      <g
         id="Graphic_248"
         style="display:inline">
        <path
           d="m 183.0878,364.42104 c 0,1.58732 -0.5669,3.40139 -1.24718,4.08166 -1.36056,1.36057 -0.45352,3.74154 1.24718,3.74154 1.70069,0 2.7211,-7.93658 1.24717,-9.41051 -0.90704,-0.90703 -1.24717,-0.5669 -1.24717,1.58731 z"
           fill="#000000"
           id="path389" />
      </g>
      <g
         id="Graphic_247"
         style="display:inline">
        <path
           d="m 189.55044,363.17386 c -1.36056,4.30844 -1.58732,6.80279 -0.68028,7.48306 1.70069,1.02042 3.74153,-4.64856 2.38097,-7.02952 -1.02042,-1.8141 -1.36056,-1.8141 -1.70069,-0.45354 z"
           fill="#000000"
           id="path392" />
      </g>
    </g>
  </g>
</svg>
