<?xml version="1.0" encoding="UTF-8" standalone="no"?>
<!-- Created with Inkscape (http://www.inkscape.org/) -->

<svg
   width="768"
   height="512"
   viewBox="0 0 203.2 135.46667"
   version="1.1"
   id="SVGRoot"
   inkscape:version="1.2.1 (9c6d41e410, 2022-07-14)"
   sodipodi:docname="boer_commando.svg"
   inkscape:export-filename="boer_commando.png"
   inkscape:export-xdpi="96"
   inkscape:export-ydpi="96"
   xmlns:inkscape="http://www.inkscape.org/namespaces/inkscape"
   xmlns:sodipodi="http://sodipodi.sourceforge.net/DTD/sodipodi-0.dtd"
   xmlns="http://www.w3.org/2000/svg"
   xmlns:svg="http://www.w3.org/2000/svg"
   xmlns:rdf="http://www.w3.org/1999/02/22-rdf-syntax-ns#"
   xmlns:cc="http://creativecommons.org/ns#"
   xmlns:dc="http://purl.org/dc/elements/1.1/">
  <sodipodi:namedview
     id="base"
     pagecolor="#ffffff"
     bordercolor="#666666"
     borderopacity="1.0"
     inkscape:pageopacity="0.0"
     inkscape:pageshadow="2"
     inkscape:zoom="0.5"
     inkscape:cx="1019"
     inkscape:cy="650"
     inkscape:document-units="mm"
     inkscape:current-layer="g10781"
     showgrid="false"
     inkscape:window-width="853"
     inkscape:window-height="623"
     inkscape:window-x="-8"
     inkscape:window-y="-8"
     inkscape:window-maximized="1"
     inkscape:showpageshadow="0"
     inkscape:pagecheckerboard="true"
     inkscape:deskcolor="#d1d1d1" />
  <defs
     id="defs10953" />
  <metadata
     id="metadata10956">
    <rdf:RDF>
      <cc:Work
         rdf:about="">
        <dc:format>image/svg+xml</dc:format>
        <dc:type
           rdf:resource="http://purl.org/dc/dcmitype/StillImage" />
      </cc:Work>
    </rdf:RDF>
  </metadata>
  <g
     id="g10781"
     inkscape:label="boer_commando"
     style="display:inline"
     transform="matrix(0.98794995,0,0,0.98794995,54.291718,-70.671853)">
    <g
       id="g16103"
       inkscape:label="handen"
       style="display:inline"
       transform="translate(-192.67556,-56.156695)">
      <path
         class="st29"
         d="m 259,186 c 0,0.5 -0.3,0.9 -0.9,1.3 -1.7,1.2 -5.1,1.7 -5.1,1.7 l -0.6,-2.6 c 2.4,0.4 2.6,-1.4 2.6,-1.4 0,0 0,-3 1,-4 0.2,-0.2 0.3,-0.2 0.4,-0.2 0.6,0 0.6,2.2 0.6,2.2 0,0 2,1 2,3 z"
         id="path10663"
         style="display:inline;fill:#0000e5;fill-opacity:1" />
      <path
         class="st29"
         d="m 220,203 c -0.1,0.1 -0.1,0.1 -0.2,0.2 -1,0.9 -2.9,1.7 -3.8,-0.2 -0.3,-0.7 -0.3,-1.4 -0.2,-2 0.3,-1.2 1.2,-2 1.2,-2 l 2,1 c 0,0 2,2 1,3 z"
         id="path10665"
         style="display:inline;fill:#0000e5;fill-opacity:1" />
      <path
         class="st30"
         d="m 259,186 c 0,0.5 -0.3,0.9 -0.9,1.3 -1.1,-1 -2.8,-2.9 -2.1,-4.3 0.5,-1 0.5,-1.7 0.4,-2.2 0.6,0 0.6,2.2 0.6,2.2 0,0 2,1 2,3 z"
         id="path10667"
         style="display:inline;fill:#0000b2;fill-opacity:1" />
      <path
         class="st30"
         d="m 220,203 c -0.1,0.1 -0.1,0.1 -0.2,0.2 -0.2,-0.5 -0.7,-1.2 -1.8,-1.2 -2,0 -2,-1 -2,-1 h -0.2 c 0.3,-1.2 1.2,-2 1.2,-2 l 2,1 c 0,0 2,2 1,3 z"
         id="path10673"
         style="display:inline;fill:#0000b2;fill-opacity:1" />
      <g
         id="g10677"
         style="display:inline">
        <path
           class="st4"
           d="m 217.7,204.5 c -0.1,0 -0.3,0 -0.4,0 -0.5,-0.1 -1.1,-0.4 -1.6,-1.3 -0.3,-0.7 -0.4,-1.5 -0.2,-2.3 0.3,-1.2 1.2,-2.1 1.3,-2.2 l 0.2,-0.2 2.3,1.2 c 0.8,0.8 2,2.5 1,3.5 v 0 0 0 l -0.2,0.2 c -0.3,0.3 -1.3,1.1 -2.4,1.1 z m -0.6,-5 c -0.2,0.3 -0.7,0.9 -0.9,1.6 -0.2,0.6 -0.1,1.2 0.1,1.7 0.3,0.5 0.6,0.8 1.1,0.9 0.7,0.1 1.6,-0.4 2.2,-0.9 l 0.2,-0.2 c 0.3,-0.3 0.1,-1 -0.2,-1.4 -0.3,-0.5 -0.7,-0.9 -0.8,-1 z"
           id="path10675"
           style="display:inline;fill:#00001a;fill-opacity:1" />
        <path
           class="st4"
           d="m 252.7,189.4 -0.8,-3.5 0.6,0.1 c 0.7,0.1 1.3,0 1.7,-0.3 0.4,-0.3 0.5,-0.8 0.5,-0.8 0,-0.3 0,-3.1 1.1,-4.2 0.1,-0.1 0.4,-0.3 0.7,-0.3 0.8,0 0.9,1.4 1,2.4 0.5,0.3 2,1.4 2,3.2 0,0.6 -0.3,1.1 -1,1.6 -1.7,1.2 -5.1,1.8 -5.3,1.8 z m 0.2,-2.6 0.4,1.7 c 0.9,-0.2 3.4,-0.7 4.6,-1.6 0.5,-0.3 0.7,-0.6 0.7,-1 0,-1.7 -1.8,-2.7 -1.8,-2.7 l -0.2,-0.1 v -0.2 c 0,-0.8 -0.1,-1.6 -0.3,-1.8 0,0 0,0 -0.1,0.1 -0.7,0.7 -0.9,2.9 -0.9,3.7 0,0.1 -0.1,0.8 -0.8,1.4 -0.4,0.4 -0.9,0.6 -1.6,0.5 z"
           id="path10669"
           style="display:inline;fill:#00001a;fill-opacity:1" />
      </g>
    </g>
    <g
       id="g16150"
       inkscape:label="geweer"
       style="display:inline"
       transform="translate(-192.67556,-56.156695)">
      <path
         class="st18"
         d="m 259.1,232.5 -0.3,-1 c 2.5,-0.7 4.2,-2.8 5,-6.1 2,-7.8 -1.3,-19.2 -3.2,-21 -3.1,-3.1 -3.6,-19.2 -3.6,-19.8 h 1 c 0.1,4.5 1,16.8 3.4,19.2 2.3,2.3 5.4,14.2 3.5,22 -1,3.5 -2.9,5.8 -5.8,6.7 z"
         id="path10679"
         style="fill:#0000e5;fill-opacity:1" />
      <g
         id="g16056">
        <path
           class="st4"
           d="m 259,232.8 -0.4,-1.4 0.2,-0.1 c 2.4,-0.7 4,-2.7 4.8,-5.9 1.9,-7.7 -1.3,-19 -3.1,-20.8 -3.2,-3.2 -3.7,-19.3 -3.7,-20 v -0.2 h 1.5 v 0.2 c 0.2,6.3 1.2,17 3.3,19 2.3,2.3 5.5,14.4 3.5,22.2 -1,3.8 -2.9,6.1 -5.8,7 z m 0.2,-1.1 0.1,0.5 c 2.6,-0.9 4.4,-3.1 5.3,-6.6 1.9,-7.7 -1.1,-19.5 -3.4,-21.8 -2.7,-2.7 -3.3,-17 -3.4,-19.1 h -0.5 c 0.2,5.8 1.2,17 3.6,19.4 1.9,1.9 5.2,13.4 3.3,21.3 -0.9,3.4 -2.6,5.5 -5,6.3 z"
           id="path10683"
           style="display:inline;fill:#000019;fill-opacity:1" />
        <path
           class="st4"
           d="m 257,178 -3,43 2,7 1.4,9.9 c 0,0 2.6,1.1 5.6,0.1 l -4.5,-11.5 -2,-6 2,-47 c 0,0 -1.5,-1.5 -1.5,4.5 z"
           id="path10689"
           style="display:inline;fill:#000019;fill-opacity:1" />
      </g>
      <path
         class="st31"
         d="m 260.4,237.9 c -1.2,0 -2.1,-0.2 -2.5,-0.4 l -1.4,-9.6 -2,-7 3,-42.9 c 0,-2.6 0.3,-3.6 0.5,-4 l -2,46.5 2,6.1 4.3,11 c -0.6,0.2 -1.3,0.3 -1.9,0.3 z"
         id="path10691"
         style="display:inline;fill:#000080;fill-opacity:1"
         transform="translate(1.3852114e-6)" />
    </g>
    <g
       id="g16138"
       style="display:inline"
       transform="translate(-192.67556,-56.156695)"
       inkscape:label="handen boven geweer">
      <path
         class="st29"
         d="m 257,182 c 0,0 -1,1 0,2 1,1 1,3.1 2,2.6 1,-0.5 0,-5.6 -2,-4.6 z"
         id="path10693"
         style="fill:#0000e5;fill-opacity:1" />
      <g
         id="g10697">
        <path
           class="st4"
           d="m 258.7,187 c -0.1,0 -0.2,0 -0.3,0 -0.5,-0.2 -0.7,-0.7 -0.9,-1.3 -0.2,-0.5 -0.4,-1.1 -0.8,-1.4 -1,-1 -0.4,-2.1 0,-2.5 l 0.1,-0.1 c 0.9,-0.4 1.7,0 2.3,1 0.7,1.3 1,3.7 0.1,4.2 -0.2,0.1 -0.3,0.1 -0.5,0.1 z m -1.5,-4.7 c -0.2,0.2 -0.6,0.8 0,1.4 0.5,0.5 0.7,1.1 0.9,1.7 0.1,0.3 0.3,0.8 0.5,0.9 0,0 0,0 0.1,0 0.3,-0.2 0.3,-1.9 -0.4,-3.2 -0.2,-0.7 -0.6,-1 -1.1,-0.8 z"
           id="path10695"
           style="fill:#000019;fill-opacity:1" />
      </g>
    </g>
    <g
       id="g16093"
       style="display:inline"
       inkscape:label="broek"
       transform="translate(-192.67556,-56.156695)">
      <path
         class="st32"
         d="m 259,240 c -3,1 -6,0 -8,0 -2,0 -1,-5 -2,-7 -3,-4 -3,-11 -4,-12 -0.1,-0.1 -0.2,-0.2 -0.3,-0.4 -0.9,-1.1 -1.9,-3.1 -3.7,-6.6 v -0.1 c -1.2,-2.3 -2,-3.3 -2.5,-3.7 -0.8,4.5 -2.4,12.3 -4.5,14.2 -1.6,1.4 -3,0.8 -3.9,0.1 -0.7,-0.7 -1.1,-1.5 -1.1,-1.5 0,0 0,-7.5 0.6,-13.5 0.3,-2.8 0.7,-5.2 1.4,-6.5 l 7.6,0.3 c 2.6,-1 7.7,-2.5 8.4,-0.3 0.8,2.3 2.1,9.9 3.2,13.7 0.2,0.8 0.4,1.4 0.6,1.8 0.1,0.2 0.2,0.4 0.3,0.5 1,1 2,9 2,13 0,4 3,5 4,5 1,0 4.9,2 1.9,3 z"
         id="path10699"
         style="display:inline;fill:#0000b2;fill-opacity:1"
         inkscape:label="broek" />
      <path
         class="st33"
         d="m 250.2,216.7 c -0.7,-1.1 -1.2,-2.3 -2.2,-2.7 -2,-1 -2,-5 -3,-6 -1,-1 -5,-1 -5,1 0,2 2,-1 3,0 1,1 -1,1 -2,2 -0.5,0.5 -0.3,1.8 0,2.9 -1.2,-2.3 -2,-3.3 -2.5,-3.7 -0.8,4.5 -2.4,12.3 -4.5,14.2 -1.6,1.4 -3,0.8 -3.9,0.1 3.6,-2.3 6.9,-10.7 6.9,-12.5 0,-2 -2,2 -3,1 -1,-1 4,-4 3,-4 -1,0 -2,1 -4,0 -1.3,-0.7 -2.6,0 -3.4,0.5 0.3,-2.8 0.7,-5.2 1.4,-6.5 l 7.6,0.3 c 2.6,-1 7.7,-2.5 8.4,-0.3 0.8,2.3 2.1,9.9 3.2,13.7 z"
         id="path10703"
         style="display:inline;fill:#000080;fill-opacity:1"
         inkscape:label="broek arcering" />
      <path
         class="st31"
         d="m 259,240 v 0 c -3,1 -6,0 -8,0 -2,0 -1,-5 -2,-7 -3,-4 -3,-11 -4,-12 -0.1,-0.1 -0.2,-0.2 -0.3,-0.4 1.3,-1.4 2.6,-2 3.7,-2.2 0.9,-0.2 1.7,-0.1 2.3,0.1 0.1,0.2 0.2,0.4 0.3,0.5 1,1 2,9 2,13 0,4 3,5 4,5 1,0 5,2 2,3 z"
         id="path15499"
         style="display:inline;fill:#000080;fill-opacity:1"
         inkscape:label="laars rechts" />
      <path
         class="st34"
         d="m 259,240 v 0 c -0.4,-2.8 -2.1,-2 -3,-2 -1,0 -3,-2 -4,-3 -1,-1 0,-9 -1,-12 -0.7,-2.2 -2,-3.8 -2.6,-4.5 0.9,-0.2 1.7,-0.1 2.3,0.1 0.1,0.2 0.2,0.4 0.3,0.5 1,1 2,9 2,13 0,4 3,5 4,5 1,0 5,1.9 2,2.9 z"
         id="path10705"
         style="display:inline;fill:#00004d;fill-opacity:1"
         inkscape:label="laars rechts arcering" />
      <path
         class="st31"
         d="m 221.79721,240.38664 v 0 c 3,1 6,0 8,0 2,0 1,-5 2,-7 3,-4 3,-11 4,-12 0.1,-0.1 0.2,-0.2 0.3,-0.4 -1.3,-1.4 -2.6,-2 -3.7,-2.2 -0.9,-0.2 -1.7,-0.1 -2.3,0.1 -0.1,0.2 -1.04614,-0.0474 -1.04428,0.094 0.0149,1.13532 -0.64676,9.40597 -1.25572,13.40597 -0.60202,3.95444 -3,5 -4,5 -1,0 -5,2 -2,3 z"
         id="path10701"
         style="display:inline;fill:#000080;fill-opacity:1"
         inkscape:label="laars links"
         sodipodi:nodetypes="ssscscccssss" />
      <path
         class="st34"
         d="m 221.99035,240.20298 c 1.52474,1.25591 7.71349,0.13533 7.71349,0.13533 0.92819,0.0792 1.23301,-0.70025 1.39805,-1.66169 0.16266,-0.94759 0.0377,-2.88939 0.26272,-4.28558 0.15026,-0.93234 1.75922,-2.63975 2.5861,-5.97806 0.45026,-2.26767 0.90948,-3.19104 1.05376,-5.0413 0.22338,-1.14727 0.41442,-1.79156 1.14974,-2.33584 -1.25324,-0.54429 -3.25077,-1.62987 -3.15077,-1.52987 1,1 -1.24779,9.60896 -2.46571,13.20299 -1.28378,3.78839 -1.10322,5.12485 -2.0896,6.08259 -0.58917,0.57207 -7.41146,0.62589 -6.45778,1.41143 z"
         id="path15561"
         style="display:inline;fill:#00004d;fill-opacity:1"
         inkscape:label="laars links arcering"
         sodipodi:nodetypes="scsscccssss" />
      <g
         id="g16063">
        <path
           class="st4"
           d="m 245.3,220.8 -0.8,-0.6 c 2,-2.7 5.9,-2.6 6.1,-2.6 v 1 c -0.1,0.1 -3.6,0 -5.3,2.2 z"
           id="path10711"
           style="display:inline;fill:#000019;fill-opacity:1"
           inkscape:label="bovenkant rechts"
           transform="translate(1.3852114e-6)" />
        <path
           class="st4"
           d="m 235.18495,221.54428 0.8,-0.6 c -2,-2.7 -6.03532,-2.53234 -6.84428,-2.39701 l 0.0677,1.27065 c 0.6413,-0.57663 4.27662,-0.47364 5.97662,1.72636 z"
           id="path15615"
           style="display:inline;fill:#000019;fill-opacity:1"
           inkscape:label="bovenkant rechts"
           sodipodi:nodetypes="ccccc" />
        <path
           id="path15620"
           style="display:inline;fill:#000019;fill-opacity:1"
           class="st4"
           d="m 244.88684,201.6093 c -1.81893,0.003 -4.25211,0.74654 -6.18687,1.49068 l -7.79992,-0.40002 -0.10004,0.20008 c -0.6,1.09997 -1.00003,3.3 -1.40003,6.59997 -0.39474,3.88162 -0.5292,8.44314 -0.57539,11.14696 -0.85113,2.84565 -1.43254,8.8051 -1.43254,11.859 0,3.8 -2.89998,4.59997 -3.59998,4.59997 -0.8,0 -3.29993,0.99999 -3.49993,2.29999 -0.1,0.4 0.1,1.10007 1.29999,1.50007 1.19997,0.2 2.29998,0.29999 3.29998,0.29999 1.1,0 2.10001,-0.1 3.00001,-0.29999 0.69997,-0.1 1.4,-0.20008 2,-0.20008 1.59997,0 1.69992,-2.1 1.79992,-4 0.1,-1.2 0.20006,-2.39995 0.50006,-3.19995 1.9,-2.5 2.60005,-6.19999 3.10005,-8.89996 0.12605,-0.58837 0.23442,-1.15801 0.34002,-1.64425 0.24942,-0.49528 0.48894,-1.06061 0.71878,-1.67913 0.0137,-0.0239 0.0274,-0.0492 0.0411,-0.0767 0.0618,-0.0756 0.0838,-0.15359 0.0715,-0.23312 1.00427,-2.81668 1.81656,-6.62524 2.4365,-9.97291 0.4,0.5 1.09996,1.50004 1.89996,3.10004 1.8,3.59997 2.80002,5.60001 3.70002,6.70001 0.1,0.2 0.19998,0.30003 0.29998,0.40003 0.3,0.3 0.50006,1.6 0.80006,3 0.5,2.7 1.19993,6.39997 3.0999,8.89997 0.3,0.8 0.40007,1.99997 0.50007,3.19994 0.1,1.9 0.19992,4.00001 1.79992,4.00001 0.6,0 1.3,0.10008 2,0.20008 0.9,0.2 1.90003,0.29998 3,0.29998 1,0 2.09999,-0.1 3.29999,-0.29998 1.2,-0.4 1.39999,-1.10007 1.29999,-1.50007 -0.2,-1.3 -2.69994,-2.29999 -3.49994,-2.29999 -0.69997,0 -3.59997,-0.8 -3.59997,-4.59997 0,-3.8 -0.90004,-12.1 -2.10004,-13.3 0,0 -0.1,-0.10002 -0.19995,-0.40002 -0.1,-0.3 -0.30006,-0.90002 -0.50006,-1.70002 -0.5,-1.8 -1.09998,-4.39996 -1.59998,-6.89996 -0.6,-2.9 -1.19997,-5.60006 -1.59997,-6.80006 -0.2,-0.5 -0.5,-0.89993 -1,-1.0999 -0.425,-0.2 -0.96256,-0.28748 -1.57038,-0.29061 -0.0142,-7e-5 -0.0285,-1.5e-4 -0.0428,-1.3e-4 z m -0.277,0.78234 h 1.4e-4 c 0.5447,-0.002 0.9807,0.0678 1.29007,0.20841 0.3,0.1 0.49998,0.29997 0.59998,0.59997 0.4,1.2 0.99997,3.90002 1.59997,6.70002 0.6,2.6 1.1,5.2 1.59997,7 0.2,0.8 0.39998,1.39992 0.59998,1.79992 0.2,0.3 0.30003,0.49998 0.40003,0.59998 0.89997,0.8 1.89996,8.50002 1.89996,12.70002 0,4.49997 3.50005,5.40002 4.40002,5.40002 0.6,0 2.60002,0.89998 2.70002,1.59998 0.1,0.3 -0.49992,0.50011 -0.79992,0.60011 -2,0.69997 -4.00006,0.39994 -5.80006,0.19994 -0.7,-0.1 -1.50004,-0.19994 -2.10004,-0.19994 -0.9,0 -0.99991,-1.70013 -1.09991,-3.30013 0,-1.29997 -0.1001,-2.59993 -0.6001,-3.49993 -1.8,-2.5 -2.5,-6.10002 -3,-8.70002 -0.3,-1.9 -0.6,-3.00003 -1,-3.40003 l -0.29999,-0.29998 c -0.9,-1 -1.79998,-2.99994 -3.59998,-6.49994 L 241.29994,213.8 c -0.99997,-1.9 -1.89997,-3.20005 -2.59997,-3.80005 l -0.49993,-0.3999 -0.10004,0.70002 c -0.71073,4.15496 -1.51111,7.53049 -2.33581,9.9515 -0.007,-0.006 -0.0143,-0.0114 -0.0217,-0.017 l -0.0279,0.0778 c 0.008,0.004 0.0165,0.008 0.0246,0.0125 -0.18534,0.53942 -0.37188,1.03054 -0.55888,1.47139 l -0.0215,0.0599 h -0.004 c -0.0862,0.20102 -0.17247,0.39135 -0.25876,0.57077 l -0.39315,2.18078 c 0.0287,-0.027 0.0573,-0.055 0.0858,-0.084 -0.49978,2.59865 -1.20057,6.18788 -2.99657,8.68231 -0.5,0.9 -0.60011,2.19994 -0.60011,3.49994 -0.1,1.6 -0.1999,3.29999 -1.0999,3.29999 -0.6,0 -1.40007,0.10008 -2.10004,0.20008 -1.8,0.2 -3.79993,0.49992 -5.79993,-0.20008 -0.3,-0.1 -0.90005,-0.29998 -0.80005,-0.59998 0.1,-0.7 2.10001,-1.59997 2.70001,-1.59997 0.9,0 4.40003,-0.90006 4.40003,-5.40003 0,-2.40797 0.3288,-5.96598 0.77891,-8.71495 0.006,0.009 0.0143,0.0195 0.0255,0.0309 l 0.20417,-1.22532 c 9e-5,-0.0299 1.6e-4,-0.051 2.7e-4,-0.0829 0.11242,-0.56433 0.22951,-1.06757 0.34875,-1.48566 l -0.17616,-1.70305 c -0.0446,0.0474 -0.0887,0.1048 -0.13242,0.17113 0.008,-0.37061 0.0178,-0.76145 0.0293,-1.16757 l -0.0307,-0.29681 0.0392,0.002 c 0.076,-2.51355 0.22551,-5.57786 0.52081,-8.33396 0.3,-2.9 0.69995,-5.00004 1.19995,-6.10004 l 7.40003,0.29999 h 0.10004 c 2.51562,-0.93438 4.61791,-1.40386 6.00991,-1.40836 z" />
      </g>
    </g>
    <g
       id="g10745"
       style="display:inline"
       inkscape:label="vest"
       transform="translate(-192.67556,-56.156695)">
      <path
         class="st14"
         d="m 254.5,190.9 c -0.8,0.5 -2.4,1 -4.5,2.1 -3.3,1.7 -4.6,-3.6 -4.9,-4.3 v 0 c -0.1,-0.1 -0.1,0 -0.1,0.3 0,0.1 0,0.3 0.1,0.6 v 0 c 0.1,0.5 0.2,1.1 0.3,1.9 1,4.7 3.2,13.7 1.6,14.5 -0.4,0.2 -0.8,0.3 -1.3,0.3 -1,0 -2.1,-0.2 -3.2,-0.2 -0.9,0 -1.8,0.2 -2.5,0.9 -0.6,0.6 -1.8,1 -3.1,1.1 -2.8,0.2 -6.5,-0.7 -7.9,-2.1 -2,-2 3,-9 3,-10 0,-0.2 0,-0.9 0,-1.9 -0.1,-3 -0.4,-8.3 -2,-9.1 -2,-1 -4,6 -5,6 -1,0 -3,7 -5,9 -1.2,1.2 -2.1,1.3 -2.8,0.8 -0.4,-0.4 -0.8,-1 -1.2,-1.8 -1,-2 3,-9 3,-11 0,-2 5,-7 7,-12 2,-5 7,-4.2 7,-4.2 0.9,-0.1 1.8,-0.2 2.5,-0.3 v 0 c 5.7,-0.4 6.7,1.6 8.4,2.5 2,1 3,5 4,8 1,3 1,3 4,3 3,0 2,2 3,4 0.6,1 0.4,1.5 -0.4,1.9 z"
         id="path10717"
         style="display:inline;fill:#000080;fill-opacity:1" />
      <path
         class="st35"
         d="M 254.5,190.9 C 253,187 249.9,187 249,187 c -1,0 -3,-5 -4,-9 -0.9,-3.5 -7.8,-5.9 -9.4,-6.5 5.7,-0.4 6.7,1.6 8.4,2.5 2,1 3,5 4,8 1,3 1,3 4,3 3,0 2,2 3,4 0.5,1 0.3,1.5 -0.5,1.9 z"
         id="path10719"
         style="fill:#00004d;fill-opacity:1" />
      <path
         class="st35"
         d="m 232,194 v 0.1 c -0.1,-3 -0.4,-8.3 -2,-9.1 -2,-1 -4,6 -5,6 -1,0 -3,7 -5,9 -1.2,1.2 -2.1,1.3 -2.8,0.8 1.3,-1.4 3.1,-3.5 3.8,-4.8 1,-2 1,-6 3,-7 2,-1 4,-6 5,-6 1,0 0,-4 1,-3 1,1 3,9 2,14 z"
         id="path10721"
         style="fill:#00004d;fill-opacity:1" />
      <path
         class="st35"
         d="m 247,206 c -0.4,0.2 -0.8,0.3 -1.3,0.3 0.7,-4 -0.8,-12.6 -1.7,-14.3 -1,-2 -1,-9 -1,-12 0,-3 1,-1 2,1 1,1.9 0.1,7.4 0.1,7.7 v 0 0.8 0 l -0.1,1.5 0.4,0.5 c 1,4.6 3.2,13.7 1.6,14.5 z"
         id="path10723"
         style="fill:#00004d;fill-opacity:1" />
      <path
         class="st35"
         d="m 242.5,206.1 c -0.9,0 -1.8,0.2 -2.5,0.9 -0.6,0.6 -1.8,1 -3.1,1.1 1.2,-2.7 3.1,-7.6 3.1,-11.1 0,-4.3 3,4.1 2.5,9.1 z"
         id="path10725"
         style="fill:#00004d;fill-opacity:1" />
      <g
         id="g10737">
        <path
           class="st4"
           d="m 236.1,208.5 c -2.6,0 -6,-0.8 -7.4,-2.2 -1.6,-1.6 0.4,-5.5 1.9,-8.3 0.4,-0.8 0.9,-1.8 0.9,-2 0,-0.2 0,-0.9 0,-1.9 -0.2,-5 -0.8,-8.3 -1.8,-8.8 -0.9,-0.4 -2.1,2 -2.9,3.6 -0.9,1.7 -1.3,2.5 -1.9,2.5 -0.3,0.2 -1.1,2 -1.7,3.3 -0.9,2.1 -2,4.5 -3,5.5 -0.5,0.5 -1.9,1.9 -3.3,0.8 -0.4,-0.4 -0.9,-1 -1.3,-1.9 -0.7,-1.4 0.5,-4.3 1.6,-7.1 0.7,-1.7 1.3,-3.3 1.3,-4 0,-1.1 1.2,-2.8 2.7,-5 1.5,-2.2 3.3,-4.7 4.3,-7.2 2,-4.9 6.7,-4.5 7.3,-4.4 0.9,-0.1 1.7,-0.2 2.5,-0.3 4.6,-0.3 6.2,0.9 7.6,1.8 0.4,0.3 0.7,0.5 1.1,0.7 1.9,0.9 2.9,4.1 3.8,6.9 0.1,0.4 0.3,0.9 0.4,1.3 0.9,2.7 0.9,2.7 3.6,2.7 2.4,0 2.6,1.3 2.8,2.5 0.1,0.6 0.2,1.1 0.5,1.7 0.5,1.1 0.3,1.8 -0.7,2.4 -0.5,0.3 -1.1,0.5 -1.8,0.9 -0.7,0.3 -1.6,0.7 -2.7,1.2 -0.8,0.4 -1.6,0.5 -2.3,0.2 -0.9,-0.4 -1.6,-1.2 -2,-2.1 v 0 c 0.1,0.6 0.3,1.2 0.4,1.9 1.5,6.9 2.5,12.2 1,13 -0.4,0.2 -0.9,0.3 -1.5,0.3 -0.6,0 -1.1,0 -1.7,-0.1 -0.5,-0.1 -1,-0.1 -1.5,-0.1 -1,0 -1.7,0.3 -2.2,0.8 -0.8,0.8 -2.3,1.1 -3.3,1.2 -0.1,0.2 -0.4,0.2 -0.7,0.2 z m -6.5,-24 c 0.2,0 0.4,0 0.6,0.1 1.3,0.6 2,3.8 2.2,9.4 0,1 0,1.7 0,1.9 0,0.4 -0.3,1 -1,2.3 -1.2,2.3 -3.3,6.2 -2.1,7.4 1.2,1.2 4.8,2.1 7.6,1.9 1.3,-0.1 2.3,-0.4 2.9,-0.9 0.7,-0.7 1.6,-1 2.8,-1 0.5,0 1.1,0.1 1.6,0.1 0.6,0.1 1.1,0.1 1.6,0.1 0.5,0 0.9,-0.1 1.2,-0.3 1.1,-0.6 -0.6,-8.4 -1.4,-12.2 -0.1,-0.7 -0.3,-1.3 -0.4,-1.9 -0.2,-0.8 -0.3,-1.4 -0.4,-1.9 0,-0.3 -0.1,-0.5 -0.1,-0.7 0,-0.3 0,-0.6 0.3,-0.7 l 0.3,-0.1 0.2,0.4 c 0,0.1 0.1,0.3 0.2,0.4 0.3,0.9 1.1,3.2 2.5,3.7 0.5,0.2 1.1,0.2 1.7,-0.2 1,-0.5 2,-0.9 2.7,-1.2 0.7,-0.3 1.3,-0.6 1.7,-0.8 v 0 c 0.6,-0.4 0.8,-0.6 0.4,-1.4 -0.3,-0.7 -0.5,-1.3 -0.6,-1.9 -0.2,-1.2 -0.3,-1.9 -2.1,-1.9 -3.2,0 -3.3,-0.1 -4.4,-3.3 -0.1,-0.4 -0.3,-0.9 -0.4,-1.3 -0.8,-2.7 -1.8,-5.7 -3.4,-6.5 -0.4,-0.2 -0.8,-0.5 -1.2,-0.7 -1.3,-0.9 -2.8,-2 -7.1,-1.7 -0.8,0.1 -1.6,0.1 -2.5,0.3 h -0.1 -0.1 c -0.2,0 -4.7,-0.7 -6.6,4 -1,2.6 -2.9,5.2 -4.4,7.3 -1.3,1.9 -2.6,3.7 -2.6,4.5 0,0.9 -0.6,2.5 -1.4,4.3 -1,2.4 -2.2,5.5 -1.7,6.5 0.4,0.8 0.8,1.3 1.1,1.6 0.3,0.2 0.8,0.7 2.3,-0.7 1,-1 2,-3.3 2.9,-5.3 1.2,-2.6 1.7,-3.8 2.4,-3.8 0.2,-0.1 0.8,-1.2 1.2,-2.1 1.2,-1.6 2.3,-3.7 3.6,-3.7 z"
           id="path10727"
           style="display:inline;fill:#000019;fill-opacity:1"
           transform="translate(1.3852114e-6)" />
        <path
           class="st4"
           d="m 239.3,194.1 c -4,0 -7.3,-0.8 -7.5,-0.8 l 0.2,-1 c 0.1,0 7.4,1.8 13.5,0 l 0.3,1 c -2.1,0.6 -4.4,0.8 -6.5,0.8 z"
           id="path10731"
           style="display:inline;fill:#000019;fill-opacity:1"
           transform="translate(1.3852114e-6)" />
        <path
           class="st4"
           d="m 241.6,206.4 -1,-0.2 c 3,-18.3 -4.2,-34.4 -4.3,-34.5 l 0.9,-0.4 c 0.1,0.1 7.5,16.4 4.4,35.1 z"
           id="path10735"
           style="fill:#000019;fill-opacity:1" />
      </g>
      <path
         class="st18"
         d="m 226.8,174.8 c 0,0 14.8,10.3 18.5,17.3 0,0 0.2,-0.1 0.5,-1.6 0.2,-1.5 -15,-15.3 -18.4,-16.9 0,0 -0.8,-0.1 -0.6,1.2 z"
         id="path10739"
         style="display:inline;fill:#0000b2;fill-opacity:1" />
      <g
         id="g10743">
        <path
           class="st4"
           d="m 245.1,192.5 -0.2,-0.3 c -3.6,-6.8 -18.2,-17 -18.4,-17.1 l -0.1,-0.1 v -0.2 c -0.1,-0.6 0,-1 0.2,-1.3 0.3,-0.3 0.7,-0.3 0.7,-0.3 h 0.1 c 2.8,1.3 18.9,15.3 18.6,17.3 -0.2,1.5 -0.5,1.8 -0.7,1.8 z m -18,-18 c 1.5,1.1 14,10 18.1,16.6 0,-0.2 0.1,-0.4 0.2,-0.8 -0.2,-1.3 -14.3,-14.6 -18.1,-16.4 0,0 -0.1,0 -0.1,0.1 0,0.1 -0.1,0.2 -0.1,0.5 z"
           id="path10741"
           style="fill:#000019;fill-opacity:1" />
      </g>
    </g>
    <g
       id="g16188"
       style="display:inline"
       transform="translate(-192.67556,-56.156695)"
       inkscape:label="hoed">
      <path
         class="st5"
         d="m 239.6,155.9 -7.9,2.7 c 0,0 -0.3,-0.7 -0.5,-1.6 -0.4,-1.6 -0.6,-3.7 0.7,-4.2 0.5,-0.2 1,-0.4 1.6,-0.7 2,-0.7 4.4,-1.1 6.1,3.8 z"
         id="path10747"
         style="fill:#000080;fill-opacity:1" />
      <path
         class="st36"
         d="m 239.6,155.9 -7.9,2.7 c 0,0 -0.3,-0.7 -0.5,-1.6 2.1,-1 4.8,-2.4 4.8,-3 0,-0.7 -1.6,-1.5 -2.5,-1.8 2,-0.8 4.4,-1.2 6.1,3.7 z"
         id="path10749"
         style="fill:#00004d;fill-opacity:1" />
      <g
         id="g10753">
        <path
           class="st4"
           d="m 231.4,159.1 -0.1,-0.4 c 0,0 -0.3,-0.7 -0.5,-1.7 -0.6,-2.6 -0.3,-4.2 0.9,-4.6 0.2,-0.1 0.5,-0.2 0.8,-0.3 0.3,-0.1 0.5,-0.2 0.8,-0.3 1,-0.4 2.3,-0.8 3.6,-0.2 1.2,0.6 2.2,1.9 3,4.1 l 0.1,0.4 z m 4.1,-7 c -0.7,0 -1.3,0.2 -1.9,0.4 -0.3,0.1 -0.6,0.2 -0.8,0.3 -0.3,0.1 -0.6,0.3 -0.8,0.3 -1.1,0.4 -0.6,2.7 -0.4,3.7 0.1,0.5 0.2,1 0.3,1.2 l 7.2,-2.5 c -0.7,-1.8 -1.5,-2.9 -2.5,-3.3 -0.3,0 -0.7,-0.1 -1.1,-0.1 z"
           id="path10751"
           style="fill:#000019;fill-opacity:1" />
      </g>
      <ellipse
         transform="matrix(0.9452,-0.3264,0.3264,0.9452,-38.7164,85.4607)"
         class="st5"
         cx="235.3"
         cy="158.10001"
         rx="11"
         ry="2"
         id="ellipse10755"
         style="fill:#000080;fill-opacity:1" />
      <g
         id="g10759">
        <path
           class="st4"
           d="m 226.4,162.5 c -1.4,0 -1.8,-0.4 -1.9,-0.7 -0.2,-0.5 -0.1,-1.3 2.8,-2.9 1.9,-1.1 4.4,-2.2 7.2,-3.1 2.8,-0.9 5.5,-1.7 7.6,-2 3.2,-0.5 3.8,0.1 3.9,0.5 0.6,1.8 -6.3,4.7 -10,6 -2.8,1 -5.5,1.7 -7.6,2 -0.8,0.2 -1.4,0.2 -2,0.2 z m 17.8,-8.1 c -0.5,0 -1.1,0 -1.9,0.2 -2.1,0.3 -4.7,1 -7.5,2 -2.8,1 -5.3,2 -7.1,3.1 -2.4,1.4 -2.4,2 -2.4,2 0,0 0.3,0.5 3.1,0.1 2.1,-0.3 4.7,-1 7.5,-2 6.5,-2.2 9.7,-4.5 9.5,-5 0,-0.2 -0.2,-0.4 -1.2,-0.4 z"
           id="path10757"
           style="fill:#000019;fill-opacity:1" />
      </g>
    </g>
    <g
       id="g10779"
       style="display:inline"
       inkscape:label="hoofd"
       transform="translate(-192.67556,-56.156695)">
      <path
         class="st4"
         d="m 232,160 c 0,0 5,-3 8,-3 3,0 1,12 0,13 -1,1 -6,-3 -7,-4 -1,-1 -4,-3 -1,-6 z"
         id="path10761"
         style="display:inline;fill:#00001a;fill-opacity:1"
         inkscape:label="baard" />
      <path
         class="st29"
         d="m 240.9,161.7 c 0,0 -2,0.1 -1.1,-0.9 1,-0.1 1,-0.1 0.9,-1.1 -0.1,-1 -1,-1.3 -1,-1.3 0,0 -4.5,1.2 -4.7,1.9 -0.2,0.8 0,3.8 -1.1,2.8 -1.1,-0.9 -2,0.1 -0.9,1.1 1.1,0.9 2.1,0.9 3.1,1.8 1,0.9 2.9,-1.2 3.9,-1.3 1.1,0 0.9,-3 0.9,-3 z m -4.9,1.1 c -1,-0.9 0,-1.8 1,-1.8 1,0 1,0.9 1,0.9 -1,0 -1,1.7 -2,0.9 z"
         id="path10763"
         style="display:inline;fill:#0000e5;fill-opacity:1" />
      <path
         class="st29"
         d="m 238,169 v 2 c -0.5,0.3 -1.1,0.4 -1.7,0.4 -1.7,0.1 -3.3,-0.4 -3.3,-0.4 0.4,-0.8 0.5,-1.9 0.4,-2.9 -0.1,-1.6 -0.4,-3.1 -0.4,-3.1 z"
         id="path10765"
         style="display:inline;fill:#0000e5;fill-opacity:1" />
      <path
         class="st30"
         d="m 238,169 v 2 c -0.5,0.3 -1.1,0.4 -1.7,0.4 0.8,-2 -1.8,-3 -2.9,-3.3 -0.1,-1.6 -0.4,-3.1 -0.4,-3.1 z"
         id="path10767"
         style="fill:#0000b2;fill-opacity:1" />
      <g
         id="g10771">
        <path
           class="st4"
           d="m 235.8,171.8 c -1.5,0 -2.8,-0.4 -2.9,-0.5 l -0.4,-0.1 0.2,-0.4 c 0.4,-0.8 0.4,-1.9 0.4,-2.7 -0.1,-1.6 -0.4,-3 -0.4,-3 l -0.3,-1.1 6,4.8 v 2.4 l -0.2,0.1 c -0.5,0.3 -1.1,0.4 -1.8,0.5 -0.3,0 -0.4,0 -0.6,0 z m -2.3,-1 c 0.6,0.1 1.7,0.4 2.8,0.3 0.5,0 1,-0.1 1.4,-0.3 v -1.6 l -4.1,-3.2 c 0.1,0.6 0.2,1.4 0.2,2.2 0,0.7 0,1.7 -0.3,2.6 z"
           id="path10769"
           style="fill:#000019;fill-opacity:1" />
      </g>
      <path
         class="st18"
         d="m 232,170 c 0,0 4,-1 7,1 v 1 c 0,0 -5,1 -7,0 z"
         id="path10773"
         style="fill:#000080;fill-opacity:1" />
      <g
         id="g10777">
        <path
           class="st4"
           d="m 234.7,172.8 c -1.1,0 -2.2,-0.1 -2.9,-0.5 l -0.2,-0.1 v -2.5 l 0.3,-0.1 c 0.2,0 4.2,-1 7.3,1.1 l 0.2,0.1 v 1.5 l -0.3,0.1 c -0.2,0 -2.3,0.4 -4.4,0.4 z m -2.3,-1 c 1.7,0.7 5.2,0.1 6.3,-0.1 v -0.5 c -2.4,-1.5 -5.3,-1.1 -6.3,-0.9 z"
           id="path10775"
           style="fill:#000019;fill-opacity:1" />
      </g>
    </g>
  </g>
</svg>
