<?xml version="1.0" encoding="UTF-8" standalone="no"?>
<!-- Created with Inkscape (http://www.inkscape.org/) -->

<svg
   width="768"
   height="512"
   viewBox="0 0 203.2 135.46667"
   version="1.1"
   id="SVGRoot"
   inkscape:version="1.2.1 (9c6d41e410, 2022-07-14)"
   sodipodi:docname="boer_lion.svg"
   inkscape:export-filename="boer_lion.png"
   inkscape:export-xdpi="96"
   inkscape:export-ydpi="96"
   xmlns:inkscape="http://www.inkscape.org/namespaces/inkscape"
   xmlns:sodipodi="http://sodipodi.sourceforge.net/DTD/sodipodi-0.dtd"
   xmlns="http://www.w3.org/2000/svg"
   xmlns:svg="http://www.w3.org/2000/svg"
   xmlns:rdf="http://www.w3.org/1999/02/22-rdf-syntax-ns#"
   xmlns:cc="http://creativecommons.org/ns#"
   xmlns:dc="http://purl.org/dc/elements/1.1/">
  <sodipodi:namedview
     id="base"
     pagecolor="#ffffff"
     bordercolor="#666666"
     borderopacity="1.0"
     inkscape:pageopacity="0.0"
     inkscape:pageshadow="2"
     inkscape:zoom="0.3"
     inkscape:cx="1655"
     inkscape:cy="893.33333"
     inkscape:document-units="mm"
     inkscape:current-layer="g11050"
     showgrid="false"
     inkscape:window-width="853"
     inkscape:window-height="623"
     inkscape:window-x="-8"
     inkscape:window-y="-8"
     inkscape:window-maximized="1"
     inkscape:showpageshadow="0"
     inkscape:pagecheckerboard="true"
     inkscape:deskcolor="#d1d1d1" />
  <defs
     id="defs10953" />
  <metadata
     id="metadata10956">
    <rdf:RDF>
      <cc:Work
         rdf:about="">
        <dc:format>image/svg+xml</dc:format>
        <dc:type
           rdf:resource="http://purl.org/dc/dcmitype/StillImage" />
      </cc:Work>
    </rdf:RDF>
  </metadata>
  <g
     id="g11050"
     inkscape:label="boer_lion"
     style="display:inline"
     transform="matrix(1.1287694,0,0,1.1287694,7.8157354,-112.20536)">
    <g
       id="g10599"
       inkscape:label="lijf"
       style="display:inline"
       transform="translate(-92.396323,-49.198042)">
      <path
         class="st19"
         d="m 214.63537,236.76661 c 0,1 -1,2 -2,2 -0.1,0 -0.5,0 -1.2,-0.1 -4.2,-0.4 -18,-1.8 -18.8,-0.9 -1,1 -10,-2 -11,-7 -1,-5 0,-9 2,-10 2,-1 4,-10 8,-11 0,0 1,-1 2.4,-1.9 1.6,-1 3.5,-1.7 4.6,-0.1 2,3 2,9 1,13 -1,4 -5,9 -3,11 0.4,0.4 1.1,0.7 1.9,0.8 2.9,0.5 7.3,-0.6 8.1,0.2 0,0 1.6,-1.2 3.3,-1.6 1,-0.2 2,-0.2 2.7,0.6 2,2 3,0 4,3 1,3 -2,1 -2,2 z"
         id="path19213"
         style="display:inline;fill:#00001a;fill-opacity:1"
         inkscape:label="linkervoorpoot" />
      <path
         class="st19"
         d="m 195,213 c 0,11 -19,25 -19,25 l -23,-2 c 0,0 -9,-2 -7,-10 0.1,-0.4 0.2,-0.7 0.3,-1.1 0.1,-0.4 0.2,-0.7 0.3,-1.1 0.1,-0.3 0.2,-0.6 0.3,-0.9 0.2,-0.4 0.3,-0.8 0.5,-1.2 v -0.1 c 0.2,-0.4 0.4,-0.9 0.6,-1.3 0.2,-0.4 0.4,-0.8 0.7,-1.2 0.2,-0.4 0.5,-0.8 0.7,-1.1 v 0 c 1.1,-1.7 2.4,-3.1 3.6,-4.1 v 0 c 1,-0.9 2,-1.5 2.8,-1.8 0.4,-0.1 0.7,-0.2 1,-0.2 3,0 12.8,-3.9 14,-5.9 v -0.1 c 0.7,-1.4 1.9,-4.3 2.5,-5.9 0.3,-0.7 0.5,-1.1 0.5,-1.1 z"
         id="path10589"
         style="display:inline;fill:#000080;fill-opacity:1"
         inkscape:label="lijf licht" />
      <path
         class="st27"
         d="m 195,213 c 0,11 -19,25 -19,25 l -23,-2 c 0,0 -9,-2 -7,-10 0.3,-1 0.6,-2 1,-3 4.8,-0.8 10.6,-1.6 10,-1 -1,1 -1,3 2,3 3,0 5,3 7,4 2,1 6,-4 8,-4 2,0 2,-5 2,-7 0,-2 7,-2 7,-4 0,-2 -6,0 -7,0 -1,0 -3,-2 -2,-5 0.7,-2.2 -1.6,-2.8 -3,-2.9 V 206 c 0.7,-1.4 1.9,-4.3 2.5,-5.9 0.3,-0.7 0.5,-1.1 0.5,-1.1 z"
         id="path10591"
         style="display:inline;fill:#00004d;fill-opacity:1"
         inkscape:label="lijf midden" />
      <path
         class="st28"
         d="m 208.647,239.26422 c 0,1 -1,2 -2,2 -1,0 -19,-2 -20,-1 -1,1 -9.99999,-2 -11,-7 -0.37259,-1.86296 -15.48897,3.20404 -21.73127,-1.98782 -3.76546,-3.13182 -1.00661,-16.86174 0.82603,-18.64068 0.65545,-0.63624 1.89929,-0.73359 3.02829,-0.61618 2.58486,0.26882 12.72314,-4.32705 13.29374,-5.80692 0.7741,-2.00767 2.05741,-5.25144 2.92769,-6.79105 0,0 14.0585,11.30304 15.4585,10.40304 1.6,-1 2.09702,-1.16039 3.19702,0.43961 2,3 2,9 1,13 -1,4 -5,9 -3,11 0.4,0.4 1.1,0.7 1.9,0.8 2.9,0.5 7.3,-0.6 8.1,0.2 0,0 4,-3 6,-1 2,2 3,0 4,3 1,3 -2,1 -2,2 z"
         id="path10641-7"
         style="display:inline;fill:none;stroke:#00001a;stroke-width:0.75;stroke-miterlimit:10;stroke-opacity:1"
         inkscape:label="rechtervoorpoot omranding"
         sodipodi:nodetypes="sssssssscccssccsss" />
      <path
         id="path10593"
         style="display:inline;fill:#00001a;fill-opacity:1"
         class="st4"
         inkscape:label="lijf donker"
         d="m 173.79997,198.89995 c 0,0 -0.19998,0.40008 -0.49998,1.10008 L 178.79998,210.9 c 0,0 3e-5,1.99996 2.00003,0.99996 1.99999,-1 4.00001,-1.99996 5.00001,-0.99996 0.19696,0.19696 0.39381,0.4717 0.56785,0.79328 0.42813,-0.37025 1.06035,-0.87863 1.80895,-1.35987 0.51537,-0.32211 1.06183,-0.61249 1.6027,-0.80551 z m -18.00002,13.20004 c -0.8,0.3 -1.79995,0.89999 -2.79995,1.79999 -1.1,1.1 -2.29998,2.60007 -3.59998,4.10007 -0.2,0.3 -0.50002,0.69998 -0.70002,1.09998 -0.3,0.4 -0.50001,0.79999 -0.70001,1.19999 -0.2,0.4 -0.4,0.90001 -0.6,1.30001 v 0.10002 c -0.2,0.4 -0.29998,0.8 -0.49998,1.2 l -0.30005,0.89994 c -0.1,0.4 -0.19994,0.69998 -0.29994,1.09998 -0.1,0.4 -0.20006,0.70008 -0.30005,1.10008 -2,7.99999 7.00003,9.99991 7.00003,9.99991 l 23.00003,2.00003 c 0,0 0.68746,-0.50687 1.79925,-1.40161 -1.01111,-0.97359 -1.77062,-2.10571 -2.02247,-3.36496 -0.2447,-1.22351 -0.36938,-2.38694 -0.38921,-3.46139 -3.61593,1.63084 -11.7351,2.83303 -12.58761,1.12801 -1,-2 -0.99995,-4.00005 -3.99995,-4.00005 -2.99999,0 -5.00005,-3e-5 -4.00005,-2.00002 1,-2 5.99997,-0.99999 5.99997,-2.99999 0,-2 5.00008,-0.99999 6.00008,-2.99999 1,-1.99999 -2.00005,0 -4.00005,0 -1.9,0 -7.80004,-2.9 -7.00004,-6.8 z m 37.86695,0.0134 c 0.43878,1.3087 0.6747,2.85158 0.74439,4.44291 0.37725,-1.20546 0.58872,-2.3975 0.58872,-3.55625 z M 181.42498,216.15 c -1.625,0 -3.12496,0.25004 -3.62496,1.75003 -0.68702,2.06106 -0.43012,4.59404 -0.85051,5.97774 0.25118,-0.27737 0.52789,-0.4947 0.82722,-0.64437 1.21297,-0.60648 2.42619,-4.15532 4.08531,-7.07771 -0.14621,-0.003 -0.29221,-0.006 -0.43706,-0.006 z m -10.24811,0.54878 c -0.85392,0.005 0.62318,2.3418 0.62318,3.20117 0,1 -8e-5,6.00008 1.99992,6.00008 0.62479,0 1.34717,0.0976 1.98422,0.29278 0.14649,-0.53026 0.33073,-1.00558 0.54856,-1.41742 -0.14885,0.0811 -0.32449,0.12458 -0.53275,0.12458 -2,0 -1.99995,-7 -3.99995,-8 -0.28125,-0.14063 -0.48345,-0.20209 -0.62318,-0.20119 z" />
      <path
         class="st4"
         d="M 176.1,238.4 H 176 l -23,-2 c -0.2,0 -4.5,-1 -6.6,-4.4 -1.1,-1.7 -1.3,-3.8 -0.8,-6.1 0.1,-0.4 0.2,-0.8 0.3,-1.1 0.1,-0.4 0.2,-0.7 0.4,-1.1 0.1,-0.3 0.2,-0.6 0.3,-0.9 0.2,-0.4 0.3,-0.8 0.5,-1.2 v -0.1 c 0.2,-0.4 0.4,-0.9 0.6,-1.3 0.2,-0.4 0.4,-0.8 0.7,-1.2 0.2,-0.4 0.5,-0.8 0.7,-1.1 v 0 0 c 1.1,-1.6 2.3,-3.1 3.6,-4.2 1.1,-0.9 2.1,-1.5 3,-1.8 0.4,-0.1 0.8,-0.2 1.2,-0.2 2.8,0 12.5,-3.9 13.6,-5.7 l 0.1,-0.1 c 0.7,-1.4 1.9,-4.2 2.5,-5.8 l 0.6,-1.5 21.5,14.4 v 0.2 c 0,11.1 -18.4,24.7 -19.1,25.2 z m -26.2,-20.2 v 0 l -0.1,0.2 c -0.2,0.3 -0.4,0.7 -0.7,1.1 -0.2,0.4 -0.5,0.8 -0.7,1.2 -0.2,0.4 -0.4,0.8 -0.6,1.3 -0.2,0.5 -0.4,0.8 -0.5,1.2 -0.1,0.3 -0.2,0.6 -0.3,0.9 -0.1,0.4 -0.2,0.7 -0.3,1.1 -0.1,0.4 -0.2,0.7 -0.3,1.1 -0.5,2.1 -0.3,4 0.7,5.5 1.9,3.1 6,4 6.1,4 l 22.8,2 c 1.6,-1.2 18.5,-14.2 18.7,-24.4 l -20.4,-13.6 -0.3,0.7 c -0.7,1.6 -1.9,4.5 -2.6,5.9 l -0.1,0.1 v 0 c -1.2,2.1 -11.2,6.1 -14.3,6.1 -0.3,0 -0.6,0.1 -0.9,0.2 -0.8,0.3 -1.7,0.9 -2.7,1.7 -1.2,0.8 -2.4,2.1 -3.5,3.7 z"
         id="path10595"
         style="display:inline;fill:#00001a;fill-opacity:1"
         inkscape:label="lijf omranding" />
      <path
         class="st19"
         d="m 208.77678,239.23339 c 0,1 -1,2 -2,2 -0.1,0 -0.5,0 -1.2,-0.1 -4.2,-0.4 -18,-1.8 -18.8,-0.9 -1,1 -10,-2 -11,-7 -1,-5 0,-9 2,-10 2,-1 4,-10 8,-11 0,0 1,-1 2.4,-1.9 1.6,-1 3.5,-1.7 4.6,-0.1 2,3 2,9 1,13 -1,4 -5,9 -3,11 0.4,0.4 1.1,0.7 1.9,0.8 2.9,0.5 7.3,-0.6 8.1,0.2 0,0 1.6,-1.2 3.3,-1.6 1,-0.2 2,-0.2 2.7,0.6 2,2 3,0 4,3 1,3 -2,1 -2,2 z"
         id="path19210"
         style="display:inline;fill:#00004d;fill-opacity:1"
         inkscape:label="rechtervoorpoot" />
    </g>
    <g
       id="g10647"
       style="display:inline"
       inkscape:label="achterlijf"
       transform="translate(-92.396323,-49.198042)">
      <path
         class="st19"
         d="m 169,238 c 0,1 -1,2 -2,2 -0.1,0 -0.5,0 -1.2,-0.1 -4.2,-0.4 -18,-1.8 -18.8,-0.9 -1,1 -10,-2 -11,-7 -1,-5 0,-9 2,-10 2,-1 4,-10 8,-11 0,0 1,-1 2.4,-1.9 1.6,-1 3.5,-1.7 4.6,-0.1 2,3 2,9 1,13 -1,4 -5,9 -3,11 0.4,0.4 1.1,0.7 1.9,0.8 2.9,0.5 7.3,-0.6 8.1,0.2 0,0 1.6,-1.2 3.3,-1.6 1,-0.2 2,-0.2 2.7,0.6 2,2 3,0 4,3 1,3 -2,1 -2,2 z"
         id="path10631"
         style="display:inline;fill:#000080;fill-opacity:1" />
      <path
         class="st27"
         d="m 154,222 c -1,4 -5,9 -3,11 0.4,0.4 1.1,0.7 1.9,0.8 -2.1,0.2 -4,0.1 -4.9,-0.8 -2,-2 4,-13 3,-15 -1,-2 -3,4 -2.8,1.6 0.2,-2.4 3.8,-5.6 3.8,-7.6 0,-1.6 -2.6,-2.6 -3.6,-2.9 1.6,-1 3.5,-1.7 4.6,-0.1 2,3 2,9 1,13 z"
         id="path10633"
         style="display:inline;fill:#00004d;fill-opacity:1" />
      <path
         class="st27"
         d="m 169,238 c 0,1 -1,2 -2,2 -0.1,0 -0.5,0 -1.2,-0.1 0.3,-1.3 2.2,-2.3 2.2,-3.9 0,-2 0,-1 -1.4,-2.2 -0.7,-0.6 -1.6,-1 -2.3,-1.3 1,-0.2 2,-0.2 2.7,0.6 2,2 3,0 4,3 1,3 -2,0.9 -2,1.9 z"
         id="path10639"
         style="display:inline;fill:#00004d;fill-opacity:1" />
      <path
         class="st4"
         d="m 140.5,224.5 c 0.3,0.2 0.5,0.5 0.7,0.8 0.2,0.3 0.3,0.7 0.4,1 0.1,0.4 0.1,0.7 0.1,1.1 0,0.4 0,0.7 -0.1,1.1 -0.2,-0.7 -0.3,-1.4 -0.4,-2 -0.1,-0.3 -0.1,-0.7 -0.2,-1 -0.3,-0.3 -0.4,-0.7 -0.5,-1 z"
         id="path10635"
         style="fill:#00001a;fill-opacity:1" />
      <path
         class="st4"
         d="m 147.5,214.5 c -0.7,1.3 -1.3,2.6 -1.8,3.9 -0.3,0.7 -0.5,1.3 -0.7,2 -0.2,0.7 -0.3,1.4 -0.4,2.1 -0.2,-1.5 0.1,-2.9 0.7,-4.3 0.3,-0.7 0.6,-1.3 1,-2 0.3,-0.6 0.7,-1.2 1.2,-1.7 z"
         id="path10637"
         style="fill:#00001a;fill-opacity:1" />
      <path
         class="st4"
         d="m 168.7,237.9 c -0.1,-0.3 -0.3,-0.6 -0.6,-0.8 -0.3,-0.2 -0.7,-0.4 -1.1,-0.5 -0.4,-0.1 -0.8,-0.1 -1.2,-0.1 -0.4,0 -0.8,0.1 -1.3,0.2 l -0.1,-0.3 c 0.4,-0.1 0.9,-0.2 1.3,-0.3 0.4,-0.1 0.9,-0.1 1.4,0 0.5,0.1 0.9,0.2 1.4,0.5 0.4,0.3 0.8,0.6 1,1.2 z"
         id="path10643"
         style="display:inline;fill:#00001a;fill-opacity:1" />
      <path
         class="st4"
         d="m 167.9,234.1 c -0.6,-0.2 -1.3,-0.4 -1.9,-0.4 -0.7,0 -1.3,0.2 -1.9,0.6 l -0.2,-0.2 c 0.6,-0.5 1.3,-0.8 2,-0.8 0.7,-0.1 1.5,0 2.2,0.2 z"
         id="path10645"
         style="display:inline;fill:#00001a;fill-opacity:1" />
      <path
         class="st28"
         d="m 169,238 c 0,1 -1,2 -2,2 -1,0 -19,-2 -20,-1 -1,1 -10,-2 -11,-7 -1,-5 0,-9 2,-10 2,-1 4,-10 8,-11 0,0 1,-1 2.4,-1.9 1.6,-1 3.5,-1.7 4.6,-0.1 2,3 2,9 1,13 -1,4 -5,9 -3,11 0.4,0.4 1.1,0.7 1.9,0.8 2.9,0.5 7.3,-0.6 8.1,0.2 0,0 4,-3 6,-1 2,2 3,0 4,3 1,3 -2,1 -2,2 z"
         id="path10641"
         style="display:inline;fill:none;stroke:#00001a;stroke-width:0.75;stroke-miterlimit:10;stroke-opacity:1" />
    </g>
    <g
       id="g10661"
       style="display:inline"
       inkscape:label="staart"
       transform="translate(-92.396323,-49.198042)">
      <path
         class="st19"
         d="m 167,243 c -3,2 -4,0 -7,0 -0.8,0 -1.5,0 -2.3,0 -2.2,-0.1 -4.5,-0.5 -6.7,-2 -3,-2 -12,0 -15,-4 -3,-4 -0.3,-6.6 -0.3,-6.6 l 0.7,2.8 c 1.4,2.2 5.6,5.8 8.6,4.8 3,-1 7,1 8,0 1,-1 6,0 9,0 3,0 1,2 4.5,1 1.2,-0.3 2.3,-0.4 3.3,-0.4 2,0.1 3.6,0.7 4.2,1.4 1,1 -4,1 -7,3 z"
         id="path10649"
         style="display:inline;fill:#000080;fill-opacity:1" />
      <path
         class="st27"
         d="m 167,243 c -3,2 -4,0 -7,0 -0.8,0 -1.5,0 -2.3,0 1.4,-0.8 3.5,-1.6 5.3,-1 3,1 3,-1 5,-2 1,-0.5 1.5,-1 1.8,-1.4 2,0.1 3.6,0.7 4.2,1.4 1,1 -4,1 -7,3 z"
         id="path10651"
         style="fill:#00004d;fill-opacity:1" />
      <path
         class="st4"
         d="m 164.5,244.3 c -0.7,0 -1.3,-0.2 -2,-0.4 -0.7,-0.2 -1.5,-0.5 -2.6,-0.5 -3,0 -6.1,0 -9.2,-2.1 -1.1,-0.8 -3.3,-0.9 -5.7,-1.1 -3.5,-0.2 -7.5,-0.5 -9.4,-3 -3.2,-4.2 -0.2,-7.1 -0.2,-7.1 l 0.5,-0.4 0.8,3.4 c 1.3,2.1 5.4,5.5 8.1,4.6 1.7,-0.6 3.6,-0.2 5.2,0 1.1,0.2 2.3,0.4 2.6,0.1 0.7,-0.7 2.7,-0.6 5.9,-0.3 1.2,0.1 2.4,0.2 3.4,0.2 1.5,0 2,0.5 2.3,0.9 0.3,0.3 0.5,0.6 2.1,0.1 3.6,-1 6.8,0 7.9,1.1 0.3,0.3 0.3,0.5 0.2,0.7 -0.1,0.5 -0.9,0.7 -2.4,1.1 -1.5,0.4 -3.4,0.9 -4.9,1.8 -1,0.6 -1.8,0.9 -2.6,0.9 z m -28.9,-13.1 c -0.6,0.9 -1.3,2.9 0.7,5.5 1.7,2.2 5.5,2.5 8.9,2.7 2.4,0.2 4.7,0.3 6,1.2 2.9,1.9 5.8,1.9 8.8,1.9 1.1,0 2,0.3 2.8,0.5 1.3,0.4 2.3,0.7 4,-0.5 1.6,-1 3.6,-1.6 5.1,-1.9 0.7,-0.2 1.5,-0.4 1.8,-0.5 -1,-0.9 -3.9,-1.8 -7.1,-0.9 -2,0.6 -2.4,0.2 -2.9,-0.4 -0.3,-0.3 -0.5,-0.6 -1.7,-0.6 -1,0 -2.3,-0.1 -3.5,-0.2 -2.1,-0.2 -4.7,-0.4 -5.3,0.1 -0.6,0.6 -1.8,0.4 -3.3,0.2 -1.5,-0.3 -3.3,-0.6 -4.9,-0.1 -3.2,1.1 -7.5,-2.6 -9,-4.9 v -0.1 z"
         id="path10653"
         style="fill:#00001a;fill-opacity:1" />
      <path
         class="st4"
         d="m 166,240 c -0.1,0.4 -0.3,0.8 -0.6,1 -0.3,0.3 -0.7,0.5 -1.1,0.5 -0.4,0.1 -0.8,0.1 -1.2,0 -0.2,0 -0.4,-0.1 -0.6,-0.2 -0.2,-0.1 -0.3,-0.2 -0.5,-0.3 0.4,0 0.8,0 1.1,0 0.4,0 0.7,0 1,-0.1 0.7,-0.2 1.3,-0.4 1.9,-0.9 z"
         id="path10657"
         style="fill:#00001a;fill-opacity:1" />
      <path
         class="st4"
         d="m 160.5,239.5 c -0.9,0.3 -1.7,0.4 -2.5,0.6 l -1.2,0.2 c -0.4,0.1 -0.8,0.1 -1.2,0.3 0.2,-0.4 0.7,-0.7 1.1,-0.8 0.4,-0.2 0.9,-0.3 1.3,-0.3 0.7,-0.3 1.6,-0.3 2.5,0 z"
         id="path10659"
         style="fill:#00001a;fill-opacity:1" />
    </g>
    <g
       id="g19203"
       inkscape:label="kop"
       style="display:inline"
       transform="translate(-92.396323,-49.198042)">
      <path
         class="st19"
         d="m 198,195.9 c 0,0.1 0,0.2 0,0.3 0,0.1 0,0.2 0,0.3 0,0.2 0.1,0.4 0.4,0.5 l 0.5,0.2 c 0.7,0.4 1.4,0.9 0.1,2.2 -2,2 2,3.8 2,6.8 0,2.9 1,5.6 -0.7,6.7 -0.1,0.1 -0.1,0.1 -0.2,0.2 -0.2,0.1 -0.3,0.2 -0.5,0.2 -0.9,0.5 -1.9,0.9 -2.7,1.3 -0.8,0.3 -1.4,0.5 -1.9,0.5 -1,0 0,-2 -2,-2 -2,0 -1,0 -3,-2 -2,-2 -2,1 -4,2 -2,1 0,-3 -2,-4 -2,-1 -2,2 -4,2 -2,0 -3,2 -4,1 -1,-1 2,-3 1,-6 -1,-3 -3,-2 -3,-4 0,-2 -3,1 -4,-1 -1,-2 2,0 2,-3 0,-3 -2,1 -2,-1 0,-2 3,-3 3,-5 0,-1.2 -1.1,-2.4 -1.7,-3.4 -0.4,-0.6 -0.7,-1.2 -0.3,-1.6 0.5,-0.5 1.7,-1.1 2.8,-1.8 0.9,-0.6 1.8,-1.3 2.2,-2.2 1,-2 -1.1,-2.8 -1.1,-3.8 0,-1 2.1,0.8 3.1,-1.2 1,-2 0,-5 2,-5 2,0 1,2.1 3,2.1 1.3,0 2.2,-1.5 3,-2 0.4,-0.3 0.5,-0.4 0.8,-0.1 1,1 2,1.1 4,2.1 2,1 3.5,0.5 4.5,3.5 1,3 4.1,2.1 3.6,6.6 0,0 1.9,-0.2 2.9,1.8 0.1,0.2 0.2,0.5 0.3,0.7 v 0 c 0.5,1.8 -0.2,3.3 -0.2,3.3 0,0 -0.6,2.3 -1.3,3.4 -0.2,0.3 -0.5,0.6 -0.7,0.6 -0.9,0.1 -1.7,0.1 -1.9,0.8 z"
         id="path10601"
         style="display:inline;fill:#000080;fill-opacity:1" />
      <path
         class="st27"
         d="m 198,196.5 c 0,0.3 0.4,0.6 0.8,0.8 v 0 c 0.7,0.4 1.5,0.9 0.2,2.2 -2,2 2,4 2,7 0,2.9 0.9,5.7 -0.8,6.8 -0.2,-2.6 -1.5,-6.1 -2.2,-6.8 -1,-1 1,0 1,-2 0,-2 -2,-2 -3,-4 -1,-2 -3,0 -3,-1 0,-1 3,-2 3,-2 -1,0 5,-6 5,-8 0,-2 -2,-2 -4,-2 -2,0 1,-4 0,-4 -1,0 -5,-3 -5,-5 0,-1.4 -3.6,-3.6 -6,-4.9 0.4,-0.3 0.7,-0.4 1,-0.1 1,1 2,1 4,2 2,1 3.5,0.5 4.5,3.5 1,3 4,2 3.5,6.5 0,0 2,0 3,2 0.1,0.2 0.2,0.5 0.3,0.7 0.5,1.8 -0.3,3.3 -0.3,3.3 0,0 -1,4 -2,4 -1,0 -2,0 -2,1 z"
         id="path10603"
         style="display:inline;fill:#00004d;fill-opacity:1" />
      <path
         class="st27"
         d="m 180,196 c 0,0 -3,3 -1,3 2,0 4,2 4,3 0,1 2,0 3,0 1,0 2,0 3,0 1,0 -3,-1 -3,-2 0,-1 -4,-2 -4,-3 0,-1 -1,-2 -2,-1 z"
         id="path10629"
         style="display:inline;fill:#00004d;fill-opacity:1" />
      <path
         class="st4"
         d="m 184.7,181.1 c -0.4,-0.8 -0.9,-1.5 -1.5,-2.1 -0.6,-0.6 -1.4,-1 -2,-0.7 -0.6,0.3 -1,1.2 -1.2,2 -0.2,0.8 -0.3,1.7 -0.2,2.6 0,0.4 0.1,0.9 0.2,1.2 0.1,0.2 0.1,0.4 0.2,0.5 l 0.1,0.1 0.1,0.2 c 0.1,0.1 0.2,0.2 0.2,0.4 0.4,0.9 0.5,1.8 0.7,2.7 0.2,0.9 0.3,1.8 0.5,2.6 0.1,0.4 0.3,0.8 0.4,1 0.3,0.3 0.6,0.5 1,0.8 0.4,0.3 0.8,0.8 1,1.3 0.2,0.5 0.2,1.1 0.2,1.5 0,0.7 0.5,1.4 1.2,1.8 0.7,0.4 1.5,0.6 2.4,0.6 0.3,0 0.6,0.1 0.9,0.3 0.2,0.2 0.4,0.6 0.4,0.8 0.1,0.5 0.1,0.9 0.3,1 0.2,0.1 0.6,0.1 1,0 0.4,-0.1 0.8,-0.3 1.2,-0.5 0.7,-0.5 1.4,-1.1 2.2,-1.6 0.4,-0.3 0.8,-0.5 1.4,-0.6 0.5,-0.1 1.1,-0.1 1.5,0.1 0.9,0.4 1.7,1 2.4,1.6 l -0.5,0.5 c -0.6,-0.6 -1.3,-1.2 -2.1,-1.5 -0.4,-0.2 -0.8,-0.2 -1.1,-0.1 -0.4,0.1 -0.7,0.3 -1.1,0.5 -0.7,0.5 -1.4,1.1 -2.2,1.6 -0.4,0.2 -0.9,0.5 -1.3,0.6 -0.2,0.1 -0.5,0.1 -0.7,0.2 -0.3,0 -0.6,0 -0.9,-0.2 -0.3,-0.2 -0.4,-0.5 -0.5,-0.8 -0.1,-0.3 -0.1,-0.5 -0.1,-0.7 -0.1,-0.4 -0.2,-0.5 -0.6,-0.5 -0.9,0 -1.9,-0.2 -2.8,-0.6 -0.9,-0.5 -1.7,-1.4 -1.7,-2.5 0,-1 -0.1,-1.6 -0.8,-2 -0.3,-0.3 -0.7,-0.5 -1.1,-0.9 -0.4,-0.5 -0.5,-1 -0.6,-1.4 -0.2,-0.9 -0.4,-1.8 -0.5,-2.7 -0.1,-0.9 -0.3,-1.8 -0.6,-2.5 0,-0.1 -0.1,-0.2 -0.1,-0.2 l -0.1,-0.1 -0.1,-0.2 c -0.2,-0.3 -0.3,-0.5 -0.3,-0.7 -0.2,-0.5 -0.2,-1 -0.2,-1.4 -0.1,-1 0,-1.9 0.2,-2.8 0.2,-0.9 0.6,-1.9 1.7,-2.5 0.5,-0.3 1.2,-0.2 1.6,0 0.5,0.2 0.9,0.5 1.2,0.9 0.7,0.7 1.2,1.5 1.6,2.3 z"
         id="path10605"
         style="display:inline;fill:#00001a;fill-opacity:1" />
      <path
         class="st4"
         d="m 184,187 c 0,0 2,2 5,1 1,-1 1,-1 2,-1 1,0 2,1 3,0 1,-1 1,-4 0,-4 -1,0 -3,0 -4,2 -1,2 -2,2 -3,2 -1,0 -4,-1 -3,0 z"
         id="path10607"
         style="fill:#00001a;fill-opacity:1" />
      <path
         class="st4"
         d="m 201.9,191.2 c 0,0 -0.6,2.3 -1.3,3.4 -0.2,0.2 -0.4,0.4 -0.6,0.4 -1,0 -1.9,0 -2,0.9 v 0 c 0,0.1 0,0.2 0,0.3 0,0.1 0,0.2 0,0.3 -4.3,-1.3 -7.1,1.3 -8,0.5 -1,-1 1,-5 3,-5 2,0 0,1 1,2 1,1 3,-1 5,-1 2,0 2,-3 1,-3 -1,0 -1,-1 0,-1 0.5,0 1.4,-0.5 2,-1.1 v 0 c 0.6,1.8 -0.1,3.3 -0.1,3.3 z"
         id="path10609"
         style="fill:#00001a;fill-opacity:1" />
      <path
         class="st4"
         d="m 182,180 c 0,0 2,0 2,2 0,2 -1,1 -2,1 -1,0 0,-2 0,-2 0,0 -1,-1 0,-1 z"
         id="path10611"
         style="fill:#00001a;fill-opacity:1" />
      <path
         class="st4"
         d="m 184.2,174.6 c 0.5,-0.2 0.8,0 1.2,0.2 0.4,0.2 0.6,0.6 0.7,0.8 0.4,0.6 0.6,1.3 0.7,2.1 -0.4,-0.6 -0.7,-1.2 -1.1,-1.7 -0.2,-0.3 -0.4,-0.5 -0.6,-0.7 -0.3,-0.2 -0.5,-0.4 -0.7,-0.3 z"
         id="path10613"
         style="fill:#00001a;fill-opacity:1" />
      <path
         class="st4"
         d="m 173,192.6 c 0.2,0.2 0.7,0.5 1.1,0.6 0.4,0.2 0.9,0.3 1.4,0.3 0.5,0.1 1,0.1 1.5,0.1 0.5,0 1,-0.1 1.5,-0.1 -0.5,0.2 -1,0.3 -1.5,0.4 -0.5,0.1 -1,0.2 -1.5,0.2 -0.5,0 -1,0 -1.6,-0.1 -0.5,-0.1 -1,-0.2 -1.6,-0.6 z"
         id="path10615"
         style="fill:#00001a;fill-opacity:1" />
      <path
         class="st4"
         d="m 181.9,209.3 c 0.5,-0.7 0.9,-1.7 0.6,-2.3 -0.1,-0.3 -0.6,-0.6 -0.9,-0.8 -0.4,-0.3 -0.8,-0.5 -1.2,-0.9 -0.4,-0.3 -0.7,-0.6 -1,-1.1 -0.3,-0.4 -0.5,-0.9 -0.5,-1.4 0,-0.3 0.1,-0.5 0.2,-0.7 0.1,-0.2 0.2,-0.4 0.4,-0.6 0.3,-0.4 0.7,-0.6 1.1,-0.9 -0.3,0.3 -0.7,0.6 -0.9,1 -0.1,0.2 -0.2,0.4 -0.3,0.6 0,0.2 -0.1,0.4 -0.1,0.6 0,0.4 0.2,0.8 0.5,1.2 0.3,0.3 0.6,0.6 1,0.9 0.4,0.3 0.8,0.5 1.2,0.8 0.2,0.1 0.4,0.3 0.6,0.4 0.2,0.1 0.4,0.3 0.6,0.6 0.3,0.5 0.2,1.1 0.1,1.6 -0.2,0.5 -0.4,0.9 -0.7,1.4 z"
         id="path10617"
         style="fill:#00001a;fill-opacity:1" />
      <path
         class="st4"
         d="m 188.9,210.2 c 0.3,-0.4 0.5,-1 0.6,-1.5 0.1,-0.5 0.1,-1.1 0,-1.6 -0.1,-0.5 -0.3,-1.1 -0.7,-1.5 -0.3,-0.5 -0.8,-0.8 -1.3,-1.1 0.5,0.2 1.1,0.5 1.5,0.9 0.5,0.4 0.8,0.9 1,1.5 0.2,0.6 0.2,1.2 0.2,1.9 -0.1,0.6 -0.2,1.2 -0.5,1.8 z"
         id="path10619"
         style="fill:#00001a;fill-opacity:1" />
      <path
         class="st4"
         d="m 199.5,213.2 c -0.9,0.5 -1.9,0.9 -2.7,1.3 -1.3,-1.6 -0.2,-6.5 -1.9,-6.5 -2,0 -1,-2 0,-3 1,-1 2,-2 -2,-3 -4,-1 -2,-2 -2,-2 l 2,-1 c -1,2 1,2 2,3 1,1 3,2 1,3 -2,1 -1,2 0,2 1,0 2,3 2,5 0.1,0.8 0.8,1.1 1.6,1.2 z"
         id="path10621"
         style="fill:#00001a;fill-opacity:1" />
      <path
         class="st4"
         d="m 178,190 c 0,0 -1,1 -2,0 -0.7,-0.7 -3.2,-1.5 -4.7,-1.4 -0.4,-0.6 -0.7,-1.2 -0.3,-1.6 0.5,-0.5 1.7,-1.1 2.8,-1.8 0,0.7 0.1,1.3 1.2,0.8 2,-1 2,1 1,1 -1,0 -2,2 0,2 2,0 1,1 2,1 z"
         id="path10623"
         style="fill:#00001a;fill-opacity:1" />
      <path
         class="st4"
         d="m 195,215.4 c -0.7,0 -0.8,-0.6 -0.9,-1 -0.1,-0.6 -0.2,-1 -1.1,-1 -1.3,0 -1.5,0 -2.1,-0.7 -0.2,-0.3 -0.5,-0.7 -1.2,-1.4 -0.4,-0.4 -0.7,-0.6 -0.9,-0.6 -0.3,0 -0.6,0.4 -0.9,0.9 -0.4,0.6 -0.9,1.3 -1.8,1.8 -0.2,0.1 -0.7,0.3 -1.1,0.1 -0.4,-0.3 -0.4,-0.9 -0.4,-1.7 0,-0.9 0,-2 -0.8,-2.4 -0.8,-0.4 -1.1,-0.1 -1.7,0.7 -0.5,0.6 -1.1,1.4 -2.2,1.4 -0.8,0 -1.5,0.4 -2,0.7 -0.7,0.4 -1.5,0.9 -2.2,0.2 -0.6,-0.6 -0.2,-1.4 0.2,-2.3 0.5,-1 1.2,-2.3 0.7,-3.8 -0.5,-1.4 -1.2,-1.9 -1.8,-2.2 -0.6,-0.4 -1.2,-0.7 -1.2,-1.9 0,-0.2 0,-0.3 -0.1,-0.3 -0.1,-0.1 -0.6,0.1 -1,0.2 -0.9,0.3 -2.2,0.6 -2.9,-0.7 -0.2,-0.3 -0.3,-0.8 -0.2,-1.1 0.2,-0.4 0.6,-0.4 0.9,-0.5 0.6,-0.1 1.2,-0.2 1.2,-1.5 0,-0.7 -0.1,-0.8 -0.1,-0.8 0,0 -0.3,0.2 -0.4,0.4 -0.3,0.3 -0.7,0.6 -1.1,0.4 -0.3,-0.2 -0.4,-0.6 -0.4,-0.9 0,-1.2 0.8,-2 1.6,-2.8 0.7,-0.7 1.4,-1.4 1.4,-2.2 0,-0.8 -0.6,-1.7 -1.2,-2.5 -0.7,-1 -1.4,-2 -0.7,-2.7 0.4,-0.4 1,-0.7 1.7,-1.2 1.2,-0.7 2.6,-1.5 3.2,-2.7 0.5,-1.1 0,-1.8 -0.4,-2.5 -0.3,-0.4 -0.6,-0.8 -0.6,-1.3 0,-0.3 0.1,-0.5 0.2,-0.5 0.3,-0.2 0.6,-0.1 1,0 0.8,0.2 1.4,0.3 1.8,-0.6 0.4,-0.7 0.4,-1.6 0.5,-2.4 0.1,-1.3 0.3,-2.8 1.8,-2.8 1.2,0 1.6,0.7 1.8,1.2 0.2,0.5 0.4,0.8 1.2,0.8 0.8,0 1.5,-0.7 2.1,-1.3 0.3,-0.3 0.6,-0.6 0.9,-0.8 0.6,-0.3 1,-0.1 1.2,0.2 0.6,0.6 1.1,0.8 2,1.1 0.5,0.2 1.2,0.4 1.9,0.8 0.5,0.3 1,0.4 1.4,0.6 1.3,0.4 2.4,0.8 3.2,3.2 0.4,1.1 1,1.6 1.7,2.1 1,0.8 2,1.6 1.9,4.2 0.7,0.1 2.1,0.5 2.9,2.2 1.1,2.1 0,4.2 0,4.3 -0.3,1.2 -1.2,4.2 -2.3,4.2 -1.2,0 -1.6,0.1 -1.6,0.6 0,0.1 0.3,0.3 0.6,0.5 0.4,0.3 1,0.6 1.1,1.2 0.1,0.5 -0.2,1 -0.8,1.6 -0.9,0.9 -0.4,1.6 0.6,3.1 0.7,1 1.5,2.2 1.5,3.7 0,0.8 0.1,1.5 0.1,2.3 0.2,2.2 0.4,4.2 -1.3,5.1 -1.8,0.3 -3.8,1.3 -4.9,1.3 z m -6.1,-5.4 c 0.4,0 0.9,0.3 1.4,0.8 0.7,0.7 1,1.1 1.3,1.4 0.3,0.4 0.3,0.4 1.5,0.4 1.5,0 1.7,1 1.8,1.6 0.1,0.4 0.1,0.4 0.2,0.4 0.9,0 2.9,-1 4.8,-2 1.2,-0.6 1.1,-2 0.9,-4.3 -0.1,-0.8 -0.1,-1.5 -0.1,-2.3 0,-1.2 -0.7,-2.2 -1.4,-3.2 -0.9,-1.3 -1.8,-2.7 -0.5,-4 0.5,-0.5 0.6,-0.8 0.6,-0.9 0,-0.2 -0.4,-0.4 -0.7,-0.6 -0.5,-0.3 -1,-0.6 -1,-1.2 0,-1.4 1.4,-1.4 2.4,-1.4 0.3,0 1.1,-1.6 1.6,-3.7 0,-0.1 0.9,-1.9 0,-3.7 -0.9,-1.8 -2.6,-1.8 -2.7,-1.8 h -0.4 v -0.4 c 0.3,-2.5 -0.5,-3.1 -1.5,-3.9 -0.7,-0.5 -1.5,-1.2 -2,-2.5 -0.7,-2 -1.5,-2.3 -2.8,-2.7 -0.5,-0.1 -1,-0.3 -1.6,-0.6 -0.7,-0.4 -1.3,-0.6 -1.9,-0.8 -0.9,-0.3 -1.5,-0.6 -2.2,-1.3 -0.2,-0.2 -0.3,-0.1 -1.1,0.6 -0.7,0.7 -1.5,1.5 -2.6,1.5 -1.2,0 -1.6,-0.7 -1.8,-1.2 -0.2,-0.5 -0.4,-0.8 -1.2,-0.8 -0.8,0 -0.9,0.6 -1.1,2.1 -0.1,0.9 -0.2,1.8 -0.6,2.7 -0.7,1.5 -2,1.2 -2.7,1 -0.1,0 -0.2,0 -0.3,-0.1 0.1,0.2 0.2,0.5 0.4,0.8 0.5,0.8 1.3,1.8 0.5,3.3 -0.7,1.4 -2.3,2.3 -3.5,3.1 -0.6,0.4 -1.2,0.7 -1.5,1 -0.3,0.3 0.1,0.9 0.8,1.8 0.6,0.9 1.4,1.9 1.4,3 0,1.2 -0.8,2 -1.6,2.8 -0.7,0.7 -1.4,1.4 -1.4,2.2 v 0.1 c 0.1,-0.1 0.2,-0.1 0.2,-0.2 0.4,-0.3 0.8,-0.6 1.2,-0.4 0.4,0.2 0.5,0.9 0.5,1.5 0,1.9 -1.2,2.2 -1.8,2.3 -0.1,0 -0.3,0.1 -0.4,0.1 0,0 0,0.1 0.2,0.5 0.4,0.7 1,0.6 2,0.3 0.6,-0.2 1.2,-0.4 1.6,0 0.2,0.2 0.4,0.5 0.4,0.9 0,0.7 0.3,0.9 0.9,1.3 0.7,0.4 1.6,0.9 2.1,2.6 0.6,1.8 -0.2,3.3 -0.7,4.4 -0.4,0.8 -0.6,1.2 -0.4,1.4 0.3,0.3 0.5,0.2 1.3,-0.3 0.6,-0.4 1.4,-0.8 2.4,-0.8 0.7,0 1.1,-0.5 1.6,-1.1 0.5,-0.7 1.2,-1.6 2.6,-0.9 1.2,0.6 1.2,2 1.2,3.1 0,0.4 0,0.9 0.1,1 0,0 0.1,0 0.4,-0.1 0.7,-0.3 1.1,-1 1.5,-1.5 0.5,-0.7 0.9,-1.3 1.7,-1.3 -0.1,0 -0.1,0 0,0 z"
         id="path10625"
         style="fill:#00001a;fill-opacity:1" />
    </g>
  </g>
</svg>
