<?xml version="1.0" encoding="UTF-8" standalone="no"?>
<svg
   inkscape:version="1.2.1 (9c6d41e410, 2022-07-14)"
   inkscape:export-ydpi="96"
   inkscape:export-xdpi="96"
   inkscape:export-filename="crocodile.png"
   sodipodi:docname="crocodile.svg"
   width="768"
   height="512"
   viewBox="0 0 203.20001 135.46664"
   version="1.1"
   id="svg844"
   xmlns:inkscape="http://www.inkscape.org/namespaces/inkscape"
   xmlns:sodipodi="http://sodipodi.sourceforge.net/DTD/sodipodi-0.dtd"
   xmlns:xlink="http://www.w3.org/1999/xlink"
   xmlns="http://www.w3.org/2000/svg"
   xmlns:svg="http://www.w3.org/2000/svg"
   xmlns:rdf="http://www.w3.org/1999/02/22-rdf-syntax-ns#"
   xmlns:cc="http://creativecommons.org/ns#"
   xmlns:dc="http://purl.org/dc/elements/1.1/">
  <sodipodi:namedview
     id="namedview1510"
     pagecolor="#505050"
     bordercolor="#eeeeee"
     borderopacity="1"
     inkscape:showpageshadow="0"
     inkscape:pageopacity="0"
     inkscape:pagecheckerboard="true"
     inkscape:deskcolor="#505050"
     showgrid="false"
     inkscape:zoom="1.5"
     inkscape:cx="263"
     inkscape:cy="270"
     inkscape:current-layer="svg844" />
  <defs
     id="defs838">
    <linearGradient
       id="linearGradient4070-9-0-5-9-9">
      <stop
         style="stop-color:#a3a3a3;stop-opacity:1;"
         offset="0"
         id="stop4072-5-5-3-3-9" />
      <stop
         style="stop-color:#b0b0b0;stop-opacity:1;"
         offset="0.14285725"
         id="stop4074-5-2-2-3-7" />
      <stop
         id="stop4076-40-4-9-2-0"
         offset="0.32142863"
         style="stop-color:#d1d1d1;stop-opacity:1;" />
      <stop
         style="stop-color:#bdbdbd;stop-opacity:1;"
         offset="0.5"
         id="stop4078-3-2-7-8-8" />
      <stop
         id="stop4080-4-3-3-3-4"
         offset="0.75"
         style="stop-color:#e5e5e5;stop-opacity:1;" />
      <stop
         style="stop-color:#cccccc;stop-opacity:1;"
         offset="0.875"
         id="stop4082-1-8-7-4-5" />
      <stop
         id="stop4084-2-5-4-0-6"
         offset="1"
         style="stop-color:#cccccc;stop-opacity:1;" />
    </linearGradient>
    <linearGradient
       id="linearGradient4053-4-0-3">
      <stop
         style="stop-color:#cc992d;stop-opacity:1;"
         offset="0"
         id="stop4055-9-1-6" />
      <stop
         style="stop-color:#e1a832;stop-opacity:1;"
         offset="0.14285725"
         id="stop4057-8-2-2" />
      <stop
         id="stop4059-2-1-0"
         offset="0.32142863"
         style="stop-color:#e5cf5c;stop-opacity:1;" />
      <stop
         style="stop-color:#e5c547;stop-opacity:1;"
         offset="0.5"
         id="stop4061-4-0-0" />
      <stop
         id="stop4063-5-7-6"
         offset="0.75"
         style="stop-color:#ffffa3;stop-opacity:1;" />
      <stop
         style="stop-color:#ffd94d;stop-opacity:1;"
         offset="0.875"
         id="stop4065-2-6-5" />
      <stop
         id="stop4067-9-6-1"
         offset="1"
         style="stop-color:#ffdb4e;stop-opacity:1;" />
    </linearGradient>
    <linearGradient
       y2="148.85265"
       x2="320.71429"
       y1="148.85265"
       x1="309.28571"
       gradientTransform="matrix(58.507855,0,0,58.233096,464581.27,-149579.23)"
       gradientUnits="userSpaceOnUse"
       id="linearGradient3827"
       xlink:href="#linearGradient4070-9-0-5-9-9" />
    <linearGradient
       y2="148.25699"
       x2="305.82367"
       y1="148.25699"
       x1="294.71201"
       gradientTransform="matrix(58.507855,0,0,58.233096,464581.27,-149579.23)"
       gradientUnits="userSpaceOnUse"
       id="linearGradient3829"
       xlink:href="#linearGradient4053-4-0-3" />
  </defs>
  <metadata
     id="metadata841">
    <rdf:RDF>
      <cc:Work
         rdf:about="">
        <dc:format>image/svg+xml</dc:format>
        <dc:type
           rdf:resource="http://purl.org/dc/dcmitype/StillImage" />
      </cc:Work>
    </rdf:RDF>
  </metadata>
  <g
     id="g995"
     transform="matrix(-1.8742183,0,0,1.8680106,244.91766,-112.36787)"
     style="display:inline"
     inkscape:label="crocodile">
    <path
       style="font-variation-settings:normal;display:inline;opacity:1;vector-effect:none;fill:#000099;fill-opacity:1;stroke:none;stroke-width:0.396875;stroke-linecap:butt;stroke-linejoin:miter;stroke-miterlimit:4;stroke-dasharray:none;stroke-dashoffset:0;stroke-opacity:1;stop-color:#000000;stop-opacity:1"
       d="m 76.292132,77.307943 c -0.153589,-0.75284 -1.035431,-0.718585 -1.240234,-1.417411 -0.744141,-0.106305 -0.992188,-0.708705 -0.992188,-0.708705 -0.6024,-0.03543 -0.67327,-0.389788 -0.67327,-0.389788 -0.637835,0.07087 -0.956752,-0.531529 -0.956752,-0.531529 -0.637835,-0.03543 -0.850447,-0.637835 -0.850447,-0.637835 -0.602399,0.141741 -1.027622,-0.425223 -1.027622,-0.425223 -0.566965,0.141741 -0.708706,-0.248047 -0.708706,-0.248047 -0.708705,0.03544 -0.921317,-0.496094 -0.921317,-0.496094 -0.779576,0.106306 -1.41741,-0.496093 -1.41741,-0.496093 -0.566965,-0.03544 -0.885882,-0.389788 -0.885882,-0.389788 -0.602397,-0.141741 -0.569327,-0.674187 -0.569327,-0.674187 -0.200452,-0.350792 -0.100226,-0.851922 0.551244,-0.952148 0.651469,-0.100226 1.202713,0.200452 1.202713,0.200452 0,0 0.50113,-0.350791 1.302939,-0.200452 0.801808,0.150339 1.102486,0.902035 1.102486,0.902035 0.451018,0.150339 4.710626,2.555767 5.963452,2.605877 1.252826,0.05011 2.405425,-0.751695 3.207234,0 0.801809,0.751696 1.052374,1.503392 1.052374,1.503392 0,0 0.902035,0.100226 1.65373,0.250565 0.751696,0.150339 0.400904,0.902034 0.400904,0.902034 0,0 0.551244,0.05011 1.503391,0.350792 0.952145,0.300678 0.902035,1.00226 0.902035,1.00226 1.252829,0.250566 1.302939,1.202713 1.302939,1.202713 0.50113,0 0.851922,0.250566 0.851922,0.250566 -0.0089,-0.799103 0.07628,-1.150617 0.116208,-1.603962 -0.25787,-0.451428 -0.40423,-0.776396 -0.31666,-1.302595 0,0 0.551243,0.250566 0.952147,-0.350791 0.400905,-0.601356 0.200452,-1.353052 0.200452,-1.353052 0.902035,1.453278 1.603618,0 1.603618,0 0.50113,1.403165 1.703843,0.50113 1.703843,0.50113 -0.150339,1.1526 0.801808,1.302939 0.801808,1.302939 -0.400904,1.603618 -1.954408,2.154861 -1.954408,2.154861 0.451017,1.202713 -0.150339,1.904295 -0.150339,1.904295 0.400904,1.052374 -0.100226,1.987817 -0.100226,1.987817 1.252826,0.501131 0.952147,1.252826 0.952147,1.252826 0,0 0.801809,0.501131 1.202713,0.851922 0.400905,0.350791 0.150339,0.952148 0.150339,0.952148 0,0 0.751696,0.751695 1.302939,1.403165 0.551244,0.651469 0.200453,1.102487 0.200453,1.102487 1.152599,1.152599 0.801808,2.355312 0.801808,2.355312 0,0 0.350791,0.451017 0.801809,1.453278 0.451017,1.00226 -0.100226,1.653731 -0.100226,1.653731 0,0 0.100226,0.751695 0.50113,1.753956 0.400904,1.002261 -0.300678,1.503391 -0.300678,1.503391 0,0 0.200455,0.801808 0.250565,1.904295 0.05011,1.102484 -0.652022,1.185204 -0.652022,1.185204 0.483935,2.205584 -0.425223,2.860614 -0.425223,2.860614 0.04151,1.29287 -0.921317,1.48828 -0.921317,1.48828 0.07087,1.06306 -0.708705,1.65365 -0.708705,1.65365 2.409598,0 2.959238,1.1859 2.622209,2.33872 0.371677,1.17397 -0.54334,1.52888 -0.755952,2.69309 1.863392,0.26628 2.905692,-0.85045 2.905692,-0.85045 -0.212611,2.05525 1.488282,1.13393 1.488282,1.13393 -0.779576,1.41741 0.608479,2.04665 0.608479,2.04665 -1.246314,0.39231 -0.821091,1.63861 -0.821091,1.63861 -1.700893,-0.42522 -2.833161,-0.60654 -5.740514,-0.7087 -2.943982,-0.10345 -3.358762,-2.4872 -2.894132,-2.95183 -3.661813,0.23485 -3.9098,-2.38823 -3.9098,-2.38823 -1.274482,0.91173 -3.190593,1.78825 -9.521477,2.20497 -6.538585,0.43039 -10.852453,3.14993 -16.537303,7.91786 -5.684849,4.76794 -8.318764,4.30972 -8.318764,4.30972 0,0 2.706103,-1.30294 6.214015,-6.41447 3.507915,-5.11153 7.717409,-8.31876 11.525999,-10.52373 3.808592,-2.20498 8.318764,-3.70837 8.318764,-3.70837 0,0 -1.002259,-1.01896 2e-6,-2.12145 0,0 -0.300679,-0.501129 -0.05011,-1.002259 -1.322552,0.209184 -1.472963,-0.30633 -2.355316,-0.200449 0,0 0.009,0.952819 -1.002261,0.952147 -1.011284,-6.72e-4 -1.553504,0.501131 -1.553504,0.501131 0,0 0.250565,-1.503391 -1.202713,-1.854183 0,0 0.851922,-1.252828 -0.601356,-2.455541 0,0 2.305199,0.451017 2.756217,-1.202713 0,0 0.785104,0.250565 1.135895,1.302939 0,0 0.601357,0.200449 1.202713,0.150339 0,0 0.601356,-1.002261 2.054634,-0.801809 0,0 1.386461,-1.1526 3.19053,0.250565 0,0 -0.09842,-1.288668 0.822893,-1.784763 -0.255699,-0.639247 -0.839461,-1.213296 -1.063058,-2.196986 -0.421126,-1.852695 0,-1.984375 -0.921317,-3.472657 0,0 -0.525656,0.121199 -1.628143,0.121199 0,0 -1.202713,-0.501131 -1.753957,-1.703844 -0.551243,-1.202712 -1.453278,-1.65373 -1.453278,-1.65373 0,0 -0.91923,0.559842 -1.603617,0.05011 0,0 -0.338631,1.112131 -1.01442,1.595022 0,0 -0.438858,-1.244227 -1.641571,-0.592758 0,0 -0.250565,-1.353052 -1.65373,-1.102487 0,0 1.453278,-1.353052 0.350791,-2.505652 0,0 1.603618,-0.300678 1.403165,-1.503391 0,0 1.002261,0.200452 2.054635,0.05011 0,0 0.651469,0.250569 1.202713,0.902038 0,0 1.353052,0.100226 2.355312,0.851922 0,0 0.801809,-0.100226 1.302939,0.100226 0,0 -0.551243,-0.801809 -0.300678,-1.503391 0,0 -1.353052,0.150339 -1.603617,-1.453278 0,0 -0.451017,-0.200453 -2.255087,-1.202713 C 72.513559,77.775433 66.80994,74.867166 65.5858,74.161214 64.410734,73.48356 64.925738,72.68466 65.60048,72.7029 c 0,0 0.415424,-0.03698 0.628036,0.459117 0,0 0.637835,-0.106306 1.133929,0.67327 0,0 0.566964,0.07087 0.885881,0.496094 0,0 0.389788,0 0.815011,0.460658 0,0 0.496094,-0.07087 0.850447,0.531529 0,0 0.637835,-0.03543 0.956752,0.460659 0,0 0.573044,-0.116684 0.992188,0.427003 0,0 0.731981,0.03187 0.921317,0.636055 0,0 0.531529,-0.07087 0.992187,0.496093 0,0 0.543341,-0.307105 1.07487,0.153553 0,0 0.649646,0.330729 1.441034,-0.188988 z"
       id="path983"
       sodipodi:nodetypes="ccscssccscccccccsscccczcccccccccscscsczccsccccccccccscscsccscsccccccccscccccscscsscscscccccccccsscccccccccccc" />
    <path
       id="path943"
       style="font-variation-settings:normal;display:inline;opacity:1;vector-effect:none;fill:#000066;fill-opacity:1;stroke:none;stroke-width:0.500001;stroke-linecap:butt;stroke-linejoin:miter;stroke-miterlimit:4;stroke-dasharray:none;stroke-dashoffset:0;stroke-opacity:1;stop-color:#000000;stop-opacity:1"
       d="m 253.96094,264.37695 c -0.0179,0.68126 0.0424,1.39023 0.2832,1.91993 0.64573,1.42059 2.71875,2.27539 2.71875,2.27539 -1.54248,-1.72974 -0.69922,-3.47071 -0.69922,-3.47071 0,0 -0.94515,-0.50181 -2.30273,-0.72461 z m 7.91211,0.14844 c 0.3103,0.95577 0.5836,2.10069 0.63672,3.32227 0.12914,2.97034 -1.8086,3.09961 -1.8086,3.09961 0,0 1.17179,-0.27584 3.75,0.50781 2.57821,0.78364 4.38652,0.78424 5.54883,2.33398 0,0 2.3245,0.51591 3.22852,1.41992 0.90401,0.90402 0.90429,1.03321 0.90429,1.03321 0,0 1.03348,0.25881 1.9375,0.77539 0.90402,0.51658 1.29102,0.90429 1.29102,0.9043 0,0 2.06596,0.12894 3.35742,1.1621 1.29145,1.03317 2.58303,1.16164 3.09961,1.41993 0.51658,0.25829 0.76109,0.97687 1.80078,1.39257 1.03969,0.41571 2.07424,-1.78104 0.008,-2.94336 -0.7952,-0.4473 -1.2811,-1.37244 -1.58203,-2.34179 -6.58829,-2.40596 -17.31689,-8.39925 -18.6914,-8.85742 0,0 -0.9653,-2.40193 -3.48047,-3.22852 z m 34.9414,11.85547 c -2.5672,-0.0403 -5.61369,1.32592 -8.83789,1.22266 0.0702,0.20723 1.3172,3.83387 3.07422,4.83789 0,0 4.13217,-1.29193 6.58594,0.25781 2.45376,1.54974 1.93774,3.3577 1.80859,4.26172 -0.12914,0.90402 -2.9707,-0.51563 -2.9707,-0.51563 0,0 -3.09913,-0.90429 -3.35742,-0.90429 -0.2583,0 -1.8086,-0.64649 -1.8086,-0.64649 0,0 -1.41932,3.74642 1.42188,5.68359 2.8412,1.93719 4.77734,0.38672 4.77734,0.38672 0,0 2.32506,0.77536 5.03711,-0.25781 2.63208,-1.0027 1.16463,-3.80317 1.35938,-7.64453 -0.20405,-0.54041 -1.20306,-2.94122 -3.88868,-5.45898 -0.94701,-0.88783 -2.0241,-1.20416 -3.20117,-1.22266 z m -51.45507,1.30469 c 0.26681,0.83179 1.02604,1.74584 2.52343,2.60937 4.62667,2.66817 26.18343,13.65919 33.00196,17.44727 6.81853,3.78807 8.52343,4.54687 8.52343,4.54687 0.94702,6.06092 6.06055,5.49219 6.06055,5.49219 -0.94702,2.65165 1.13672,5.68164 1.13672,5.68164 -0.32536,-0.13014 -0.68729,-0.21831 -1.05859,-0.28906 1.04379,0.57706 5.49981,3.43106 6.7207,5.34961 1.27847,2.00903 2.73925,8.21715 2.92187,5.29492 0.18264,-2.92223 -2.19131,-6.3924 -2.92187,-7.85352 -0.73056,-1.46111 1.27907,-1.6424 3.10547,-3.10351 1.82639,-1.46111 3.65333,-1.4618 3.4707,-2.375 -0.18264,-0.91321 -4.20117,10e-4 -4.20117,-0.54688 0,-0.54791 -1.46094,-1.64453 -1.46094,-1.64453 0,0 -1.64522,4.20123 -4.01953,3.83594 -2.37431,-0.36528 -2.92201,-3.83585 -1.82617,-4.56641 1.09583,-0.73055 3.10638,-4.01836 3.65429,-5.66211 0.54792,-1.64375 -1.46158,-4.01744 -4.20117,-5.11328 -2.73958,-1.09583 -3.4707,-3.10547 -3.4707,-3.10547 0,0 -2.37391,-0.36501 -3.28711,-2.1914 -0.91319,-1.82639 -4.20111,-2.37402 -4.56641,-2.55664 -0.0394,-0.0197 -0.0761,-0.007 -0.11132,0.0156 1.21151,0.84865 2.63361,1.46915 2.99414,3.23633 -0.50901,0.33427 -0.99242,0.54865 -1.46094,0.71875 l 0.0391,0.0469 c 0,1e-5 0.73125,1.46077 2.375,2.92188 1.64376,1.46112 3.28808,1.46185 3.4707,2.00977 0.18264,0.54791 0.91302,3.65325 1.46094,4.20117 0.54792,0.54793 3.10439,-9.7e-4 4.01758,-0.1836 0.91319,-0.18263 1.82539,0.36506 0.18164,1.82618 -1.64375,1.46111 -6.75677,1.82639 -7.30469,0 -0.54791,-1.8264 1.2793,-2.92188 1.2793,-2.92188 0,0 -0.73098,-8.2e-4 -4.56641,-1.2793 -3.83542,-1.27847 -32.14444,-16.43646 -32.875,-16.98437 -0.73055,-0.54792 -2.74088,-3.65235 -5.48046,-3.65235 -1.56789,1e-5 -3.07066,-0.64221 -4.125,-1.20507 z m 99.68359,5.6914 c -6.9e-4,3.3e-4 -0.0371,0.0176 -0.0371,0.0176 0,0 0.0245,0.0766 0.0273,0.084 7e-4,-0.0321 0.009,-0.069 0.01,-0.10157 z m -37.03906,0.45703 c 0.30208,0.70009 0.55356,1.48851 0.65625,2.36133 0.36529,3.10488 -1.64454,2.74024 -1.64454,2.74024 0,0 -0.36398,2.55565 -2.73828,2.73828 0,0 -1.46184,0.002 -2.00976,1.46289 -0.0797,0.21249 -0.16856,0.39095 -0.25977,0.55273 0.67701,-0.4496 1.5902,-0.81387 2.63477,-0.55273 2.19167,0.54792 5.47921,-0.1828 7.85351,-2.64844 0,0 4.56641,0.90438 4.56641,2.46484 0,3.10487 -2.92383,2.19141 -2.92383,2.19141 0,0 -0.36494,2.55773 -2.92187,1.64453 0,0 -0.54661,4.01752 -2.73828,4.38282 -2.19167,0.36529 -2.92383,-1.2793 -2.92383,-1.2793 0,0 2.2e-4,2.92286 -1.82617,2.74023 -1.8264,-0.18262 -2.37345,2.19123 0.91406,3.65235 3.2875,1.46111 3.28711,-1.46094 3.28711,-1.46094 0,0 4.38259,-0.73007 6.20898,-4.01758 0,0 2.74106,-0.73016 4.01953,-3.28711 0,0 1.21662,-1.03614 2.67774,-0.85351 1.46111,0.18262 0.91406,2.00976 0.91406,2.00976 0,0 2.37383,-0.91328 4.01758,0.73047 1.64375,1.64375 -0.91384,3.28808 -2.74024,3.4707 -1.82639,0.18263 -2.92187,-2.74023 -2.92187,-2.74023 l -2.74024,0.54883 -0.18164,2.1914 c 0,0 2.00873,-0.36538 2.55664,0.73047 0.54792,1.09584 -0.73033,2.92286 -1.82617,2.74024 -1.09583,-0.18263 -1.27812,-3.10646 -2.92187,-2.92383 -1.64376,0.18262 0,1.28008 0,2.92383 0,1.64375 -0.5477,2.73833 -1.82617,2.37304 -1.27848,-0.36529 -2.55664,-1.0957 -2.55664,-1.0957 0,0 -1.82738,0.36602 0.18164,2.00977 2.00903,1.64375 3.65234,4.5664 3.65234,4.5664 0,0 1.64462,-0.1834 0.91406,-1.64453 -0.73055,-1.46111 -0.73164,-2.37396 0.91211,-2.92187 1.64375,-0.54792 2.92377,-1.46209 3.28906,-0.1836 0.3653,1.27848 -1.46289,3.28711 -1.46289,3.28711 0,0 3.28916,0.73069 2.5586,-1.0957 -0.73056,-1.82639 0.91193,0.18257 2.37304,0.36523 1.46112,0.18263 2.37506,-0.18257 2.00977,-0.36523 -0.36529,-0.18263 -3.10443,-1.64345 -3.65234,-2.55664 -0.54792,-0.9132 1.82573,-4.38373 5.47851,-4.93164 3.65279,-0.54792 4.20048,2.55751 1.82617,3.4707 -2.37431,0.9132 -2.375,3.83594 -2.375,3.83594 0,0 4.01827,-3.47076 6.39258,-3.10547 2.37431,0.36529 3.28733,5.11518 1.46094,5.48047 -1.82639,0.36529 -4.3819,2.00754 -3.83399,4.19922 0,0 2.3737,-2.19141 5.11329,-2.19141 2.73958,0 4.56649,4.38364 3.83593,5.66211 -0.73056,1.27847 -3.4707,0.36523 -3.4707,0.36523 0,0 -0.5477,-2.00976 -1.82617,-2.00976 -1.27848,0 -2.55664,2.19336 -2.55664,2.19336 0,0 3.10442,0.36503 3.65234,2.1914 0.54792,1.8264 4.0046,-1.30186 6.37891,-0.38867 2.37431,0.9132 1.63086,6.8125 1.63086,6.8125 1.64764,1.09843 5.15576,6.30994 4.22656,8.00391 -0.94604,1.72465 -4.93164,0.73047 -4.93164,0.73047 0,0 2.6e-4,2.55658 -2.19141,2.92187 -2.19167,0.36529 -4.74804,-0.73047 -4.74804,-0.73047 0,0 0.91353,3.83508 5.29687,2.92188 4.38334,-0.9132 3.10547,-2.37305 3.10547,-2.37305 0,0 2.19023,-1.46099 3.83398,-1.0957 1.64375,0.36529 1.64436,0.18141 3.10547,2.00781 1.46111,1.82639 1.82548,6.20985 -0.54883,7.12305 -2.37431,0.91319 -4.56445,-2.00781 -4.56445,-2.00781 0,0 -1.28003,0.1818 -3.28906,-1.2793 0,0 0.73169,3.10442 -1.27734,3.65234 -2.00904,0.54792 -3.83594,-0.54687 -3.83594,-0.54687 0,0 -1.09519,2.73919 2.74023,3.28711 3.83542,0.54791 4.56641,-2.00977 4.56641,-2.00977 0,0 3.46948,2.55664 5.47851,2.55664 2.00904,0 2.74042,6.02817 1.2793,7.30664 -1.46111,1.27848 -5.84562,-0.54761 -6.57617,-2.55664 -0.73056,-2.00903 -2.37409,-0.73116 -1.82617,-3.10547 0,0 -3.28816,6.5e-4 -2.74024,2.74024 0.54791,2.73957 0.91407,3.10351 0.91407,3.10351 -10e-6,0 -2.55734,0.91429 -4.93165,-0.91211 1.08099,5.69242 8.10076,1.52654 10.41016,3.83594 0.38543,0.38543 1.40865,0.80561 1.64453,1.27734 1.51352,3.02704 -0.95008,7.37848 -4.38281,5.66211 -2.37843,-1.18921 -3.36587,-0.0488 -4.38477,-3.10547 -0.0598,-0.17933 -0.85653,-2.43057 -1.0957,-2.1914 -0.0117,0.0117 -1.85015,6.07532 -2.19141,6.75781 -0.24173,0.48348 5.97389,-0.0777 6.75782,0.18359 2.20177,0.73393 2.49547,4.26232 1.0957,5.66211 -0.41371,0.41375 -2.14997,0.54688 -2.92187,0.54688 -6.77731,0 -3.18993,-3.18992 -4.93165,-4.93164 -0.38434,-0.38435 -2.61947,1.40302 -2.74023,1.64453 -0.21986,0.43969 -1.2941,3.45394 -0.73047,4.01758 0.12166,0.1217 2.84801,-0.49308 3.4707,-0.18164 3.44384,1.72195 0.39971,3.76504 -0.36523,5.29492 -0.46967,0.93936 -0.0104,1.65081 -1.0957,2.19336 -4.02594,2.01298 -3.00577,-4.2518 -4.20118,-5.8457 -0.16508,-0.21997 -1.45114,-2.19906 -1.64257,-2.00782 -0.69354,0.69355 1.36333,4.47847 0.54687,5.29492 -0.19672,0.19692 -2.74023,2.14792 -2.74023,2.5586 0,0.0113 1.56406,-0.0189 1.64453,0 1.05199,0.26305 2.10237,3.0109 1.0957,4.01758 -0.3476,0.34771 -1.6388,0.91022 -1.64258,0.91211 -0.13387,0.58718 -0.56563,1.47165 -1.09765,1.82617 -1.15649,0.77098 -4.83372,0.35683 -3.83399,-1.64258 0.22617,-0.4523 0.3356,-1.03839 0.54688,-1.46094 0.47078,-0.94159 3.10547,-2.41319 3.10547,-3.65234 0,-0.2846 -1.51153,-0.52284 -1.82617,-0.36524 -0.79208,0.39606 -1.05559,1.2573 -1.82618,1.64258 -1.30165,0.65084 -1.26636,-1.65558 -1.46093,-1.46094 -2.06273,2.06272 -0.69038,7.6318 -1.82618,8.76758 -0.85634,0.85637 -2.4282,0.99171 -3.83593,1.46094 -1.07852,0.35943 -1.87391,2.42077 -2.74024,3.28711 -0.44015,0.44031 -1.47719,0.0999 -2.00781,0.36523 -0.1358,0.068 -0.71091,0.38694 -0.91406,0.1836 -1.67719,-1.67721 2.41771,-5.66211 1.64453,-5.66211 -0.15315,0 -7.00922,6.42648 -8.40235,7.12305 -0.33335,0.16667 -1.29723,0 -1.64453,0 -2.99667,0 2.37232,-5.56995 -1.0957,-3.83594 -1.17902,0.58964 -2.80775,0.399 -3.83398,0.91211 -0.87146,0.43574 -1.41147,4.49981 -4.20118,5.29687 -0.19181,0.0548 -1.23771,0.40697 -1.46093,0.1836 -0.93495,-0.93495 1.73541,-4.20169 2.1914,-4.56641 0.40895,-0.32731 1.43582,-1.2793 0.91211,-1.2793 -0.53114,0 -3.12697,2.99936 -3.83398,3.47071 -1.03244,0.68829 -2.53904,1.08788 -3.65235,1.64453 -0.56806,0.16743 -1.41745,0.37893 -2.00976,0.18164 -0.27409,-0.0915 -2.1991,-1.08786 -2.375,-0.91211 -0.45294,0.45294 2.25472,3.42999 -1.46094,2.1914 -0.56332,-0.18784 -3.21993,-1.52987 -3.4707,-1.27929 -1.14311,1.14312 1.08727,2.47102 -0.91211,3.4707 -0.91736,0.45868 -3.32078,-1.42921 -3.83594,-0.91406 -0.72133,0.72132 1.68648,1.80716 -2.00781,3.6543 -0.82103,0.41072 -5.00831,0.0745 -5.48047,0.54687 -0.12178,0.1217 0.24346,0.24353 0.36523,0.36524 0.7582,0.75821 -1.11753,2.26048 -1.46093,2.375 -1.42034,0.47346 -4.54989,-0.74147 -5.66211,0 -0.69203,0.46136 -0.90126,1.26646 -1.46094,1.82617 -0.0634,0.0635 -4.71365,3.63344 -4.74805,3.65234 -1.21327,0.60665 -3.18796,0.63132 -4.20117,1.64453 -1.92734,1.92733 0.57274,2.08665 -3.65234,4.19922 0,0 -4.01727,5.29771 -6.57422,6.57617 -2.55695,1.2785 -7.12461,5.11385 -10.41211,8.58399 -3.28751,3.47013 -6.57496,8.58379 -8.58399,10.04492 -2.00903,1.46113 -5.84431,5.11307 -9.31445,6.93945 -0.99786,0.5252 -3.12318,1.28334 -5.58789,2.08789 -4.3355,3.78341 -6.98437,5.06641 -6.98437,5.06641 0,0 9.95536,1.73345 31.4414,-16.28711 21.48605,-18.02052 37.78919,-28.29911 62.50196,-29.92578 23.92775,-1.57501 31.17134,-4.88808 35.98828,-8.33399 0,0 0.93742,9.91302 14.77734,9.02539 -1.75608,1.75609 -0.18936,10.76526 10.9375,11.15625 10.98842,0.38612 15.26869,1.07256 21.69727,2.67969 0,0 -0.74826,-2.19692 0.27734,-4.0625 -1.61069,0.58845 -3.12381,2.06388 -5.48242,1.01563 -3.28751,-1.46113 -7.67188,-2.73828 -7.67188,-2.73828 0,0 -2.19088,1.82528 -6.57422,0.91211 -4.38334,-0.91321 -10.0451,-3.83543 -8.58398,-7.85352 1.46111,-4.01805 7.48828,-9.86328 7.48828,-9.86328 0,0 -3.10416,-0.72884 -5.84375,1.82812 -2.73959,2.55697 -6.21014,3.46995 -12.78516,1.46094 -6.57499,-2.00905 -6.9414,-7.79297 -6.9414,-7.79297 1.09583,-3.10484 1.82804,-0.73159 2.55859,0.54688 0.73056,1.2785 1.09457,1.82721 2.37305,2.00976 1.27847,0.18255 -1.09487,-1.09634 0.18359,-3.83593 1.27848,-2.7396 4.01659,-4.20046 4.19922,-2.19141 0.18263,2.00904 -2.92101,1.64322 -2.00781,4.38281 0.91319,2.73967 3.47052,2.92383 4.93164,2.92383 1.46111,0 -1.461,-2.7401 -1.0957,-3.83594 0.36529,-1.09583 1.09435,-6.57526 4.19922,-6.75781 1.96286,-0.11541 5.09156,-0.0148 8.00585,-0.24609 0.25776,-0.20469 2.84473,-2.34659 2.58985,-6.16993 0,0 3.63931,-0.73856 3.48242,-5.625 0,0 3.43647,-2.47643 1.60742,-10.8125 0,0 2.65424,-0.31164 2.46485,-4.47851 -0.1894,-4.16688 -0.94727,-7.19727 -0.94727,-7.19727 0,0 2.65195,-1.89552 1.13672,-5.68359 -1.51523,-3.78807 -1.89453,-6.62891 -1.89453,-6.62891 0,0 2.08353,-2.46193 0.3789,-6.25 -1.70463,-3.78807 -3.03125,-5.49218 -3.03125,-5.49218 0,0 1.32699,-4.54607 -3.02929,-8.90235 0,0 1.32563,-1.70377 -0.75782,-4.16601 -2.08343,-2.46225 -4.92578,-5.30469 -4.92578,-5.30469 0,0 0.94688,-2.27183 -0.56836,-3.59766 -1.51522,-1.32582 -4.54492,-3.2207 -4.54492,-3.2207 0,0 1.13744,-2.84034 -3.59765,-4.73438 0,0 1.89218,-3.53619 0.37695,-7.51367 0,0 2.27299,-2.65158 0.56836,-7.19726 0,0 5.87149,-2.08362 7.38672,-8.14454 0,0 -1.51782,-0.24751 -2.42578,-1.61523 0.22262,1.33079 0.28173,2.91114 -0.32618,4.12695 -1.27847,2.55695 -5.66124,3.28829 -4.74804,1.64454 0.91319,-1.64376 3.10343,-3.8349 3.83398,-4.38282 0.73056,-0.54792 -0.73047,-2.92388 -0.73047,-2.55859 0,0.36529 -1.46167,3.47144 -3.4707,5.48047 -2.00903,2.00903 -2.55573,-0.5487 -2.00781,-1.64453 0.54791,-1.09584 1.64257,-4.56641 1.64257,-4.56641 0,0 -2.73924,1.46163 -2.92187,3.83594 -0.18263,2.37431 -2.00878,1.64366 -2.19141,0.73047 -0.18262,-0.9132 -1.0957,-4.38282 -1.0957,-4.38282 0,0 -0.54693,2.0086 -0.18164,3.65235 0.36529,1.64375 -0.5497,4.38389 -1.46289,3.4707 -0.91319,-0.9132 -1.46094,-3.10547 -1.46094,-3.10547 0,0 -0.72973,2.73906 1.2793,4.38281 2.00903,1.64375 4.93046,0.73112 6.57422,3.47071 1.64375,2.7396 -3.10352,2.375 -3.10352,2.375 0,0 2.19059,1.45967 0.91211,3.83398 -1.27847,2.37431 -6.93945,-4.56445 -6.93945,-4.56445 l -0.29297,-0.31641 c -0.003,0.25437 -0.0149,0.45803 -0.0117,0.74024 0,0 -1.32667,-0.94727 -3.2207,-0.94727 0,0 -0.18873,-3.59985 -4.92383,-4.54687 0,0 0.1885,-2.65069 -3.41016,-3.78711 -3.59866,-1.13644 -5.68164,-1.32618 -5.68164,-1.32618 0,10e-6 1.32543,-2.83999 -1.51562,-3.4082 -0.73299,-0.1466 -1.49796,-0.28031 -2.23828,-0.39844 z m -5.9961,9.85547 c -0.74345,0.49374 -1.20117,1.08985 -1.20117,1.08985 0,0 0.66525,-0.13919 1.20117,-1.08985 z m -31.88476,15.33594 -1.46094,1.64453 c 0,0 6.3934,-0.18262 7.67187,0 1.27848,0.18263 1.64267,-0.73043 0.91211,-1.0957 -0.73055,-0.36529 -7.12304,-0.54883 -7.12304,-0.54883 z m 18.50586,2.54492 c -0.48786,0.025 -0.49241,0.4339 0.30664,1.47266 1.82639,2.37431 3.83497,6.75764 3.65234,8.21875 -0.18263,1.46111 -4.01744,-2.37296 -5.11328,-3.10352 -1.09583,-0.73055 0.18289,0.91302 -2.19141,1.46094 -2.37431,0.54791 -6.02831,-1.64462 -6.21093,-0.91406 -0.18263,0.73055 -0.91298,4.93158 -1.82618,5.29687 -0.91319,0.36529 -2.37403,-1.27916 -2.1914,-2.375 0.18262,-1.09583 1.82617,-4.92968 1.82617,-4.92968 0,0 -2.55651,2.37273 -3.65234,4.92968 -1.09584,2.55695 -3.10561,1.64484 -2.00977,-0.91211 1.09584,-2.55694 2.00977,-3.83593 2.00977,-3.83593 0,0 -2.0096,1.46176 -3.47071,2.74023 -0.66367,0.58072 -1.54287,1.45614 -2.3164,2.24609 2.16368,1.15965 2.64843,3.71875 2.64843,3.71875 4.54569,-2.46224 6.20313,2.24024 6.20313,2.24024 2.55416,-1.8251 3.83398,-6.02734 3.83398,-6.02734 2.58666,1.92654 6.0625,-0.18946 6.0625,-0.18946 0,0 3.40875,1.70432 5.49219,6.25 2.08344,4.54569 6.62891,6.43946 6.62891,6.43946 4.16688,0 6.15429,-0.45704 6.15429,-0.45704 1.25559,2.02826 1.83878,3.38275 2.16211,4.62305 2.71558,-1.64995 5.86746,-4.47544 7.14649,-5.32812 1.64375,-1.09584 2.55733,-6.9415 4.93164,-6.21094 2.37431,0.73055 3.28802,4.38463 3.83594,5.48047 0.54791,1.09583 0.91328,-2.01042 -0.73047,-4.75 -1.64376,-2.73959 -5.47852,-4.56641 -5.47852,-4.56641 0,0 -2.00968,1.27865 -2.74023,-1.46094 -0.73056,-2.73959 -4.38282,-4.92968 -4.38282,-4.92968 0,0 0.91203,1.82495 1.64258,3.83398 0.73056,2.00903 0.73047,3.4707 0.73047,3.4707 0,0 -3.65273,6.94042 -8.58398,7.12305 -4.93126,0.18263 -8.21875,-4.74805 -8.21875,-4.74805 0,0 2.7407,2.55578 6.9414,1.64258 4.2007,-0.9132 4.56451,-2.19141 4.19922,-2.19141 -0.36529,0 -6.20972,1.27774 -8.21875,-2.00976 -1.93953,-3.17378 -2.6926,-9.22665 -5.20703,-10.79297 -0.46297,0.0277 -0.8125,0.0586 -0.8125,0.0586 -0.75512,-0.56634 -1.56357,-1.01127 -2.37305,-1.39843 -0.26832,-0.0722 -0.51219,-0.12381 -0.67968,-0.11524 z m -17.22657,0.92578 c -2.19166,0.18263 -4.75,2.00782 -4.75,2.00782 l 0.1836,1.64453 c 0,0 3.10525,-1.82714 4.93164,-2.00977 1.82639,-0.18262 3.65234,-0.36523 3.65234,-0.36523 0,0 -1.8259,-1.45997 -4.01758,-1.27735 z m 8.36914,47.73438 -1.0332,1.80664 c 0,0 2.71241,4.26148 2.9707,4.39062 0.25829,0.12915 0.64621,-0.38608 -0.25781,-2.83984 -0.90402,-2.45376 -1.67969,-3.35742 -1.67969,-3.35742 z m 29.66016,1.54883 c 0,0 0.002,2.58223 1.29297,7.74804 1.29145,5.16582 -1.80859,13.17383 -1.80859,13.17383 l 2.84179,-0.77539 8.26367,-2.32422 c 0,0 0.51706,-7.74964 -0.25781,-11.10742 -0.77487,-3.35778 -4.39062,-4.39062 -4.39062,-4.39062 2.8412,3.87436 2.32422,8.26614 2.32422,9.04101 0,0.77487 -0.77496,0.25714 -2.06641,-4.65039 -1.29146,-4.90752 -6.19922,-6.71484 -6.19922,-6.71484 z m -12.74219,0.38672 c 0,0 0.2583,2.06692 0,2.84179 -0.25829,0.77487 1.29297,1.55023 1.29297,-0.25781 0,-1.80804 -1.29297,-2.58398 -1.29297,-2.58398 z m -3.48633,0.77539 c 0,0 -1.29077,0.6458 -1.41992,2.0664 -0.12914,1.4206 2.45213,2.84156 1.93555,2.97071 -0.51658,0.12914 -3.35746,0.25873 -4.39063,-1.29102 -1.03316,-1.54975 0.25977,-3.22852 0.25977,-3.22852 l -0.0312,-0.0293 c -0.34715,0.38582 -0.52734,0.66797 -0.52734,0.66797 -2.27284,0.18939 -4.54492,-0.56836 -4.54492,-0.56836 -0.0619,-0.18568 -0.13065,-0.35857 -0.19922,-0.53125 l -0.12305,0.0723 c 0,0 0.77539,2.32574 0.77539,3.61719 0,1.29145 0.1297,1.9375 1.80859,1.9375 1.67889,0 6.32869,1.03197 8.13672,0.64453 1.80804,-0.38744 1.80688,-2.5835 1.67774,-2.8418 -0.12915,-0.25828 -0.774,1.42156 -2.58203,-0.51562 -1.80804,-1.93718 -0.7754,-2.9707 -0.7754,-2.9707 z m -17.29492,2.4414 c -1.64383,0.14832 -2.33593,1.4336 -2.33593,1.4336 0,0 2.97054,5.2e-4 5.16601,0.77539 2.19547,0.77487 2.45508,1.80807 2.45508,1.0332 0,-0.77487 -2.32601,-2.97218 -4.52148,-3.23047 -0.27444,-0.0323 -0.52884,-0.0329 -0.76368,-0.0117 z m 23.62305,1.4336 c -0.12915,2.32461 -3.74573,5.81054 -7.10352,5.81054 -3.35777,0 -7.74804,-1.29101 -7.74804,-1.29101 0,0 -1.16219,3.74537 -3.22852,4.13281 -2.06633,0.38744 -3.61719,0.9043 -3.61719,0.9043 0,0 -0.25677,-1.29106 1.29297,-2.32422 1.54975,-1.03317 3.48557,-3.35938 2.83985,-3.35938 -0.64573,0 -3.35798,2.5847 -5.16602,2.19727 -0.93782,-0.20096 -1.89433,0.11785 -2.61328,0.47266 3.05934,2.06572 2.4043,6.08007 2.4043,6.08007 0,0 2.05087,-1.89707 5.87304,-1.89453 3.82209,0.003 3.78711,-3.59961 3.78711,-3.59961 3.30728,-0.39687 3.90598,1.509 8.79102,0.76953 0.0529,-0.0663 0.18602,-0.22861 0.22656,-0.27929 1.03317,-1.29146 4.52029,-3.48761 5.16602,-4.90821 0.64573,-1.4206 -0.9043,-2.71093 -0.9043,-2.71093 z m 54.11914,34.50195 c -1.86127,0 -4.46076,1.6845 -6.20898,2.55859 -0.4277,0.21387 -1.45253,-0.72693 -1.40235,-1.01172 -0.16121,0.11953 -1.58312,1.0314 -2.98242,2.10743 1.71338,0 4.99565,-0.42925 4.38477,0.18164 -1.5987,1.5987 -2.82084,2.57551 -3.83594,5.11328 -0.0678,0.16955 -0.18263,0.54883 0,0.54883 0.89039,0 6.20129,-3.10065 7.30469,-3.65235 1.81569,-0.90776 4.75,0.0349 4.75,-0.18359 0,-2.16234 -6.9399,-0.36631 -6.39258,-1.46094 0.58857,-1.17709 9.31445,-1.05677 9.31445,-1.0957 0,-0.66565 -2.85004,-1.24248 -3.28711,-1.46094 -0.35062,-0.17533 -1.26318,-0.71439 -1.64453,-1.0957 -0.0268,-0.0269 0.0215,-0.54883 0,-0.54883 z m -7.61133,1.54687 c 0.0108,-0.008 0.12502,-0.084 0.12305,-0.084 -0.0831,0 -0.11433,0.0345 -0.12305,0.084 z m 15.46485,6.125 c 0,0 -4.56619,4.01802 -6.39258,8.58399 -1.82639,4.56597 -0.91233,7.122 0.91406,7.66992 1.09441,0.32832 3.5553,-3.73009 5.47852,-7.27734 -0.95951,0.0663 -1.99157,0.0506 -3.11133,-0.10938 0.71585,-3.91984 3.52994,-5.41801 3.14453,-8.83398 l -0.0332,-0.0332 z m 8.08007,8.88086 c -0.13612,0.0143 -0.55298,0.0684 -0.59179,0.0684 -0.36529,0 -5.47852,3.10547 -5.47852,3.10547 l 0.36524,0.18164 -0.36524,0.1836 c 0,0 3.64848,-1.53332 6.52539,-2.67188 -0.17905,-0.23724 -0.33627,-0.51475 -0.45508,-0.86719 z m 4.74805,2.67969 c -2.11384,0.52783 -5.53421,1.37208 -7.53125,1.77149 -2.73959,0.54791 -3.83607,0.914 -2.74023,1.27929 0.90647,0.30201 7.3692,-0.46549 10.125,-0.77929 -0.11871,-0.66542 -0.0945,-1.42014 0.14648,-2.27149 z m 0.42578,3.81836 c -3.25703,0.31155 -8.49067,0.90688 -9.7832,1.42383 -1.82639,0.73054 1.0957,1.82617 1.0957,1.82617 l 9.1836,0.17578 c 0.49231,-0.45675 1.15538,-0.85085 2.04492,-1.13086 0,0 -1.6056,-0.73419 -2.54102,-2.29492 z M 322.47993,315.29612 c 2.07026,1.01449 1.8881,2.98394 3.10487,4.20071 0.0567,0.0567 0.42868,-2.85883 -1.09584,-4.38335 -1.39277,-1.39277 -4.32959,-0.97764 -2.00903,0.18264 z m 4.74862,7.30557 c 0.48514,0.93362 1.84606,6.1999 3.28751,5.47918 0.17801,-0.089 0.18264,-0.89152 0.18264,-1.09584 0,-3.87889 -4.16158,-5.7662 -3.47015,-4.38334 z m 5.1139,2.37431 c -0.0367,0.62077 0.55262,0.82776 0.91319,1.27848 3.36316,4.20394 0.10939,-3.32363 -0.91319,-1.27848 z m 7.85348,6.02709 c -1.22799,-0.77972 -2.8451,-3.10486 -4.2007,-3.10486 -0.62396,0 2.00903,1.92756 2.00903,3.83542 0,1.7333 -5.62133,2.52141 -2.55695,3.28751 0.47503,0.11875 3.6693,0.16612 4.01807,-0.18264 0.38254,-0.38255 -0.40616,-1.78552 -0.18264,-2.00903 0.40548,-0.40549 1.2327,-1.18738 0.91319,-1.8264 z m -12.23682,0 c 0.5849,0.5292 0.90507,0.90508 1.46111,1.46112 0.80812,0.80811 0.94752,2.22599 1.64375,2.92223 0.65543,0.65542 1.4278,-3.17686 -2.19167,-4.38335 -0.62802,-0.20934 -0.60159,-0.62321 -0.91319,0 z m 4.38334,8.94932 c 0.12199,0.65553 0.44279,5.47918 1.09583,5.47918 0.62553,0 1.11997,-3.99393 0.54792,-4.56598 -0.26875,-0.26875 -1.27377,-0.66654 -1.64375,-0.9132 z m -5.47918,-1.27847 c -0.43868,-0.87736 -1.11081,-1.29345 -1.82639,-1.82639 -4.07019,0.006 7.1162,12.406 1.82639,1.82639 z m -10.41043,-5.1139 c 3.39437,2.63946 0,7.15265 0,2.00903 0,-0.48389 -0.37124,-1.26655 0,-2.00903 z m 2.37431,8.76668 c 3.07642,1.49992 -0.18264,6.58552 -0.18264,1.27848 0,-0.69696 -0.51589,-0.92921 0.18264,-1.27848 z m 7.85348,5.29654 c -1.23509,0.57014 0.91449,7.8522 2.00903,6.75765 1.43664,-1.43663 -0.73378,-6.12003 -2.00903,-6.75765 z m 6.94029,7.30557 c 0.73338,-2.20014 -0.0379,-4.71767 -0.54791,-6.57501 -2.83685,-0.15507 0.23095,7.52589 0.54791,6.57501 z m -1.09583,2.92223 c -0.6437,0.61792 -0.17615,1.43516 -0.36528,2.19167 -2.05652,8.22608 3.13471,3.3472 0.36528,-2.19167 z m -8.94932,-0.36528 c 0.18983,1.01637 0.16193,2.08815 0.36528,3.10486 0.10571,0.52859 0.36527,1.31173 0.36527,1.8264 0,0.28217 -1.00647,1.36783 -0.73055,1.64375 1.24414,1.24414 4.73821,-6.57501 0,-6.57501 z m -4.93126,-7.48821 c 0.91124,1.38533 -0.45435,3.5682 0,4.93126 0.53087,1.59262 1.75682,0.89576 2.00903,-0.36528 0.1073,-0.53652 0.67455,-1.20785 0.36528,-1.82639 -0.43974,-0.87948 -1.87743,-1.74584 -2.37431,-2.73959 z m 0.36528,8.94932 c -0.73642,-0.0133 -1.90641,5.16724 -0.18264,4.01806 0.6283,-0.41887 0.90317,-3.65779 0.18264,-4.01806 z m 3.83542,6.94029 c -0.18519,0.78404 -0.29214,1.60697 -0.54792,2.37431 -0.28076,0.84228 -0.79178,1.70498 -1.27847,2.19167 -0.35098,0.35098 1.4425,0.95041 1.82639,0.18264 0.26208,-0.52417 1.66271,-5.57998 0,-4.74862 z m 8.4014,2.19167 c -3.8862,0.81561 -3.10477,7.12279 -1.64375,4.93126 1.00028,-1.50042 0.74717,-3.58639 1.64375,-4.93126 z m -3.83542,7.48821 c -0.46255,0.87897 -1.29695,1.39751 -1.82639,2.19167 -4.04676,6.07014 4.82386,-0.69294 1.82639,-2.19167 z m -4.2007,4.56598 c -0.78879,0.34073 -1.26248,0.8972 -1.82639,1.46111 -0.54024,0.54024 -0.72415,1.26566 -1.09584,2.00903 -3.44609,6.89218 5.71678,-2.07287 2.92223,-3.47014 z M 312.0695,389.265 c -0.64385,0.28615 -0.75086,0.57837 -1.09584,1.09583 -0.78774,1.18162 -0.43396,1.01373 0.73056,0.54792 0.51372,-0.20549 1.3349,0.24575 1.82639,0 1.48463,-0.74231 3.45923,-3.10487 0.9132,-3.10487 -0.57417,0.84407 -1.41009,1.03257 -2.37431,1.46112 z m 5.84445,0.91319 c -0.85073,0.26872 -1.37846,1.05451 -2.19167,1.46112 -0.34439,0.17219 -0.73833,0.22228 -1.09583,0.36527 -5.40815,2.16327 1.15868,2.49411 2.00903,1.64376 0.91007,-0.91008 1.09284,-1.45212 1.46111,-2.55695 0.15086,-0.45259 0.41987,-0.61194 -0.18264,-0.9132 z m -13.15002,4.56598 c -5.82448,5.82449 3.83542,0.53223 3.83542,-0.18264 0,-0.25193 -1.24187,-0.65736 -1.36979,-0.91319 -0.74037,0.43179 -1.80815,0.43835 -2.46563,1.09583 z m -8.21876,2.37431 c 0,0.37088 4.09477,-0.70134 4.38334,-1.27847 0.3282,-0.65641 0.10069,-1.29723 0.27396,-1.64376 -1.02758,-0.20211 -4.6573,2.70916 -4.6573,2.92223 z m -5.47918,-0.0609 c 0,0 -2.19167,1.09584 -4.2007,2.19167 -2.00903,1.09584 -4.56598,0.73056 -5.66181,1.46112 -1.09584,0.73055 -2.55695,2.00903 -0.73056,1.82639 1.82639,-0.18264 8.94932,-1.82639 9.86251,-2.55695 0.9132,-0.73056 0.73056,-2.92223 0.73056,-2.92223 z m -16.98544,5.11392 c -0.54792,0 -4.93126,3.47014 -6.0271,4.2007 -1.09583,0.73056 -5.66181,2.19167 -4.74862,2.55695 0.9132,0.36528 6.75765,-2.37431 9.49724,-3.28751 2.73959,-0.91319 3.10487,-2.73958 1.27848,-3.47014 z m -12.41947,6.02709 c -1.46111,0.18264 -3.65278,2.37431 -5.1139,3.65279 -1.46111,1.27847 -3.65278,2.92222 -3.47014,3.47014 0.18264,0.54792 3.10487,-1.46111 6.20973,-2.92223 3.10487,-1.46111 2.37431,-4.2007 2.37431,-4.2007 z m -10.77571,6.94029 c 0,0 -3.83542,0.73056 -4.56598,2.37431 -0.73056,1.64375 -2.73959,4.38334 -1.82639,4.01806 0.91319,-0.36527 3.2875,-2.92222 5.29653,-3.83542 2.00904,-0.9132 1.09584,-2.55695 1.09584,-2.55695 z m -10.2278,7.85349 c -0.91319,0 -4.2007,2.00903 -4.93125,3.47014 -0.73056,1.46112 0.54791,3.47015 2.00903,1.64375 1.46111,-1.82639 2.92222,-5.11389 2.92222,-5.11389 z m -7.85348,6.02709 c 0,0 -2.73959,0 -3.47015,2.92223 -0.73055,2.92222 1.8264,2.19167 2.37431,1.64375 0.54792,-0.54792 1.09584,-4.56598 1.09584,-4.56598 z m 70.55961,-65.62835 c 0,0 -1.8264,0 -3.10487,-1.09583 -1.27847,-1.09584 -0.36528,4.93125 2.37431,4.38334 2.73959,-0.54792 4.2007,-0.36528 3.65278,1.64375 -0.54791,2.00903 -0.73055,2.55695 -0.73055,2.55695 0,0 1.09583,3.2875 0.54791,4.2007 -0.54791,0.9132 -2.00903,0.54792 -2.00903,0.54792 0,0 1.09584,3.47014 0,5.66181 0,0 2.73959,-1.46111 2.73959,-2.92223 0,-1.46111 2.00903,-4.01806 1.64375,-8.03612 -0.36527,-4.01806 -2.19167,-5.29654 -2.19167,-5.29654 z m 0.73055,6.02709 c -0.54791,0 -3.2875,0.18264 -3.47014,2.19167 -0.18264,2.00904 1.46111,2.92223 1.46111,2.92223 z m -2.73958,7.48821 c 0,0 -1.64376,1.82639 -0.9132,3.47015 0.73056,1.64375 -0.9132,2.92222 -0.9132,2.92222 0,0 -1.46111,2.00903 0.18264,3.28751 1.64376,1.27847 3.47015,0.73056 3.47015,0.73056 0,0 -3.28751,-2.00904 -2.55695,-3.65279 0.73056,-1.64375 2.00903,-0.54792 2.00903,-0.54792 0,0 -1.64375,-3.83542 -1.27847,-6.20973 z m 55.30191,30.50431 c 0,0 0.64572,2.71206 -0.77488,4.52009 -1.4206,1.80804 -4.13265,6.19898 -4.13265,6.19898 0,0 3.35778,-3.09949 4.90753,-5.16581 1.54974,-2.06633 2.19547,-4.00351 0,-5.55326 z m -76.88457,-99.44196 c 0,0 1.54974,1.93718 2.06632,3.87436 0.51659,1.93718 -0.38743,3.61607 -0.38743,3.61607 0,0 1.4206,-0.64573 2.06633,-2.71205 0.64572,-2.06633 -3.35779,-4.64924 -3.74522,-4.77838 z m 28.58382,37.64547 c 0,0 2.00904,5.47918 4.56598,6.94029 2.55695,1.46111 3.83543,5.1139 3.83543,5.1139 0,0 -1.46112,-2.00903 -4.74862,-2.19167 0,0 -0.73056,-2.19167 -2.19167,-3.83543 -1.46112,-1.64375 -1.46112,-6.02709 -1.46112,-6.02709 z"
       transform="scale(0.26458333)"
       sodipodi:nodetypes="csccccscscscscssssccscsccsscscscscsssssccccsssssscsssscssccccsssssscssssscccccssccscscsccscsscccscsscccssssscscssscsssssscsscsscscsscscscscsssccscscssscsccsssssssssssscscsccscsccssscscsscscssscssccsscccscsscsccsscscssssccssccsccscsscsscssssssssccccscscsccscsccccccsssssscsscsscsscscccccscssscccccsscsssssssscsscscccccscccsssscscscscssscccsssccscsccssccccccscssccssccsssccccccsssssccscssssscscscssscccccsscssccsssssssssscsccsscccccssccccsscsccccscccccssccssccsccsssssccsssccsscscscsccsccscscscsccsssccsssccsccsssccsccsccsscsssscscscsscsscssscs" />
    <path
       style="font-variation-settings:normal;display:inline;opacity:1;fill:none;fill-opacity:1;stroke:#000000;stroke-width:0.42421298;stroke-linecap:butt;stroke-linejoin:bevel;stroke-miterlimit:4;stroke-dasharray:none;stroke-dashoffset:0;stroke-opacity:1;stop-color:#000000;stop-opacity:1"
       d="m 76.292132,77.307943 c -0.153589,-0.75284 -1.035431,-0.718585 -1.240234,-1.417411 -0.744141,-0.106305 -0.992188,-0.708705 -0.992188,-0.708705 -0.6024,-0.03543 -0.67327,-0.389788 -0.67327,-0.389788 -0.637835,0.07087 -0.956752,-0.531529 -0.956752,-0.531529 -0.637835,-0.03543 -0.850447,-0.637835 -0.850447,-0.637835 -0.602399,0.141741 -1.027622,-0.425223 -1.027622,-0.425223 -0.566965,0.141741 -0.708706,-0.248047 -0.708706,-0.248047 -0.708705,0.03544 -0.921317,-0.496094 -0.921317,-0.496094 -0.779576,0.106306 -1.41741,-0.496093 -1.41741,-0.496093 -0.566965,-0.03544 -0.885882,-0.389788 -0.885882,-0.389788 -0.602397,-0.141741 -0.569327,-0.674187 -0.569327,-0.674187 -0.200452,-0.350792 -0.100226,-0.851922 0.551244,-0.952148 0.651469,-0.100226 1.202713,0.200452 1.202713,0.200452 0,0 0.50113,-0.350791 1.302939,-0.200452 0.801808,0.150339 1.102486,0.902035 1.102486,0.902035 0.451018,0.150339 4.710626,2.555767 5.963452,2.605877 1.252826,0.05011 2.405425,-0.751695 3.207234,0 0.801809,0.751696 1.052374,1.503392 1.052374,1.503392 0,0 0.902035,0.100226 1.65373,0.250565 0.751696,0.150339 0.400904,0.902034 0.400904,0.902034 0,0 0.551244,0.05011 1.503391,0.350792 0.952145,0.300678 0.902035,1.00226 0.902035,1.00226 1.252829,0.250566 1.302939,1.202713 1.302939,1.202713 0.50113,0 0.851922,0.250566 0.851922,0.250566 -0.0089,-0.799103 0.07628,-1.150617 0.116208,-1.603962 -0.25787,-0.451428 -0.40423,-0.776396 -0.31666,-1.302595 0,0 0.551243,0.250566 0.952147,-0.350791 0.400905,-0.601356 0.200452,-1.353052 0.200452,-1.353052 0.902035,1.453278 1.603618,0 1.603618,0 0.50113,1.403165 1.703843,0.50113 1.703843,0.50113 -0.150339,1.1526 0.801808,1.302939 0.801808,1.302939 -0.400904,1.603618 -1.954408,2.154861 -1.954408,2.154861 0.451017,1.202713 -0.150339,1.904295 -0.150339,1.904295 0.400904,1.052374 -0.100226,1.987817 -0.100226,1.987817 1.252826,0.501131 0.952147,1.252826 0.952147,1.252826 0,0 0.801809,0.501131 1.202713,0.851922 0.400905,0.350791 0.150339,0.952148 0.150339,0.952148 0,0 0.751696,0.751695 1.302939,1.403165 0.551244,0.651469 0.200453,1.102487 0.200453,1.102487 1.152599,1.152599 0.801808,2.355312 0.801808,2.355312 0,0 0.350791,0.451017 0.801809,1.453278 0.451017,1.00226 -0.100226,1.653731 -0.100226,1.653731 0,0 0.100226,0.751695 0.50113,1.753956 0.400904,1.002261 -0.300678,1.503391 -0.300678,1.503391 0,0 0.200455,0.801808 0.250565,1.904295 0.05011,1.102484 -0.652022,1.185204 -0.652022,1.185204 0.483935,2.205584 -0.425223,2.860614 -0.425223,2.860614 0.04151,1.29287 -0.921317,1.48828 -0.921317,1.48828 0.07087,1.06306 -0.708705,1.65365 -0.708705,1.65365 2.409598,0 2.959238,1.1859 2.622209,2.33872 0.371677,1.17397 -0.54334,1.52888 -0.755952,2.69309 1.863392,0.26628 2.905692,-0.85045 2.905692,-0.85045 -0.212611,2.05525 1.488282,1.13393 1.488282,1.13393 -0.779576,1.41741 0.608479,2.04665 0.608479,2.04665 -1.246314,0.39231 -0.821091,1.63861 -0.821091,1.63861 -1.700893,-0.42522 -2.833161,-0.60654 -5.740514,-0.7087 -2.943982,-0.10345 -3.358762,-2.4872 -2.894132,-2.95183 -3.661813,0.23485 -3.9098,-2.38823 -3.9098,-2.38823 -1.274482,0.91173 -3.190593,1.78825 -9.521477,2.20497 -6.538585,0.43039 -10.852453,3.14993 -16.537303,7.91786 -5.684849,4.76794 -8.318764,4.30972 -8.318764,4.30972 0,0 2.706103,-1.30294 6.214015,-6.41447 3.507915,-5.11153 7.717409,-8.31876 11.525999,-10.52373 3.808592,-2.20498 8.318764,-3.70837 8.318764,-3.70837 0,0 -1.002259,-1.01896 2e-6,-2.12145 0,0 -0.300679,-0.501129 -0.05011,-1.002259 -1.322552,0.209184 -1.472963,-0.30633 -2.355316,-0.200449 0,0 0.009,0.952819 -1.002261,0.952147 -1.011284,-6.72e-4 -1.553504,0.501131 -1.553504,0.501131 0,0 0.250565,-1.503391 -1.202713,-1.854183 0,0 0.851922,-1.252828 -0.601356,-2.455541 0,0 2.305199,0.451017 2.756217,-1.202713 0,0 0.785104,0.250565 1.135895,1.302939 0,0 0.601357,0.200449 1.202713,0.150339 0,0 0.601356,-1.002261 2.054634,-0.801809 0,0 1.386461,-1.1526 3.19053,0.250565 0,0 -0.09842,-1.288668 0.822893,-1.784763 -0.255699,-0.639247 -0.839461,-1.213296 -1.063058,-2.196986 -0.421126,-1.852695 0,-1.984375 -0.921317,-3.472657 0,0 -0.525656,0.121199 -1.628143,0.121199 0,0 -1.202713,-0.501131 -1.753957,-1.703844 -0.551243,-1.202712 -1.453278,-1.65373 -1.453278,-1.65373 0,0 -0.91923,0.559842 -1.603617,0.05011 0,0 -0.338631,1.112131 -1.01442,1.595022 0,0 -0.438858,-1.244227 -1.641571,-0.592758 0,0 -0.250565,-1.353052 -1.65373,-1.102487 0,0 1.453278,-1.353052 0.350791,-2.505652 0,0 1.603618,-0.300678 1.403165,-1.503391 0,0 1.002261,0.200452 2.054635,0.05011 0,0 0.651469,0.250569 1.202713,0.902038 0,0 1.353052,0.100226 2.355312,0.851922 0,0 0.801809,-0.100226 1.302939,0.100226 0,0 -0.551243,-0.801809 -0.300678,-1.503391 0,0 -1.353052,0.150339 -1.603617,-1.453278 0,0 -0.451017,-0.200453 -2.255087,-1.202713 C 72.513559,77.775433 66.80994,74.867166 65.5858,74.161214 64.410734,73.48356 64.925738,72.68466 65.60048,72.7029 c 0,0 0.415424,-0.03698 0.628036,0.459117 0,0 0.637835,-0.106306 1.133929,0.67327 0,0 0.566964,0.07087 0.885881,0.496094 0,0 0.389788,0 0.815011,0.460658 0,0 0.496094,-0.07087 0.850447,0.531529 0,0 0.637835,-0.03543 0.956752,0.460659 0,0 0.573044,-0.116684 0.992188,0.427003 0,0 0.731981,0.03187 0.921317,0.636055 0,0 0.531529,-0.07087 0.992187,0.496093 0,0 0.543341,-0.307105 1.07487,0.153553 0,0 0.649646,0.330729 1.441034,-0.188988 z"
       id="path960"
       sodipodi:nodetypes="ccscssccscccccccsscccczcccccccccscscsczccsccccccccccscscsccscsccccccccscccccscscsscscscccccccccsscccccccccccc" />
    <path
       style="color:#000000;font-style:normal;font-variant:normal;font-weight:normal;font-stretch:normal;font-size:medium;line-height:normal;font-family:sans-serif;font-variant-ligatures:normal;font-variant-position:normal;font-variant-caps:normal;font-variant-numeric:normal;font-variant-alternates:normal;font-variant-east-asian:normal;font-feature-settings:normal;font-variation-settings:normal;text-indent:0;text-align:start;text-decoration:none;text-decoration-line:none;text-decoration-style:solid;text-decoration-color:#000000;letter-spacing:normal;word-spacing:normal;text-transform:none;writing-mode:lr-tb;direction:ltr;text-orientation:mixed;dominant-baseline:auto;baseline-shift:baseline;text-anchor:start;white-space:normal;shape-padding:0;shape-margin:0;inline-size:0;clip-rule:nonzero;display:inline;overflow:visible;visibility:visible;opacity:1;isolation:auto;mix-blend-mode:normal;color-interpolation:sRGB;color-interpolation-filters:linearRGB;solid-color:#000000;solid-opacity:1;vector-effect:none;fill:#000000;fill-opacity:1;fill-rule:nonzero;stroke:none;stroke-linecap:butt;stroke-linejoin:miter;stroke-miterlimit:4;stroke-dasharray:none;stroke-dashoffset:0;stroke-opacity:1;color-rendering:auto;image-rendering:auto;shape-rendering:auto;text-rendering:auto;enable-background:accumulate;stop-color:#000000;stop-opacity:1"
       d="m 88.376535,74.488421 c 0,0 -0.36693,-0.435607 -0.503206,-1.857357 -0.407807,1.193781 -0.04861,1.635303 -0.0038,2.173065 z m 1.530552,0.04478 c 0,0 -0.227767,-0.656874 -0.155136,-1.953125 -0.585627,0.740861 -0.120339,1.384987 -0.507115,1.931222 z m 0.873326,0.329381 0.768974,0.624442 c -0.123919,-0.78482 0.425171,-1.120331 0.157644,-2.205776 -0.27447,0.94245 -0.331866,1.297367 -0.926618,1.581334 z m -4.124443,1.711216 0.662947,-0.748047 c -0.417312,0.05511 -0.640459,-0.352451 -1.023995,-0.840402 -0.02631,0.798482 0.256764,0.73504 0.361048,1.588449 z m 5.427592,0.152204 c 0.397907,-0.878564 0.912852,-0.605177 0.876395,-1.439872 -0.330384,0.301968 -0.563982,0.751442 -1.218471,0.444895 z m -20.801754,4.884627 0.878348,-0.694197 c -0.943034,-0.132541 -1.145325,-0.811986 -2.081055,-0.737724 0,0 1.149396,0.730854 1.202707,1.431921 z m -0.58454,0.536272 c -0.941464,0.28608 -1.4599,-0.156855 -2.354493,0.47712 0,0 1.485958,-0.126696 1.914202,0.372211 z m -0.245677,3.087612 -0.526088,-0.597656 c -0.597115,0.666509 -1.618723,0.661829 -1.618723,0.661829 0.905495,0.602837 1.202637,-0.03348 2.144811,-0.06417 z m 1.826869,0.905413 -1.138951,-0.347099 c 0.217887,0.964694 -0.633751,1.751421 -0.936105,1.827009 1.439193,-0.02045 1.110427,-1.361229 2.075056,-1.47991 z m 0.430943,0.275393 c 0.306802,0.556953 0.314182,0.905549 0.204694,1.488002 0.563765,-0.44517 0.269301,-0.840707 0.723354,-1.410993 z m 0.689038,7.298546 c 0,0 0.608762,0.977309 0.369699,1.550362 l 0.837612,-0.341517 c -0.743166,-0.460875 -0.282709,-0.960798 -1.207311,-1.208845 z m -3.402343,1.702149 c 0.374478,0.550944 0.996164,0.621237 1.637416,1.203962 l 0.162109,-0.664481 c -1.045159,-0.149798 -1.354987,-0.576526 -1.799525,-0.539481 z m 2.061244,2.108817 c -0.118617,1.186832 -2.046763,0.795503 -2.273159,2.071847 0,0 0.95709,-0.98338 2.505302,-0.736329 z m 0.948382,2.234796 c -0.08491,0.844833 -0.67263,1.090073 -0.529158,1.964003 0,0 0.458233,-0.90575 1.182199,-1.40485 z m 24.922014,9.968873 c 0,0 0.105813,-0.51269 0.213309,-1.26549 -0.49128,0.64859 -0.386185,1.03523 -0.900181,1.39279 z m 1.169922,0.95509 0.127023,0.6068 c 0.24821,-0.64534 0.736537,-0.75047 0.717706,-1.49254 -0.319505,0.46063 -0.844729,0.88574 -0.844729,0.88574 z m 0.405685,1.80655 0.209126,0.64477 c 0.623139,-0.21254 1.317969,-0.13754 1.782639,-0.28042 -1.0267,-0.42614 -1.48524,-0.0351 -1.991765,-0.36435 z m -0.433029,1.42374 -0.128906,0.80096 c 0,0 0.534229,0.18159 1.30077,0.24414 -0.716848,-0.65508 -1.085932,-0.21361 -1.171864,-1.0451 z"
       id="path973"
       sodipodi:nodetypes="ccccccccccccccccccccccccccccccccccccccccccccccccccccccccccccccccccccccccc" />
    <path
       id="path1078"
       style="font-variation-settings:normal;display:inline;opacity:1;vector-effect:none;fill:#000000;fill-opacity:1;stroke:none;stroke-width:0.999999;stroke-linecap:butt;stroke-linejoin:miter;stroke-miterlimit:4;stroke-dasharray:none;stroke-dashoffset:0;stroke-opacity:1;stop-color:#000000;stop-opacity:1"
       d="m 249.75977,268.95312 c 0,0 -0.37871,1.79843 0.3789,3.97657 l 1.60938,-2.55664 z m 2.36718,1.32618 c 0,0 -0.3787,1.79842 0.37891,3.97656 l 1.61133,-2.55664 z m 4.26172,1.98828 c 0,0 -0.37871,1.80037 0.37891,3.97851 l 1.61133,-2.55859 z m -5.62305,0.46484 c -2.07589,1.00447 -2.79687,2.35547 -2.79687,2.35547 l 2.12695,0.5918 z m 3.59766,1.60938 c -2.07589,1.00446 -2.79687,2.35547 -2.79687,2.35547 l 2.12695,0.59179 z m 6.47656,0.10351 c 0,0 -0.3787,1.80038 0.37891,3.97852 l 1.60937,-2.55664 z m 3.22071,1.61133 c 0,0 -0.37871,1.79842 0.3789,3.97656 l 1.60938,-2.55664 z m -5.81446,0.55859 c -2.07589,1.00447 -2.79687,2.35547 -2.79687,2.35547 l 2.12695,0.5918 z m 9.03321,0.86133 c 0,0 -0.37871,1.79842 0.3789,3.97656 l 1.61133,-2.55664 z m -6.28711,1.31641 c -2.07589,1.00446 -2.79688,2.35547 -2.79688,2.35547 l 2.12696,0.59179 z m 9.69726,0.48242 c 0,0 -0.3787,1.80037 0.37891,3.97852 l 1.60937,-2.5586 z m -6.38281,0.93945 c -2.07589,1.00447 -2.79492,2.35352 -2.79492,2.35352 l 2.125,0.5918 z m 9.79102,1.23828 c 0,0 -0.37871,1.80038 0.3789,3.97852 l 1.61133,-2.55664 z m -6.38086,0.84376 c -2.07589,1.00446 -2.79688,2.35546 -2.79688,2.35546 l 2.12696,0.5918 z m 9.50781,0.67187 c 0,0 -0.37871,1.80037 0.37891,3.97852 l 1.60937,-2.5586 z m -5.7207,1.0332 c -2.07589,1.00447 -2.79493,2.35547 -2.79493,2.35547 l 2.125,0.5918 z m 8.8457,1.33399 c 0,0 -0.37871,1.80037 0.37891,3.97851 l 1.60937,-2.55664 z m -5.05664,0.65429 c -2.07589,1.00447 -2.79688,2.35547 -2.79688,2.35547 l 2.12696,0.5918 z m 8.18164,1.52539 c 0,0 -0.37871,1.36976 0.37891,3.0293 l 1.60937,-1.94726 z m -4.96289,0.4629 c -2.07589,1.00446 -2.79492,2.35546 -2.79492,2.35546 l 2.125,0.5918 z m 4.07226,1.42187 c -2.07589,1.00447 -2.79492,2.35547 -2.79492,2.35547 l 2.125,0.58984 z"
       transform="scale(0.26458333)" />
    <path
       style="font-variation-settings:normal;display:inline;opacity:1;vector-effect:none;fill:none;fill-opacity:1;stroke:#000000;stroke-width:0.396875;stroke-linecap:butt;stroke-linejoin:miter;stroke-miterlimit:4;stroke-dasharray:none;stroke-dashoffset:0;stroke-opacity:1;stop-color:#000000;stop-opacity:1"
       d="m 87.04634,78.911329 c 0,0 0.451022,0.23386 0.601361,1.035669 0,0 0.601357,0.200452 0.751696,1.102487 0,0 0.601356,0.300678 0.751695,0.952148 0,0 0.350782,-2e-6 0.751691,0.150338"
       id="path1176" />
    <path
       style="color:#000000;font-style:normal;font-variant:normal;font-weight:normal;font-stretch:normal;font-size:medium;line-height:normal;font-family:sans-serif;font-variant-ligatures:normal;font-variant-position:normal;font-variant-caps:normal;font-variant-numeric:normal;font-variant-alternates:normal;font-variant-east-asian:normal;font-feature-settings:normal;font-variation-settings:normal;text-indent:0;text-align:start;text-decoration:none;text-decoration-line:none;text-decoration-style:solid;text-decoration-color:#000000;letter-spacing:normal;word-spacing:normal;text-transform:none;writing-mode:lr-tb;direction:ltr;text-orientation:mixed;dominant-baseline:auto;baseline-shift:baseline;text-anchor:start;white-space:normal;shape-padding:0;shape-margin:0;inline-size:0;clip-rule:nonzero;display:inline;overflow:visible;visibility:visible;opacity:1;isolation:auto;mix-blend-mode:normal;color-interpolation:sRGB;color-interpolation-filters:linearRGB;solid-color:#000000;solid-opacity:1;vector-effect:none;fill:#000000;fill-opacity:1;fill-rule:nonzero;stroke:none;stroke-linecap:butt;stroke-linejoin:miter;stroke-miterlimit:4;stroke-dasharray:none;stroke-dashoffset:0;stroke-opacity:1;color-rendering:auto;image-rendering:auto;shape-rendering:auto;text-rendering:auto;enable-background:accumulate;stop-color:#000000;stop-opacity:1"
       d="m 78.574219,82.763672 -0.195313,0.345703 c 0,0 1.534088,0.87323 2.153321,2.483398 -0.282802,-1.897745 -1.958008,-2.829101 -1.958008,-2.829101 z m 1.933593,5.371094 0.0957,0.386718 c 1.503183,-0.463145 2.261416,-0.957366 2.233398,-2.828125 -0.383671,1.521501 -0.634196,1.915724 -2.329102,2.441407 z m 4.172434,12.353374 c 0,0 0.134941,-1.681617 -0.573801,-2.917828 0.275299,1.223893 0.192267,2.489738 0.186524,2.591798 -0.509368,0.0685 -0.816291,0.22009 -1.110771,0.44308 0.441643,-1.561426 0.1246,-2.78389 -0.299386,-3.624721 -0.446161,-0.88481 -1.042968,-1.353516 -1.042968,-1.353516 l -0.244141,0.3125 c 0,0 0.523413,0.409168 0.931641,1.21875 0.398837,0.790959 0.694846,2.101023 0.226841,3.628067 -0.57794,0.32282 -1.39488,0.4073 -1.39488,0.4073 1.109444,0.31621 2.300088,-0.62283 3.320941,-0.70543 z m -5.900391,-2.37458 c -0.462297,0.232327 -0.865793,0.943081 -0.865793,0.943081 l 0.359376,0.167968 c 0,0 0.116473,-0.435396 0.682198,-0.757533 0.565725,-0.322137 0.811192,-0.696179 0.390067,-1.063756 0.08778,0.481809 -0.103551,0.477914 -0.565848,0.71024 z m 14.177176,7.61105 0.0039,-0.39649 c 0,0 -2.263166,-0.0264 -4.302735,0.74219 2.070921,-0.36531 4.298828,-0.3457 4.298828,-0.3457 z m -0.868582,3.81641 c -0.534932,1.08949 -1.727121,1.12695 -1.727121,1.12695 l 0.01953,0.39648 c 0,0 1.435741,-0.14002 1.936942,-1.27455 0.501202,-1.13454 0.960138,-1.16111 1.79841,-1.31041 -0.929098,-0.31204 -1.492831,-0.028 -2.027761,1.06153 z"
       id="path1149"
       sodipodi:nodetypes="cccccccccczccccscccccczczcccczcczczcc" />
    <path
       style="color:#000000;font-style:normal;font-variant:normal;font-weight:normal;font-stretch:normal;font-size:medium;line-height:normal;font-family:sans-serif;font-variant-ligatures:normal;font-variant-position:normal;font-variant-caps:normal;font-variant-numeric:normal;font-variant-alternates:normal;font-variant-east-asian:normal;font-feature-settings:normal;font-variation-settings:normal;text-indent:0;text-align:start;text-decoration:none;text-decoration-line:none;text-decoration-style:solid;text-decoration-color:#000000;letter-spacing:normal;word-spacing:normal;text-transform:none;writing-mode:lr-tb;direction:ltr;text-orientation:mixed;dominant-baseline:auto;baseline-shift:baseline;text-anchor:start;white-space:normal;shape-padding:0;shape-margin:0;inline-size:0;clip-rule:nonzero;display:inline;overflow:visible;visibility:visible;opacity:1;isolation:auto;mix-blend-mode:normal;color-interpolation:sRGB;color-interpolation-filters:linearRGB;solid-color:#000000;solid-opacity:1;vector-effect:none;fill:#000000;fill-opacity:1;fill-rule:nonzero;stroke:none;stroke-linecap:butt;stroke-linejoin:miter;stroke-miterlimit:4;stroke-dasharray:none;stroke-dashoffset:0;stroke-opacity:1;color-rendering:auto;image-rendering:auto;shape-rendering:auto;text-rendering:auto;enable-background:accumulate;stop-color:#000000;stop-opacity:1"
       d="m 68.030134,70.230747 -0.348493,-0.144809 c 0,0 -0.270564,0.623566 0.30664,0.973632 -0.268607,-0.472396 -0.166917,-0.741515 0.04185,-0.828823 z m 2.307757,0.591519 -0.383789,-0.134208 c 0,0 0.246161,0.498528 0.05469,0.903739 0.446359,-0.214907 0.329102,-0.769531 0.329102,-0.769531 z m 8.976562,4.15039 c -0.211507,-0.317259 -0.652252,-0.628293 -1.488281,-0.521485 0.767585,0.156923 1.103236,0.421458 1.267578,0.66797 0.164342,0.246512 0.285156,0.484374 0.285156,0.484374 0,0 0.147054,-0.313599 -0.06445,-0.630859 z m -0.464844,1.283203 c -0.161446,-0.403613 -0.413578,-0.60393 -0.68164,-0.707031 -0.268062,-0.103101 -0.684913,-0.0372 -0.932161,-0.367815 -0.247247,-0.33062 -0.161586,-0.629255 -0.161586,-0.629255 0,0 -0.367081,0.30046 -0.01294,0.796886 0.354142,0.496426 0.790444,0.363408 1.010984,0.448231 0.220539,0.08482 0.39397,0.210512 0.533203,0.558594 0.171046,0.427615 0.568256,0.594364 0.898437,0.517578 0.330181,-0.07679 0.592671,-0.409693 0.375977,-0.81836 -0.06636,0.34303 -0.22799,0.512049 -0.436525,0.560547 -0.208535,0.0485 -0.464118,-0.03529 -0.593751,-0.359375 z M 89.25,77.202147 c 0.229649,-0.773709 0.779297,-1.489258 0.779297,-1.489258 0,0 -0.871503,0.386679 -0.779297,1.489258 z m -0.874024,0.235351 c 0.357345,-0.953967 -0.21289,-1.558594 -0.21289,-1.558594 0,0 0.08105,0.803072 0.21289,1.558594 z m 1.546875,-0.09375 c 0.702521,-0.407015 1.275391,-1.276367 1.275391,-1.276367 0,0 -0.873338,0.490744 -1.275391,1.276367 z m -9.191371,0.01465 c 0.628102,0.124164 1.0331,-0.02804 1.11227,-0.625977 0.399206,-0.187813 0.742188,-0.541016 0.742188,-0.541016 l -0.216937,-0.280134 c 0,0 -0.152064,0.489833 -0.724451,0.687361 -0.09846,0.517325 -0.563141,0.697935 -0.91307,0.759766 z m -3.307652,0.608397 c 0,0 -0.397304,0.0012 -0.630859,-0.203124 -0.214678,-0.234525 -0.22042,-0.409837 -0.408203,-0.775391 l -0.25586,0.07227 c 0.089,0.336372 0.284465,0.648321 0.490235,0.902344 0.290394,0.254095 0.581119,0.217848 0.671875,0.21289 0.434995,0.453212 1.087347,1.014592 1.682617,0.96289 -0.59965,-0.337427 -1.061572,-0.698334 -1.549805,-1.171875 z m 3.809576,2.047845 c 0.819033,0.341873 1.361594,-0.04598 1.547846,-0.80175 0.510973,-0.01754 0.845965,-0.134235 1.099609,-0.5625 0.901791,-0.382331 1.138672,-1.158204 1.138672,-1.158203 l -0.309012,-0.174666 c 0,0 0.09103,0.736773 -1.00739,1.158063 -0.241087,0.410068 -0.718448,0.549792 -1.074216,0.560543 -0.254956,0.701916 -0.832559,1.025883 -1.395509,0.978513 z m 7.219721,-0.897451 c 0.267567,0.02361 0.614176,0.15008 1.056641,0.541992 -0.266241,-0.600279 -0.698371,-0.776122 -1.033204,-0.805666 -0.334832,-0.02954 -0.526367,0.202147 -0.526367,0.202147 0,0 0.235363,0.03792 0.50293,0.06153 z m -10.476511,2.118187 0.249948,0.321264 c 0,0 0.701694,-0.29165 0.951172,-1.191407 -0.6275,1.07971 -1.20112,0.870143 -1.20112,0.870143 z m -4.791068,0.950167 c -0.747687,-0.314372 -1.488282,-0.03418 -1.488282,-0.03418 0,0 0.722632,0.144533 1.488282,0.03418 z m -0.425782,0.886721 c -0.942687,-0.258095 -1.700195,0.31836 -1.700195,0.31836 0,0 0.846062,-0.185547 1.700195,-0.31836 z m 0.532228,0.708985 c -0.453953,0.424294 -0.581708,0.941436 -0.567383,1.558594 0.255549,-0.472273 0.326595,-1.05336 0.567383,-1.558594 z m -0.81543,0.03516 c -0.777355,0.376092 -0.779296,1.311524 -0.779296,1.311524 0,0 0.414125,-0.791356 0.779296,-1.311524 z m 2.079102,12.957033 c 0,0 0.229886,-0.726148 -0.353516,-1.097656 0.212356,0.592228 0.353516,1.097656 0.353516,1.097656 z m -0.496097,0.673828 c -0.507433,-0.633243 -1.34668,-0.390625 -1.34668,-0.390625 0,0 0.791056,0.244293 1.34668,0.390625 z m 0.424808,0.708011 c -0.397819,-0.02773 -0.794869,0.216575 -0.992188,0.532224 0.370542,-0.118779 0.673407,-0.288745 0.992188,-0.532224 z M 97.1875,111.13672 c -0.533875,0.0496 -0.811935,0.0912 -1.02832,0.31933 0,0 0.570008,-0.0146 1.02832,-0.31933 z m 0.920896,0.88574 c -0.76525,-0.28765 -1.453125,0.14258 -1.453125,0.14258 0,0 0.929806,0.0612 1.453125,-0.14258 z m -0.142593,1.02738 c -0.633242,-0.0632 -1.59375,0.0361 -1.59375,0.0361 0,0 0.876154,0.34401 1.59375,-0.0361 z M 68.561338,71.343006 c 0,0 0.407505,-0.318917 0.212611,-0.637834 -0.194894,-0.318918 -0.67327,-0.03544 -0.478376,0.159458 0.194894,0.194894 0.265765,0.23033 0.265765,0.478376 z"
       id="path1227"
       sodipodi:nodetypes="ccccccccscscsssscszszcscczscccccccccccccccccscsccccccccccccccccccccccccccccccccccccccccccccccccccccccssc" />
    <path
       id="path1266"
       style="display:inline;opacity:1;fill:#ffffff;stroke:#000000;stroke-width:0.264583;stroke-miterlimit:4;stroke-dasharray:none;paint-order:fill markers stroke"
       d="m 78.496859,76.168946 a 0.49546102,0.49546102 0 0 1 -0.495462,0.495462 0.49546102,0.49546102 0 0 1 -0.49546,-0.495462 0.49546102,0.49546102 0 0 1 0.49546,-0.49546 0.49546102,0.49546102 0 0 1 0.495462,0.49546 z" />
    <path
       style="color:#000000;font-style:normal;font-variant:normal;font-weight:normal;font-stretch:normal;font-size:medium;line-height:normal;font-family:sans-serif;font-variant-ligatures:normal;font-variant-position:normal;font-variant-caps:normal;font-variant-numeric:normal;font-variant-alternates:normal;font-variant-east-asian:normal;font-feature-settings:normal;font-variation-settings:normal;text-indent:0;text-align:start;text-decoration:none;text-decoration-line:none;text-decoration-style:solid;text-decoration-color:#000000;letter-spacing:normal;word-spacing:normal;text-transform:none;writing-mode:lr-tb;direction:ltr;text-orientation:mixed;dominant-baseline:auto;baseline-shift:baseline;text-anchor:start;white-space:normal;shape-padding:0;shape-margin:0;inline-size:0;clip-rule:nonzero;display:inline;overflow:visible;visibility:visible;opacity:1;isolation:auto;mix-blend-mode:normal;color-interpolation:sRGB;color-interpolation-filters:linearRGB;solid-color:#000000;solid-opacity:1;vector-effect:none;fill:#000000;fill-opacity:1;fill-rule:nonzero;stroke:none;stroke-linecap:butt;stroke-linejoin:miter;stroke-miterlimit:4;stroke-dasharray:none;stroke-dashoffset:0;stroke-opacity:1;color-rendering:auto;image-rendering:auto;shape-rendering:auto;text-rendering:auto;enable-background:accumulate;stop-color:#000000;stop-opacity:1"
       d="m 73.296872,73.663133 c 0.416646,0.06815 0.748791,0.21574 1.064453,0.476582 0.485009,0.06067 0.814167,0.188537 1.208986,0.44531 -0.148058,-0.453267 -0.673248,-0.623029 -1.085937,-0.663086 -0.255228,-0.283841 -0.698601,-0.410037 -1.041016,-0.449219 -0.135806,-0.325302 -0.549136,-0.454117 -0.847656,-0.49414 -0.03535,-0.0528 -0.383912,-0.507135 -1.046875,-0.59961 -0.388992,-0.591938 -1.057396,-0.450643 -1.579382,-0.556532 0.441764,0.402778 1.087257,0.172398 1.424103,0.743986 0.693555,0.09036 1.059572,0.616226 1.059572,0.616226 0.404538,0.04621 0.624979,0.180365 0.843752,0.480483 z m 7.113284,1.139599 v 2e-6 l -0.257812,-0.02097 c 0,0 0.09701,0.47285 0.27832,1.155737 0.08109,-0.720279 -0.02051,-1.134765 -0.02051,-1.134765 z m 9.574216,3.683591 0.236328,-0.11914 c -0.400972,-0.646767 -0.905803,-0.940372 -1.621093,-0.792968 0.604578,0.107788 1.158791,0.47719 1.384765,0.912108 z m -3.656533,0.379131 -0.146198,-0.336161 c -0.768384,0.112933 -1.474091,0.35839 -1.590821,1.133791 0.349545,-0.579977 1.09255,-0.801521 1.737019,-0.79763 z m -7.149128,0.914815 c -0.577614,0.143008 -1.036553,0.248407 -1.553711,-0.100586 0.359513,0.611468 1.144962,0.487627 1.553711,0.100586 z m 8.403323,0.315432 0.02929,-0.263672 c -0.951207,-0.105689 -1.917967,0.431641 -1.917967,0.431641 0,0 1.03581,-0.262731 1.888673,-0.167969 z m -3.886717,1.492192 c 0.838843,-0.02288 1.419392,-0.756743 1.346678,-1.423831 -0.225131,0.709711 -0.619857,1.112411 -1.301761,1.154299 -0.01439,-0.373331 -0.08668,-0.5835 -0.352535,-0.769531 0.230539,0.652973 0.170688,1.191568 -0.400394,1.553711 0.463113,-0.0882 0.597537,-0.22246 0.708012,-0.514648 z m -2.362308,-0.789067 c -0.414241,-0.103128 -0.567124,-0.282062 -0.851564,-0.55078 0.05517,0.459323 0.498029,0.766449 0.851564,0.55078 z m 7.0791,0.39844 -0.02539,-0.263672 c -0.924923,0.169944 -1.568169,0.712622 -2.041992,1.486328 0.609366,-0.487398 1.312071,-1.138731 2.067382,-1.222656 z m -6.101177,0.453484 c 0,0 0.610532,0.582082 0.926372,1.25257 -0.08506,-0.832905 -0.59768,-1.208677 -0.926372,-1.25257 z m 3.483012,0.901977 c -0.525477,-0.169796 -0.77936,-0.454591 -1.102539,-0.852539 0.08955,0.563618 0.609809,1.005691 1.102539,0.852539 z m 5.93461,18.257893 c 0.112766,-0.27387 0.134548,-0.38017 0.181248,-0.62774 0,0 0.445782,0.036 0.967186,0.3436 -0.391478,-0.52473 -0.904466,-0.51845 -0.942408,-0.51855 0.0505,-0.419584 0.09131,-0.95045 0.08889,-1.005857 0.06389,-0.01116 0.12979,-0.01211 0.265624,-0.0957 0.189625,-0.116691 0.395883,-0.345396 0.451172,-0.732422 0.09977,-0.698392 0.0091,-1.728928 0,-1.83789 0.06467,-0.01391 0.113849,-0.01014 0.230469,-0.08789 0.177152,-0.118101 0.365069,-0.346499 0.419922,-0.730469 0.05398,-0.377857 0.0261,-0.977255 -0.01172,-1.49414 -0.03782,-0.516886 -0.08692,-0.964838 -0.08692,-0.964838 0.237444,-0.695023 0.05772,-1.41276 -0.206056,-1.964837 h 5e-6 c -0.269731,-0.564552 -0.590921,-0.942819 -0.609376,-0.964844 -0.05967,-0.838416 -0.288046,-1.479257 -0.515624,-1.896484 -0.222231,-0.407422 -0.420482,-0.596865 -0.441407,-0.617188 0.0064,-1.384662 -0.95995,-2.224232 -1.007812,-2.263672 -0.06714,-0.901879 -0.36284,-1.54192 -0.667969,-1.929687 -0.282246,-0.358686 -0.507824,-0.475569 -0.564453,-0.507813 0.03149,-0.529702 -0.04883,-1.021484 -0.04883,-1.021484 l -2.9e-5,-1.39e-4 -0.259766,0.05078 c 0,0 0.05675,0.441739 0.04297,0.888672 -0.997453,0.04125 -1.566406,0.923828 -1.566406,0.923828 0,0 0.731504,-0.675349 1.629882,-0.674805 0,0 0.273863,0.139843 0.55957,0.502928 0.271539,0.345081 0.534049,0.931449 0.603515,1.757813 -0.673667,-0.130634 -1.19085,0.132745 -1.341796,0.242187 -0.164042,-0.39111 -0.359283,-0.695257 -0.750001,-0.826172 0.233665,0.330591 0.462936,0.747725 0.681639,1.077149 0,0 0.805285,-0.521748 1.527342,-0.250977 l 0.0039,-0.0078 c 0.07323,0.06159 0.867365,0.793001 0.882813,2 -0.910091,-0.3067 -1.620307,0.118566 -1.679688,0.164062 -0.291959,-0.86911 -0.763671,-0.877929 -0.763671,-0.877929 0,0 0.625062,0.477612 0.685546,1.366211 -0.394168,0.0629 -0.736328,0.33789 -0.736328,0.33789 0,0 0.400098,-0.01891 0.868524,-0.08434 0.06641,-0.266046 0.04921,-0.438394 0.03383,-0.556281 0,0 0.759315,-0.561751 1.695314,-0.09375 l -4e-6,-10e-7 0.0039,-0.0059 c 0.02915,0.02846 0.177982,0.166469 0.376954,0.53125 0.212969,0.390444 0.433239,0.995196 0.488281,1.800781 -0.656458,-0.12994 -1.152513,0.14154 -1.310547,0.273438 -0.199594,-0.860522 -1.003906,-1.364258 -1.003906,-1.364258 0,0 0.7284,0.740175 0.821312,1.576173 -0.289059,0.590941 -0.894793,0.409886 -1.472632,0.377927 0.601906,0.400243 1.505189,0.456606 1.772461,-0.351562 0.106147,-0.09067 0.667549,-0.540065 1.310546,-0.277344 0.06811,0.08431 0.284199,0.3402 0.511719,0.816406 0.244322,0.511371 0.366511,1.14385 0.181641,1.712891 -0.516269,0.420791 -0.876411,0.17802 -1.320313,-0.196289 0.07395,0.703849 0.857315,0.843208 1.326172,0.550088 0.0041,0.03495 0.04632,0.279294 0.08203,0.767295 0.03735,0.510431 0.05992,1.113774 0.01367,1.4375 -0.04537,0.317615 -0.181161,0.464524 -0.304687,0.546875 -0.09915,0.0661 -0.151536,0.06943 -0.181641,0.07422 -0.659273,0.06711 -1.086937,-0.177602 -1.436523,-0.620117 0.123915,0.58546 0.634742,0.849337 1.270507,0.850586 0.0066,0.08471 0.09386,1.161348 0.002,1.804688 -0.04494,0.31456 -0.192015,0.461161 -0.328125,0.544922 -0.136111,0.08376 -0.253907,0.09375 -0.253907,0.09375 l -0.08398,0.0059 c -0.741208,-0.680672 -1.659267,-0.342785 -1.659267,-0.342785 0,0 0.952955,-0.151491 1.602538,0.588868 0.0037,0.113592 0.04221,0.921766 -0.271484,1.683596 -0.15642,0.37987 -0.434797,0.48554 -1.057336,0.34876 -0.622538,-0.13678 -0.870938,-0.53036 -1.225867,-0.96697 0.123141,0.55124 0.501851,1.1496 1.218814,1.25438 0.716963,0.10479 1.114201,-0.0644 1.308573,-0.53649 z M 80.357422,82.00781 c -0.239206,0.496132 -0.601422,0.682435 -1.127929,0.845704 0.475687,0.252051 1.785173,-0.61281 1.127929,-0.845704 z m 1.076174,0.194334 c -0.612704,-0.197354 -0.849549,0.180526 -0.651357,0.751957 0.06801,-0.500967 0.244065,-0.617799 0.651357,-0.751957 z m -4.30469,0.489261 v -5e-6 l -0.210937,0.158203 c 0,0 0.569492,0.751706 0.506836,1.975589 0.338247,-1.281769 -0.295899,-2.133787 -0.295899,-2.133787 z m 13.773438,0.380861 v -6e-6 l -0.213396,-0.11567 c 0,0 -0.0013,0.516426 -0.26805,0.882276 0.535036,-0.235508 0.481446,-0.7666 0.481446,-0.7666 z m -4.908203,1.435543 c -0.019,-0.615002 -0.237613,-1.119282 -0.851562,-1.15332 0.42826,0.288108 0.651979,0.819685 0.851562,1.15332 z m -3.70801,0.0498 c -0.01369,-0.509221 -0.230013,-0.858745 -0.702147,-0.952149 0.281595,0.29343 0.496966,0.688171 0.702147,0.952149 z m -0.401366,1.001953 c -0.131976,-1.075757 -0.902344,-1.553711 -0.902344,-1.553711 0,0 0.533191,0.624946 0.902344,1.553711 z m 10.466799,-0.633791 -0.253908,-0.06836 c 0,0 -0.111367,0.4682 -0.724608,0.735351 0.789924,-0.03353 0.978516,-0.666992 0.978516,-0.666991 z m -8.311525,1.585938 c 0.04689,-0.355416 -0.122204,-0.666066 -0.388672,-0.839844 0.03421,0.302295 0.191445,0.593903 0.388672,0.839844 z m -5.387694,-0.382817 c -0.383183,-0.383179 -0.676759,-0.802732 -0.676759,-0.802732 0,0 0.0581,0.557125 0.489258,0.988279 0.431154,0.431154 1.14028,0.780633 2.067383,0.314453 -0.927078,0.185291 -1.496699,-0.1168 -1.879882,-0.5 z m 7.993163,-0.769522 c 0,0 0.06326,0.67162 0.500976,1.252929 0.02036,-0.569072 -0.500976,-1.252929 -0.500976,-1.252929 z m 1.328125,0.725581 c 0,0 0.09103,0.309581 0.460937,0.636719 -0.03334,-0.478642 -0.460937,-0.636719 -0.460937,-0.636719 z m -2.681641,1.5293 c 0.07874,-0.441402 -0.08188,-0.773585 -0.344726,-0.939452 0.02531,0.285148 0.165765,0.579046 0.344726,0.939452 z m -2.311481,0.762687 c 0.490132,-0.53119 0.869928,-1.385012 0.357401,-1.94824 0.01677,0.710184 -0.112106,1.319922 -0.544943,1.760745 -0.408217,0.45886 -0.671164,0.927802 -0.456997,1.496091 0.05774,-0.508327 0.369672,-1.027964 0.644539,-1.308596 z m 3.614215,-0.962882 c 0,0 0.541554,0.538469 0.952149,1.302735 -0.190761,-0.939578 -0.876953,-1.41211 -0.952149,-1.302735 z m 6.969725,0.499994 c 0.202548,-0.137443 0.283203,-0.3125 0.283203,-0.3125 l -0.240232,-0.109374 c 0,0 -0.04316,0.10253 -0.191406,0.203124 -0.148244,0.100595 -0.395165,0.19358 -0.839845,0.25293 0.457355,0.209693 0.785733,0.103263 0.98828,-0.03418 z m -9.959959,0.551758 c 0,0 0.07897,0.451699 0.351562,0.902345 -0.02808,-0.551619 -0.233398,-0.961916 -0.351562,-0.902345 z m 2.94043,1.905275 c 0.04473,-0.33663 -0.135397,-0.656918 -0.418946,-0.84668 0.05472,0.323897 0.223874,0.632067 0.418946,0.84668 z m 1.553711,0.80078 c 0,0 0.351348,-0.777797 -0.250001,-1.402344 0.112438,0.6136 0.250001,1.402344 0.250001,1.402344 z m 6.469726,-1.070313 -0.177734,-0.197265 c 0,0 -0.472719,0.448799 -1.213867,0.249023 0.762242,0.501807 1.391601,-0.05176 1.391601,-0.05176 z m -10.210938,1.420897 c 0.078,-0.388553 -0.07422,-0.889648 -0.201171,-0.851563 0,0 0.02294,0.538534 0.201171,0.851563 z m 6.497069,0.551761 c 0,0 7.79e-4,0.560086 -0.0791,0.939451 -0.06233,0.0289 -0.526124,0.257587 -1.12305,0.212893 0.669816,0.345071 1.345703,-0.02051 1.345703,-0.02051 0.20586,-0.556038 -0.143549,-1.131838 -0.143549,-1.131838 z m -4.133774,0.580077 c -0.01793,-0.263045 -0.124986,-0.480469 -0.124986,-0.480469 0,0 -0.158346,0.209849 -0.138686,0.498047 0.01965,0.288198 0.08226,0.647374 0.389648,0.855469 -0.04341,-0.293036 -0.108041,-0.610002 -0.125976,-0.873047 z m 1.278307,-0.379879 c 0,0 0.210159,0.892173 0.250001,1.554688 0.240293,-0.740651 -0.12793,-1.604492 -0.250001,-1.554688 z m 7.057618,1.229493 0.246093,-0.09766 c 0,0 -0.313259,-0.766368 -1.328125,-1.014647 0.827768,0.460426 1.082032,1.112307 1.082032,1.112307 z m -10.599609,-0.8291 c 0,0 0.05438,0.862717 -0.0498,1.503906 0.538684,-0.697184 0.0498,-1.503906 0.0498,-1.503906 z m 6.046874,1.654299 c 0,0 -0.243592,0.673709 0.250977,1.203122 -0.207013,-0.573067 -0.250977,-1.203122 -0.250977,-1.203122 z m -4.412109,0.803714 c -0.04072,-0.318964 -0.282227,-0.502933 -0.282227,-0.502933 0,0 -0.01394,0.266266 0.02051,0.53613 0.03445,0.269863 0.0023,0.58011 -0.169922,0.917972 0.429162,-0.213382 0.47236,-0.632204 0.431641,-0.951169 z m 1.902344,0.626944 c 0.08375,-0.270591 0.165511,-0.604652 0.0049,-0.878907 -0.110515,0.226876 -0.179675,0.545185 -0.258789,0.800782 -0.07911,0.255596 -0.04297,0.501952 -0.04297,0.501952 0,0 0.213124,-0.153237 0.296876,-0.423827 z m -3.523438,-0.34374 c -0.0068,-0.286472 -0.213867,-0.48536 -0.213867,-0.48536 0,0 -0.05747,0.251489 -0.05176,0.491204 0.0057,0.239715 -0.0438,0.476836 -0.198243,0.711921 0.396797,-0.06559 0.470688,-0.431293 0.463867,-0.717765 z m 10.732423,1.183582 0.257813,-0.06445 c -0.05514,-0.22059 -0.329019,-1.075819 -1.332032,-1.270509 0.801057,0.406666 1.029143,1.154646 1.074219,1.334959 z m -6.251954,-0.61621 c 0,0 0.997371,0.727946 1.552734,-0.04981 -0.806272,0.302036 -1.552734,0.04981 -1.552734,0.04981 z m -10.290036,0.801759 c 0.277965,-0.22036 0.29783,-0.455891 0.09961,-0.702144 -0.0482,0.261394 -0.14897,0.472245 -0.09961,0.702144 z M 77.6084,97.035146 c -0.23045,-0.280147 -0.191818,-0.517835 -0.250977,-0.851562 -0.268666,0.403071 -0.171587,0.724759 0.250977,0.851562 z M 76.67383,96.292964 76.4375,96.173819 c -0.159428,0.374158 -0.09751,0.866572 0.268555,0.961915 -0.169687,-0.346299 -0.127704,-0.550216 -0.03223,-0.84277 z m 4.091797,0.391595 c -0.361136,-0.01109 -0.556686,-0.0789 -0.763672,-0.05664 0.118749,0.235249 0.423225,0.318297 0.763672,0.05664 z M 94.1875,96.431631 c -0.267205,1.005015 -0.709961,1.558595 -0.709961,1.558595 0,0 0.818967,-0.237041 0.709961,-1.558595 z m -18.883787,1.605478 c 0,0 0.203221,-0.117604 0.267575,-0.357442 0.454244,-0.02867 0.928132,0.06316 1.256833,0.1367 0.634899,0.105321 1.200025,0.0806 1.582031,-0.429684 -0.482497,0.245661 -1.11727,0.25977 -1.523437,0.171877 -0.558931,-0.12703 -0.908896,-0.155191 -1.246088,-0.132788 -0.109847,-0.232613 -0.09904,-0.501433 -0.387693,-0.741194 0.252644,0.707513 0.05078,1.352531 0.05078,1.352531 z m 5.652342,-0.119134 c 0,0 0.206261,0.6214 0.05957,1.122073 0.440465,-0.477931 0.190941,-1.051755 0.169921,-1.102539 0.208726,-0.288445 0.258697,-0.607274 0.06836,-0.80762 -0.07183,0.238131 -0.0668,0.477584 -0.297848,0.788086 z m 4.386719,-1.032233 c 0.0043,0.697125 -0.451173,1.40332 -0.451173,1.40332 0,0 0.960195,-0.313571 0.451173,-1.40332 z m 4.359375,0.299809 c 0,0 -0.336126,0.928109 -0.451173,1.454101 0.740437,-0.54714 0.451173,-1.454101 0.451173,-1.454101 z m -2.385743,1.308596 c 0.09201,-0.312824 0.232487,-0.681166 0.280274,-0.958009 -0.303004,0.174174 -0.43631,0.557671 -0.532227,0.883788 -0.09592,0.326117 -0.01856,0.620118 -0.01856,0.620118 0,0 0.178503,-0.233073 0.270508,-0.545897 z m -7.001955,-0.35645 c -0.530264,-0.03348 -0.841223,0.328867 -0.601562,0.801758 0.156365,-0.522962 0.33739,-0.657133 0.601562,-0.801758 z m 14.500002,1.600588 0.232422,-0.126953 c 0,0 -0.509097,-0.934428 -1.46875,-1.239258 0.744191,0.49698 1.236328,1.366211 1.236328,1.366211 z m -6.515625,0.504875 c 0.213112,-0.333158 0.341161,-0.690079 0.551758,-1.103513 -0.483604,0.162364 -0.637101,0.605058 -0.551758,1.103513 z m -7.683595,0.35059 c 0,0 0.447937,-0.51251 -0.04981,-1.102535 0.203837,0.612685 0.04981,1.102535 0.04981,1.102535 z m 6.129884,-0.952145 c -0.415521,0.09889 -0.644675,0.338698 -0.701172,0.751945 0.295924,-0.18186 0.45189,-0.451266 0.701172,-0.751945 z m -6.781253,1.453115 c -0.115827,-0.36522 -0.124174,-0.73862 -0.09961,-1.05175 -0.328788,0.3954 -0.281452,0.75706 0.09961,1.05175 z m 7.277347,-0.29394 c 0.03776,0.55892 -0.133358,1.05682 -0.496094,1.34765 0.650389,-0.22423 0.856064,-0.58145 0.496094,-1.34765 z m -1.629883,0.0713 c 0,0 -0.609971,0.24189 -0.708008,1.13477 0.393758,-0.49162 0.708008,-1.13477 0.708008,-1.13477 z m 8.760717,1.71 h 0.265625 c -0.0699,-0.69304 -0.59703,-1.3291 -1.10935,-1.65429 0.364272,0.5437 0.749679,1.0086 0.843725,1.65429 z m -2.274386,0.48832 c 0.255711,-0.32482 0.437896,-0.86908 0.07617,-1.6416 0.08929,0.78098 -0.07732,1.21353 -0.285157,1.47754 -0.207835,0.26401 -0.416014,0.47656 -0.416014,0.47656 0,0 0.369291,0.0123 0.625001,-0.3125 z m -12.133792,-0.62208 c -0.434013,-0.38757 -0.651367,-0.85254 -0.651367,-0.85254 0,0 -0.01711,0.63875 0.651367,0.85254 z m 10.679688,0.0781 c -0.620611,-0.0711 -1.134766,-0.709 -1.134766,-0.709 0,0 0.337967,0.92179 1.134766,0.709 z m -3.213867,0.15919 c 0.247145,0.31869 0.586632,0.66509 1.009765,0.69531 0.555363,-0.0383 0.772253,-0.32987 0.711914,-0.83203 -0.164619,0.35739 -0.422561,0.58298 -0.692381,0.56836 -0.27845,-0.0199 -0.591384,-0.29855 -0.820312,-0.59375 -0.228928,-0.2952 -0.492189,-0.52637 -0.492189,-0.52637 0,0 0.03606,0.36979 0.283203,0.68848 z m -1.180665,-0.25391 c -0.223767,-0.009 -1.076122,0.21661 -0.99121,0.85059 0.593217,-0.68593 0.789756,-0.55808 0.99121,-0.85059 z m 7.202145,1.49024 0.253906,-0.0762 c 0,0 -0.301466,-1.05788 -1.229492,-1.26464 0.675592,0.39459 0.975586,1.34084 0.975586,1.34084 z M 82.351565,103.4942 c 0,0 0.41766,-0.22799 0.920899,-0.42481 -0.630689,-0.055 -1.01465,0.33106 -0.920899,0.42481 z m 7.294919,0.15235 c -0.216884,0.26404 -0.208008,0.58106 -0.208008,0.58106 0,0 0.222465,-0.18103 0.413086,-0.41309 0.190622,-0.23206 0.457352,-0.44726 0.791016,-0.58007 -0.445912,-0.13282 -0.779209,0.14807 -0.996094,0.4121 z m -6.177734,0.28326 c -0.615433,0.0769 -0.833985,0.55761 -0.833985,0.55761 0,0 0.348692,-0.22913 0.867188,-0.29394 v -5e-5 c 0.649084,-0.0812 0.762696,-0.76951 0.762696,-0.76951 0,0 -0.311054,0.44526 -0.795899,0.50589 z m 7.792969,1.09168 c 0.154222,-0.34197 0.270572,-0.86078 0.01074,-1.53808 -0.0093,0.67575 -0.119003,1.13369 -0.25293,1.43066 -0.133927,0.29697 -0.197266,0.52441 -0.197266,0.52441 0,0 0.285231,-0.075 0.439454,-0.41699 z m -5.396471,-0.14842 c -0.196706,-0.0328 -0.323348,-0.1168 -0.417968,-0.23047 -0.218777,-0.30482 -0.233615,-0.64404 -0.36036,-1.00684 -0.170069,0.42817 -0.05301,0.83387 0.157235,1.17675 0.130888,0.15725 0.323814,0.27988 0.578125,0.32227 0.753484,-0.001 1.129003,-0.44008 1.223632,-1.13281 -0.295823,0.46229 -0.719497,0.93698 -1.180664,0.8711 z m 2.306623,0.52744 c 0.243701,-0.12365 0.461596,-0.6647 0.395508,-1.16503 -0.253059,0.61604 -0.401172,0.9379 -0.395508,1.16503 z m -6.837887,-0.94734 c -0.730493,0.0329 -1.201171,0.56249 -1.102539,0.65038 0,0 0.530093,-0.38261 1.102539,-0.65038 z m -1.804688,0.24901 c -0.710375,-0.0779 -1.101562,0.45118 -1.101562,0.45118 0,0 0.509001,-0.27301 1.101562,-0.45118 z m 2.56836,1.89941 c -0.148813,-0.0216 -0.269475,-0.0794 -0.351562,-0.16211 -0.08209,-0.0827 -0.13086,-0.19008 -0.13086,-0.33398 0,-0.60709 0.620117,-1.15234 0.620117,-1.15234 0,0 -0.883789,0.35626 -0.883789,1.15234 v 10e-6 c 0,0.20689 0.0777,0.38924 0.207032,0.51953 0.129327,0.13029 0.306239,0.20981 0.501953,0.23828 0.391428,0.0569 0.990294,-0.2086 1.177734,-0.55763 -0.439656,0.22982 -0.842999,0.33919 -1.140625,0.2959 z m 2.509766,-1.56441 c -0.3888,0.16244 -0.897242,0.37499 -1.102539,0.55075 0.464251,0.1685 0.936807,-0.23844 1.102539,-0.55075 z m -7.589842,0.27342 c -0.179669,-0.0184 -0.300485,0.13251 -0.417971,0.32617 -0.326436,-0.0249 -0.581728,0.0102 -0.659177,0.20604 0.167922,0.0556 0.361164,-0.003 0.782229,0.0107 0.184617,-0.24595 0.298738,-0.37215 0.294919,-0.54293 z m 11.148439,1.33007 c -0.01504,-0.52201 0.315531,-0.83484 0.600587,-1.05175 -0.646559,0.11303 -0.896984,0.49061 -0.600587,1.05175 z m -8.9043,-0.8105 c -0.111976,0.095 -0.222086,0.21143 -0.296875,0.35547 -0.07479,0.14404 -0.110426,0.32001 -0.06445,0.5039 0.08691,0.34765 0.364497,0.5498 0.679687,0.56446 0.31519,0.0147 0.666213,-0.12777 0.901367,-0.4961 -0.366201,0.13281 -0.666123,0.24087 -0.889648,0.23047 -0.223526,-0.0104 -0.372121,-0.10958 -0.435547,-0.36328 -0.0292,-0.11679 -0.0091,-0.21614 0.04297,-0.31641 0.05206,-0.10026 0.139634,-0.19695 0.234375,-0.27734 0.189482,-0.16077 0.346677,-0.37696 0.346677,-0.37696 0,0 -0.294606,-0.0142 -0.518556,0.17579 z m 6.699218,-0.19242 c 0.247607,0.52585 0.590289,1.0019 0.299805,1.55371 0.662516,-0.44515 0.235386,-1.1044 -0.299805,-1.55371 z m -1.234375,1.00684 c -0.04023,0.34199 0.0015,0.78197 0.432617,0.99804 -0.170227,-0.33515 -0.20388,-0.67179 -0.168945,-0.96874 0.03494,-0.29695 0.01855,-0.58399 0.01855,-0.58399 0,0 -0.241992,0.2127 -0.282227,0.55469 z m -9.80664,-0.43844 c -0.322727,-0.13183 -0.559279,-0.0506 -0.652344,0.15041 0.182557,0.0507 0.373714,-0.0186 0.652344,-0.15041 z m 13.145504,1.8877 c -0.767982,-0.3869 -0.707114,-1.20901 -0.701169,-1.9541 -0.271367,0.75686 -0.283593,1.90219 0.701169,1.9541 z m 4.137699,-1.17286 c 0.498864,0.12206 1.169584,-0.0821 1.416992,-0.49711 -0.500724,0.1736 -0.954041,0.23341 -1.416992,0.49711 z m -14.535156,0.5127 c -0.05969,0.0853 -0.163911,0.13304 -0.289063,0.13868 -0.125151,0.006 -0.263891,-0.0358 -0.361328,-0.11133 -0.09744,-0.0755 -0.157199,-0.17525 -0.152344,-0.32032 0.0049,-0.14506 0.08218,-0.34761 0.208984,-0.68457 -0.349268,0.18924 -0.466936,0.44559 -0.474609,0.67481 -0.0077,0.22922 0.102731,0.42039 0.25586,0.53906 0.153128,0.11868 0.347101,0.17448 0.535156,0.16602 0.188055,-0.008 0.378439,-0.0847 0.494141,-0.25 0.333479,-0.4764 0.818359,-0.82031 0.742187,-0.92872 0,0 -0.590882,0.25051 -0.958984,0.77637 z m 17.227539,-0.37207 c -0.523166,-0.40951 -0.992188,-0.35449 -0.992188,-0.35449 0,0 0.381426,0.19708 0.992188,0.35449 z M 91.49414,106.7081 c -0.557586,0.27625 -1.074507,0.36159 -1.629883,0.63671 0.536519,0.0607 1.442362,-0.0621 1.629883,-0.63671 z m -18.779296,0.24999 c -0.864681,-0.37702 -1.454102,0.35059 -1.454102,0.35059 0,0 0.747054,-0.31067 1.454102,-0.35059 z m 11.621093,0.10352 c 0,0 -0.606215,0.22168 -1.345703,0.35449 0.744494,0.20799 1.345703,-0.35449 1.345703,-0.35449 z m 5.182617,1.28223 c -0.558987,-0.27449 -0.635258,-0.67089 -0.801757,-1.20215 -0.277629,0.64862 0.262666,1.23502 0.801757,1.20215 z m -13.346679,-1.03511 c -0.380986,0.13361 -0.641781,0.12029 -1.052734,0 0.300622,0.41316 0.843063,0.34445 1.052734,0 z m 16.739258,0.24897 c -1.423081,-0.33988 -1.488281,0.92188 -1.488281,0.92188 0,0 0.501764,-0.72368 1.488281,-0.92188 z m -10.559571,0.0713 c -0.752213,0.0317 -0.850586,0.85059 -0.850586,0.85059 0,0 0.32713,-0.59883 0.850586,-0.85059 z m -1.346679,0.0712 c -0.641978,0.082 -0.940365,0.52488 -1.063477,1.13379 0.313688,-0.37618 0.640044,-0.90268 1.063477,-1.13379 z m -3.340824,1.24506 c -0.244061,0.0709 -0.485351,0.17186 -0.485351,0.17186 0,0 0.254385,0.17066 0.55957,0.0821 0.270279,-0.0785 0.537706,-0.34111 0.685547,-0.73633 0.04892,0.008 0.177967,0.0355 0.386719,-0.0254 0.244582,-0.0713 0.534732,-0.26787 0.564454,-0.73826 -0.253759,0.3092 -0.458028,0.43172 -0.63867,0.4844 v -4e-5 c -0.180641,0.0527 -0.480445,0.0241 -0.480445,0.0241 -0.17298,0.46606 -0.347762,0.66676 -0.591824,0.73761 z m -3.603512,-0.71088 c 0.300622,0.16079 0.760902,0.23638 1.258789,-0.17389 -0.554486,0.14104 -0.895696,0.0668 -1.133789,-0.0606 -0.238093,-0.12735 -0.46875,-0.24019 -0.46875,-0.24019 0,0 0.04313,0.31386 0.34375,0.47466 z m -3.050781,-0.37404 c -0.322727,-0.13184 -1.089738,0.15021 -1.151829,0.35084 0.163422,0.0503 0.625642,-0.0907 1.151829,-0.35084 z m 2.831954,0.85155 c -0.332838,-0.0646 -0.786626,-0.18098 -1.039962,-0.21973 0.122511,0.27446 0.603546,0.32041 1.039962,0.21973 z m -4.584884,-0.45114 c 0,0 -0.914815,0.003 -0.902343,0.70215 0.483235,-0.43997 0.902343,-0.70215 0.902343,-0.70215 z m 24.688476,1.2334 c -0.516076,0.47211 -0.975436,0.97976 -1.018554,1.85644 0.245103,-0.76997 0.618753,-1.17874 1.186523,-1.65136 0.56777,-0.47262 0.748047,-1.07924 0.688058,-1.49052 0,0 -0.339951,0.81333 -0.856027,1.28544 z m -17.866218,-0.89762 c -0.836258,0.67195 -1.948233,1.01652 -1.948233,1.01652 0,0 1.372144,0.12508 1.948233,-1.01652 z m -3.916009,0.7157 c -0.606715,0.0957 -1.077793,0.1447 -1.410156,0.27051 0.356691,0.1388 1.087781,0.0959 1.410156,-0.27051 z m -4.110351,0.001 c 0,0 -0.871883,-0.0307 -0.951172,0.75196 0.480904,-0.38873 0.951172,-0.75196 0.951172,-0.75196 z m 1.052712,0.50098 c 0,0 -0.87263,0.14119 -2.13279,1.19727 -0.0036,0.003 -0.0023,8.9e-4 -0.0059,0.004 -0.921148,0.18766 -1.46875,1.00391 -1.46875,1.00391 0,0 0.73253,-0.6312 1.606444,-0.78618 1.271684,-1.05585 2.000996,-1.419 2.000996,-1.419 z m -2.706032,0.25098 c 0,0 -1.007737,-0.025 -1.352539,1.15234 0.688779,-0.79586 1.352539,-1.15234 1.352539,-1.15234 z m 28.49707,0.51269 -0.232422,-0.125 c 0,0 -0.412575,0.77224 -0.384765,1.81641 0.228261,-0.96035 0.617187,-1.6914 0.617187,-1.69141 z m -31.302734,1.3906 c -0.530928,0.14395 -0.785751,0.40815 -0.923828,0.61526 -0.06904,0.10356 -0.303762,0.38594 -0.150325,0.3964 0.384914,-0.46506 0.703042,-0.65447 1.074153,-1.01166 z m 0.253906,1.3926 c 0.2249,-0.2422 0.616834,-0.51289 1.298828,-0.74024 -0.771283,-0.0269 -1.230438,0.27657 -1.49414,0.56056 -0.263702,0.28399 -0.209961,0.59179 -0.209961,0.59179 0,0 0.180369,-0.16991 0.405273,-0.41211 z m -3.160814,1.34999 c -0.0607,0.075 0.675263,-0.8024 1.07786,-1.10734 -0.3529,0.045 -0.908147,0.25671 -1.07786,1.10734 z m 0.97722,0.18322 c -0.162764,0.18555 -0.285217,0.36547 -0.254859,0.57531 0.190091,-0.0611 0.303682,-0.22779 0.454124,-0.3993 0.300885,-0.34301 0.743715,-0.69913 1.279274,-0.9464 -0.667152,0.003 -1.15301,0.39929 -1.478539,0.77039 z m -0.926758,1.28418 c 0,0 -0.942989,0.0862 -1.252929,1.30273 0.647576,-0.80495 1.252929,-1.30273 1.252929,-1.30273 z m -2.155272,2.25586 c 0,0 -0.59595,0.45696 -1.052735,1.00195 0.887319,-0.23624 1.052735,-1.00195 1.052735,-1.00195 z m -3.833985,2.78418 c -0.748073,0.40521 -1.384766,0.70313 -1.384766,0.70313 l 0.113281,0.24023 c 0,0 0.64312,-0.30181 1.398438,-0.71094 0.755318,-0.40913 1.619982,-0.91973 2.00293,-1.46387 -0.519088,0.3078 -1.38181,0.82624 -2.129883,1.23145 z"
       id="path1291"
       sodipodi:nodetypes="cccccccccccccccccscssccccccccccsccccccccccccccccccccscccccccscscccsccscsccccccccccccscccccccccssccccccsscccsccccsscscccccccsssscscccscccsccccccccccccsccscscccsccccccccccccccccccccccccccccccccccccccccccccccccccccccccccccccccccsscscsccscscccscccsccssssccccccccccccccccccccccccccccccccccscsccccccscssccscccccccccccccccccccccccccccccccscccscsccscsccccccccccccccccsccccsccccccccccscccccccccccccccccssscccccccccscccscccccscsccccsccccccccccccccccccccccccccccccccscccccccccccscccczcczzccccczccccccccccccscscccsccccccccccccccccccccccccccccsccccccccccccccscsccscsc" />
    <path
       id="path2821"
       style="display:inline;opacity:1;fill:#000000;stroke:none;stroke-width:0.264583;stroke-miterlimit:4;stroke-dasharray:none;paint-order:fill markers stroke"
       d="M 78.205132,76.14332 A 0.26353019,0.26353019 0 0 1 77.9416,76.406851 0.26353019,0.26353019 0 0 1 77.678072,76.14332 0.26353019,0.26353019 0 0 1 77.9416,75.879791 0.26353019,0.26353019 0 0 1 78.205132,76.14332 Z" />
  </g>
</svg>
