<?xml version="1.0" encoding="UTF-8" standalone="no"?>
<svg
   inkscape:version="1.2.1 (9c6d41e410, 2022-07-14)"
   inkscape:export-ydpi="96"
   inkscape:export-xdpi="96"
   inkscape:export-filename="emu.png"
   sodipodi:docname="emu.svg"
   width="768"
   height="512"
   viewBox="0 0 203.20001 135.46664"
   version="1.1"
   id="svg844"
   xmlns:inkscape="http://www.inkscape.org/namespaces/inkscape"
   xmlns:sodipodi="http://sodipodi.sourceforge.net/DTD/sodipodi-0.dtd"
   xmlns:xlink="http://www.w3.org/1999/xlink"
   xmlns="http://www.w3.org/2000/svg"
   xmlns:svg="http://www.w3.org/2000/svg"
   xmlns:rdf="http://www.w3.org/1999/02/22-rdf-syntax-ns#"
   xmlns:cc="http://creativecommons.org/ns#"
   xmlns:dc="http://purl.org/dc/elements/1.1/">
  <sodipodi:namedview
     id="namedview1510"
     pagecolor="#505050"
     bordercolor="#eeeeee"
     borderopacity="1"
     inkscape:showpageshadow="0"
     inkscape:pageopacity="0"
     inkscape:pagecheckerboard="true"
     inkscape:deskcolor="#505050"
     showgrid="false"
     inkscape:zoom="1.5"
     inkscape:cx="367"
     inkscape:cy="270"
     inkscape:current-layer="g11699" />
  <defs
     id="defs838">
    <linearGradient
       id="linearGradient4070-9-0-5-9-9">
      <stop
         style="stop-color:#a3a3a3;stop-opacity:1;"
         offset="0"
         id="stop4072-5-5-3-3-9" />
      <stop
         style="stop-color:#b0b0b0;stop-opacity:1;"
         offset="0.14285725"
         id="stop4074-5-2-2-3-7" />
      <stop
         id="stop4076-40-4-9-2-0"
         offset="0.32142863"
         style="stop-color:#d1d1d1;stop-opacity:1;" />
      <stop
         style="stop-color:#bdbdbd;stop-opacity:1;"
         offset="0.5"
         id="stop4078-3-2-7-8-8" />
      <stop
         id="stop4080-4-3-3-3-4"
         offset="0.75"
         style="stop-color:#e5e5e5;stop-opacity:1;" />
      <stop
         style="stop-color:#cccccc;stop-opacity:1;"
         offset="0.875"
         id="stop4082-1-8-7-4-5" />
      <stop
         id="stop4084-2-5-4-0-6"
         offset="1"
         style="stop-color:#cccccc;stop-opacity:1;" />
    </linearGradient>
    <linearGradient
       id="linearGradient4053-4-0-3">
      <stop
         style="stop-color:#cc992d;stop-opacity:1;"
         offset="0"
         id="stop4055-9-1-6" />
      <stop
         style="stop-color:#e1a832;stop-opacity:1;"
         offset="0.14285725"
         id="stop4057-8-2-2" />
      <stop
         id="stop4059-2-1-0"
         offset="0.32142863"
         style="stop-color:#e5cf5c;stop-opacity:1;" />
      <stop
         style="stop-color:#e5c547;stop-opacity:1;"
         offset="0.5"
         id="stop4061-4-0-0" />
      <stop
         id="stop4063-5-7-6"
         offset="0.75"
         style="stop-color:#ffffa3;stop-opacity:1;" />
      <stop
         style="stop-color:#ffd94d;stop-opacity:1;"
         offset="0.875"
         id="stop4065-2-6-5" />
      <stop
         id="stop4067-9-6-1"
         offset="1"
         style="stop-color:#ffdb4e;stop-opacity:1;" />
    </linearGradient>
    <linearGradient
       y2="148.85265"
       x2="320.71429"
       y1="148.85265"
       x1="309.28571"
       gradientTransform="matrix(58.507855,0,0,58.233096,464581.27,-149579.23)"
       gradientUnits="userSpaceOnUse"
       id="linearGradient3827"
       xlink:href="#linearGradient4070-9-0-5-9-9" />
    <linearGradient
       y2="148.25699"
       x2="305.82367"
       y1="148.25699"
       x1="294.71201"
       gradientTransform="matrix(58.507855,0,0,58.233096,464581.27,-149579.23)"
       gradientUnits="userSpaceOnUse"
       id="linearGradient3829"
       xlink:href="#linearGradient4053-4-0-3" />
  </defs>
  <metadata
     id="metadata841">
    <rdf:RDF>
      <cc:Work
         rdf:about="">
        <dc:format>image/svg+xml</dc:format>
        <dc:type
           rdf:resource="http://purl.org/dc/dcmitype/StillImage" />
      </cc:Work>
    </rdf:RDF>
  </metadata>
  <g
     id="g11699"
     style="display:inline"
     transform="matrix(-0.26458331,0,0,0.26458331,281.45383,-3.0574885)"
     inkscape:label="emu">
    <path
       d="m 778.25,305.75 c -6.742,-6.452 -4.081,-18.523 -6.887,-25.814 -6.078,-15.791 -18.141,-27.774 -34.757,-37.54 -17.582,-10.333 -35.327,-19.617 -65.33,-20.046 -30.772,-0.439 -31.615,13.114 -44.837,6.73 -10.272,-4.96 -8.906,-21.6 -2.761,-42.045 6.144,-20.445 17.66,-45.284 18.001,-62.539 0.147,-7.423 -1.14,-21.79 -17.035,-23.713 -10.603,-1.283 -16.116,5.601 -14.05,9.027 -7.996,1.857 -20.897,7.628 -19.697,8.803 2.193,2.146 14.976,0.051 21.84,1.693 2.523,0.603 4.265,1.436 5.425,2.655 1.568,1.649 2.164,3.74 2.377,5.618 2.179,19.172 -8.712,34.71 -19.742,52.42 -11.029,17.71 -20.894,37.546 -20.567,65.45 0.505,43.156 35.064,58.344 67.488,64.658 1.816,0.353 3.84,1.203 5.249,2.357 3.041,2.491 6.376,2.893 9.612,5.522 l -0.962,-4.368 c 2.16,1.245 3.691,2.893 5.121,4.916 0.274,-2.006 -0.231,-3.689 -1.024,-5.531 l 3.072,2.458 v -2.253 c 2.289,1.227 3.963,2.865 5.531,4.916 0.348,-2.677 -0.18,-4.908 -1.229,-7.374 5.112,4.691 7.361,2.392 10.873,11.039 l 1.014,-4.465 2.436,3.45 c 1.084,-2.474 1.087,-4.506 0.406,-7.103 2.75,2.431 5.062,3.06 8.727,2.638 -2.702,-1.456 -3.989,-2.223 -3.45,-5.48 2.724,3.042 5.157,4.723 9.053,5.855 -1.598,-1.818 -2.611,-4.286 -1.747,-5.855 2.141,4.803 7.62,2.752 8.93,7.51 0.774,-2.259 0.594,-4.058 -0.203,-6.292 6.378,4.438 6.722,6.5 11.366,5.886 l -2.232,-4.059 c 3.967,0.75 7.533,1.002 7.31,5.489 1.839,-2.05 2.481,-2.601 1.823,-5.286 2.454,2.038 3.249,2.421 3.048,5.692 1.197,-2.114 2.397,-2.856 2.229,-5.286 2.093,1.534 3.057,2.399 4.265,4.677 0.383,-2.8 0.235,-3.992 -1.018,-6.504 4.051,0.975 6.517,2.297 8.727,5.886 l 1.624,-6.089 c 0.955,3.757 3.815,4.387 7.509,4.871 -1.967,-2.323 -2.396,-3.658 -1.015,-6.494 3.021,2.547 4.448,5.02 5.074,8.93 l 3.856,-5.683 c 1.603,2.158 2.463,3.801 2.233,6.495 2.182,-1.793 3.023,-3.009 2.638,-5.886 3.662,5.092 4.676,2.551 6.709,6.301 0.413,-2.258 1.504,-2.875 0.395,-4.88 5.121,2.466 0.861,3.824 6.303,5.686 -1.858,-2.063 -0.52,-4.01 -0.215,-6.701 1.74,2.284 2.722,4.007 2.436,6.9 5.722,-5.177 0.19,-13.191 -3.942,-17.242 z"
       fill="none"
       stroke="#5a5049"
       stroke-width="1px"
       id="path10712"
       style="display:inline;stroke-width:5.00000007;stroke-dasharray:none;stroke:#000000;stroke-opacity:1;paint-order:normal;stroke-linejoin:bevel"
       transform="translate(-1.4387589e-5)" />
    <path
       d="m 653.25,291.94 c 0,0 -7.2,8.374 -5.469,13.156 2.469,6.818 13.135,15.218 11.531,25.938 -4.643,31.044 -28.158,63.473 -40.625,90.844 -2.315,5.083 -5.151,5.069 -8.937,5.75 -2.782,0.5 -5.34,3.128 -7.375,4.844 -2.563,-2.046 -7.73,-2.379 -8.313,1.031 -1.903,-1.11 -5.085,-0.871 -6.75,2.156 0,0 -3.147,-0.326 -4.531,0.344 -1.889,0.914 -3.634,2.509 -3.875,4.594 -0.204,1.758 0.812,3.062 0.812,3.062 0,0 1.122,-3.026 3.282,-3.375 0.683,-0.11 1.246,0.757 1.937,0.719 0.687,-0.038 1.844,-0.937 1.844,-0.937 0,0 3.346,2.265 5.25,2.781 3.137,0.849 6.488,0.758 9.719,0.406 3.463,-0.377 10.281,-2.375 10.281,-2.375 2.143,1.289 2.916,1.878 6.625,1.812 3.833,-0.068 8.262,-1.347 10.594,-6 1.107,-2.21 -1.563,-10.594 -1.563,-10.594 2.334,-3.409 5.805,-5.996 5.844,-9.875 2.128,-1.596 4.064,-3.303 3.75,-6.593 3.174,-2.328 4.188,-4.925 4.25,-7.625 2.633,-1.787 4.635,-4.124 4.563,-8.282 2.935,-2.094 4.324,-4.898 4.531,-8.281 2.296,-1.786 4.613,-3.54 4.875,-8.969 1.375,-1.571 4.552,-2.459 5.375,-9.968 4.069,-1.744 6.052,-5.519 5.187,-9.625 0,0 1.686,-6.841 4.313,-9.844 2.626,-3.003 7.152,-7.975 8.375,-12.875 0.956,-3.829 -1.481,-9.087 -2.219,-14.281 -1.607,-11.319 2.219,-15.875 2.219,-15.875 l -25.5,-12.062 z m 26.812,9.625 c 0,0 2.423,8.978 6.031,12.562 5.144,5.11 13.447,13.938 16.156,20.156 7.235,16.608 5.653,61.577 3.875,83.344 -0.649,7.949 -0.637,5.464 -2,9.625 -1.144,3.491 -3.776,3.6 -7.562,4.281 -2.782,0.501 -5.746,1.535 -7.781,3.25 -2.563,-2.046 -7.731,-2.379 -8.313,1.031 -1.904,-1.11 -5.085,-0.871 -6.75,2.157 0,0 -3.147,-0.327 -4.531,0.343 -1.889,0.915 -3.634,2.51 -3.875,4.594 -0.204,1.759 0.812,3.063 0.812,3.063 0,0 1.122,-3.027 3.282,-3.375 0.683,-0.111 1.246,0.757 1.937,0.718 0.687,-0.038 1.844,-0.937 1.844,-0.937 0,0 3.346,2.266 5.25,2.781 3.136,0.85 6.488,0.758 9.719,0.406 3.463,-0.377 10.281,-2.375 10.281,-2.375 2.143,1.29 2.916,1.879 6.625,1.813 3.833,-0.068 8.262,-1.347 10.594,-6 1.107,-2.21 -1.344,-8.063 -1.344,-8.063 1.254,-1.561 2.621,-5.039 1,-8.562 1.243,-2.352 2.252,-4.753 0.562,-7.594 1.876,-3.46 1.691,-6.219 0.594,-8.687 1.618,-2.741 2.403,-5.71 0.563,-9.438 1.759,-3.147 1.85,-6.322 0.593,-9.469 1.314,-2.595 2.675,-5.167 0.594,-10.188 0.573,-2.008 3.025,-4.139 0.563,-11.281 2.935,-3.314 3.129,-7.593 0.593,-10.938 0,0 -0.248,-3.444 0.844,-7.281 1.093,-3.837 3.33,-8.641 2.344,-13.594 -0.771,-3.871 -5.771,-10.868 -8.656,-15.25 -6.288,-9.549 -5.657,-17.094 -5.657,-17.094 h -28.188 z"
       fill="none"
       stroke="#555054"
       stroke-width="1px"
       id="path10678"
       style="display:inline;stroke-width:5.00000007;stroke-dasharray:none;stroke:#000000;stroke-opacity:1;stroke-linejoin:bevel"
       transform="translate(-1.4387589e-5)" />
    <path
       d="m 653.25,291.94 c 0,0 -7.2,8.374 -5.469,13.156 2.469,6.818 13.135,15.218 11.531,25.938 -4.643,31.044 -28.158,63.473 -40.625,90.844 -2.315,5.083 -5.151,5.069 -8.937,5.75 -2.782,0.5 -5.34,3.128 -7.375,4.844 -2.563,-2.046 -7.73,-2.379 -8.313,1.031 -1.903,-1.11 -5.085,-0.871 -6.75,2.156 0,0 -3.147,-0.326 -4.531,0.344 -1.889,0.914 -3.634,2.509 -3.875,4.594 -0.204,1.758 0.812,3.062 0.812,3.062 0,0 1.122,-3.026 3.282,-3.375 0.683,-0.11 1.246,0.757 1.937,0.719 0.687,-0.038 1.844,-0.937 1.844,-0.937 0,0 3.346,2.265 5.25,2.781 3.137,0.849 6.488,0.758 9.719,0.406 3.463,-0.377 10.281,-2.375 10.281,-2.375 2.143,1.289 2.916,1.878 6.625,1.812 3.833,-0.068 8.262,-1.347 10.594,-6 1.107,-2.21 -1.563,-10.594 -1.563,-10.594 2.334,-3.409 5.805,-5.996 5.844,-9.875 2.128,-1.596 4.064,-3.303 3.75,-6.593 3.174,-2.328 4.188,-4.925 4.25,-7.625 2.633,-1.787 4.635,-4.124 4.563,-8.282 2.935,-2.094 4.324,-4.898 4.531,-8.281 2.296,-1.786 4.613,-3.54 4.875,-8.969 1.375,-1.571 4.552,-2.459 5.375,-9.968 4.069,-1.744 6.052,-5.519 5.187,-9.625 0,0 1.686,-6.841 4.313,-9.844 2.626,-3.003 7.152,-7.975 8.375,-12.875 0.956,-3.829 -1.481,-9.087 -2.219,-14.281 -1.607,-11.319 2.219,-15.875 2.219,-15.875 l -25.5,-12.062 z m 26.812,9.625 c 0,0 2.423,8.978 6.031,12.562 5.144,5.11 13.447,13.938 16.156,20.156 7.235,16.608 5.653,61.577 3.875,83.344 -0.649,7.949 -0.637,5.464 -2,9.625 -1.144,3.491 -3.776,3.6 -7.562,4.281 -2.782,0.501 -5.746,1.535 -7.781,3.25 -2.563,-2.046 -7.731,-2.379 -8.313,1.031 -1.904,-1.11 -5.085,-0.871 -6.75,2.157 0,0 -3.147,-0.327 -4.531,0.343 -1.889,0.915 -3.634,2.51 -3.875,4.594 -0.204,1.759 0.812,3.063 0.812,3.063 0,0 1.122,-3.027 3.282,-3.375 0.683,-0.111 1.246,0.757 1.937,0.718 0.687,-0.038 1.844,-0.937 1.844,-0.937 0,0 3.346,2.266 5.25,2.781 3.136,0.85 6.488,0.758 9.719,0.406 3.463,-0.377 10.281,-2.375 10.281,-2.375 2.143,1.29 2.916,1.879 6.625,1.813 3.833,-0.068 8.262,-1.347 10.594,-6 1.107,-2.21 -1.344,-8.063 -1.344,-8.063 1.254,-1.561 2.621,-5.039 1,-8.562 1.243,-2.352 2.252,-4.753 0.562,-7.594 1.876,-3.46 1.691,-6.219 0.594,-8.687 1.618,-2.741 2.403,-5.71 0.563,-9.438 1.759,-3.147 1.85,-6.322 0.593,-9.469 1.314,-2.595 2.675,-5.167 0.594,-10.188 0.573,-2.008 3.025,-4.139 0.563,-11.281 2.935,-3.314 3.129,-7.593 0.593,-10.938 0,0 -0.248,-3.444 0.844,-7.281 1.093,-3.837 3.33,-8.641 2.344,-13.594 -0.771,-3.871 -5.771,-10.868 -8.656,-15.25 -6.288,-9.549 -5.657,-17.094 -5.657,-17.094 h -28.188 z"
       fill="#928a87"
       fill-rule="nonzero"
       id="path10670"
       style="display:inline;fill:#000099;fill-opacity:1" />
    <path
       d="m 653.25,291.94 c 0,0 -1.379,1.639 -2.781,3.844 -0.049,0.529 -0.088,1.067 -0.125,1.656 -0.186,2.979 -0.198,6.545 0.844,9.375 1.094,2.974 2.725,6.651 4.281,10.375 2.201,3.503 4.003,7.332 4.031,11.531 0.172,0.793 0.285,1.544 0.344,2.219 0.393,4.509 2.78,7.503 4.625,9.781 0.922,1.139 1.705,2.146 2.125,3 0.42,0.854 0.535,1.485 0.281,2.406 -0.15,0.544 -0.657,1.726 -1.281,2.438 -0.313,0.355 -0.624,0.582 -0.906,0.687 -0.283,0.105 -0.545,0.129 -1,-0.031 l -4.344,-1.531 c -0.162,-0.056 -0.333,-0.085 -0.504,-0.085 -0.848,0 -1.545,0.698 -1.545,1.546 0,0.329 0.104,0.649 0.299,0.914 0.194,0.265 1.305,1.769 2.437,4.031 1.133,2.262 1.898,5.007 1.5,6.344 -0.088,0.297 -1.042,1.014 -1.625,1.062 -0.641,0.054 -2.045,-0.426 -3.156,-1.031 -1.111,-0.605 -1.937,-1.219 -1.937,-1.219 -0.259,-0.178 -0.566,-0.274 -0.88,-0.274 -0.848,0 -1.545,0.698 -1.545,1.545 0,0.291 0.082,0.577 0.237,0.823 0.155,0.247 0.921,1.342 1.875,3.063 0.954,1.72 1.861,3.907 1.906,4.937 0.03,0.679 -0.732,1.946 -1.219,2.156 -0.089,0.039 -0.328,0.072 -0.781,-0.062 -0.453,-0.134 -1.034,-0.418 -1.562,-0.75 -1.057,-0.665 -1.907,-1.469 -1.907,-1.469 -0.283,-0.255 -0.652,-0.397 -1.033,-0.397 -0.848,0 -1.546,0.698 -1.546,1.546 0,0.29 0.082,0.574 0.236,0.82 0.153,0.246 0.695,1.042 1.406,2.375 0.711,1.333 1.383,3.054 1.437,3.781 0.097,1.291 -0.712,2.878 -1.75,3.406 -0.286,0.146 -1.344,0.005 -2.375,-0.531 -1.03,-0.536 -1.843,-1.219 -1.843,-1.219 -0.29,-0.288 -0.683,-0.45 -1.092,-0.45 -0.848,0 -1.547,0.698 -1.547,1.546 0,0.409 0.163,0.802 0.451,1.092 0.289,0.289 0.77,0.93 1.531,2.187 0.761,1.258 1.409,2.852 1.375,3.656 -0.02,0.474 -0.181,1.119 -0.406,1.563 -0.225,0.444 -0.459,0.596 -0.562,0.625 -0.107,0.029 -0.952,-0.108 -1.688,-0.531 -0.736,-0.424 -1.312,-0.907 -1.312,-0.907 -0.275,-0.219 -0.615,-0.338 -0.966,-0.338 -0.848,0 -1.546,0.697 -1.546,1.545 0,0.243 0.058,0.483 0.168,0.7 0.11,0.216 0.483,0.876 0.937,2.031 0.454,1.154 0.802,2.604 0.719,3.375 -0.072,0.666 -0.24,1.428 -0.469,1.969 -0.228,0.54 -0.449,0.731 -0.594,0.781 -0.188,0.064 -1.287,-0.036 -2.218,-0.406 -0.932,-0.37 -1.657,-0.813 -1.657,-0.813 -0.246,-0.155 -0.531,-0.237 -0.822,-0.237 -0.848,0 -1.546,0.698 -1.546,1.545 0,0.314 0.096,0.621 0.275,0.88 0.178,0.258 0.629,0.915 1.25,2.062 0.62,1.147 1.162,2.605 1.156,3.063 -0.006,0.474 -0.122,1.092 -0.281,1.5 -0.147,0.373 -0.285,0.451 -0.313,0.468 -0.061,-0.003 -0.184,-0.001 -0.344,-0.062 -0.32,-0.123 -0.75,-0.373 -1.156,-0.656 -0.811,-0.567 -1.469,-1.219 -1.469,-1.219 -0.291,-0.309 -0.698,-0.485 -1.123,-0.485 -0.848,0 -1.546,0.698 -1.546,1.546 0,0.287 0.08,0.569 0.232,0.814 0.151,0.244 0.488,0.844 0.969,1.906 0.48,1.062 0.891,2.422 0.875,2.812 -0.017,0.392 -0.113,0.844 -0.219,1.125 -0.04,0.106 -0.074,0.148 -0.094,0.188 -0.04,-0.008 -0.061,-0.009 -0.125,-0.031 -0.255,-0.088 -0.622,-0.28 -0.969,-0.5 -0.692,-0.441 -1.281,-0.969 -1.281,-0.969 -0.282,-0.249 -0.646,-0.387 -1.023,-0.387 -0.848,0 -1.545,0.698 -1.545,1.545 0,0.215 0.044,0.427 0.131,0.623 0.086,0.196 0.442,1.004 0.875,2.219 0.432,1.215 0.792,2.776 0.781,3.063 -0.035,0.935 -0.149,1.207 -0.156,1.218 -0.007,0.011 -0.198,0.219 -1.031,0.625 -0.564,0.275 -0.902,0.131 -1.782,-0.343 -0.879,-0.475 -1.956,-1.336 -3.437,-1.75 -0.132,-0.036 -0.268,-0.054 -0.404,-0.054 -0.848,0 -1.546,0.697 -1.546,1.545 0,0.481 0.224,0.935 0.606,1.227 0.382,0.293 0.744,0.571 1.531,1.375 0.788,0.805 1.525,1.919 1.625,2.375 0.03,0.138 0.031,0.257 0.031,0.375 -0.028,-0.003 -0.1,0.073 -0.562,0.063 -0.564,-0.013 -1.36,-0.12 -2.219,-0.125 -1.735,-0.011 -3.156,0.469 -3.156,0.469 -0.617,0.217 -1.033,0.803 -1.033,1.458 0,0.725 0.511,1.358 1.22,1.51 0.71,0.153 1.007,0.247 2.219,0.657 0.268,0.09 0.385,0.231 0.656,0.343 -0.739,0.174 -1.246,0.868 -1.187,1.625 0.059,0.758 0.036,0.522 0,1.125 -0.031,0.528 -0.266,1.089 -0.219,1.094 -0.899,1.015 -3.036,1.398 -5.187,1.531 -1.839,0.115 -4.308,-1.209 -7.375,-1.062 -3.403,0.163 -5.875,1.765 -8.313,2.125 -2.205,0.325 -7.687,0 -7.687,0 -0.042,-0.003 -0.084,-0.005 -0.125,-0.005 -0.848,0 -1.546,0.698 -1.546,1.545 0,0.454 0.2,0.885 0.546,1.179 0.346,0.293 0.841,0.635 2.281,1.094 1.439,0.458 3.632,0.859 6.875,0.843 3.171,-0.015 5.68,-1.508 7.625,-1.469 0.137,0.003 0.546,0.199 0.781,0.25 -2.997,0.824 -6.544,1.699 -8.906,1.844 -1.954,0.121 -3.931,-0.094 -5.781,-0.625 -0.681,-0.195 -1.551,-0.825 -2.594,-1.562 -1.043,-0.737 -2.391,-1.601 -4.125,-1.5 -0.933,0.054 -1.373,0.426 -1.781,0.75 -0.547,-0.364 -1.143,-0.856 -2.344,-0.75 -0.525,0.046 -0.971,0.189 -1.375,0.375 -0.009,0.004 -0.023,-0.004 -0.031,0 -1.292,0.926 -2.289,2.226 -2.469,3.781 -0.204,1.758 0.812,3.062 0.812,3.062 0,0 1.122,-3.026 3.282,-3.375 0.683,-0.11 1.246,0.758 1.937,0.719 0.687,-0.038 1.844,-0.937 1.844,-0.937 0,0 3.346,2.265 5.25,2.781 3.137,0.849 6.488,0.758 9.719,0.406 3.463,-0.377 10.281,-2.375 10.281,-2.375 2.143,1.289 2.916,1.878 6.625,1.813 3.833,-0.068 8.262,-1.347 10.594,-6 1.107,-2.211 -1.563,-10.594 -1.563,-10.594 2.334,-3.41 5.805,-5.997 5.844,-9.875 2.128,-1.596 4.064,-3.304 3.75,-6.594 3.174,-2.327 4.188,-4.924 4.25,-7.625 2.633,-1.787 4.635,-4.124 4.563,-8.281 2.935,-2.095 4.324,-4.899 4.531,-8.282 2.296,-1.786 4.613,-3.54 4.875,-8.968 1.375,-1.572 4.552,-2.46 5.375,-9.969 4.069,-1.743 6.052,-5.519 5.187,-9.625 0,0 1.686,-6.841 4.313,-9.844 2.626,-3.003 7.152,-7.975 8.375,-12.875 0.956,-3.829 -1.481,-9.087 -2.219,-14.281 -1.608,-11.319 2.219,-15.875 2.219,-15.875 z m 26.812,9.625 c 0,0 2.423,8.978 6.031,12.562 3.79,3.765 9.282,9.574 13,14.844 1.556,1.685 2.865,3.282 3.656,4.656 2.335,4.051 5.92,5.802 8.563,7.094 1.322,0.646 2.413,1.217 3.094,1.781 0.681,0.564 0.997,1.008 1.125,1.906 0.075,0.53 0.121,1.899 -0.125,2.813 -0.123,0.457 -0.307,0.768 -0.438,0.906 -0.131,0.138 -0.165,0.176 -0.5,0.188 l -4.687,0.156 c -1.015,0.037 -1.83,0.882 -1.83,1.898 0,0.692 0.379,1.331 0.986,1.664 0.607,0.333 1.887,1.041 3.844,2.594 1.956,1.553 3.73,3.718 3.906,4.906 0.01,0.066 -0.488,1.061 -0.875,1.282 -0.437,0.249 -1.862,0.451 -3.094,0.375 -1.231,-0.077 -2.219,-0.282 -2.219,-0.282 -0.128,-0.026 -0.258,-0.04 -0.389,-0.04 -1.041,0 -1.898,0.857 -1.898,1.899 0,0.675 0.36,1.302 0.944,1.641 0.583,0.34 1.394,0.799 2.968,1.938 1.575,1.138 3.275,2.737 3.688,3.531 0.233,0.448 0.098,1.811 -0.125,2.063 0.01,-0.012 -0.148,0.094 -0.563,0.156 -0.415,0.062 -1.029,0.044 -1.625,-0.031 -1.19,-0.151 -2.25,-0.5 -2.25,-0.5 -0.216,-0.083 -0.447,-0.126 -0.679,-0.126 -1.042,0 -1.899,0.857 -1.899,1.899 0,0.692 0.378,1.331 0.985,1.664 0.606,0.333 1.054,0.631 2.25,1.531 1.196,0.9 2.515,2.189 2.812,2.719 0.555,0.99 0.468,2.641 -0.156,3.438 -0.069,0.088 -0.951,0.396 -2.063,0.343 -1.111,-0.052 -2.093,-0.312 -2.093,-0.312 -0.197,-0.067 -0.404,-0.101 -0.612,-0.101 -1.041,0 -1.899,0.857 -1.899,1.899 0,0.776 0.477,1.478 1.198,1.764 0.721,0.287 1.081,0.506 2.281,1.313 1.201,0.807 2.403,1.985 2.656,2.594 0.163,0.389 0.266,1.006 0.25,1.437 -0.015,0.431 -0.109,0.576 -0.093,0.563 0.056,-0.049 -0.722,0.194 -1.531,0.125 -0.81,-0.07 -1.5,-0.25 -1.5,-0.25 -0.152,-0.039 -0.308,-0.058 -0.464,-0.058 -1.042,0 -1.899,0.857 -1.899,1.899 0,0.588 0.273,1.143 0.738,1.502 0.464,0.36 0.78,0.563 1.656,1.407 0.876,0.844 1.754,2.024 1.969,2.656 0.21,0.617 0.387,1.325 0.406,1.844 0.018,0.518 -0.075,0.669 -0.094,0.687 -0.019,0.019 -0.979,0.414 -1.937,0.469 -0.959,0.054 -1.782,-0.031 -1.782,-0.031 -0.06,-0.006 -0.12,-0.009 -0.18,-0.009 -1.041,0 -1.899,0.857 -1.899,1.899 0,0.654 0.338,1.263 0.892,1.61 0.554,0.346 0.942,0.572 1.969,1.343 1.026,0.772 2.087,1.897 2.218,2.188 0.184,0.406 0.349,0.993 0.375,1.375 0.009,0.134 0.007,0.167 0,0.219 -0.036,0.007 -0.039,-0.004 -0.093,0 -0.296,0.019 -0.781,-0.009 -1.25,-0.094 -0.94,-0.169 -1.782,-0.469 -1.782,-0.469 -0.199,-0.069 -0.409,-0.104 -0.62,-0.104 -1.042,0 -1.899,0.857 -1.899,1.899 0,0.615 0.299,1.193 0.801,1.549 0.501,0.356 0.757,0.535 1.625,1.281 0.867,0.747 1.777,1.826 1.875,2.063 0.114,0.275 0.176,0.597 0.218,0.843 -0.226,0.006 -0.477,0.009 -0.781,-0.031 -0.779,-0.104 -1.5,-0.312 -1.5,-0.312 -0.17,-0.049 -0.345,-0.074 -0.522,-0.074 -1.042,0 -1.899,0.858 -1.899,1.899 0,0.529 0.221,1.034 0.609,1.393 0.387,0.36 0.793,0.74 1.687,1.657 0.894,0.916 1.876,2.228 1.938,2.375 0.356,0.846 0.329,1.037 0.343,0.937 0.015,-0.099 -0.014,0.129 -0.593,0.844 -0.303,0.373 -0.485,0.376 -1.438,0.312 -0.953,-0.063 -2.312,-0.423 -3.937,-0.156 -0.904,0.16 -1.568,0.953 -1.568,1.87 0,0.799 0.504,1.516 1.255,1.786 0.751,0.271 0.725,0.322 1.094,0.469 -0.203,0.328 -0.301,0.709 -0.281,1.094 0.019,0.385 0.034,0.495 0,1.062 -0.026,0.426 -0.217,0.879 -0.188,0.938 -0.834,0.821 -2.819,1.216 -4.875,1.344 -1.698,0.105 -4.139,-1.216 -7.344,-1.063 -3.506,0.168 -6.018,1.778 -8.375,2.125 -2.103,0.31 -7.625,-0.031 -7.625,-0.031 -0.044,-0.003 -0.087,-0.005 -0.131,-0.005 -1.042,0 -1.899,0.858 -1.899,1.899 0,0.163 0.02,0.324 0.062,0.481 -0.852,-0.464 -1.83,-0.851 -3.032,-0.781 -0.929,0.054 -1.389,0.381 -1.781,0.687 -0.347,-0.249 -0.758,-0.537 -1.344,-0.656 -0.254,0.059 -0.49,0.123 -0.687,0.219 -1.889,0.914 -3.634,2.509 -3.875,4.594 -0.204,1.758 0.812,3.062 0.812,3.062 0,0 1.122,-3.026 3.282,-3.375 0.683,-0.11 1.246,0.757 1.937,0.719 0.687,-0.038 1.844,-0.938 1.844,-0.938 0,0 3.346,2.266 5.25,2.782 3.136,0.849 6.488,0.758 9.719,0.406 3.463,-0.377 10.281,-2.375 10.281,-2.375 2.143,1.289 2.916,1.878 6.625,1.812 3.833,-0.068 8.262,-1.347 10.594,-6 1.107,-2.21 -1.344,-8.062 -1.344,-8.062 1.254,-1.562 2.621,-5.039 1,-8.563 1.243,-2.352 2.252,-4.753 0.562,-7.594 1.876,-3.459 1.691,-6.218 0.594,-8.687 1.618,-2.74 2.403,-5.709 0.563,-9.438 1.759,-3.147 1.85,-6.321 0.593,-9.468 1.314,-2.596 2.675,-5.168 0.594,-10.188 0.573,-2.009 3.025,-4.14 0.563,-11.281 2.935,-3.315 3.129,-7.594 0.593,-10.938 0,0 -0.248,-3.445 0.844,-7.282 1.093,-3.836 3.33,-8.64 2.344,-13.594 -0.771,-3.87 -5.771,-10.868 -8.656,-15.25 -6.288,-9.548 -5.657,-17.094 -5.657,-17.094 h -28.188 z m -56.219,127.84 c 0.067,0.051 0.3,0.111 0.344,0.156 0.061,0.063 0.147,0.237 0.25,0.406 -0.038,-0.041 -0.089,-0.084 -0.125,-0.125 -0.234,-0.258 -0.28,-0.255 -0.469,-0.437 z m 1.938,3.375 c 0.181,0.732 0.245,1.474 0.062,2.062 -0.401,1.289 -1.739,2.685 -2.969,3.094 0.585,-0.298 1.168,-0.568 1.625,-1.187 0.74,-1.002 1.414,-2.364 1.281,-3.969 z"
       fill="#7f7879"
       fill-rule="nonzero"
       id="path10672"
       style="display:inline;fill:#000080;fill-opacity:1" />
    <path
       d="m 652.47,292.34 c 0,0 -5.945,8.134 -4.187,12.906 2.505,6.804 10.112,9.655 14.562,21.938 2.76,7.617 20.746,3.946 5.531,19.344 -1.104,1.117 -2.139,5.226 -5.188,4.156 l -4.344,-1.531 c 0,0 5.432,7.43 4.157,11.719 -0.35,1.175 -1.748,2.055 -2.969,2.156 -2.524,0.21 -6.156,-2.562 -6.156,-2.562 0,0 3.921,5.582 4.062,8.812 0.061,1.397 -0.842,3.07 -2.125,3.625 -2.208,0.955 -5.937,-2.562 -5.937,-2.562 0,0 2.905,4.369 3.093,6.875 0.145,1.919 -0.878,4.033 -2.593,4.906 -2.207,1.122 -5.907,-1.938 -5.907,-1.938 0,0 3.371,4.033 3.25,6.907 -0.058,1.397 -0.746,3.252 -2.093,3.625 -1.774,0.49 -4.407,-1.782 -4.407,-1.782 0,0 2.12,3.767 1.844,6.313 -0.163,1.511 -0.655,3.572 -2.094,4.062 -1.856,0.634 -5.187,-1.375 -5.187,-1.375 0,0 2.684,3.835 2.656,6.032 -0.016,1.265 -0.428,3.026 -1.625,3.437 -1.617,0.556 -4.562,-2.344 -4.562,-2.344 0,0 2.116,3.596 2.031,5.563 -0.044,1.012 -0.33,2.403 -1.281,2.75 -1.368,0.498 -3.969,-1.844 -3.969,-1.844 0,0 1.846,4.22 1.781,5.969 -0.073,1.965 -0.264,2.295 -2.031,3.156 -2.258,1.1 -4.187,-1.374 -6.313,-1.969 0,0 3.251,2.495 3.719,4.625 0.139,0.632 0.154,1.494 -0.344,1.906 -0.841,0.699 -2.476,0.29 -3.906,0.282 -1.43,-0.009 -2.656,0.406 -2.656,0.406 0,0 4.422,0.957 6,2.562 0.671,0.683 1.25,2.094 1.25,2.094 0.906,1.323 1.258,3.22 0.781,4.75 -0.563,1.81 -2.139,3.496 -3.937,4.094 -3.715,1.236 -7.25,-0.781 -7.25,-0.781 0,0 6.002,-1.262 7.125,-2.781 0.66,-0.894 1.213,-2.06 1.031,-3.157 -0.19,-1.144 -2.094,-2.781 -2.094,-2.781 0,0 0.189,2.465 -0.531,3.313 -1.438,1.694 -4.094,1.955 -6.313,2.093 -2.459,0.154 -4.945,-1.18 -7.406,-1.062 -2.887,0.138 -5.297,1.703 -8.156,2.125 -2.651,0.391 -8.031,0 -8.031,0 0,0 1.941,1.624 8.156,1.594 2.571,-0.013 5.086,-1.522 7.656,-1.469 2,0.041 5.656,1.969 5.656,1.969 0,0 -9.039,2.899 -13.719,3.187 -2.116,0.131 -4.274,-0.071 -6.312,-0.656 -2.21,-0.634 -3.893,-3.165 -6.188,-3.031 -0.73,0.042 -1.843,1.156 -1.843,1.156 0,0 -1.409,-1.231 -2.25,-1.156 -1.579,0.139 -3.75,2.906 -3.75,2.906 -0.204,1.759 0.843,3.094 0.843,3.094 0,0 1.122,-3.058 3.282,-3.406 0.683,-0.111 1.246,0.757 1.937,0.718 0.687,-0.038 1.844,-0.906 1.844,-0.906 0,0 3.315,2.234 5.219,2.75 3.136,0.85 6.519,0.758 9.75,0.406 3.463,-0.377 10.25,-2.343 10.25,-2.343 2.143,1.289 2.947,1.847 6.656,1.781 3.833,-0.068 8.231,-1.347 10.562,-6 1.107,-2.21 -1.344,-8.063 -1.344,-8.063 l -0.469,-2.844 1.188,-2 c 1.796,-0.886 4.513,-3.465 4.531,-7.343 2.119,-1.608 4.051,-3.337 3.719,-6.625 3.161,-2.344 4.171,-4.956 4.219,-7.657 2.623,-1.801 4.594,-4.155 4.5,-8.312 2.923,-2.11 4.311,-4.929 4.5,-8.313 2.286,-1.798 4.61,-3.539 4.843,-8.968 1.368,-1.579 4.53,-2.487 5.313,-10 4.06,-1.765 6.011,-5.555 5.125,-9.657 0,0 1.536,-5.371 3.844,-8.625 2.825,-3.982 8.146,-9.562 9.343,-14.469 0.936,-3.834 -1.703,-9.684 -2.468,-14.875 -0.917,-11.31 1.687,-14.969 1.687,-14.969 L 652.469,292.34 Z m 27.594,9.219 c 0,0 2.423,8.978 6.031,12.562 5.144,5.11 13.551,10.31 16.938,16.188 4.081,7.081 21.407,3.322 15.344,12.344 -0.864,1.285 1.457,7.376 -3.844,7.562 l -4.687,0.157 c 0,0 8.064,4.448 8.719,8.875 0.179,1.212 -0.748,2.611 -1.813,3.218 -2.199,1.256 -6.656,0.282 -6.656,0.282 0,0 5.914,3.381 7.406,6.25 0.645,1.24 0.523,3.142 -0.406,4.187 -1.599,1.798 -6.438,0.188 -6.438,0.188 0,0 4.491,2.745 5.719,4.937 0.941,1.679 0.875,4.016 -0.312,5.531 -1.527,1.949 -6.156,0.719 -6.156,0.719 0,0 4.77,2.25 5.875,4.906 0.536,1.291 0.689,3.25 -0.375,4.156 -1.401,1.194 -4.75,0.25 -4.75,0.25 0,0 3.487,2.545 4.312,4.969 0.49,1.439 0.91,3.479 -0.187,4.531 -1.416,1.359 -5.25,0.938 -5.25,0.938 0,0 4.035,2.372 4.937,4.375 0.52,1.154 0.912,2.934 0,3.812 -1.231,1.187 -5.125,-0.218 -5.125,-0.218 0,0 3.434,2.368 4.188,4.187 0.387,0.936 0.716,2.315 0,3.031 -1.03,1.03 -4.375,0 -4.375,0 0,0 3.445,3.075 4.125,4.688 0.763,1.812 0.707,2.192 -0.532,3.719 -1.582,1.95 -4.352,0.485 -6.531,0.843 0,0 5.024,1.781 6.438,3.844 0.906,1.323 1.289,3.22 0.812,4.75 -0.563,1.81 -2.171,3.464 -3.969,4.063 -3.715,1.236 -7.25,-0.782 -7.25,-0.782 0,0 6.003,-1.261 7.125,-2.781 0.661,-0.894 1.245,-2.06 1.063,-3.156 -0.19,-1.144 -2.125,-2.75 -2.125,-2.75 0,0 0.188,2.433 -0.531,3.281 -1.439,1.695 -4.095,1.987 -6.313,2.125 -2.459,0.153 -4.914,-1.18 -7.375,-1.062 -2.887,0.138 -5.328,1.672 -8.187,2.094 -2.651,0.391 -8.032,0 -8.032,0 0,0 1.973,1.623 8.188,1.593 2.571,-0.012 5.055,-1.49 7.625,-1.437 2,0.041 5.656,1.969 5.656,1.969 0,0 -9.008,2.868 -13.688,3.156 -2.116,0.13 -4.275,-0.072 -6.312,-0.656 -2.21,-0.634 -3.925,-3.165 -6.219,-3.032 -0.73,0.043 -1.844,1.188 -1.844,1.188 0,0 -1.377,-1.262 -2.219,-1.188 -1.578,0.14 -3.75,2.938 -3.75,2.938 -0.203,1.758 0.813,3.062 0.813,3.062 0,0 1.122,-3.026 3.281,-3.375 0.683,-0.11 1.246,0.757 1.937,0.719 0.687,-0.038 1.844,-0.937 1.844,-0.937 0,0 3.347,2.265 5.25,2.781 3.137,0.849 6.488,0.758 9.719,0.406 3.463,-0.377 10.281,-2.375 10.281,-2.375 2.144,1.289 2.916,1.878 6.625,1.813 3.834,-0.068 8.263,-1.347 10.594,-6 1.107,-2.211 -1.344,-8.063 -1.344,-8.063 1.255,-1.562 2.621,-5.039 1,-8.562 1.243,-2.352 2.252,-4.753 0.563,-7.594 1.876,-3.46 1.691,-6.219 0.593,-8.688 1.618,-2.74 2.403,-5.709 0.563,-9.437 1.759,-3.147 1.851,-6.322 0.594,-9.469 1.313,-2.596 2.674,-5.167 0.593,-10.188 0.573,-2.008 3.026,-4.139 0.563,-11.281 2.935,-3.314 3.129,-7.594 0.594,-10.938 0,0 -0.249,-3.444 0.843,-7.281 1.093,-3.837 3.331,-8.641 2.344,-13.594 -0.771,-3.871 -5.771,-10.868 -8.656,-15.25 -6.287,-9.549 -5.656,-17.094 -5.656,-17.094 h -28.188 z"
       fill="#6f6a6e"
       fill-rule="nonzero"
       id="path10674"
       style="display:inline;fill:#000066;fill-opacity:1" />
    <path
       d="m 653.25,291.94 c 0,0 -7.2,8.374 -5.469,13.156 0.276,0.761 0.674,1.543 1.125,2.344 4.086,1.853 9.222,4.462 11.906,7.062 2.795,2.707 3.077,7.39 5.844,10.125 3.523,3.484 8.307,4.578 12.031,4.875 -0.531,-2.98 -1.685,-6.307 -2.156,-9.625 -1.608,-11.319 2.219,-15.875 2.219,-15.875 z m 26.812,9.625 c 0,0 1.245,4.526 3.25,8.438 4.346,2.44 11.888,6.818 16.031,10.094 2.851,2.253 6.854,6.917 10.125,8.5 3.225,1.56 7.869,2.057 11.938,2.156 -1.838,-3.849 -5.285,-8.731 -7.5,-12.094 -6.288,-9.549 -5.656,-17.094 -5.656,-17.094 z"
       fill="#656064"
       fill-rule="nonzero"
       id="path10676"
       style="fill:#00004d;fill-opacity:1" />
    <path
       d="m 778.25,305.75 c -6.742,-6.452 -4.081,-18.523 -6.887,-25.814 -6.078,-15.791 -18.141,-27.774 -34.757,-37.54 -17.582,-10.333 -35.327,-19.617 -65.33,-20.046 -30.772,-0.439 -31.615,13.114 -44.837,6.73 -10.272,-4.96 -8.906,-21.6 -2.761,-42.045 6.144,-20.445 17.66,-45.284 18.001,-62.539 0.147,-7.423 -1.082,-22.35 -17.035,-23.713 -11.105,-0.949 -16.116,5.601 -14.05,9.027 -7.996,1.857 -20.897,7.628 -19.697,8.803 2.193,2.146 14.976,0.051 21.84,1.693 2.523,0.603 4.265,1.436 5.425,2.655 1.568,1.649 2.164,3.74 2.377,5.618 2.179,19.172 -8.712,34.71 -19.742,52.42 -11.029,17.71 -20.894,37.546 -20.567,65.45 0.505,43.156 35.064,58.344 67.488,64.658 1.816,0.353 3.84,1.203 5.249,2.357 3.041,2.491 6.376,2.893 9.612,5.522 l -0.962,-4.368 c 2.16,1.245 3.691,2.893 5.121,4.916 0.274,-2.006 -0.231,-3.689 -1.024,-5.531 l 3.072,2.458 v -2.253 c 2.289,1.227 3.963,2.865 5.531,4.916 0.348,-2.677 -0.18,-4.908 -1.229,-7.374 5.112,4.691 7.361,2.392 10.873,11.039 l 1.014,-4.465 2.436,3.45 c 1.084,-2.474 1.087,-4.506 0.406,-7.103 2.75,2.431 5.062,3.06 8.727,2.638 -2.702,-1.456 -3.989,-2.223 -3.45,-5.48 2.724,3.042 5.157,4.723 9.053,5.855 -1.598,-1.818 -2.611,-4.286 -1.747,-5.855 2.141,4.803 7.62,2.752 8.93,7.51 0.774,-2.259 0.594,-4.058 -0.203,-6.292 6.378,4.438 6.722,6.5 11.366,5.886 l -2.232,-4.059 c 3.967,0.75 7.533,1.002 7.31,5.489 1.839,-2.05 2.481,-2.601 1.823,-5.286 2.454,2.038 3.249,2.421 3.048,5.692 1.197,-2.114 2.397,-2.856 2.229,-5.286 2.093,1.534 3.057,2.399 4.265,4.677 0.383,-2.8 0.235,-3.992 -1.018,-6.504 4.051,0.975 6.517,2.297 8.727,5.886 l 1.624,-6.089 c 0.955,3.757 3.815,4.387 7.509,4.871 -1.967,-2.323 -2.396,-3.658 -1.015,-6.494 3.021,2.547 4.448,5.02 5.074,8.93 l 3.856,-5.683 c 1.603,2.158 2.463,3.801 2.233,6.495 2.182,-1.793 3.023,-3.009 2.638,-5.886 3.662,5.092 4.676,2.551 6.709,6.301 0.413,-2.258 1.504,-2.875 0.395,-4.88 5.121,2.466 0.861,3.824 6.303,5.686 -1.858,-2.063 -0.52,-4.01 -0.215,-6.701 1.74,2.284 2.722,4.007 2.436,6.9 5.722,-5.177 0.19,-13.191 -3.942,-17.242 z"
       fill="#a2938b"
       fill-rule="nonzero"
       stroke="#000000"
       stroke-width="0.5px"
       id="path10680"
       style="display:inline;fill:#000099;fill-opacity:1" />
    <path
       d="m 580.23,246.44 c 0.505,43.156 35.064,58.344 67.488,64.658 1.816,0.354 3.84,1.204 5.249,2.358 3.04,2.49 6.376,2.893 9.612,5.522 l -0.963,-4.369 c 2.16,1.246 3.691,2.893 5.121,4.916 0.275,-2.006 -0.231,-3.688 -1.024,-5.53 l 3.073,2.458 V 314.2 c 2.289,1.227 3.962,2.864 5.53,4.916 0.348,-2.678 -0.18,-4.909 -1.229,-7.374 5.113,4.69 7.361,2.391 10.873,11.039 l 1.015,-4.465 2.436,3.45 c 1.084,-2.474 1.087,-4.507 0.406,-7.104 2.749,2.431 5.061,3.06 8.727,2.639 -2.703,-1.457 -3.99,-2.223 -3.451,-5.48 2.724,3.041 5.157,4.723 9.054,5.855 -1.599,-1.818 -2.611,-4.287 -1.747,-5.855 2.14,4.802 7.619,2.751 8.93,7.509 0.774,-2.259 0.594,-4.058 -0.203,-6.291 6.378,4.438 6.721,6.5 11.366,5.885 l -2.233,-4.059 c 3.968,0.75 7.534,1.002 7.311,5.489 1.838,-2.05 2.48,-2.6 1.822,-5.286 2.454,2.038 3.25,2.421 3.048,5.692 1.197,-2.114 2.398,-2.855 2.229,-5.286 2.093,1.535 3.057,2.4 4.266,4.678 0.383,-2.801 0.234,-3.993 -1.018,-6.504 4.05,0.975 6.517,2.296 8.727,5.885 l 1.623,-6.088 c 0.955,3.756 3.815,4.386 7.51,4.871 -1.968,-2.323 -2.396,-3.659 -1.015,-6.495 3.02,2.548 4.448,5.021 5.074,8.93 l 3.856,-5.683 c 1.603,2.158 2.463,3.802 2.232,6.495 2.182,-1.792 3.023,-3.009 2.639,-5.886 3.662,5.093 4.675,2.552 6.709,6.301 0.413,-2.258 1.504,-2.875 0.394,-4.88 5.121,2.466 0.862,3.825 6.303,5.686 -1.857,-2.062 -0.519,-4.009 -0.214,-6.701 1.739,2.284 2.721,4.007 2.435,6.901 5.722,-5.178 0.19,-13.191 -3.941,-17.242 -6.743,-6.453 -4.082,-18.523 -6.888,-25.814 -4.363,-11.335 -11.81,-20.709 -21.811,-28.708 0,0 11.671,12.989 15.676,20.646 1.775,3.394 3.552,10.928 3.552,10.928 0,0 -2.364,-7.523 -4.645,-10.655 -2.43,-3.338 -9.288,-8.196 -9.288,-8.196 0,0 5.435,5.652 7.376,9.015 2.19,3.794 3.858,7.985 4.644,12.294 0.458,2.508 0,7.65 0,7.65 0,0 -2.939,-11.499 -5.737,-16.665 -1.977,-3.653 -7.649,-9.835 -7.649,-9.835 0,0 5.112,6.99 6.83,10.928 1.395,3.199 2.4,6.633 2.732,10.108 0.234,2.454 -0.547,7.376 -0.547,7.376 0,0 -0.184,-7.966 -2.185,-11.201 -1.572,-2.541 -7.104,-5.464 -7.104,-5.464 0,0 3.725,4.099 4.918,6.557 1.235,2.543 2.186,8.196 2.186,8.196 0,0 -2.569,-6.69 -4.918,-9.289 -2.201,-2.436 -8.196,-5.464 -8.196,-5.464 0,0 5.31,4.491 5.737,7.65 0.368,2.714 -3.005,7.649 -3.005,7.649 0,0 -1.218,-11.364 -4.371,-15.846 -2.821,-4.009 -8.518,-5.04 -12.021,-8.469 -1.536,-1.503 -3.825,-5.191 -3.825,-5.191 0,0 1.188,4.428 2.459,6.284 2.585,3.776 7.753,5.365 10.108,9.289 1.307,2.177 1.901,4.836 1.912,7.376 0.007,1.502 -1.093,4.371 -1.093,4.371 0,0 -0.835,-4.857 -2.185,-6.83 -1.389,-2.03 -5.737,-4.644 -5.737,-4.644 0,0 2.909,3.195 3.551,5.191 1.228,3.815 0.273,12.021 0.273,12.021 0,0 -5.081,-5.1 -6.83,-8.196 -1.231,-2.182 -1.013,-5.057 -2.458,-7.104 -1.682,-2.381 -6.83,-5.464 -6.83,-5.464 0,0 3.673,3.673 4.644,6.011 0.811,1.95 0.826,4.171 0.82,6.283 -0.006,2.022 -0.82,6.011 -0.82,6.011 0,0 -0.741,-6.708 -1.912,-9.835 -0.702,-1.873 -1.707,-3.67 -3.006,-5.191 -1.218,-1.428 -4.371,-3.552 -4.371,-3.552 0,0 3.036,3.771 3.825,6.011 0.548,1.555 0.898,3.306 0.546,4.917 -0.452,2.076 -3.278,5.464 -3.278,5.464 0,0 0.35,-4.188 0.273,-6.283 -0.057,-1.558 0.114,-3.232 -0.546,-4.645 -0.954,-2.042 -4.645,-4.917 -4.645,-4.917 0,0 3.088,3.736 3.279,6.01 0.233,2.784 -2.732,7.923 -2.732,7.923 l -2.186,-15.846 c 0,0 -2.81,-4.818 -4.917,-6.557 -2.89,-2.385 -7.299,-2.439 -10.108,-4.917 -1.876,-1.655 -4.098,-6.284 -4.098,-6.284 0,0 0.157,4.68 1.366,6.557 2.505,3.889 8.215,4.661 11.201,8.196 1.708,2.022 2.801,4.564 3.551,7.103 0.701,2.373 1.199,4.932 0.82,7.376 -0.412,2.659 -3.279,7.377 -3.279,7.377 0,0 0.824,-5.836 0.547,-8.743 -0.277,-2.902 -0.552,-6.054 -2.186,-8.469 -3.103,-4.586 -9.595,-5.8 -13.387,-9.835 -1.038,-1.105 -2.459,-3.825 -2.459,-3.825 0,0 0.012,3.296 0.82,4.645 2.5,4.172 8.628,5.071 11.474,9.015 1.416,1.962 2.043,4.446 2.459,6.83 0.391,2.243 0.552,4.621 0,6.83 -0.376,1.502 -2.186,4.098 -2.186,4.098 0,0 -0.211,-3.904 -0.819,-5.737 -0.72,-2.166 -3.279,-6.01 -3.279,-6.01 0,0 0.853,5.07 0,7.376 -0.582,1.575 -3.278,3.825 -3.278,3.825 0,0 1.084,-3.607 1.093,-5.464 0.009,-1.947 -1.093,-5.737 -1.093,-5.737 0,0 0.371,4.22 -0.547,6.01 -0.824,1.609 -4.098,3.552 -4.098,3.552 0,0 1.814,-3.351 2.186,-5.191 0.505,-2.5 0.762,-5.216 0,-7.65 -1.193,-3.809 -3.834,-7.198 -6.83,-9.835 -1.926,-1.695 -5.094,-1.662 -6.83,-3.552 -0.801,-0.871 -1.366,-3.278 -1.366,-3.278 0,0 0.028,3.118 0.82,4.371 1.323,2.094 4.329,2.552 6.01,4.371 2.247,2.432 4.343,5.269 5.191,8.47 0.723,2.73 0.849,5.877 -0.273,8.469 -1.434,3.309 -7.65,7.649 -7.65,7.649 0,0 -1.543,-2.258 -1.912,-3.551 -0.802,-2.808 0.854,-6.18 -0.547,-8.743 -0.812,-1.486 -4.098,-3.005 -4.098,-3.005 0,0 2.259,2.72 2.732,4.371 0.728,2.539 0.705,5.378 0,7.923 -0.283,1.024 -1.639,2.732 -1.639,2.732 0,0 -0.515,-2.807 -1.093,-4.098 -1.423,-3.181 -5.737,-8.742 -5.737,-8.742 0,0 2.581,5.317 3.005,8.196 0.226,1.534 -0.273,4.644 -0.273,4.644 0,0 -3.13,-5.704 -5.191,-8.196 -2.546,-3.078 -6.674,-4.778 -8.742,-8.196 -0.881,-1.455 -1.136,-3.232 -1.366,-4.917 -0.234,-1.715 0,-5.191 0,-5.191 0,0 -1.894,4.094 -1.913,6.283 -0.017,1.989 0.631,4.023 1.64,5.738 1.502,2.553 4.824,3.706 6.283,6.283 0.37,0.654 0.547,2.186 0.547,2.186 0,0 -2.419,-1.759 -3.552,-2.732 -2.296,-1.973 -4.984,-3.697 -6.557,-6.284 -0.838,-1.379 -1.072,-3.057 -1.366,-4.644 -0.415,-2.246 -0.546,-6.83 -0.546,-6.83 0,0 -0.778,5.268 -0.82,7.923 -0.02,1.278 0.273,3.824 0.273,3.824 l -6.01,-4.371 4.918,8.196 c 0,0 -4.833,-2.595 -6.557,-4.644 -1.364,-1.621 -2.732,-5.737 -2.732,-5.737 0,0 -0.503,3.892 0,5.737 0.472,1.733 2.732,4.644 2.732,4.644 0,0 -3.845,-5.091 -6.284,-7.103 -3.181,-2.624 -10.655,-6.284 -10.655,-6.284 0,0 3.032,3.643 4.098,5.738 0.654,1.283 1.366,4.098 1.366,4.098 0,0 -3.26,-0.97 -4.644,-1.913 -2.715,-1.848 -4.009,-5.42 -6.83,-7.103 -1.461,-0.872 -4.918,-1.366 -4.918,-1.366 0,0 3.295,2.138 4.098,3.825 1.138,2.39 0.547,7.923 0.547,7.923 0,0 -3.228,-8.045 -6.284,-10.928 -1.481,-1.398 -5.464,-2.732 -5.464,-2.732 0,0 1.901,2.031 2.459,3.278 0.568,1.272 0.819,4.098 0.819,4.098 0,0 -2.849,-1.088 -3.824,-2.186 -2.169,-2.44 -1.764,-6.483 -3.825,-9.015 -0.909,-1.117 -3.552,-2.459 -3.552,-2.459 0,0 1.361,2.653 1.639,4.098 0.293,1.52 0,4.644 0,4.644 0,0 -2.39,-3.534 -3.278,-5.464 -0.963,-2.093 -1.057,-4.548 -2.186,-6.556 -0.759,-1.352 -3.005,-3.552 -3.005,-3.552 0,0 1.588,3.189 1.913,4.918 0.218,1.163 0,3.551 0,3.551 0,0 -2.319,-3.313 -3.006,-5.191 -0.89,-2.432 -1.366,-7.649 -1.366,-7.649 0,0 -0.781,2.705 -0.819,4.098 -0.036,1.287 0.546,3.825 0.546,3.825 0,0 -2.004,-3.894 -2.459,-6.011 -0.554,-2.583 -0.273,-7.923 -0.273,-7.923 0,0 -2.035,2.754 -2.459,4.372 -0.276,1.057 0,3.278 0,3.278 0,0 -1.712,-1.271 -2.185,-2.186 -0.972,-1.878 -0.82,-4.153 -1.073,-6.253 -0.481,-3.998 -0.84,-12.051 -0.84,-12.051 z"
       fill="#918076"
       fill-rule="nonzero"
       id="path10682"
       style="display:inline;fill:#000080;fill-opacity:1" />
    <path
       d="m 660.05,222.89 c -20.019,2.41 -22.229,11.686 -33.61,6.191 -10.272,-4.96 -8.906,-21.6 -2.761,-42.045 6.145,-20.445 17.66,-45.284 18.001,-62.539 0.147,-7.422 -1.14,-21.79 -17.035,-23.713 -10.603,-1.283 -16.116,5.601 -14.05,9.028 l 2.143,10.496 c 2.523,0.603 4.266,1.435 5.425,2.655 1.568,1.649 2.165,3.74 2.378,5.617 1.012,8.906 -0.796,17.028 -4.129,24.947 4.61,-4.231 12.42,-19.538 6.915,-31.787 1.407,-2.172 2.368,-3.728 1.931,-6.321 3.328,0.322 5.233,-2.717 4.565,-6.145 0,0 3,2.768 3.863,4.565 1.318,2.742 1.59,5.918 1.756,8.955 0.228,4.164 -0.284,8.368 -1.054,12.467 -1.87,9.956 -5.414,19.532 -8.603,29.147 -2.927,8.823 -6.772,17.325 -9.657,26.162 -2.884,8.831 -7.239,19.391 -8.835,25.532 -2.122,8.167 -3.384,17.873 0.462,23.177 2.045,2.821 5.832,5.944 9.271,6.503 4.997,0.813 12.831,-1.761 17.466,-3.797 7.159,-3.146 12.256,-11.321 19.211,-14.894 4.479,-2.301 14.398,-4.565 14.398,-4.565 z"
       fill="#998980"
       fill-rule="nonzero"
       id="path10684"
       style="display:inline;fill:#000066;fill-opacity:1" />
    <path
       d="m 654.7,223.76 c -15.187,3.195 -17.986,10.278 -28.262,5.316 -10.272,-4.96 -8.906,-21.6 -2.761,-42.045 6.145,-20.445 17.66,-45.284 18.001,-62.539 0.147,-7.423 -1.139,-21.79 -17.035,-23.713 -10.603,-1.283 -16.116,5.601 -14.05,9.028 l 2.143,10.495 c 2.523,0.604 4.266,1.436 5.425,2.656 1.568,1.649 2.165,3.74 2.378,5.617 0.864,7.605 -0.328,14.637 -2.769,21.461 6.433,-10.934 6.017,-25.57 3.126,-27.917 7.168,-7.389 -0.898,-13.144 -8.093,-13.927 0.635,-2.649 2.691,-4.272 5.269,-5.458 l -1.505,3.2 c 1.841,-1.73 4.407,-3.493 7.396,-3.621 -1.736,0.863 -3.52,1.969 -3.444,3.997 3.931,-3.742 7.369,-3.146 10.985,-1.322 -1.878,-0.476 -3.818,0.128 -5.649,0.719 4.736,0.004 7.94,1.178 11.187,4.597 -2.229,-1.667 -4.502,-2.062 -7.255,-2.16 5.212,1.37 8.079,3.906 10.301,8.75 -2.526,-3.184 -5.661,-4.034 -9.636,-4.596 4.409,1.637 7.793,4.954 10.275,8.903 -2.875,-2.255 -5.679,-3.376 -8.555,-4.293 2.469,2.775 5.383,2.251 8.048,11.875 -2.77,-4.537 -5.572,-5.736 -7.973,-6.445 2.764,2.931 5.701,5.592 7.178,10.547 -1.66,-1.733 -3.321,-3.014 -4.981,-3.223 1.974,2.726 3.894,5.486 3.809,9.522 -1.204,-1.851 -2.259,-3.801 -5.127,-4.541 1.689,3.006 3.567,5.961 3.223,9.521 -0.878,-1.257 -1.867,-2.487 -4.249,-3.369 1.525,2.371 3.058,4.742 2.93,7.178 -0.881,-1.449 -2.017,-2.58 -3.662,-3.076 1.247,2.441 2.914,4.883 2.344,7.324 -0.762,-1.084 -1.36,-2.25 -3.223,-2.783 1.387,2.051 2.233,4.102 1.904,6.153 -0.93,-1.319 -1.938,-2.637 -3.808,-3.956 1.538,2.695 2.601,5.745 2.61,7.866 -1.174,-1.509 -2.348,-2.452 -3.522,-2.495 1.467,3.063 2.382,5.438 2.017,8.501 -1.114,-2.242 -2.228,-2.439 -3.342,-2.924 0.662,1.845 1.629,2.773 1.254,7.728 -1.114,-1.589 -2.228,-1.69 -3.342,-1.462 1.325,1.877 1.195,4.384 1.177,7.605 -1.156,-0.979 -1.773,-1.784 -3.271,-1.737 1.406,1.413 1.312,3.635 1.259,6.872 -0.931,-1.185 -1.861,-2.041 -2.792,-2.007 1.286,1.312 1.268,4.106 1.33,6.81 -0.936,-0.6 -1.631,-1.763 -3.133,-1.044 2.051,1.807 1.777,3.846 1.88,5.848 -1.01,-0.52 -1.936,-1.631 -3.133,-0.835 1.539,1.531 2.389,3.063 2.297,4.594 -1.033,-1.147 -2.323,-1.906 -3.968,-1.218 2.362,1.13 2.029,3.72 2.506,5.604 -1.079,-1.026 -1.699,-1.326 -3.947,-1.379 1.505,2.089 3.147,3.259 2.903,5.348 -1.239,-0.544 -2.455,-1.181 -3.968,-0.627 1.349,1.816 3.054,3.009 3.341,6.683 -1.462,-1.216 -2.924,-0.997 -4.386,-0.835 1.393,1.024 2.785,2.438 4.177,5.43 -1.601,-1.034 -3.202,-1.002 -4.803,-0.626 1.382,0.621 2.641,2.233 3.74,5.122 -1.597,-1.248 -3.195,-1.285 -4.792,-0.839 1.686,1.463 3.786,2.913 4.362,6.32 -1.641,-2.199 -4.407,-2.823 -6.048,-3.39 1.505,1.81 3.756,3.075 4.397,6.035 -2.414,-2 -3.528,-2.117 -6.091,-2.338 2.882,2.038 4.06,2.991 5.028,6.06 -2.029,0.012 -3.441,-0.919 -4.527,-2.439 -0.85,3.774 0.45,9.182 3.452,11.764 -0.27,-2.199 -0.614,-2.908 0.013,-4.222 1.131,3.618 3.442,6.056 6.166,8.081 -1.361,-2.269 -2.768,-4.537 -2.765,-6.805 1.676,2.91 4.046,4.746 7.124,6.06 -2.672,-2.197 -3.667,-4.394 -4.572,-6.592 2.37,3.074 5.387,5.175 9.357,5.848 -3.18,-2.331 -5.046,-4.568 -5.423,-6.698 3.019,2.821 6.137,4.353 9.357,4.572 -1.921,-1.495 -4.703,-2.817 -4.785,-4.679 3.367,3.08 6.734,1.917 10.101,1.808 -2.583,-0.747 -5.405,-1.373 -6.061,-3.084 3.566,2.154 6.349,0.658 9.357,0.213 -1.642,-0.422 -3.753,-0.024 -4.678,-1.701 4.142,1.374 6.76,-0.303 9.782,-1.17 -1.221,-0.116 -2.637,0.095 -3.296,-0.957 4.554,-2.26 9.153,-4.421 13.774,-6.543 z"
       fill="#8e7d74"
       fill-rule="nonzero"
       id="path10686"
       style="display:inline;fill:#00004d;fill-opacity:1" />
    <path
       d="m 610.6,109.81 c -7.996,1.857 -20.897,7.628 -19.697,8.802 2.193,2.147 14.976,0.052 21.84,1.693 2.523,0.604 4.266,1.436 5.425,2.656 1.827,-1.374 4.227,-4.516 4.214,-6.811 -1.729,-3.802 -5.421,-6.543 -11.782,-6.34 z"
       fill="#aba29b"
       fill-rule="nonzero"
       id="path10688"
       style="display:inline;fill:#000080;fill-opacity:1" />
    <path
       d="m 592.51,117.03 c 0,0 14.071,-2.988 21.195,-2.806 1.627,0.041 3.174,0.831 4.8,0.886 0.644,0.022 1.921,-0.222 1.921,-0.222 -0.936,-2.708 -4.432,-4.332 -10.487,-4.874 -6.858,1.989 -12.928,4.241 -17.429,7.016 z"
       fill="#b8b0aa"
       fill-rule="nonzero"
       id="path10690"
       style="display:inline;fill:#000099;fill-opacity:1" />
    <path
       d="m 612.41,115.22 c -7.739,0 -15.173,3.329 -21.579,3.088 l 0.485,0.483 c 6.673,0.251 13.59,-2.59 21.125,-2.571 2.276,0.006 5.654,1.112 7.11,-0.469 -2.484,0.223 -4.76,-0.531 -7.141,-0.531 z"
       fill="#4c443e"
       fill-rule="nonzero"
       id="path10704"
       style="fill:#00004d;fill-opacity:1" />
    <path
       d="m 597.33,116.32 c 0,0 2.658,-1.598 3.753,-1.506 0.788,0.066 0.954,0.686 0.954,0.686 -1.386,0.536 -2.887,0.557 -4.707,0.82 z"
       fill="#333333"
       fill-rule="nonzero"
       id="path10706" />
    <path
       d="m 771.36,279.93 c 2.806,7.291 0.145,19.362 6.887,25.814 4.132,4.05 9.664,12.064 3.942,17.242 0.286,-2.893 -0.696,-4.616 -2.435,-6.9 -0.305,2.691 -1.643,4.638 0.214,6.701 -5.441,-1.862 -1.182,-3.221 -6.303,-5.687 1.109,2.006 0.019,2.623 -0.395,4.881 -2.033,-3.75 -3.046,-1.209 -6.708,-6.301 0.384,2.877 -0.457,4.093 -2.639,5.885 0.231,-2.693 -0.63,-4.336 -2.232,-6.494 l -3.856,5.682 c -0.626,-3.909 -2.054,-6.382 -5.074,-8.93 -1.381,2.836 -0.953,4.172 1.014,6.495 -3.694,-0.484 -6.554,-1.114 -7.509,-4.871 l -1.624,6.089 c -2.21,-3.59 -4.676,-4.911 -8.727,-5.886 1.253,2.511 1.402,3.704 1.019,6.504 -1.209,-2.278 -2.173,-3.143 -4.266,-4.677 0.169,2.43 -1.032,3.172 -2.229,5.286 0.202,-3.271 -0.594,-3.655 -3.048,-5.692 0.658,2.685 0.016,3.236 -1.823,5.286 0.224,-4.487 -3.343,-4.739 -7.31,-5.489 l 2.233,4.059 c -4.645,0.614 -4.988,-1.448 -11.366,-5.886 0.796,2.234 0.977,4.033 0.203,6.292 -1.311,-4.759 -6.79,-2.707 -8.93,-7.51 -0.864,1.569 0.148,4.037 1.747,5.855 -3.897,-1.132 -6.33,-2.814 -9.054,-5.855 -0.539,3.257 0.748,4.024 3.45,5.48 -3.665,0.422 -5.977,-0.207 -8.727,-2.638 0.682,2.597 0.679,4.629 -0.406,7.103 l -2.435,-3.45 -1.015,4.465 c -3.512,-8.647 -5.761,-6.348 -10.873,-11.039 1.049,2.466 1.577,4.696 1.229,7.374 -1.568,-2.051 -3.241,-3.689 -5.53,-4.916 v 2.253 l -3.073,-2.458 c 0.793,1.842 1.299,3.524 1.024,5.531 -1.43,-2.024 -2.961,-3.671 -5.121,-4.916 l 0.962,4.368 c -3.235,-2.629 -6.571,-3.031 -9.612,-5.522 -1.408,-1.154 -3.432,-2.004 -5.248,-2.358 -30.574,-5.953 -63.045,-19.797 -67.076,-57.539 1.359,4.216 1.717,8.433 5.403,12.648 -1.893,-4.138 -2.059,-8.276 -1.811,-12.414 0.84,4.828 2.794,9.656 5.431,14.483 -0.815,-3.965 -2.415,-7.931 -0.517,-11.897 -0.193,5.949 3.188,11.897 4.914,17.845 -0.45,-3.62 -2.25,-7.241 -0.776,-10.862 0.647,5.812 4.679,11.06 7.242,16.552 -1.146,-3.448 -2.948,-6.896 -2.069,-10.345 0.676,4.644 3.714,8.893 6.465,13.19 -0.688,-3.275 -3.041,-6.551 -1.81,-9.827 0.384,3.62 3.996,7.241 6.724,10.862 -0.86,-1.897 -0.836,-3.794 -0.258,-5.69 2.295,7.077 5.143,8.082 7.758,11.638 -1.649,-2.962 -2.927,-5.911 -2.069,-8.793 1.82,6.409 5.235,11.68 9.57,16.293 -1.579,-3.452 -3.749,-6.978 -2.587,-10.086 0.678,4.051 4.892,8.103 8.276,12.155 -0.975,-3.244 -3.511,-4.615 -2.845,-9.828 1.544,3.766 3.554,4.261 5.432,5.69 -1.962,-3.743 -4.701,-7.227 -4.656,-11.638 2.5,4.332 5,6.701 7.501,8.534 -0.882,-2.135 -2.186,-3.849 -2.069,-6.983 1.81,3.825 3.62,4.512 5.431,5.173 -1.394,-2.707 -2.699,-5.521 -2.328,-10.345 3.276,6.273 6.552,8.059 9.828,11.38 -0.779,-2.586 -0.993,-5.173 -2.069,-7.759 4.854,3.005 4.483,5.354 6.466,6.207 1.313,-2.396 -0.382,-5.294 -1.035,-8.017 5.084,5.356 9.003,10.59 11.38,17.587 0.535,-3.922 -0.33,-7.074 -2.069,-10.604 5.372,3.17 6.839,8.214 8.018,14.224 0.987,-3.621 1.596,-7.242 -0.259,-10.862 3.81,3.62 4.067,7.241 5.172,10.862 0.554,-3.025 1.818,-5.948 0,-9.311 3.203,3.147 3.843,6.667 5.173,10.086 0.193,-2.47 1.421,-4.32 0,-7.759 2.808,2.5 2.446,5 3.621,7.5 0.393,-5.092 2.835,-8.347 6.679,-11.515 -2.216,4.225 -2.725,7.16 -0.989,11.773 -0.368,-5.751 3.112,-9.38 7.241,-13.19 -1.657,4.512 -3.232,8.391 -2.586,13.19 0.599,-7.786 8.301,-7.348 7.241,-14.742 4.625,5.691 -1.074,7.698 -0.517,14.224 1.2,-4.498 4.084,-7.517 7.5,-10.604 -2.045,4.018 -2.441,6.693 -0.517,10.862 -0.093,-4.686 1.622,-7.55 4.914,-10.862 -1.521,4.103 -1.334,7.889 -0.517,12.155 0.307,-5.288 4.335,-9.241 3.879,-14.224 2.792,4.917 0.42,8.27 4.914,12.414 l -0.259,-9.569 c 1.24,5.702 3.584,9.192 8.276,12.673 -1.85,-3.731 -2.011,-7.039 -1.293,-11.121 0.503,5.055 2.794,7.946 6.724,11.121 -1.959,-3.924 -2.634,-7.534 -2.327,-11.897 2.059,4.602 4.186,9.383 6.724,11.121 -1.505,-3.276 -1.842,-6.552 -1.552,-9.828 2.18,3.495 4.192,7.115 7.759,9.57 -1.549,-3.105 -2.004,-6.522 -1.034,-10.345 0.764,2.931 0.836,5.862 3.62,8.793 -0.781,-5.311 0.538,-9.171 3.363,-13.707 -0.744,4.463 -0.559,8.55 0.517,12.931 0.375,-3.747 1.501,-6.737 3.621,-9.828 -1.035,4.121 -0.337,6.826 2.069,10.345 0.81,-2.569 0.887,-5.504 0.258,-8.793 2.905,3.621 4.021,7.241 5.173,10.862 1.011,-2.886 1.084,-6.124 -0.776,-10.086 3.1,2.243 4.19,5.491 5.172,8.793 0.602,-1.984 0.514,-4.343 0,-7.759 2.905,2.845 3.722,5.69 4.914,8.535 -0.11,-3.558 -0.138,-7.035 -1.293,-11.638 2.085,3.19 4.444,7.189 5.106,10.379 0,0 -0.953,-4.305 -1.329,-7.374 -0.506,-4.136 -0.245,-6.87 -0.662,-10.213 -0.469,-3.762 -2.575,-11.946 -2.575,-11.946 1.016,1.919 1.911,3.915 2.704,5.976 z"
       fill="#7f6f66"
       fill-rule="nonzero"
       id="path10708"
       style="display:inline;fill:#000066;fill-opacity:1" />
    <path
       d="m 627.22,304.4 c -3.221,-1.821 -5.808,-3.704 -7.418,-7.076 3.332,3.161 6.972,5.56 11.07,7.647 -1.797,-1.816 -3.195,-3.448 -3.31,-6.049 3.266,4.914 7.864,6.85 13.113,9.372 -3.002,-3.048 -8.962,-4.143 -8.603,-10.702 3.926,7.153 9.267,7.419 13.85,10.911 -3.196,-4.043 -6.801,-6.57 -9.353,-13.617 7.702,10.221 13.844,13.174 20.685,18.654 -5.543,-7.055 -13.699,-13.198 -13.863,-20.469 5.843,10.781 10.314,12.99 16.591,19.001 -3.408,-5.393 -8.664,-11.377 -8.111,-16.612 3.378,6.886 6.857,11.879 11.889,16.402 -1.306,-3.567 -4.202,-7.135 -3.358,-10.702 3.439,4.356 5.764,7.339 5.837,9.807 0.638,-1.961 0.8,-5.137 -1.22,-8.547 3.158,3.077 6.046,6.155 5.876,9.233 0.744,-1.804 1.268,-3.793 -0.84,-7.974 7.269,3.37 6.223,8.696 10.912,10.073 -3.03,-5.269 -2.241,-6.718 -2.518,-9.234 2.776,3.218 6.138,6.436 6.505,9.653 0.839,-1.138 -0.274,-5.692 -1.049,-9.653 3.767,3.756 5.492,6.746 5.876,9.234 2.268,-3.074 1.011,-6.589 0,-10.073 2.027,2.869 4.064,5.729 6.505,8.184 -1.302,-3.358 -1.854,-6.715 -1.888,-10.073 2.247,4.011 4.885,7.534 8.813,9.443 -0.631,-2.658 -2.887,-5.316 -1.259,-7.974 3.113,3.964 3.776,6.294 4.407,8.604 1.907,-1.792 1.42,-5.579 0.84,-9.444 0,0 2.034,5.869 3.777,8.394 1.011,1.466 3.777,3.778 3.777,3.778 0,0 -0.946,-4.462 -0.839,-6.716 0.061,-1.288 0.839,-3.777 0.839,-3.777 0,0 0.371,2.661 1.05,3.777 1.439,2.369 6.085,5.666 6.085,5.666 -0.909,-2.378 -2.715,-4.756 -1.679,-7.135 1.797,3.902 3.239,5.324 4.617,6.296 -1.092,-2.64 -0.991,-4.485 -0.839,-6.296 2.168,3.279 4.337,5.761 6.505,6.926 -0.708,-2.496 -1.184,-4.644 -1.049,-5.876 3.126,1.888 3.518,3.777 4.197,5.666 1.43,-2.35 1.1,-4.993 0,-7.765 2.407,3.547 4.742,7.667 7.554,7.975 -2.915,-4.192 -2.175,-5.771 -2.308,-7.975 1.819,3.39 3.637,6.472 5.456,8.184 -0.589,-2.712 -0.475,-5.439 0.63,-8.184 2.561,1.975 2.878,4.324 2.938,6.716 1.893,-1.81 2.241,-6.71 2.938,-10.912 l 0.629,8.394 c 0.912,-0.975 1.805,-1.993 1.889,-5.037 0.712,4.129 2.436,6.573 4.407,8.604 -1.171,-3.348 -0.692,-5.872 -0.21,-8.394 1.178,2.902 2.226,5.883 5.456,7.555 -0.731,-2.239 -1.72,-4.477 0,-6.716 2.238,4.569 4.477,7.631 6.715,8.395 -1.152,-2.641 -1.383,-5.127 0,-7.345 -1.154,3.834 2.282,6 5.666,8.184 -2.704,-3.676 -3.153,-6.6 -3.357,-9.443 2.28,3.441 5.527,7.205 5.456,9.863 1.644,-1.474 0.868,-3.985 -0.42,-6.716 2.4,2.379 4.705,4.757 4.617,7.135 l 1.368,-3.571 c 1.941,3.682 2.564,7.815 -0.872,10.925 0.285,-2.894 -0.697,-4.617 -2.436,-6.901 -0.305,2.692 -1.643,4.639 0.214,6.702 -5.441,-1.862 -1.182,-3.221 -6.303,-5.687 1.11,2.005 0.019,2.623 -0.394,4.88 -2.034,-3.749 -3.047,-1.208 -6.709,-6.301 0.384,2.878 -0.457,4.094 -2.638,5.886 0.23,-2.693 -0.63,-4.336 -2.233,-6.495 l -3.856,5.683 c -0.626,-3.909 -2.054,-6.382 -5.074,-8.93 -1.381,2.836 -0.953,4.172 1.015,6.495 -3.695,-0.484 -6.555,-1.115 -7.51,-4.871 l -1.623,6.088 c -2.21,-3.589 -4.677,-4.91 -8.727,-5.885 1.253,2.511 1.401,3.703 1.018,6.504 -1.209,-2.278 -2.172,-3.143 -4.266,-4.678 0.169,2.431 -1.031,3.172 -2.228,5.287 0.201,-3.271 -0.595,-3.655 -3.048,-5.693 0.658,2.686 0.016,3.237 -1.823,5.287 0.223,-4.488 -3.343,-4.74 -7.31,-5.49 l 2.232,4.059 c -4.644,0.615 -4.988,-1.447 -11.366,-5.885 0.797,2.234 0.977,4.032 0.203,6.291 -1.31,-4.758 -6.79,-2.707 -8.93,-7.509 -0.864,1.568 0.149,4.037 1.747,5.855 -3.896,-1.132 -6.329,-2.814 -9.053,-5.855 -0.54,3.257 0.747,4.024 3.45,5.48 -3.665,0.422 -5.977,-0.207 -8.727,-2.639 0.681,2.598 0.678,4.63 -0.406,7.104 l -2.436,-3.45 -1.015,4.465 c -3.512,-8.647 -5.76,-6.348 -10.873,-11.039 1.049,2.466 1.578,4.696 1.229,7.374 -1.568,-2.052 -3.241,-3.689 -5.53,-4.916 v 2.253 l -3.073,-2.458 c 0.793,1.842 1.299,3.524 1.025,5.53 -1.431,-2.023 -2.961,-3.67 -5.121,-4.916 l 0.962,4.369 c -3.236,-2.629 -6.571,-3.032 -9.612,-5.522 -1.409,-1.154 -3.433,-2.004 -5.249,-2.358 -6.068,-1.182 -12.212,-2.674 -18.192,-4.603 l -8.355,-3.017 -9.015,-4.336 c -16.719,-9.393 -24.441,-19.314 -27.604,-29.504 4.489,5.877 8.466,11.732 14.389,16.188 -1.756,-2.249 -2.492,-4.353 -3.148,-6.445 3.248,4.656 6.495,8.511 9.743,11.092 -1.288,-1.599 -2.24,-3.198 -2.099,-4.797 3.398,4.7 6.795,6.632 10.192,9.893 -0.487,-0.9 -1.305,-1.799 -0.899,-2.698 2.532,3.84 8.025,7.681 14.49,11.521 z"
       fill="#6d5f58"
       fill-rule="nonzero"
       id="path10710"
       style="display:inline;fill:#00004d;fill-opacity:1" />
    <path
       d="m 662.61,228.69 c 5.535,-2.346 11.633,-3.614 17.635,-3.266 24.497,1.421 48.448,11.782 65.967,27.105 3.343,2.925 5.878,8.491 5.878,8.491 -2.068,1.324 -4.136,-0.854 -6.204,-2.286 0.257,3.297 7.518,9.634 9.797,14.696 0.525,1.168 0,3.843 0,3.843 0,0 -1.365,-2.335 -4.612,-3.879 -4.185,-1.991 -10.701,-3.604 -14.003,-5.516 -5.789,-3.351 -10.239,-12.677 -10.239,-12.677 0,0 -2.341,6.344 2.165,13.134 1.9,2.863 4.559,6.171 5.135,8.687 0.461,2.016 0,6.205 0,6.205 0,0 -4.079,-7.528 -7.511,-9.797 -3.282,-2.17 -7.995,-1.022 -11.43,-2.939 -3.563,-1.989 -5.343,-6.353 -8.818,-8.491 -1.964,-1.209 -4.546,-1.111 -6.531,-2.286 -3.033,-1.796 -7.107,-9.331 -7.107,-9.331 -0.278,3.01 -0.855,8.28 -0.404,11.29 -2.504,0.312 -3.744,-5.869 -6.248,-11.729 -1.232,8.212 0.328,14.575 2.002,17.933 -5.491,-2.405 -10.278,-8.619 -12.736,-17.883 0,0 -1.479,10.446 -0.376,13.287 1.868,4.813 8.958,9.254 10.827,14.067 0.748,1.928 0.791,4.294 0,6.205 -0.707,1.707 -3.919,3.919 -3.919,3.919 0,0 0.736,-4.427 -0.327,-6.205 -1.829,-3.06 -9.144,-5.552 -9.144,-5.552 1.845,4.106 3.918,7.536 3.593,12.083 -2.64,-4.562 -6.066,-8.378 -9.797,-12.083 l 1.959,9.471 c 0,0 -5.09,-5.311 -6.858,-8.491 -2.409,-4.333 -4.522,-19.692 -4.522,-19.692 -1.563,2.989 -3.228,11.738 -2.989,15.447 -2.973,-4.622 -1.514,-13.169 -2.186,-16.477 -1.779,4.354 -4.199,11.722 -3.039,19.089 -5.134,-3.586 -10.726,-5.878 -16.655,-7.838 l 2.939,5.226 c -6.867,-4.247 -12.766,-7.443 -20.901,-7.512 l 0.98,3.919 c 0,0 -3.955,-2.784 -5.552,-4.572 -1.73,-1.936 -5.867,-6.274 -6.506,-8.791 -1.377,-5.434 1.307,-9.471 1.307,-9.471 0.373,4.062 2.169,8.124 5.296,12.185 -0.154,-3.924 -2.017,-7.206 0,-11.944 2.537,9.72 6.657,10.735 10.33,14.204 -1.26,-3.846 -3.59,-6.011 -2.905,-12.913 4.022,3.147 7.025,6.386 9.361,9.685 -0.058,-3.121 -0.365,-6.241 -1.937,-9.362 4.645,2.045 6.415,4.089 8.394,6.134 -0.143,-2.475 -0.6,-4.95 -2.26,-7.425 7.798,1.183 11.872,2.367 13.558,3.551 0.204,-2.152 -3.418,-4.304 -7.102,-6.457 0,0 10.051,0.002 14.85,1.292 3.672,0.987 10.33,4.842 10.33,4.842 0,0 -3.444,-5.673 -6.134,-7.425 -2.997,-1.952 -10.33,-2.905 -10.33,-2.905 0,0 4.48,-1.238 6.78,-1.292 5.324,-0.123 15.818,2.26 15.818,2.26 0,0 -6.902,-5.15 -10.976,-6.133 -2.931,-0.708 -9.039,0.323 -9.039,0.323 0,0 5.469,-2.441 8.393,-2.906 5.846,-0.928 11.836,0.269 17.755,0.323 1.937,0.018 5.811,0 5.811,0 0,0 -8.3,-2.624 -12.59,-3.228 -1.643,-0.231 -4.974,-0.143 -4.974,-0.143 z"
       fill="#a99b93"
       fill-rule="nonzero"
       id="path10714"
       style="display:inline;fill:#0000b2;fill-opacity:1" />
    <path
       d="m 585.12,242.4 c -2.518,-40.538 33.77,-75.468 40.239,-102.79 1.757,-7.418 2.305,-13.627 1.076,-18.06 0.382,-1.06 1.338,-1.213 1.231,-3.497 0.967,0.768 1.934,1.17 2.901,0.915 0,0 0.954,9.87 0.263,14.653 -3.86,26.741 -17.788,53.439 -28.478,78.253 -9.419,21.865 0.327,31.123 0.327,31.123 -2.717,3.584 -4.091,6.337 -3.323,10.442 -4.924,-3.59 -9.207,-8.832 -12.184,-15.255 z"
       fill="#a99b93"
       fill-rule="nonzero"
       id="path10716"
       style="display:inline;fill:#0000b2;fill-opacity:1" />
    <g
       transform="matrix(-1.153,0,0,1.153,1347.4,-43.278)"
       id="g10702"
       style="display:inline">
      <path
         d="m 626.66,130.18 c -1.678,0 -3.036,1.355 -3.036,3.04 0,1.685 1.357,3.04 3.036,3.04 1.678,0 3.036,-1.355 3.036,-3.04 0,-1.685 -1.357,-3.04 -3.036,-3.04 z"
         fill="#e0980a"
         fill-rule="nonzero"
         id="path10692"
         style="fill:#e0e0e0;fill-opacity:1" />
      <path
         d="m 626.66,130.84 c -1.319,0 -2.385,1.069 -2.385,2.382 0,1.313 1.066,2.382 2.385,2.382 1.319,0 2.385,-1.069 2.385,-2.382 0,-1.313 -1.066,-2.382 -2.385,-2.382 z"
         fill="#ffaf0a"
         fill-rule="nonzero"
         id="path10694"
         style="fill:#ffffff;fill-opacity:1" />
      <path
         d="m 626.66,131.94 c -0.751,0 -1.301,0.56 -1.301,1.285 0,0.725 0.55,1.285 1.301,1.285 0.751,0 1.301,-0.56 1.301,-1.285 0,-0.725 -0.55,-1.285 -1.301,-1.285 z"
         fill="#1a1a1a"
         fill-rule="nonzero"
         id="path10696" />
      <g
         transform="matrix(1.1057,0,0,1.1057,221.91,3.5831)"
         id="g10700">
        <path
           d="m 367.83,117.57 c 0,0.397 -0.327,0.723 -0.723,0.723 -0.397,0 -0.724,-0.326 -0.724,-0.723 0,-0.397 0.327,-0.724 0.723,-0.724 0.397,0 0.724,0.327 0.724,0.724 z"
           fill="#ffffff"
           fill-rule="nonzero"
           id="path10698" />
      </g>
    </g>
  </g>
</svg>
