<?xml version="1.0" encoding="UTF-8" standalone="no"?>
<!-- Created with Inkscape (http://www.inkscape.org/) -->

<svg
   width="768mm"
   height="512mm"
   viewBox="0 0 768 512"
   version="1.1"
   id="SVGRoot"
   inkscape:version="1.2.1 (9c6d41e410, 2022-07-14)"
   sodipodi:docname="hope_allegory.svg"
   inkscape:export-filename="hope_allegory.png"
   inkscape:export-xdpi="96"
   inkscape:export-ydpi="96"
   xmlns:inkscape="http://www.inkscape.org/namespaces/inkscape"
   xmlns:sodipodi="http://sodipodi.sourceforge.net/DTD/sodipodi-0.dtd"
   xmlns="http://www.w3.org/2000/svg"
   xmlns:svg="http://www.w3.org/2000/svg"
   xmlns:rdf="http://www.w3.org/1999/02/22-rdf-syntax-ns#"
   xmlns:cc="http://creativecommons.org/ns#"
   xmlns:dc="http://purl.org/dc/elements/1.1/">
  <sodipodi:namedview
     id="base"
     pagecolor="#ffffff"
     bordercolor="#666666"
     borderopacity="1.0"
     inkscape:pageopacity="0.0"
     inkscape:pageshadow="2"
     inkscape:zoom="0.35"
     inkscape:cx="1444.2857"
     inkscape:cy="971.42857"
     inkscape:document-units="mm"
     inkscape:current-layer="SVGRoot"
     showgrid="false"
     inkscape:window-width="853"
     inkscape:window-height="623"
     inkscape:window-x="-8"
     inkscape:window-y="-8"
     inkscape:window-maximized="1"
     inkscape:showpageshadow="0"
     inkscape:pagecheckerboard="true"
     inkscape:deskcolor="#d1d1d1" />
  <defs
     id="defs10953" />
  <metadata
     id="metadata10956">
    <rdf:RDF>
      <cc:Work
         rdf:about="">
        <dc:format>image/svg+xml</dc:format>
        <dc:type
           rdf:resource="http://purl.org/dc/dcmitype/StillImage" />
      </cc:Work>
    </rdf:RDF>
  </metadata>
  <g
     transform="matrix(6.8906536,0,0,6.8906536,-919.99049,-1124.4752)"
     id="g614"
     inkscape:label="hope_allegory">
    <path
       inkscape:connector-curvature="0"
       style="fill:#000080;fill-opacity:1;stroke:#000000;stroke-width:0.165204;stroke-opacity:1"
       id="path4176"
       d="m 186.47263,170.97747 -3.50088,1.83945 0.80105,3.11519 -0.97905,6.31938 5.57766,1.45375 1.5131,-2.61083 -0.50437,-3.58988 0.59337,-4.00524 -1.83944,-2.2548 z" />
    <path
       inkscape:connector-curvature="0"
       style="display:inline;fill:#000033;stroke:#000000;stroke-width:0.247805px;stroke-linecap:butt;stroke-linejoin:miter;stroke-opacity:1;fill-opacity:1"
       id="path4178"
       d="m 185.86606,178.21791 c 0.0575,0.21364 -0.29196,0.0825 -0.37768,0.25686 -0.29113,0.19656 -0.65713,0.26276 -0.90395,0.52594 -0.29534,0.25404 -0.55147,0.55133 -0.7918,0.8559 -0.24258,0.14632 -0.31327,0.37762 -0.51305,0.54048 -0.22984,-0.0663 -0.24279,-0.15605 -0.4487,-0.27374 -0.22995,-0.18068 -0.45989,-0.36135 -0.68984,-0.54202 0.44503,-1.81967 0.89005,-3.63934 1.33508,-5.459 0.16489,1.00278 0.24948,2.0834 0.87587,2.92768 0.42598,0.58558 0.8582,0.88024 1.51407,1.1679 z" />
    <path
       inkscape:connector-curvature="0"
       style="display:inline;fill:#000080;fill-opacity:1;stroke:none;stroke-width:0.666667"
       id="path4180"
       d="m 200.23497,198.22705 0.8997,0.33478 0.23016,-0.94154 0.39754,-0.54401 1.31815,0.20923 0.25108,0.56493 0.10461,0.816 -0.20923,0.69047 0.85785,0.33476 0.3557,-0.94154 v -1.088 l -0.31386,-1.06708 -0.4603,-0.43938 -2.5317,-0.12554 -0.43938,0.37661 -0.43939,0.73231 v 1.19262 z" />
    <path
       inkscape:connector-curvature="0"
       style="fill:none;stroke:#000000;stroke-width:0.247805px;stroke-linecap:butt;stroke-linejoin:miter;stroke-opacity:1"
       id="path4182"
       d="m 200.20964,198.2522 c 0,0 -0.0451,-1.1793 0.32991,-1.67509 0.31712,-0.41924 0.80517,-0.72816 1.32953,-0.76526 0.68487,-0.0485 1.44016,0.0922 2.00109,0.48807 0.50874,0.35909 0.56307,1.0765 0.62089,1.69651 0.0589,0.63175 -0.32805,1.62237 -0.32805,1.62237 z" />
    <path
       inkscape:connector-curvature="0"
       style="fill:none;stroke:#000000;stroke-width:0.247805px;stroke-linecap:butt;stroke-linejoin:miter;stroke-opacity:1"
       id="path4185"
       d="m 201.15262,198.90029 c 0,0 0.0185,-1.1167 0.32601,-1.47781 0.28402,-0.3335 0.85806,-0.49345 1.26898,-0.34165 0.35133,0.12979 0.53436,0.56643 0.63449,0.92734 0.14814,0.53393 -0.14251,1.58716 -0.14251,1.58716 z" />
    <path
       inkscape:connector-curvature="0"
       style="display:inline;fill:none;stroke:#000000;stroke-width:1.38771;stroke-linecap:butt;stroke-linejoin:miter;stroke-miterlimit:4;stroke-dasharray:none;stroke-opacity:1;fill-opacity:1"
       id="path4187"
       d="m 199.78487,210.8389 c 0.50164,-0.25074 0.99032,-0.52055 1.47374,-0.78491 0.81701,-0.44678 1.36284,-1.21475 1.35395,-2.17138 -0.008,-0.87283 -0.57864,-2.15265 -1.21436,-2.70185 -0.0647,-0.0559 -0.19247,-0.15273 -0.25754,-0.20695" />
    <path
       inkscape:connector-curvature="0"
       style="display:inline;fill:none;stroke:#000000;stroke-width:1.38771;stroke-linecap:butt;stroke-linejoin:miter;stroke-miterlimit:4;stroke-dasharray:none;stroke-opacity:1;fill-opacity:1"
       id="path4189"
       d="m 201.20357,205.01575 c -0.30138,-0.25112 -0.65551,-0.52198 -0.95755,-0.76369" />
    <path
       inkscape:connector-curvature="0"
       style="fill:none;stroke:#000000;stroke-width:1.38771;stroke-linecap:butt;stroke-linejoin:miter;stroke-miterlimit:4;stroke-dasharray:none;stroke-opacity:1"
       id="path4191"
       d="m 200.29495,204.28701 c -0.33042,-0.26442 -0.65708,-0.53576 -0.97087,-0.84154 -0.66707,-0.65002 -0.63609,-2.11498 -0.70327,-3.03579" />
    <path
       inkscape:connector-curvature="0"
       style="fill:none;stroke:#000000;stroke-width:1.38771;stroke-linecap:butt;stroke-linejoin:miter;stroke-miterlimit:4;stroke-dasharray:none;stroke-opacity:1"
       id="path4193"
       d="m 198.0801,217.77666 c -0.0519,-0.0513 -0.1055,-0.10447 -0.16085,-0.16059 -0.21835,-0.22136 -0.49764,-0.50258 -0.73506,-0.74972 -0.0439,-0.0457 -0.0864,-0.0903 -0.12688,-0.13312" />
    <path
       inkscape:connector-curvature="0"
       style="fill:none;stroke:#cccccc;stroke-width:0.693855;stroke-linecap:butt;stroke-linejoin:miter;stroke-miterlimit:4;stroke-dasharray:none;stroke-opacity:1"
       id="path4195"
       d="m 198.11707,217.81363 c -0.0519,-0.0513 -0.14247,-0.14144 -0.19782,-0.19756 -0.25876,-0.26233 -0.5789,-0.58454 -0.83774,-0.85864" />
    <path
       inkscape:connector-curvature="0"
       style="fill:none;stroke:#000000;stroke-width:1.38771;stroke-linecap:butt;stroke-linejoin:miter;stroke-miterlimit:4;stroke-dasharray:none;stroke-opacity:1"
       id="path4197"
       d="m 199.21531,224.69923 c 0.62536,-2.59862 0.39534,-5.23118 -1.23617,-7.02929"
       sodipodi:nodetypes="cc" />
    <path
       inkscape:connector-curvature="0"
       style="fill:none;stroke:#000000;stroke-width:1.38771;stroke-linecap:butt;stroke-linejoin:miter;stroke-miterlimit:4;stroke-dasharray:none;stroke-opacity:1"
       id="path4199"
       d="m 197.10991,216.79485 c -0.28405,-0.3008 -0.53398,-0.59242 -0.78834,-0.91477 -0.82776,-1.04903 -1.98971,-2.95024 -0.50832,-4.05871 0.7538,-0.56403 1.79426,-0.37924 2.73697,-0.52764"
       sodipodi:nodetypes="cssc" />
    <path
       inkscape:connector-curvature="0"
       style="fill:none;stroke:#000080;stroke-width:0.693855;stroke-linecap:butt;stroke-linejoin:miter;stroke-miterlimit:4;stroke-dasharray:none;stroke-opacity:1"
       id="path4201"
       d="m 197.13696,216.81288 c -0.28405,-0.3008 -0.56103,-0.61045 -0.81539,-0.9328 -0.82776,-1.04903 -1.98971,-2.95024 -0.50832,-4.05871 0.7538,-0.56403 1.79426,-0.37924 2.73697,-0.52764" />
    <path
       inkscape:connector-curvature="0"
       style="fill:none;stroke:#000080;stroke-width:0.693855;stroke-linecap:butt;stroke-linejoin:miter;stroke-miterlimit:4;stroke-dasharray:none;stroke-opacity:1"
       id="path4203"
       d="m 199.21531,224.69923 c 0.62536,-2.59862 0.28211,-5.36244 -1.3494,-7.16056"
       sodipodi:nodetypes="cc" />
    <path
       inkscape:connector-curvature="0"
       style="display:inline;fill:#000080;fill-opacity:1;stroke:#000000;stroke-width:0.247805px;stroke-linecap:butt;stroke-linejoin:miter;stroke-opacity:1"
       id="path4205"
       d="m 200.94011,201.76479 -5.75448,22.87035 1.10901,0.16659 5.67832,-22.8894 z"
       sodipodi:nodetypes="ccccc" />
    <path
       sodipodi:nodetypes="csccsssccssssccsc"
       inkscape:connector-curvature="0"
       style="fill:#000080;fill-opacity:1;stroke:#000000;stroke-width:0.247805px;stroke-linecap:butt;stroke-linejoin:miter;stroke-opacity:1"
       id="path4242"
       d="m 211.34243,213.71639 c 0,0 -3.28244,2.5615 -5.16428,3.68876 -1.36882,0.81996 -4.35274,1.99194 -4.35274,1.99194 l 3.46744,0.5902 c 0,0 -1.26737,1.99763 -2.21326,2.65592 -1.75562,1.22179 -3.9198,1.94198 -6.04958,2.13948 -0.79308,0.0736 -1.65859,0.007 -2.36081,-0.36888 -1.44241,-0.77207 -3.39297,-3.60561 -3.39297,-3.60561 l -0.11641,3.45413 c 0,0 0.71301,0.90042 1.08669,1.33902 0.65563,0.76954 1.50256,1.78733 2.42269,2.20613 0.67147,0.30562 1.49348,0.16185 2.21326,0 2.01767,-0.45371 3.83897,-1.28809 5.53315,-2.36081 1.72199,-1.09034 4.57408,-4.05765 4.57408,-4.05765 l 2.3608,2.50837 c 0,0 1.03327,-4.46602 1.47551,-6.86111 0.22169,-1.20066 0.51643,-3.31989 0.51643,-3.31989 z" />
    <path
       inkscape:connector-curvature="0"
       style="fill:none;stroke:#000080;stroke-width:0.693855;stroke-linecap:butt;stroke-linejoin:miter;stroke-miterlimit:4;stroke-dasharray:none;stroke-opacity:1;fill-opacity:1"
       id="path4207"
       d="m 199.78487,210.8389 c 0.50164,-0.25074 0.99032,-0.52055 1.47374,-0.78491 0.81701,-0.44678 1.36284,-1.21475 1.35395,-2.17138 -0.008,-0.87283 -0.57864,-2.15265 -1.21436,-2.70185 -0.0647,-0.0559 -0.12955,-0.11078 -0.19463,-0.16501" />
    <path
       inkscape:connector-curvature="0"
       style="display:inline;fill:none;fill-opacity:1;stroke:#000080;stroke-width:0.693855;stroke-linecap:butt;stroke-linejoin:miter;stroke-miterlimit:4;stroke-dasharray:none;stroke-opacity:1"
       id="path4209"
       d="m 200.29495,204.28701 c -0.33042,-0.26442 -0.65708,-0.53576 -0.97087,-0.84154 -0.66707,-0.65002 -0.63609,-2.11498 -0.70327,-3.03579" />
    <path
       inkscape:connector-curvature="0"
       style="fill:#0000b2;fill-opacity:1;stroke:#000000;stroke-width:0.247805px;stroke-linecap:butt;stroke-linejoin:miter;stroke-opacity:1"
       id="path4211"
       d="m 195.39121,197.70959 c 1.89544,-0.46616 3.83557,0.39972 5.72414,0.89297 1.96942,0.51435 3.39429,1.37222 5.34832,1.94223 1.08046,0.31518 3.09346,-0.16768 3.74298,0.75148 0.30303,0.42885 0.26676,1.20789 -0.11224,1.57134 -0.91851,0.8808 -3.33012,0.0373 -4.59702,-0.083 -1.71692,-0.16297 -2.80514,-0.55665 -4.46502,-1.02477 -1.21844,-0.34363 -2.233,-0.63783 -3.3964,-1.13701 -0.9688,-0.41568 -1.92574,-0.7789 -2.51311,-1.65432 -0.23025,-0.34316 -0.56322,-0.65761 -0.40508,-1.0394 0.11182,-0.26996 0.38968,-0.14975 0.67343,-0.21954 z" />
    <path
       inkscape:connector-curvature="0"
       style="fill:#000080;fill-opacity:1;stroke:#000000;stroke-width:0.247805px;stroke-linecap:butt;stroke-linejoin:miter;stroke-opacity:1"
       id="path4213-7"
       d="m 191.10371,186.57063 c 0,0 1.54482,1.80596 2.33456,2.69372 0.92936,1.0447 2.01489,2.35077 3.23136,3.0402 0.85027,0.48188 1.51014,0.459 2.47033,0.6412 0.50762,0.0963 1.13331,-0.0659 1.52644,0.26938 0.31329,0.26717 0.35083,0.75898 0.40406,1.16728 0.0524,0.40176 -0.17686,0.81646 -0.0898,1.21216 0.0993,0.45143 0.36212,0.8705 0.67343,1.21218 0.23203,0.25466 0.5088,0.5689 0.85301,0.58364 0.39501,0.0169 0.79174,-0.2701 1.03259,-0.58364 0.25428,-0.33103 0.36257,-0.79756 0.31427,-1.21218 -0.14098,-1.21016 -0.92773,-2.2951 -1.70602,-3.23245 -0.35385,-0.42616 -0.83946,-0.72779 -1.30197,-1.03259 -0.89454,-0.58954 -2.19238,-0.83854 -3.05866,-1.46888 -1.15542,-0.84072 -1.9381,-1.9353 -2.86751,-3.02065 -0.39153,-0.45723 -1.03259,-1.48154 -1.03259,-1.48154 l -0.62854,-0.9428 -2.8284,0.67343 z" />
    <path
       sodipodi:nodetypes="cccsscsssssscssscssssssssssccccccccccccc"
       inkscape:connector-curvature="0"
       style="fill:#0000b2;fill-opacity:1;stroke:#000000;stroke-width:0.247805px;stroke-linecap:butt;stroke-linejoin:miter;stroke-opacity:1"
       id="path4215-1"
       d="m 178.80362,184.18604 c 0.0948,-1.17783 1.30957,-1.79567 1.96439,-2.6935 l 2.28553,-1.24666 c 0,0 1.52247,1.42728 2.49332,1.66221 0.74524,0.18034 1.54569,-0.0584 2.28554,-0.25972 0.65819,-0.1791 1.86999,-0.8311 1.86999,-0.8311 0,0 1.88568,1.19492 2.72148,1.92798 0.548,0.48063 1.19886,0.69461 1.39867,1.29861 0.0989,0.29899 0.008,0.79391 -0.17241,0.92894 -0.25089,0.1881 -0.63788,0.003 -0.93498,0.10388 -0.4783,0.16145 -1.00971,0.3652 -1.29861,0.77917 -0.21183,0.30354 0.13515,0.95149 -0.20777,1.09082 -0.39162,0.15912 -1.06574,-0.6735 -1.06574,-0.6735 0,0 -0.14798,0.65452 -0.12898,0.98517 0.0491,0.85527 0.48341,1.64813 0.62333,2.49331 0.13621,0.82279 0.43341,1.69044 0.20777,2.49332 -0.15085,0.53678 -0.98693,1.35054 -0.98693,1.35054 0,0 0.36381,1.01108 0.57139,1.50638 0.36831,0.87888 0.97399,1.67018 1.19471,2.59721 0.22072,0.92702 0.10389,2.64915 0.10389,2.85692 0,0.20778 -0.0319,1.9773 0.0519,2.96081 0.0387,0.45384 0.14764,0.89906 0.20778,1.35055 0.16335,1.22629 0.36864,2.4518 0.41555,3.68803 0.0361,0.95226 -0.0909,1.90408 -0.10389,2.85693 -0.0257,1.88721 0.33512,3.79589 0.0519,5.66191 -0.14459,0.95282 -0.71875,1.80341 -0.88304,2.75303 -0.0915,0.52917 -0.0397,1.07337 -0.0519,1.61027 -0.0296,1.29838 -0.0519,3.8958 -0.0519,3.8958 l 0.93499,0.98694 0.25972,3.27248 -1.45443,-0.41556 -1.50638,1.14278 -1.97388,-0.20778 -0.77916,-0.15583 -0.83111,-0.88305 -1.03888,0.8311 -3.48025,-0.41555 -5.7658,-9.29799 2.5972,-32.36117 z" />
    <path
       inkscape:connector-curvature="0"
       style="fill:#00004d;fill-opacity:1;stroke:none;stroke-width:0.666667"
       id="path4217-1"
       d="m 181.06242,187.05411 -3.17335,4.08 h -4.53334 l -0.272,1.45068 0.544,2.53867 -1.99467,3.98934 0.63467,2.62934 -1.17867,3.08267 -1.54134,4.71468 0.0907,2.72001 0.0907,2.26667 -0.99733,4.35202 -0.63467,2.62933 0.272,1.08801 -0.90667,1.088 -0.0907,2.08534 -0.272,1.26934 0.272,1.632 6.07469,1.54134 5.25868,-0.81601 2.72001,-0.45333 -0.36267,-1.904 0.36267,-2.44801 -0.90667,-1.08801 -1.26934,-1.904 v -2.81068 l -0.45334,-6.61868 0.27201,-1.26933 0.272,-1.17867 0.544,-0.272 0.63467,-3.98934 0.0907,-2.26668 1.088,-3.26401 -0.272,-5.98401 -0.63467,-2.26668 0.63467,-2.90133 z" />
    <path
       sodipodi:nodetypes="ccccccccccccccccccccccccccccccccccccccccccccccccccccccccccc"
       inkscape:connector-curvature="0"
       style="fill:#00001a;stroke:none;stroke-width:0.666667;fill-opacity:1"
       id="path4219-5"
       d="m 180.33131,223.23565 -4.41169,0.0469 0.75093,1.45492 -0.51626,0.32852 0.56319,1.40799 -2.15891,0.42239 0.37546,0.65706 -2.20584,-1.31411 -2.81597,-0.46933 -1.64265,-1.22025 0.32853,-2.44051 0.56319,-1.31412 4.41169,-0.23467 0.56319,-2.06504 2.29972,-1.64265 1.03252,-3.75463 -0.1408,-0.89172 -1.36105,-1.12639 -1.03253,0.46933 0.46933,2.15891 -2.58131,-0.32853 -1.50184,-2.11198 -0.0469,-2.06504 0.65706,-0.98559 1.45492,0.75093 0.89172,-0.65706 1.78345,-0.1408 1.22025,-4.36476 -2.4405,0.8448 0.1408,-1.83038 -1.36106,-1.36106 1.97118,-0.4224 1.31412,-1.73651 2.01812,-1.31412 -3.2853,-3.42609 v -1.45492 l 0.84479,-1.31412 3.08368,-3.94759 1.21235,-1.34935 0.6471,2.3822 -0.3144,1.28342 -0.19882,1.13422 -0.0359,0.36007 0.18825,1.13422 0.96241,0.88976 1.3544,3.24633 -0.23467,2.02398 -0.56063,1.37205 -1.04956,0.0275 -0.88658,2.92037 -0.11244,1.94249 -0.15317,1.53503 0.14012,0.72822 -0.65019,1.97516 -0.47914,0.31268 -0.60137,2.43143 0.41726,6.26147 -0.0717,3.12409 z" />
    <path
       inkscape:connector-curvature="0"
       style="fill:#00001a;stroke:none;stroke-width:0.666667;fill-opacity:1"
       id="path4221-2"
       d="m 180.51787,223.48367 -1.5963,2.15972 -0.46951,1.31461 -1.78411,0.6573 -1.78412,0.65731 -2.72311,-0.3756 -3.19263,-0.84511 -1.78411,-0.37561 -0.13466,0.36092 0.32853,1.64264 0.98559,0.2816 3.47303,0.84479 1.64264,0.4224 2.95678,-0.46933 5.06874,-0.79786 -0.4224,-1.83038 0.23467,-1.83038 0.0939,-0.84479 z" />
    <path
       inkscape:connector-curvature="0"
       style="fill:none;stroke:#000000;stroke-width:0.247805px;stroke-linecap:butt;stroke-linejoin:miter;stroke-opacity:1"
       id="path4225-6"
       d="m 169.67692,212.07589 c 0.35339,0.72966 0.33999,1.09253 1.32147,2.45028" />
    <path
       inkscape:connector-curvature="0"
       style="fill:none;stroke:#000000;stroke-width:0.247805px;stroke-linecap:butt;stroke-linejoin:miter;stroke-opacity:1"
       id="path4227-1"
       d="m 198.30617,197.91055 c -0.39922,0.71459 -0.91316,1.19971 -1.07376,2.39154" />
    <path
       inkscape:connector-curvature="0"
       style="fill:none;stroke:#000000;stroke-width:0.247805px;stroke-linecap:butt;stroke-linejoin:miter;stroke-opacity:1"
       id="path4230"
       d="m 199.72157,198.2522 c -0.92958,0.79221 -1.29812,1.66457 -1.31779,2.58677" />
    <path
       inkscape:connector-curvature="0"
       style="fill:none;stroke:#000000;stroke-width:0.247805px;stroke-linecap:butt;stroke-linejoin:miter;stroke-opacity:1"
       id="path4232"
       d="m 205.38319,200.25329 c -0.0746,0.83648 -0.23485,1.58728 -0.43926,2.29393" />
    <path
       inkscape:connector-curvature="0"
       style="fill:none;stroke:#000000;stroke-width:0.247805px;stroke-linecap:butt;stroke-linejoin:miter;stroke-opacity:1"
       id="path4234"
       d="m 206.8474,200.54613 c 0.0373,0.74838 0.10653,1.49675 -0.48807,2.24512" />
    <path
       inkscape:connector-curvature="0"
       style="display:inline;fill:none;stroke:#000080;stroke-width:0.693855;stroke-linecap:butt;stroke-linejoin:miter;stroke-miterlimit:4;stroke-dasharray:none;stroke-opacity:1;fill-opacity:1"
       id="path4236"
       d="m 201.22477,205.03695 c -0.30139,-0.25113 -0.72314,-0.593 -1.02518,-0.8347" />
    <path
       inkscape:connector-curvature="0"
       style="fill:none;stroke:#000000;stroke-width:1.38771;stroke-linecap:butt;stroke-linejoin:miter;stroke-miterlimit:4;stroke-dasharray:none;stroke-opacity:1"
       id="path4238"
       d="m 198.33831,211.31493 c 0.24689,-0.0389 1.07932,-0.31496 1.30702,-0.4165 0.133,-0.0593 0.34895,-0.16426 0.52098,-0.25026" />
    <path
       inkscape:connector-curvature="0"
       style="fill:none;stroke:#000080;stroke-width:0.693855;stroke-linecap:butt;stroke-linejoin:miter;stroke-miterlimit:4;stroke-dasharray:none;stroke-opacity:1"
       id="path4240"
       d="m 198.06282,211.35731 c 0.43762,-0.0389 0.97449,-0.16416 1.20106,-0.26816 0.1754,-0.0805 0.83795,-0.41388 1.00999,-0.49987" />
    <path
       inkscape:connector-curvature="0"
       style="fill:#0000b2;fill-opacity:1;stroke:#000000;stroke-width:0.247805px;stroke-linecap:butt;stroke-linejoin:miter;stroke-opacity:1"
       id="path4246"
       d="m 182.9651,180.23419 c 0.33127,-0.62871 0.11267,-1.44813 0.22459,-2.1499 0.10052,-0.6303 0.1452,-1.3563 0.3609,-1.95702 0.28795,-0.80192 0.26463,-1.49434 0.60082,-2.27727 0.2876,-0.66977 0.64497,-1.2674 1.23381,-1.697 0.52929,-0.38615 1.29386,-0.46837 1.9361,-0.33882 0.52645,0.10619 1.00773,0.46181 1.35527,0.87125 0.42088,0.49584 0.68246,0.95141 0.77444,1.59526 0.092,0.64385 -0.0325,1.32039 -0.24202,1.9361 -0.20504,0.60249 -0.60869,1.12041 -0.96805,1.64568 -0.22053,0.32234 -0.47537,0.52917 -0.48402,0.91964 -0.011,0.49691 0.28379,0.85271 0.62923,1.21006 0.31178,0.32252 0.6827,0.58794 1.06486,0.82284 0.3197,0.19652 0.71278,0.70452 1.01644,0.48403 0.60564,-0.43977 -0.27462,-1.47822 -0.29041,-2.22651 -0.0195,-0.92297 0.1073,-1.84564 0.24201,-2.75894 0.0577,-0.3913 0.2326,-0.76624 0.24202,-1.16166 0.0171,-0.71862 -0.0835,-1.45775 -0.33882,-2.1297 -0.24484,-0.6443 -0.56544,-1.32421 -1.11326,-1.74249 -0.8193,-0.62557 -1.92272,-0.96487 -2.95254,-0.91965 -0.97581,0.0429 -1.9222,0.53658 -2.71054,1.11326 -0.62857,0.4598 -1.18848,1.07732 -1.50048,1.79089 -0.30624,0.70043 -0.2419,1.51199 -0.29041,2.27491 -0.045,0.70847 0.0968,1.83929 0,2.12971 -0.0968,0.29041 -0.67385,1.53761 -0.96805,2.32331 -0.14312,0.38225 -0.2291,0.78537 -0.38722,1.16166 -0.27394,0.65193 -1.52953,1.45782 -0.96804,1.8877 0.76178,0.58322 1.364,-1.35804 2.1297,-1.9361 0.43951,-0.3318 1.14696,-0.38404 1.40367,-0.87124 z" />
    <path
       inkscape:connector-curvature="0"
       style="fill:#000000;stroke-width:0.666667"
       id="path4248"
       d="m 186.5226,173.47617 c -0.20193,-0.2829 -0.72309,-0.1085 -1.04233,0.0289 -0.1379,0.0594 -0.33513,0.16927 -0.31848,0.31849 0.0241,0.21554 0.33448,0.32422 0.5501,0.34744 0.22464,0.0242 0.47644,-0.0727 0.63698,-0.23163 0.1172,-0.11603 0.26954,-0.32903 0.17373,-0.46325 z" />
    <path
       inkscape:connector-curvature="0"
       style="fill:#000000;stroke-width:0.666667"
       id="path4250"
       d="m 188.77593,173.39047 c -0.24138,-0.21134 -0.68955,-0.16867 -0.96246,0 -0.0842,0.052 -0.16594,0.17229 -0.13275,0.2655 0.0814,0.22856 0.42369,0.2636 0.66377,0.29869 0.16564,0.0242 0.39612,0.0666 0.49782,-0.0664 0.10169,-0.13298 0.0596,-0.38755 -0.0664,-0.49782 z" />
    <path
       inkscape:connector-curvature="0"
       style="fill:#000000;stroke-width:0.666667"
       id="path4252"
       d="m 186.98301,175.13997 c 0.17308,-0.18549 0.66173,-0.1513 0.75647,0.0841 0.0545,0.13532 -0.17599,0.23408 -0.28017,0.3362 -0.0427,0.0419 -0.0803,0.11208 -0.14009,0.11208 -0.1196,0 -0.21889,-0.12144 -0.28017,-0.22414 -0.0535,-0.0897 -0.12727,-0.23186 -0.0561,-0.3082 z" />
    <path
       inkscape:connector-curvature="0"
       style="fill:#000000;stroke-width:0.666667"
       id="path4254"
       d="m 186.51191,176.07189 c 0.55508,0.30328 0.96778,0.23746 1.59052,0.12484 0.0809,0.39004 -0.55084,0.56785 -0.94537,0.51292 -0.45301,-0.0934 -0.65288,-0.31294 -0.64515,-0.63776 z" />
    <path
       inkscape:connector-curvature="0"
       style="fill:none;stroke:#000000;stroke-width:0.247805px;stroke-linecap:butt;stroke-linejoin:miter;stroke-opacity:1"
       id="path4256"
       d="m 188.12009,178.08211 c 0,0 -0.80502,0.39769 -1.13304,0.40204 -0.59742,0.008 -1.18528,-0.28822 -1.68128,-0.62134 -0.49392,-0.33173 -0.89228,-0.81031 -1.20612,-1.31578 -0.21363,-0.34406 -0.35166,-0.95914 -0.35166,-0.95914" />
    <path
       inkscape:connector-curvature="0"
       style="fill:none;stroke:#000000;stroke-width:0.247805px;stroke-linecap:butt;stroke-linejoin:miter;stroke-opacity:1"
       id="path4258"
       d="m 189.87842,193.57517 c -1.39493,0.21553 -2.34156,0.72993 -3.35305,1.20109" />
    <path
       inkscape:connector-curvature="0"
       style="fill:none;stroke:#000000;stroke-width:0.247805px;stroke-linecap:butt;stroke-linejoin:miter;stroke-opacity:1"
       id="path4260"
       d="m 184.17323,194.2758 c -0.98591,-0.19683 -1.90005,-0.5372 -2.75251,-1.00091" />
    <path
       sodipodi:nodetypes="cc"
       inkscape:connector-curvature="0"
       style="fill:none;stroke:#000000;stroke-width:0.247805px;stroke-linecap:butt;stroke-linejoin:miter;stroke-opacity:1"
       id="path4262"
       d="m 180.31971,182.81537 c 2.07677,0.55975 1.40397,2.87354 1.30119,3.58279" />
    <path
       sodipodi:nodetypes="ccccccccccccccccccccccccssssssccccssc"
       inkscape:connector-curvature="0"
       style="display:inline;fill:none;stroke:#000000;stroke-width:0.247805px;stroke-linecap:butt;stroke-linejoin:miter;stroke-opacity:1"
       id="path4223-7"
       d="m 180.86223,186.70379 -2.97316,4.43032 h -4.53334 l -0.272,1.45068 0.544,2.53867 -1.99467,3.98934 0.63467,2.62934 -1.17867,3.08267 -1.54134,4.71468 0.0907,2.72001 0.0907,2.26667 -0.99733,4.35202 -0.63467,2.62933 0.272,1.08801 -0.90667,1.088 -0.0907,2.08534 -0.272,1.26934 0.272,1.632 6.07469,1.54134 5.25868,-0.81601 2.72001,-0.45333 -0.36267,-1.904 0.36267,-2.44801 -0.90667,-1.08801 c 0,0 -1.0483,-1.17395 -1.26934,-1.904 -0.2715,-0.89669 0.032,-1.87433 0,-2.81068 -0.0756,-2.2101 -0.61099,-4.41291 -0.45334,-6.61868 0.0309,-0.43161 0.17802,-0.84694 0.27201,-1.26933 0.0876,-0.39359 0.0226,-0.86187 0.272,-1.17867 0.12541,-0.15929 0.42416,-0.10848 0.544,-0.272 0.79596,-1.08606 0.63467,-3.98934 0.63467,-3.98934 l 0.0907,-2.26668 1.088,-3.26401 -0.272,-5.98401 c 0,0 -0.61206,-1.48238 -0.63467,-2.26668 -0.0285,-0.98956 0.65931,-1.91166 0.63467,-2.90133 -0.0178,-0.71579 -0.56285,-2.07299 -0.56285,-2.07299 z" />
    <path
       inkscape:connector-curvature="0"
       style="fill:#000080;fill-opacity:1;stroke:#000000;stroke-width:0.247805px;stroke-linecap:butt;stroke-linejoin:miter;stroke-opacity:1"
       id="path4244"
       d="m 179.00493,184.24829 c -0.62165,-0.0151 -0.86373,0.22083 -1.16472,0.76496 -0.45049,0.81441 -0.27958,1.98865 -0.5041,2.89186 -0.1795,0.72212 -0.35923,1.32842 -0.70352,1.98807 -0.22182,0.42499 -0.72852,0.79239 -0.67679,1.26899 0.068,0.6264 0.77307,1.00085 1.22668,1.43818 0.93215,0.89867 2.09029,1.53701 3.04556,2.41106 0.27226,0.24912 0.48705,0.55688 0.76139,0.80369 0.22433,0.20182 0.61946,0.26507 0.71909,0.54989 0.0768,0.2195 -0.09,0.45814 -0.16919,0.6768 -0.15458,0.42692 -0.5278,0.77722 -0.5922,1.22668 -0.0365,0.2547 -0.11194,0.6657 0.1269,0.76139 0.13088,0.0525 0.21338,-0.31902 0.3384,-0.2538 0.36273,0.18925 -0.1847,0.84313 -0.0423,1.22669 0.0868,0.23385 0.26536,0.49031 0.50759,0.54989 0.40708,0.10013 0.69739,-0.27621 0.97289,-0.59219 0.40706,-0.4669 0.3389,-1.20086 0.38069,-1.81888 0.0534,-0.7898 0.27738,-1.44368 0.0423,-2.19957 -0.24775,-0.79664 -0.74095,-1.51136 -1.26898,-2.15727 -0.70776,-0.86577 -1.47529,-1.39586 -2.2512,-2.20112 -0.38204,-0.39651 -0.34998,-0.66851 -0.39778,-1.21704 -0.0861,-0.98787 0.40131,-1.88461 0.84172,-2.77305 0.3059,-0.61707 1.12367,-0.62243 1.11433,-1.31109 -0.005,-0.3407 -0.78302,-1.15938 -0.99905,-1.42288 -0.27538,-0.3359 -0.87348,-0.6007 -1.30771,-0.61126 z" />
    <path
       inkscape:connector-curvature="0"
       style="fill:none;stroke:#000000;stroke-width:0.247805px;stroke-linecap:butt;stroke-linejoin:miter;stroke-opacity:1"
       id="path4264"
       d="m 190.09812,186.16109 c -0.39394,-0.10743 -0.71742,-1.06752 -0.69935,-2.39852" />
    <path
       inkscape:connector-curvature="0"
       style="fill:#000066;stroke:none;stroke-width:0.666667;fill-opacity:1"
       id="path4266"
       d="m 181.30415,204.38933 -0.24472,3.83394 -0.16314,4.07867 0.57101,9.62565 -0.0816,-8.48362 0.32629,-4.81283 z" />
    <path
       inkscape:connector-curvature="0"
       style="fill:#000066;stroke:none;stroke-width:0.666667;fill-opacity:1"
       id="path4268"
       d="m 184.56709,200.47381 -0.24472,3.3445 -0.65259,-1.71304 v 11.58342 l 0.57101,-3.09979 0.40787,-5.13912 z" />
    <path
       inkscape:connector-curvature="0"
       style="fill:none;stroke:#000066;stroke-width:0.247805px;stroke-linecap:butt;stroke-linejoin:miter;stroke-opacity:1"
       id="path4270"
       d="m 187.17743,219.31724 -0.24472,4.73125 z" />
    <path
       inkscape:connector-curvature="0"
       style="fill:none;stroke:#000066;stroke-width:0.520391;stroke-linecap:butt;stroke-linejoin:miter;stroke-miterlimit:4;stroke-dasharray:none;stroke-opacity:1;fill-opacity:1"
       id="path4272"
       d="m 189.05362,214.42285 0.16315,11.9097" />
    <path
       inkscape:connector-curvature="0"
       style="fill:#000066;stroke:none;stroke-width:0.666667;fill-opacity:1"
       id="path4274"
       d="m 187.42215,197.53717 0.3263,1.87618 -0.40787,7.83104 0.32629,3.18136 v 2.85507 1.87619 l 1.63147,-0.40787 0.65259,-3.75237 0.48944,-2.85507 0.65258,-2.77349 -0.16314,-4.07867 -0.57102,-3.34451 0.24472,-2.1209 -1.71304,-1.46832 0.73416,1.2236 -0.65258,1.38674 0.73416,2.52878 0.24472,4.24181 -0.73416,4.07867 -0.48944,-2.4472 0.16314,-4.73126 z" />
  </g>
</svg>
