<?xml version="1.0" encoding="UTF-8" standalone="no"?>
<!-- Created with Inkscape (http://www.inkscape.org/) -->

<svg
   width="768mm"
   height="512mm"
   viewBox="0 0 768 512"
   version="1.1"
   id="SVGRoot"
   inkscape:version="1.2.1 (9c6d41e410, 2022-07-14)"
   sodipodi:docname="horn.svg"
   inkscape:export-filename="horn.png"
   inkscape:export-xdpi="96"
   inkscape:export-ydpi="96"
   xmlns:inkscape="http://www.inkscape.org/namespaces/inkscape"
   xmlns:sodipodi="http://sodipodi.sourceforge.net/DTD/sodipodi-0.dtd"
   xmlns:xlink="http://www.w3.org/1999/xlink"
   xmlns="http://www.w3.org/2000/svg"
   xmlns:svg="http://www.w3.org/2000/svg"
   xmlns:rdf="http://www.w3.org/1999/02/22-rdf-syntax-ns#"
   xmlns:cc="http://creativecommons.org/ns#"
   xmlns:dc="http://purl.org/dc/elements/1.1/">
  <sodipodi:namedview
     id="base"
     pagecolor="#ffffff"
     bordercolor="#666666"
     borderopacity="1.0"
     inkscape:pageopacity="0.0"
     inkscape:pageshadow="2"
     inkscape:zoom="0.35"
     inkscape:cx="1427.1429"
     inkscape:cy="971.42857"
     inkscape:document-units="mm"
     inkscape:current-layer="SVGRoot"
     showgrid="false"
     inkscape:window-width="853"
     inkscape:window-height="623"
     inkscape:window-x="-8"
     inkscape:window-y="-8"
     inkscape:window-maximized="1"
     inkscape:showpageshadow="0"
     inkscape:pagecheckerboard="true"
     inkscape:deskcolor="#d1d1d1" />
  <defs
     id="defs10953">
    <linearGradient
       inkscape:collect="always"
       id="linearGradient1936">
      <stop
         style="stop-color:#000080;stop-opacity:1;"
         offset="0"
         id="stop1932" />
      <stop
         style="stop-color:#0000b2;stop-opacity:1;"
         offset="0.42984015"
         id="stop1940" />
      <stop
         style="stop-color:#00004d;stop-opacity:1;"
         offset="1"
         id="stop1934" />
    </linearGradient>
    <radialGradient
       inkscape:collect="always"
       xlink:href="#linearGradient1936"
       id="radialGradient1938"
       cx="335.00998"
       cy="577.27057"
       fx="335.00998"
       fy="577.27057"
       r="350.91527"
       gradientTransform="matrix(1.3110488,0.59021059,-0.27685655,0.86412774,55.616701,-143.5577)"
       gradientUnits="userSpaceOnUse" />
  </defs>
  <metadata
     id="metadata10956">
    <rdf:RDF>
      <cc:Work
         rdf:about="">
        <dc:format>image/svg+xml</dc:format>
        <dc:type
           rdf:resource="http://purl.org/dc/dcmitype/StillImage" />
      </cc:Work>
    </rdf:RDF>
  </metadata>
  <g
     id="g4871"
     transform="matrix(0.66643509,0,0,0.56221473,111.59762,14.580317)"
     inkscape:label="hoorn (rechts)"
     style="stroke-width:0.916331">
				<g
   id="g4839"
   style="display:inline;stroke-width:0.916331">
  <path
     fill="#0d6793"
     stroke="#000000"
     stroke-width="2.74899"
     stroke-miterlimit="10"
     d="M 753.5,318.2 736.8,330 h -24.9 l -8.6,-2.4 c 0,0 -7.1,-9.4 -9,-9.4 0,6.5 7.1,49.1 -4.5,105.3 -18.7,91.1 -103.1,151.7 -211.5,151.7 -51.5,0 -94.8,-26.6 -125.3,-63.4 -20.2,-24.4 -37.7,-52.4 -48.1,-128.9 -6.3,-46.5 0.4,-89.9 0.4,-96.1 0,-25.5 10,-38.5 10,-47.7 0,-9.2 -10.2,-43.8 -125.3,-43.8 -115.1,0 -133.5,35.7 -133.5,43.8 10.5,82.3 14.6,82.3 19.3,148.7 8.7,56.7 34.7,136.3 77.3,194 71.7,97.1 159.2,156.8 284.4,156.8 152.4,0 252.9,-115 291.4,-224.7 11.1,-31.5 20.2,-81.4 22.5,-109.1 4.6,-53.4 2.1,-86.6 2.1,-86.6 z"
     id="path4835"
     style="display:inline;fill:url(#radialGradient1938);fill-opacity:1;stroke-width:4.15458;stroke-dasharray:none" />
  <path
     fill="#0d6793"
     stroke="#000000"
     stroke-width="2.74899"
     stroke-miterlimit="10"
     d="m 186.4,405.1 c 93.1,0 117.8,-37.8 117.8,-37.8 0,0 0,0 0,0 -2.3,-28.8 2.5,-70.6 3.5,-83.9 1.3,-16.5 7.6,-35 7.6,-44.1 0,-9.2 -10.2,-43.8 -125.3,-43.8 -115.1,0 -133.5,35.7 -133.5,43.8 1.6,16.3 3.1,31 4.6,44.1 5.5,50.2 9.8,78 12.8,93.8 0.2,0 19.4,27.9 112.5,27.9 z"
     id="path4837"
     style="display:inline;fill:#00004d;fill-opacity:0.5;stroke-width:4.15458;stroke-dasharray:none" />
</g>

				
				
				
				
				
				
				
				
				
				
				
				
				
				
				
			<g
   id="g4869"
   style="stroke-width:0.916331">
  <path
     fill="#bc2e2e"
     stroke="#000000"
     stroke-width="2.74899"
     stroke-miterlimit="10"
     d="m 635.14056,472.74801 c -21.43287,-14.68881 -70.43825,-50.06186 -105.26667,-80.93833 -6.47451,-5.79558 -13.17228,-11.99087 -19.87006,-18.38599 44.2053,-54.75826 66.53121,-102.02226 66.53121,-146.48837 0,-27.67892 -9.71176,-52.75981 -26.56782,-73.64389 -18.64215,-23.18234 -43.87042,-33.07479 -70.9964,-33.07479 -27.01435,0 -51.34959,10.492 -68.42891,34.57364 -14.51184,20.4844 -22.88406,44.96574 -22.88406,72.24496 0,45.06565 26.56784,92.82925 79.14535,147.98723 -32.70746,36.97183 -85.84311,82.43718 -107.83414,100.32356 7.81407,7.19452 15.8514,14.18919 22.3259,22.28302 18.97704,-15.48821 65.19167,-54.75828 94.21535,-85.13513 4.80007,-4.99619 9.37688,-9.99239 13.84206,-14.98858 5.58149,5.19604 11.27458,10.49201 17.30258,15.78798 36.16797,32.17548 85.84312,68.04814 107.94578,83.13664 6.69777,-8.19376 12.94901,-16.38752 20.53983,-23.68195 z M 487.45467,350.34127 c -35.72146,-38.67052 -66.41958,-81.33802 -66.41958,-123.40595 0,-21.68349 6.47452,-40.36924 17.74909,-56.15722 7.59082,-10.79177 20.87473,-20.78415 40.29827,-20.78415 34.27028,0 64.29862,32.97487 64.29862,76.94137 0,41.66825 -24.5585,83.43641 -55.9264,123.40595 z"
     id="path4841"
     style="display:inline;fill:#00ff7f;fill-opacity:1;stroke-width:4.15458;stroke-dasharray:none" />
  <line
     fill="#0D6793"
     stroke="#000000"
     stroke-width="2.74899"
     stroke-miterlimit="10"
     x1="487.45462"
     y1="350.34125"
     x2="510.11551"
     y2="373.42368"
     id="line4843"
     style="fill:#f2bc51;fill-opacity:1;stroke-width:4.15458;stroke-dasharray:none" />
  <line
     fill="#0D6793"
     stroke="#000000"
     stroke-width="2.74899"
     stroke-miterlimit="10"
     x1="466.91479"
     y1="374.92255"
     x2="489.57559"
     y2="397.40543"
     id="line4845"
     style="display:inline;fill:#f2bc51;fill-opacity:1;stroke-width:4.15458;stroke-dasharray:none" />
  <path
     fill="#0D6793"
     stroke="#000000"
     stroke-width="2.74899"
     stroke-miterlimit="10"
     d="m 753.8,314.1 c 0,0 0.4,-14.8 3,-38.1 0.6,-8.2 4.1,-20.4 4.1,-23.4 0,-3 -3,-14.4 -37.1,-14.4 -34.1,0 -39.5,11.7 -39.5,14.4 0,1.7 3.7,13.6 5.4,24.6 2,15.1 4.5,41.9 4.5,41.9 l 28.7,9 25.3,-6.1 c 0,-0.1 5.6,-2.1 5.6,-7.9 z"
     id="path4847"
     style="display:inline;fill:#00ff7f;fill-opacity:1;stroke-width:4.15458;stroke-dasharray:none" />
  <path
     fill="#0D6793"
     stroke="#000000"
     stroke-width="2.74899"
     stroke-miterlimit="10"
     d="m 684.3,252.6 c 0,2.7 9.9,14.6 39.5,14.6 29.6,0 37.2,-11.6 37.2,-14.6"
     id="path4849"
     style="fill:#00cc65;fill-opacity:1;stroke-width:4.15458;stroke-dasharray:none" />
  <path
     fill="#0D6793"
     stroke="#000000"
     stroke-width="2.74899"
     stroke-miterlimit="10"
     d="m 188.1,317.3 c 82.7,0 113.5,-22.1 119.7,-33.8 5.7,-13.2 7.6,-37.7 7.6,-44.1 0,-9.2 -10.2,-43.8 -125.3,-43.8 -115.1,0 -133.4,35.6 -133.4,43.7 0,2.8 -1.7,27.9 4.6,44.1 9.6,11.7 48,33.9 126.8,33.9 z"
     id="path4851"
     style="fill:#00ff7e;fill-opacity:1;stroke-width:4.15458;stroke-dasharray:none" />
  <path
     fill="#0D6793"
     stroke="#000000"
     stroke-width="2.74899"
     stroke-miterlimit="10"
     d="m 56.7,239.3 c 0,8.1 33.5,43.1 133.3,43.1 99.8,0 125.4,-34 125.4,-43.1"
     id="path4853"
     style="fill:#00cc65;fill-opacity:1;stroke-width:4.15458;stroke-dasharray:none" />
  <path
     fill="#0D6793"
     stroke="#000000"
     stroke-width="2.74899"
     stroke-miterlimit="10"
     d="m 296,238.8 c 0,-6.5 -8.7,-29.1 -106.5,-29.1 -97.8,0 -113.4,23.3 -113.4,29.1 0,5.8 28.5,29.5 113.3,29.5 84.9,-0.1 106.6,-23 106.6,-29.5 z"
     id="path4855"
     style="fill:#ff007e;fill-opacity:1;stroke-width:4.15458;stroke-dasharray:none" />
  <path
     fill="#0D6793"
     stroke="#000000"
     stroke-width="2.74899"
     stroke-miterlimit="10"
     d="m 77.6,400.8 c 0,0 22.1,23.6 113,23.6 96.8,0 117,-37.8 117,-37.8 0,0 3.2,-5.1 1.8,-11.2 -1.4,-6.1 -5.2,-8 -5.2,-8 0,0 -24.7,37.8 -117.8,37.8 -93.1,0 -112.4,-28 -112.4,-28 0,0 -3.5,3.2 -3.3,9.9 -0.2,7.2 6.9,13.7 6.9,13.7 z"
     id="path4857"
     style="fill:#00ff7e;fill-opacity:1;stroke-width:4.15458;stroke-dasharray:none" />
  <path
     fill="#BC2E2E"
     stroke="#000000"
     stroke-width="2.74899"
     stroke-miterlimit="10"
     d="m 184.4,624.2 c 0,0 34.2,10.2 103.3,-28 69.1,-38.2 70.7,-77.1 70.7,-77.1 0,0 -2.4,-9.3 -7.2,-14.2 -4.9,-4.8 -11.6,-10.5 -11.6,-10.5 0,0 -0.6,37.9 -69.7,76.1 -69.1,38.3 -106.5,27.5 -106.5,27.5 0,0 0.7,6.8 5.9,14.6 5.1,7.8 15.1,11.6 15.1,11.6 z"
     id="path4859"
     style="fill:#00ff7e;fill-opacity:1;stroke-width:4.15458;stroke-dasharray:none" />
  <path
     fill="#BC2E2E"
     stroke="#000000"
     stroke-width="2.74899"
     stroke-miterlimit="10"
     d="m 723.7,542.4 c 1.9,-7.4 0.6,-14.6 0.6,-14.6 0,0 -11.3,4.6 -38.6,-8.9 -27.3,-13.5 -28.1,-25.1 -28.1,-25.1 0,0 -7.1,2.2 -13,10 -5.9,7.8 -6.1,12.4 -6.1,12.4 0,0 2.9,15.6 30.2,29.1 27.3,13.5 43.8,10.2 43.8,10.2 0,0 6.2,-0.5 11.2,-13.1 z"
     id="path4861"
     style="fill:#00ff7e;fill-opacity:1;stroke-width:4.15458;stroke-dasharray:none" />
  <path
     fill="#0D6793"
     stroke="#000000"
     stroke-width="2.74899"
     stroke-miterlimit="10"
     d="m 693.9,326.7 c 0,0 5.4,13.9 30.3,13.9 24.9,0 30.2,-15.7 30.2,-15.7 0,0 1.7,-3.6 1.7,-10.6 0,-4.1 -1.6,-9 -1.6,-9 0,0 -5.3,18 -30.2,18 -24.9,0 -31.1,-14.9 -31.1,-14.9 0,0 -1.7,3.4 -1.7,8.9 -0.1,6.2 2.4,9.4 2.4,9.4 z"
     id="path4863"
     style="display:inline;fill:#00cc65;fill-opacity:1;stroke-width:4.15458;stroke-dasharray:none" />
  <path
     fill="#BC2E2E"
     stroke="#000000"
     stroke-width="2.74899"
     stroke-miterlimit="10"
     d="m 361.24144,483.33479 c 4.16022,0 7.53143,4.75719 7.53143,10.62775 0,5.87056 -3.37121,10.62775 -7.53143,10.62775 -4.16022,0 -7.53143,-4.75719 -7.53143,-10.62775 -0.0717,-5.87056 3.37121,-10.62775 7.53143,-10.62775 m 0,-20.1421 c -12.05029,0 -21.80528,13.76545 -21.80528,30.76985 0,17.0044 9.75499,30.76986 21.80528,30.76986 12.05029,0 21.80528,-13.76546 21.80528,-30.76986 0,-17.0044 -9.75499,-30.76985 -21.80528,-30.76985 z"
     id="path4865"
     style="fill:#00cc65;fill-opacity:1;stroke-width:3.53995;stroke-dasharray:none" />
  <path
     fill="#BC2E2E"
     stroke="#000000"
     stroke-width="2.74899"
     stroke-miterlimit="10"
     d="m 636.90203,486.33479 c 4.16022,0 7.53143,4.75719 7.53143,10.62775 0,5.87056 -3.37121,10.62775 -7.53143,10.62775 -4.16022,0 -7.53143,-4.75719 -7.53143,-10.62775 0,-5.87056 3.37121,-10.62775 7.53143,-10.62775 m 0,-20.1421 c -12.05029,0 -21.80528,13.76545 -21.80528,30.76985 0,17.0044 9.75499,30.76986 21.80528,30.76986 12.05029,0 21.80528,-13.76546 21.80528,-30.76986 0,-17.0044 -9.75499,-30.76985 -21.80528,-30.76985 z"
     id="path4867"
     style="display:inline;fill:#00cc65;fill-opacity:1;stroke-width:3.53995;stroke-dasharray:none" />
</g>
</g>
</svg>
