<?xml version="1.0" encoding="UTF-8" standalone="no"?>
<svg
   inkscape:version="1.2.1 (9c6d41e410, 2022-07-14)"
   inkscape:export-ydpi="96"
   inkscape:export-xdpi="96"
   inkscape:export-filename="kangaroo.png"
   sodipodi:docname="kangaroo.svg"
   width="768"
   height="512"
   viewBox="0 0 203.20001 135.46664"
   version="1.1"
   id="svg844"
   xmlns:inkscape="http://www.inkscape.org/namespaces/inkscape"
   xmlns:sodipodi="http://sodipodi.sourceforge.net/DTD/sodipodi-0.dtd"
   xmlns:xlink="http://www.w3.org/1999/xlink"
   xmlns="http://www.w3.org/2000/svg"
   xmlns:svg="http://www.w3.org/2000/svg"
   xmlns:rdf="http://www.w3.org/1999/02/22-rdf-syntax-ns#"
   xmlns:cc="http://creativecommons.org/ns#"
   xmlns:dc="http://purl.org/dc/elements/1.1/">
  <sodipodi:namedview
     id="namedview1510"
     pagecolor="#505050"
     bordercolor="#eeeeee"
     borderopacity="1"
     inkscape:showpageshadow="0"
     inkscape:pageopacity="0"
     inkscape:pagecheckerboard="true"
     inkscape:deskcolor="#505050"
     showgrid="false"
     inkscape:zoom="1.5"
     inkscape:cx="367"
     inkscape:cy="270"
     inkscape:current-layer="svg844" />
  <defs
     id="defs838">
    <linearGradient
       id="linearGradient4070-9-0-5-9-9">
      <stop
         style="stop-color:#a3a3a3;stop-opacity:1;"
         offset="0"
         id="stop4072-5-5-3-3-9" />
      <stop
         style="stop-color:#b0b0b0;stop-opacity:1;"
         offset="0.14285725"
         id="stop4074-5-2-2-3-7" />
      <stop
         id="stop4076-40-4-9-2-0"
         offset="0.32142863"
         style="stop-color:#d1d1d1;stop-opacity:1;" />
      <stop
         style="stop-color:#bdbdbd;stop-opacity:1;"
         offset="0.5"
         id="stop4078-3-2-7-8-8" />
      <stop
         id="stop4080-4-3-3-3-4"
         offset="0.75"
         style="stop-color:#e5e5e5;stop-opacity:1;" />
      <stop
         style="stop-color:#cccccc;stop-opacity:1;"
         offset="0.875"
         id="stop4082-1-8-7-4-5" />
      <stop
         id="stop4084-2-5-4-0-6"
         offset="1"
         style="stop-color:#cccccc;stop-opacity:1;" />
    </linearGradient>
    <linearGradient
       id="linearGradient4053-4-0-3">
      <stop
         style="stop-color:#cc992d;stop-opacity:1;"
         offset="0"
         id="stop4055-9-1-6" />
      <stop
         style="stop-color:#e1a832;stop-opacity:1;"
         offset="0.14285725"
         id="stop4057-8-2-2" />
      <stop
         id="stop4059-2-1-0"
         offset="0.32142863"
         style="stop-color:#e5cf5c;stop-opacity:1;" />
      <stop
         style="stop-color:#e5c547;stop-opacity:1;"
         offset="0.5"
         id="stop4061-4-0-0" />
      <stop
         id="stop4063-5-7-6"
         offset="0.75"
         style="stop-color:#ffffa3;stop-opacity:1;" />
      <stop
         style="stop-color:#ffd94d;stop-opacity:1;"
         offset="0.875"
         id="stop4065-2-6-5" />
      <stop
         id="stop4067-9-6-1"
         offset="1"
         style="stop-color:#ffdb4e;stop-opacity:1;" />
    </linearGradient>
    <linearGradient
       y2="148.85265"
       x2="320.71429"
       y1="148.85265"
       x1="309.28571"
       gradientTransform="matrix(58.507855,0,0,58.233096,464581.27,-149579.23)"
       gradientUnits="userSpaceOnUse"
       id="linearGradient3827"
       xlink:href="#linearGradient4070-9-0-5-9-9" />
    <linearGradient
       y2="148.25699"
       x2="305.82367"
       y1="148.25699"
       x1="294.71201"
       gradientTransform="matrix(58.507855,0,0,58.233096,464581.27,-149579.23)"
       gradientUnits="userSpaceOnUse"
       id="linearGradient3829"
       xlink:href="#linearGradient4053-4-0-3" />
  </defs>
  <metadata
     id="metadata841">
    <rdf:RDF>
      <cc:Work
         rdf:about="">
        <dc:format>image/svg+xml</dc:format>
        <dc:type
           rdf:resource="http://purl.org/dc/dcmitype/StillImage" />
      </cc:Work>
    </rdf:RDF>
  </metadata>
  <g
     transform="matrix(0.26458331,0,0,0.26458331,21.448622,-1.8939461)"
     id="g10718"
     style="display:inline"
     inkscape:label="kangaroo">
    <path
       d="m 385.58659,183.98854 c -1.24681,0.46434 -2.79602,0.92112 -4.06709,1.42462 -2.85126,1.13133 -6.38985,3.26118 -9.1256,4.64974 -0.7682,0.38994 -1.52274,0.79705 -2.26403,1.2263 -0.12958,0.0757 -0.26448,0.14301 -0.39406,0.21874 -0.0116,0.007 -0.0208,0.0214 -0.0334,0.0284 -0.85177,0.50453 -1.69359,1.04701 -2.51183,1.58337 -0.0191,0.0125 -0.0452,0.0134 -0.0643,0.0259 -0.80987,0.53203 -1.57909,1.08242 -2.35878,1.62594 -0.30214,0.21117 -0.599,0.40673 -0.89707,0.61723 -0.48973,0.3464 -0.98594,0.69829 -1.4643,1.0406 -0.0469,0.0343 -0.0869,0.0812 -0.13474,0.11444 -0.71705,0.5135 -1.4339,0.99993 -2.12783,1.48823 -0.0532,0.0378 -0.11239,0.0741 -0.16564,0.11193 -0.68323,0.48013 -1.36487,0.96542 -2.02659,1.40316 -0.0605,0.0402 -0.13706,0.0691 -0.19753,0.10933 -0.64862,0.42476 -1.28517,0.82442 -1.91513,1.19251 -0.0747,0.0431 -0.1562,0.0946 -0.23094,0.13771 -0.26621,0.1519 -0.52487,0.29739 -0.78812,0.43748 -0.0796,0.0417 -0.15137,0.097 -0.23094,0.13772 -0.25976,0.13436 -0.52537,0.2542 -0.78308,0.37568 -0.0865,0.0401 -0.17538,0.0961 -0.26184,0.1352 0,0 -0.26084,-0.12358 -0.4229,-0.19096 l -8.07754,-0.53236 -2.09633,19.5827 6.32696,6.62846 c 0.10655,-0.002 0.20778,-0.001 0.31349,-0.006 l 17.47001,-11.62056 c 0.42277,-0.75619 0.87353,-1.56027 1.387,-2.39536 0.32389,-0.52746 0.66052,-1.07595 1.04255,-1.63981 0.21557,-0.31856 0.46799,-0.64616 0.70662,-0.97689 0.58354,-0.80831 1.24627,-1.6774 1.99584,-2.5655 0.009,-0.0103 0.0245,-0.0181 0.0334,-0.0284 0.31637,-0.37356 0.65124,-0.75263 1.00296,-1.14137 0.22939,-0.25423 0.47636,-0.52709 0.72226,-0.78699 0.0341,-0.0363 0.0699,-0.0816 0.10384,-0.11696 0.49066,-0.51789 1.01016,-1.02039 1.56928,-1.56581 0.19222,-0.10575 0.37575,-0.2403 0.56221,-0.36157 0.0297,-0.0197 0.07,-0.0344 0.0988,-0.0552 0.17393,-0.11527 0.33049,-0.23897 0.50041,-0.3666 2.61283,-2.0106 4.62435,-5.50792 7.85784,-8.32681 l 0.94606,-11.61768 z"
       fill="#f6f1e7"
       id="path9998"
       style="fill-rule:nonzero;stroke-width:1.00001;fill:#0000cc;fill-opacity:1" />
    <path
       d="m 385.19132,188.84253 c -0.0491,0.0361 -7.20835,5.32859 -10.31164,7.65743 -3.23789,2.42925 -5.41498,5.18769 -7.98244,8.31666 -2.40034,2.92487 -4.31249,6.53262 -6.75599,9.42086 -1.86945,2.20859 -4.06321,4.4941 -6.83089,5.33826 -2.28712,0.69668 -9.78464,-1.89442 -9.78464,-1.89442 l -0.45369,3.25496 4.01269,4.24574 13.71132,-2.42619 3.71332,-7.09711 10.29205,-12.80106 7.78956,-8.6464 2.24785,-1.04001 z"
       fill="#e9d6be"
       id="path10000"
       style="fill-rule:nonzero;stroke-width:1.00001;fill:#0000b2;fill-opacity:1" />
    <path
       d="m 385.58659,183.98854 c -1.24681,0.46434 -2.79602,0.92112 -4.06709,1.42462 -2.85126,1.13133 -6.38985,3.26118 -9.1256,4.64974 -0.4584,0.23256 -0.92603,0.45535 -1.37467,0.70375 -1.32687,0.73274 -2.612,1.53208 -3.85956,2.35053 -0.0117,0.008 -0.0217,0.0203 -0.0334,0.0284 -0.82364,0.54094 -1.63262,1.09913 -2.42317,1.6528 -0.0244,0.0161 -0.0444,0.0405 -0.0678,0.0567 -0.77778,0.54468 -1.547,1.09507 -2.29606,1.63205 -0.0235,0.0172 -0.0444,0.0405 -0.0678,0.0567 -0.7479,0.53507 -1.50409,1.03636 -2.22564,1.54347 -0.0244,0.0161 -0.0444,0.0405 -0.0679,0.0577 -0.71939,0.50529 -1.42876,0.99835 -2.12532,1.45733 -0.0307,0.0196 -0.068,0.0346 -0.0987,0.0542 -0.72816,0.47748 -1.44094,0.92611 -2.14607,1.33022 -0.30735,0.17664 -0.61635,0.36117 -0.92034,0.52103 -0.0335,0.0173 -0.0652,0.0368 -0.0987,0.0542 -0.30805,0.16053 -0.60736,0.28765 -0.9127,0.42733 -0.0449,0.0214 -0.0864,0.0632 -0.13222,0.0836 0,0 -1.38973,-0.62687 -2.12909,-0.80045 -0.23728,-0.0555 -0.49198,-0.0942 -0.77332,-0.12619 -1.44204,0.38524 -2.73878,0.18132 -3.92108,0.0258 -0.93114,0.0747 -1.67695,0.17748 -1.67695,0.17748 l -0.34482,3.0762 c 0.0729,0.23771 0.18619,0.43656 0.39346,0.56481 1.40546,0.86493 4.91259,-0.0655 7.03237,-0.49387 2.26855,-0.67812 4.44324,-1.9408 6.67359,-3.40663 4.4608,-2.93266 9.14394,-6.77228 14.37468,-9.42652 2.83001,-1.43707 6.40944,-3.52647 9.02528,-4.5636 1.09905,-0.43624 2.16463,-0.86818 3.23907,-1.27332 l 0.14959,-1.83694 z m -0.58593,7.19527 c -0.40121,0.25729 -0.8073,0.52522 -1.19483,0.81171 -4.90104,3.63225 -8.51897,8.28902 -11.33549,9.83153 -0.13564,0.0762 -0.28801,0.1732 -0.39918,0.28154 -5.14507,5.01502 -7.35122,9.2269 -9.09667,12.36463 -1.74436,3.13681 -4.28927,4.62117 -7.4844,6.82113 -1.38076,0.95108 -2.66523,0.21439 -4.82058,0.67297 -1.14152,0.24316 -6.51408,-1.17659 -7.7047,-1.25449 l -0.0153,0.18739 6.29347,6.65784 c 0.41621,-0.0103 0.82195,-0.0274 1.22666,-0.0566 0.0212,-0.001 0.0427,0.005 0.0628,0.005 1.47186,-0.20923 4.05808,-0.66082 6.42269,-1.48363 2.9538,-1.23234 5.4303,-3.1828 7.52531,-5.78337 1.37877,-1.96159 2.38063,-4.12444 3.96296,-6.70054 0.17568,-0.28468 0.38395,-0.59982 0.57449,-0.89434 0.22142,-0.34115 0.43763,-0.71685 0.68335,-1.07309 0.0329,-0.0465 0.0735,-0.10137 0.10636,-0.14785 0.4214,-0.6038 0.89636,-1.21227 1.4057,-1.86107 0.33139,-0.42251 0.67041,-0.85241 1.04552,-1.29443 0.12645,-0.14823 0.28124,-0.28713 0.41184,-0.43702 0.37845,-0.43372 0.78178,-0.8895 1.20703,-1.34349 0.54386,-0.57978 1.11355,-1.15645 1.74346,-1.77035 0.19222,-0.10575 0.37583,-0.2413 0.56229,-0.36257 0.0297,-0.0197 0.069,-0.0345 0.0987,-0.0542 0.17393,-0.11527 0.33049,-0.23897 0.50041,-0.3666 2.61283,-2.0106 4.62443,-5.50891 7.85792,-8.32781 z"
       fill="#dfbb90"
       id="path10002"
       style="fill-rule:nonzero;stroke-width:1.00001;fill:#000099;fill-opacity:1" />
    <g
       id="g27664">
      <path
         d="m 385.58693,183.97771 c -1.24613,0.46438 -2.77859,0.9293 -4.04862,1.43286 -2.85133,1.13116 -6.40869,3.25106 -9.14376,4.63903 -7.33197,3.72097 -13.38904,9.53578 -18.84026,11.99861 0,0 -1.38467,-0.60247 -2.1243,-0.77536 -2.12794,-0.499 -6.38889,0.0585 -6.38889,0.0585 l -2.11027,19.67608 6.19457,6.56256 c 9.26926,-0.16743 15.50487,-5.1796 19.32521,-14.04881 1.5376,-2.49912 3.62931,-5.38182 7.16328,-8.82637 3.22274,-1.76508 5.32957,-5.86108 9.02608,-9.08263 z"
         fill="none"
         stroke="#6b3814"
         stroke-width="1.00001px"
         id="path10006"
         style="stroke:#000000;stroke-opacity:1;stroke-width:3.00000004;stroke-dasharray:none" />
    </g>
    <path
       d="m 437.78557,184.48557 c 0.952,-1.325 0.283,-4.892 -1.063,-5.517 0,0 -5.285,-3.83 -8.219,-5.219 -1.889,-0.894 -2.797,-1.064 -5.955,-1.964 -2.725,-0.777 -6.052,-0.598 -8.25,-0.688 -3.335,-0.136 -6.943,0.814 -9.645,1.77 -4.989,1.767 -10.117,4.617 -12.514,7.527 l 9.597,0.015 1.484,0.641 c 7.203,5.186 13.996,0.427 23.39,4.047 2.25,0.818 2.438,2.736 2.841,3.786 0,0 0.508,-1.21 0.664,-2.255 0.171,-1.147 -0.15,-2.93 -0.883,-3.828 -0.797,-0.975 -1.964,-2.16 -1.964,-2.16 0,0 4.576,-0.099 6.676,0.982 1.508,0.776 2.454,4.221 2.454,4.221 z"
       fill="#f6f1e7"
       fill-rule="nonzero"
       id="path10564"
       style="fill:#0000cc;fill-opacity:1" />
    <path
       d="m 397.42557,176.26557 c -2.682,1.452 -3.896,2.434 -5.292,4.129 l 9.597,0.015 1.484,0.641 c 7.203,5.185 13.996,0.427 23.39,4.047 2.25,0.818 2.439,2.735 2.841,3.785 0,0 0.508,-1.209 0.665,-2.254 0.171,-1.147 -0.15,-2.931 -0.884,-3.829 -0.796,-0.975 -1.963,-2.159 -1.963,-2.159 0,0 4.575,-0.099 6.675,0.981 1.509,0.776 2.454,4.221 2.454,4.221 l 1.387,-1.358 c 0.952,-1.324 0.283,-4.891 -1.063,-5.517 0,0 -5.285,-3.83 -8.218,-5.218 l -1.87,-0.653 c 0,0 4.041,2.523 2.824,2.978 -1.058,0.395 -4.678,-0.775 -7.224,-0.83 -4.209,-0.091 -7.363,0.864 -8.839,1.677 -0.822,0.452 0.094,0.99 1.977,1.609 1.489,0.489 3.827,1.029 4.683,1.618 0.988,0.679 -1.712,0.148 -4.725,-0.198 -2.23,-0.256 -4.632,-0.188 -5.835,-0.606 -1.669,-0.579 -4.568,-1.881 -6.24,-2.453 -0.845,-0.289 -1.473,-0.173 -2.44,-0.26 2.823,-2.45 9.457,-3.947 15.007,-5.715 l -9.917,1.515 z"
       fill="#e9d6be"
       fill-rule="nonzero"
       id="path10566"
       style="fill:#0000b2;fill-opacity:1" />
    <path
       d="m 436.39557,185.84557 c 0,0 -0.945,-3.445 -2.454,-4.221 -2.1,-1.081 -6.675,-0.982 -6.675,-0.982 0,0 1.166,1.185 1.963,2.16 0.733,0.898 1.055,2.681 0.883,3.828 -0.156,1.045 -0.664,2.255 -0.664,2.255 -0.402,-1.05 -0.591,-2.968 -2.841,-3.786 -9.394,-3.619 -16.187,1.139 -23.39,-4.047 l -1.484,-0.641 -9.597,-0.015 c 0.79,-0.959 0.629,-0.664 1.909,-1.573 0,0 5.918,-0.707 8.462,-0.017 1.861,0.505 3.171,1.663 5.036,2.154 3.389,0.891 7.251,0.061 10.729,0.489 2.39,0.294 7.484,0.847 7.484,0.847 0,0 -0.073,-0.974 -1.102,-1.833 -1.541,-1.287 -7.971,-0.579 -7.758,-2.664 0.081,-0.796 1.989,-1.235 3.337,-1.11 2.75,0.255 5.301,1.483 6.391,1.622 3.74,0.478 4.597,-0.478 7.891,1.357 0.878,0.489 2.181,2.081 2.181,2.081 z"
       fill="#dfbb90"
       fill-rule="nonzero"
       id="path10568"
       style="fill:#000099;fill-opacity:1" />
    <g
       id="g27661">
      <path
         d="m 437.78557,184.48557 c 0.952,-1.325 0.283,-4.892 -1.063,-5.517 0,0 -5.285,-3.83 -8.219,-5.219 -1.889,-0.894 -2.797,-1.064 -5.955,-1.964 -2.725,-0.777 -6.052,-0.598 -8.25,-0.688 -3.335,-0.136 -6.943,0.814 -9.645,1.77 -4.989,1.767 -10.117,4.617 -12.514,7.527 l 9.597,0.015 1.484,0.641 c 7.203,5.186 13.996,0.427 23.39,4.047 2.25,0.818 2.438,2.736 2.841,3.786 0,0 0.508,-1.21 0.664,-2.255 0.171,-1.147 -0.15,-2.93 -0.883,-3.828 -0.797,-0.975 -1.964,-2.16 -1.964,-2.16 0,0 4.576,-0.099 6.676,0.982 1.508,0.776 2.454,4.221 2.454,4.221 z"
         fill="none"
         stroke="#6b3814"
         stroke-width="1px"
         id="path10570"
         style="stroke-width:3.00000004;stroke-dasharray:none;stroke:#000000;stroke-opacity:1" />
    </g>
    <path
       d="m 428.15557,180.56557 c -0.56,-0.502 -0.775,-0.857 -1.579,-1.255 -1.561,-0.771 -3.483,-1.291 -5.156,-1.593 -0.55,-0.1 -1.125,-0.104 -1.687,-0.094 -1.689,0.028 -3.219,0.406 -3.219,0.406 0,0 2.726,0.328 4.719,0.688 1.607,0.29 3.448,0.794 4.875,1.5 0.675,0.334 0.841,0.669 1.428,1.185 z"
       fill="#6b3814"
       fill-rule="nonzero"
       id="path10572"
       style="fill:#000080;fill-opacity:1" />
    <g
       id="g27658">
      <path
         d="m 282.64,399.86 c 0.863,8.293 15.435,7.474 15.794,-4.589 l -1.31,-10.037 z"
         fill="#834515"
         fill-rule="nonzero"
         stroke="#6b3814"
         stroke-width="1px"
         id="path10576"
         style="stroke:#000000;stroke-opacity:1;stroke-width:3.00000004;stroke-dasharray:none;fill:#000000;fill-opacity:1" />
    </g>
    <path
       d="m 296.51922,388.42052 -10.863,10.98 c 0.287,1.001 0.787,1.755 1.598,2.244 1.023,0.618 2.471,0.873 3.949,0.609 2.939,-0.524 5.893,-2.804 6.082,-7.986 z"
       fill="#8b4b16"
       fill-rule="nonzero"
       id="path10578"
       style="fill:#000066;fill-opacity:1" />
    <g
       id="g27655">
      <path
         d="m 358.02,101.1 c -2.634,-14.733 6.682,-20.294 9.726,-34.478 1.159,2.722 1.59,6.926 1.863,9.919 1.205,13.227 -3.659,20.616 -4.863,25.843 -2.518,2.325 -6.477,2.061 -6.726,-1.284 z"
         fill="#cc8b3e"
         stroke="#6b3814"
         stroke-width="1px"
         id="path10582"
         style="fill-rule:nonzero;fill:#000080;fill-opacity:1;stroke-width:3.00000004;stroke-dasharray:none;stroke:#000000;stroke-opacity:1" />
    </g>
    <path
       d="m 364.23,101.23 c 1.489,-5.684 5.755,-12.348 4.625,-24.75 -0.11,-1.204 -0.298,-2.611 -0.5,-4 -1.648,4.499 -2.85,7.66 -4.521,11.175 -2.326,4.89 -3.617,9.67 -2.168,16.983 z"
       fill="#dfbb90"
       id="path10584"
       style="fill-rule:nonzero;fill:#000099;fill-opacity:1" />
    <path
       d="m 368.31,76.316 c -0.97,2.555 -1.9,5.152 -3.031,7.531 -2.286,4.808 -3.596,9.987 -1.744,16.716 2.269,-5.901 5.858,-12.359 4.775,-24.247 z"
       fill="#e9d6be"
       id="path10586"
       style="fill-rule:nonzero;fill:#0000b2;fill-opacity:1" />
    <path
       d="m 364.24,227.65 c 3.668,-9.499 5.196,-19.007 5.918,-28.499 2.07,-27.19 -4.546,-53.281 -0.769,-57.254 0.639,-0.672 1.763,-1.122 3.709,-1.108 6.21,0.046 17.993,2.976 19.549,-0.959 0.772,-0.051 1.85,-0.357 2.459,-2.379 1.953,1.559 2.216,-0.707 2.373,-1.509 0.413,-2.702 0.948,-7.638 -0.14,-10.213 -0.839,-1.983 -2.671,-2.904 -4.466,-4.093 -5.158,-3.416 -15.552,-9.076 -15.552,-9.076 0.887,-0.721 1.709,-1.584 1.391,-2.987 -0.433,-2.104 -13.77,-8.483 -22.574,-8.506 -2.62,-0.007 -4.833,0.587 -6.184,2.384 -5.196,-10.88 -14.199,-23.997 -21.56,-29.198 4.932,14.068 -1.496,29.178 12.555,42.251 -4.62,10.639 -6.553,21.279 -7.185,31.918 -7.903,9.879 -12.648,18.036 -16.399,25.651 -3.751,7.615 -5.118,13.864 -10.143,20.913 -5.223,7.328 -13.96,14.282 -19.801,21.042 -5.841,6.76 -9.52,14.723 -14.289,22.436 -5.456,8.824 -10.434,15.024 -15.829,22.193 -8.308,11.04 -16.49,21.606 -21.407,30.888 -5.743,10.842 -9.104,20.448 -9.923,28.737 -0.997,10.085 -1.508,17.208 0.666,33.796 1.943,14.822 12.724,38.692 9.784,50.353 -2.482,9.842 -13.359,15.84 -29.218,19.354 -39.922,8.846 -111,9.068 -153.74,9.885 -3.178,0.631 -2.162,4.108 2.36,4.975 32.957,4.619 106.09,8.057 154.58,5.594 21.879,-1.112 39.237,-4.947 53.204,-16.834 6.641,-5.653 12.514,-13.141 17.74,-23.061 10.207,-7.345 11.839,-9.185 14.86,-14.373 -0.299,30.782 -13.632,37.866 -11.198,46.472 1.287,4.55 5.014,6.469 12.265,7.423 3.055,0.402 12.265,-1.431 12.265,-1.431 16.407,0.346 35.007,1.658 52.51,0.477 5.868,-0.395 14.646,-2.409 17.604,-1.771 3.207,0.691 9.522,3.205 14.546,4.434 5.998,1.468 12.106,2.179 18.234,2.605 4.504,0.834 6.699,6.962 10.93,8.234 0.315,1.546 0.954,4.597 2.68,4.42 0,0 0.256,-6.238 -1.441,-9.935 -0.957,-2.085 -3.534,-3.416 -5.01,-5.28 -2.164,-2.734 -3.262,-4.921 -6.348,-6.259 -2.339,-1.015 -6.067,-0.854 -6.067,-0.854 0,0 -2.456,-1.921 -3.639,-1.956 -10.361,-0.305 -8.457,-3.348 -19.129,-5.62 -4.682,-0.644 -4.427,0.365 -7.973,0.423 -23.778,0.39 -55.259,-0.68 -61.326,-9.723 -2.779,-4.144 -1.524,-12.2 1.065,-22 4.642,-17.567 14.391,-40.141 15.834,-58.86 0.701,-9.09 0.129,-17.246 -2.919,-23.781 0,0 6.401,-11.433 9.41,-21.096 3.836,-12.316 6.628,-26.957 11.031,-39.082 3.91,-10.764 11.212,-20.109 14.707,-29.16 z"
       fill="#cc8b3e"
       fill-rule="nonzero"
       id="path10590"
       style="display:inline;fill:#000080;fill-opacity:1" />
    <g
       id="g27635">
      <path
         d="m 358.83,116.98 11.832,1.211 c 0,0 0.671,-5.478 -4.798,-5.916 -4.735,-0.378 -7.167,4.659 -7.167,4.659 z"
         fill="#d4a061"
         fill-rule="nonzero"
         id="path10592"
         style="fill:#0000b2;fill-opacity:1" />
      <path
         d="m 366.11,113.08 c -2.869,-0.29 -5.411,1.843 -6.795,3.172 -0.228,0.237 -0.96,0.747 -0.846,1.051 0.123,0.329 1.488,0.256 1.844,0.262 0.42,0 0.615,0.087 0.687,0.125 0.072,0.038 0.104,0.061 0.219,0.25 0.01,0.011 0.021,0.021 0.031,0.032 1.028,1.502 2.369,2.375 3.813,2.562 1.353,0.176 2.714,-0.271 3.906,-1.094 0.369,-0.014 1.465,0.479 1.886,0.075 0.584,-0.62 -0.27,-1.19 -0.292,-1.544 -0.016,-0.247 -0.122,-0.445 -0.219,-0.656 0,0 -0.086,-0.247 -0.094,-0.281 -0.046,-0.215 -0.182,-0.845 -0.687,-1.719 -0.586,-1.013 -1.725,-2.022 -3.453,-2.235 z"
         fill="#bf8035"
         fill-rule="nonzero"
         id="path10594"
         style="fill:#000066;fill-opacity:1" />
    </g>
    <path
       d="m 377.44,112.87 c 0,0 -10.602,-3.533 -14.71,-1.877 -5.508,2.22 -7.277,5.095 -7.156,7.608 0.072,1.48 2.989,-0.336 4.44,0.193 1.974,0.719 2.987,2.168 5.019,2.703 2.722,0.716 5.51,-0.75 8.3,-0.387 5.509,0.718 9.865,5.168 15.057,7.143 1.504,0.571 3.37,0.355 4.633,1.351 1.222,0.964 1.953,2.54 2.317,4.054 0.316,1.315 -0.193,4.053 -0.193,4.053 l -2.405,2.478 -0.966,0.966 -4.586,0.724 -15.69,-1.207 c -13.584,3.154 -22.861,3.062 -25.225,-4.096 -0.948,-2.278 -4.75,10.356 -5.255,14.524 -0.842,6.941 -5.254,12.963 -7.603,19.549 -2.557,7.171 -5.574,14.254 -7.059,21.721 -1.806,9.082 -0.814,16.348 -4.777,24.717 -5.26,11.107 -11.895,15.274 -17.734,26.088 -3.761,6.966 -6.777,18.866 -9.649,26.243 -4.337,11.139 -11.578,17.12 -12.786,29.012 -0.839,8.262 3.681,17.268 7.291,24.747 4.871,10.092 9.662,10.507 11.589,28.298 0.895,8.258 -1.51,17.547 -2.092,25.833 -0.33,4.686 -1.99,12.672 -1.99,12.672 -3.021,5.189 -4.653,7.029 -14.86,14.373 -5.226,9.92 -11.1,17.408 -17.74,23.061 -13.967,11.888 -31.325,15.722 -53.204,16.834 -48.484,2.464 -121.62,-0.975 -154.58,-5.594 -4.523,-0.866 -5.539,-4.343 -2.36,-4.974 42.734,-0.817 113.81,-1.04 153.74,-9.886 15.859,-3.514 26.736,-9.511 29.218,-19.354 2.94,-11.661 -7.841,-35.531 -9.784,-50.353 -2.174,-16.588 -1.663,-23.711 -0.667,-33.796 0.819,-8.288 4.18,-17.895 9.924,-28.737 4.917,-9.281 13.098,-19.848 21.407,-30.888 5.395,-7.169 10.373,-13.368 15.829,-22.193 4.769,-7.713 8.449,-15.676 14.289,-22.436 5.84,-6.76 14.577,-13.714 19.801,-21.042 5.025,-7.049 6.392,-13.299 10.143,-20.913 3.751,-7.614 8.496,-15.771 16.399,-25.651 0.631,-10.639 2.565,-21.279 7.185,-31.918 4.422,0.259 2.714,-3.655 1.896,-4.569 -2.626,-2.847 -5.759,-7.391 -6.714,-9.883 -1.794,-4.686 -1.695,-9.733 -2.955,-14.59 -1.108,-4.267 -4.895,-13.38 -4.895,-13.38 7.141,9.187 14.283,16.815 21.425,31.841 0,0 3.387,-0.767 5.095,-0.65 9.365,0.641 17.439,7.066 23.83,5.216 z"
       fill="#bf8035"
       fill-rule="nonzero"
       id="path10596"
       style="display:inline;fill:#000066;fill-opacity:1" />
    <path
       d="m 348.5,106.3 c -4.314,-9.042 -11.057,-18.378 -15.88,-25.589 0,0 2.818,10.428 5.769,15.245 1.372,2.238 6.162,15.456 9.321,14.945 1.494,-0.242 0.79,-4.601 0.79,-4.601 z"
       fill="#a4621b"
       fill-rule="nonzero"
       id="path10598"
       style="fill:#000040;fill-opacity:1" />
    <path
       d="m 336.94,150.97 c -5.24,7.175 -12.013,19.432 -14.94,25.373 -3.476,7.056 -4.956,13.79 -10.562,21.656 -5.912,8.294 -14.81,15.254 -20.125,21.406 -5.228,6.051 -8.799,13.724 -13.781,21.781 -5.625,9.097 -10.754,15.498 -16.094,22.594 -8.334,11.074 -16.402,21.566 -20.969,30.188 -5.545,10.468 -8.623,19.519 -9.344,26.812 -0.99,10.023 -1.51,16.332 0.625,32.625 0.858,6.543 3.978,16.214 6.594,25.656 2.616,9.442 5.104,18.53 3.063,26.625 -1.617,6.412 -6.04,11.503 -11.813,15.156 -5.772,3.653 -12.958,6.163 -21.25,8 -26.799,5.938 -65.92,7.9 -101.94,8.875 33.8,1.948 73.46,2.914 103.75,1.375 21.414,-1.088 37.318,-4.75 50.094,-15.625 6.072,-5.168 11.551,-12.078 16.532,-21.531 0.365,-0.7 0.893,-1.315 1.531,-1.781 9.47,-6.814 10.503,-7.855 12.969,-12.031 0.189,-0.967 6.238,-5.781 6.493,-9.414 -22.143,11.412 -35.782,4.593 -37.091,-9.809 -12.864,-24.94 -14.231,-46.284 2.529,-71.496 4.217,-6.345 7.789,-7.476 11.635,-12.012 3.845,-4.537 8.888,-13.237 10.582,-17.588 1.009,-2.593 1.237,-6.142 1.5,-10.281 0.263,-4.14 5.027,-8.968 7.559,-13.656 3.716,-6.882 7.646,-16.873 12.282,-21.239 10.079,-9.491 12.352,-20.383 14.511,-31.256 1.622,-8.171 6.997,-17.411 9.483,-24.383 1.625,-4.557 4.626,-12.525 6.175,-16.022 z"
       fill="#b2742b"
       fill-rule="nonzero"
       id="path10600"
       style="display:inline;fill:#00004d;fill-opacity:1" />
    <path
       d="m 340.95,116.51 c -4.62,10.639 -6.554,21.279 -7.185,31.918 -7.903,9.88 -12.648,18.036 -16.399,25.651 -3.751,7.615 -5.119,13.864 -10.143,20.913 -5.224,7.329 -13.96,14.282 -19.801,21.042 -5.841,6.76 -9.521,14.723 -14.289,22.436 -5.456,8.825 -10.434,15.024 -15.829,22.193 -8.309,11.04 -16.49,21.606 -21.407,30.888 -5.744,10.842 -9.105,20.448 -9.924,28.737 -0.996,10.085 -1.508,17.208 0.667,33.796 1.943,14.822 12.724,38.692 9.784,50.353 -2.482,9.842 -13.359,15.84 -29.218,19.354 -39.922,8.846 -111,9.069 -153.74,9.886 -3.179,0.63 -2.163,4.108 2.36,4.974 32.957,4.619 106.09,8.058 154.58,5.594 21.879,-1.112 39.237,-4.946 53.204,-16.834 6.64,-5.652 12.514,-13.141 17.74,-23.061 10.207,-7.345 11.839,-9.184 14.86,-14.373 l 0.919,-10.124 c 0,0 -8.782,9.566 -14.673,11.616 -3.272,1.138 -6.08,0.617 -9.452,1.413 -2.661,0.628 -5.576,1.84 -8.278,2.255 -5.1,0.784 -6.934,-2.072 -10.602,-5.7 -5.146,-5.088 -5.472,-13.048 -6.725,-20.175 -2.188,-12.441 -7.271,-24.674 -6.725,-37.294 0.538,-12.446 2.945,-22.724 8.156,-34.039 9.081,-19.715 26.018,-34.896 36.682,-53.801 3.854,-6.83 5.219,-15.019 9.782,-21.398 6.039,-8.441 13.734,-13.79 19.243,-22.586 4.311,-6.882 4.053,-15.805 7.337,-23.232 4.098,-9.27 12.777,-20.6 15.227,-26.927 1.914,-4.944 1.443,-8.961 1.99,-14.236 0.606,-5.85 3.18,-18.45 3.18,-18.45 z"
       fill="#a4621b"
       fill-rule="nonzero"
       id="path10602"
       style="display:inline;fill:#000040;fill-opacity:1" />
    <path
       d="m 235.62,389.46 c 1.238,5.824 1.786,11.079 0.804,14.972 -2.482,9.842 -13.359,15.84 -29.218,19.354 -39.922,8.846 -111,9.069 -153.74,9.886 -3.179,0.63 -2.163,4.108 2.36,4.974 32.957,4.619 106.09,8.058 154.58,5.594 21.879,-1.112 39.237,-4.946 53.204,-16.834 5.245,-4.464 10.011,-10.074 14.358,-17.122 l 2.902,-14.546 c 0,0 -1.865,-0.032 -3.681,0.774 -3.851,1.71 -9.535,5.131 -11.184,6.172 -4.824,3.047 -6.821,1.582 -10.059,1.024 -1.942,-0.334 -7.404,-5.236 -7.92,-7.896 -2.128,-10.966 -6.577,-17.237 -7.064,-16.02 z"
       fill="#9f5d1a"
       fill-rule="nonzero"
       id="path10604"
       style="display:inline;fill:#000033;fill-opacity:1" />
    <path
       d="m 256.2,421.15 c -12.505,10.643 -28.068,14.261 -49.375,15.344 -17.196,0.874 -74.368,2.138 -107.88,1.239 -8.495,-0.228 -25.173,-0.184 -21.945,-1.455 1.357,-0.535 13.531,-0.015 21.954,-0.236 34.624,-0.906 92.342,-2.794 108.13,-6.292 8.375,-1.856 18.591,-4.392 24.54,-8.156 5.949,-3.764 10.892,-9.844 12.595,-16.597 2.172,-8.612 -0.183,-16.279 -2.81,-25.76 -2.627,-9.481 -5.699,-19.124 -6.531,-25.469 -2.127,-16.225 -1.645,-22.366 -0.656,-32.375 0.698,-7.065 3.75,-15.993 9.25,-26.375 4.487,-8.471 12.989,-19.952 21.33,-31.034 5.327,-7.079 8.064,-13.011 13.727,-22.17 5.03,-8.136 7.323,-16.135 12.412,-22.024 5.195,-6.013 12.922,-12.985 18.991,-21.5 5.739,-8.053 6.446,-15.204 9.858,-22.131 3.61,-7.328 8.045,-14.954 15.656,-24.469 0.813,-1.019 1.141,-2.452 1.216,-3.753 0.601,-10.123 1.009,-21.107 5.269,-30.919 l -0.904,-1.08 c -4.62,10.639 -6.636,21.851 -7.267,32.49 -7.903,9.88 -12.648,18.036 -16.399,25.651 -3.751,7.615 -5.119,13.864 -10.143,20.913 -5.224,7.329 -13.96,14.282 -19.801,21.042 -5.841,6.76 -9.521,14.723 -14.289,22.436 -5.456,8.825 -10.434,15.024 -15.829,22.193 -8.308,11.04 -16.49,21.606 -21.407,30.888 -5.743,10.842 -9.105,20.448 -9.924,28.737 -0.996,10.085 -1.507,17.208 0.667,33.796 1.943,14.822 12.724,38.692 9.784,50.353 -2.482,9.842 -13.359,15.84 -29.218,19.354 -39.922,8.846 -111,9.069 -153.74,9.886 -3.179,0.63 -2.163,4.108 2.36,4.974 32.957,4.619 106.09,8.058 154.58,5.594 21.879,-1.112 39.237,-4.946 53.204,-16.834 6.641,-5.652 12.514,-13.141 17.74,-23.061 10.207,-7.345 11.839,-9.184 15.014,-14.719 0,0 3.116,-10.054 1.672,-10.959 -0.616,-0.386 -1.484,1.772 -2.158,2.709 -1.252,1.741 -3.495,5.402 -3.495,5.402 -5.981,8.26 -10.975,6.545 -16.841,13.404 -8.074,9.44 -13.396,15.907 -19.337,20.964 z"
       fill="#955318"
       fill-rule="nonzero"
       id="path10606"
       style="display:inline;fill:#000026;fill-opacity:1" />
    <path
       d="m 390.41,432.72 c -1.48,-0.606 -3.348,-1.216 -6,-1.781 -4.682,-0.645 -4.423,0.348 -7.969,0.406 -23.778,0.389 -55.245,-0.675 -61.312,-9.719 -2.779,-4.143 -1.527,-12.2 1.063,-22 4.641,-17.567 14.37,-40.125 15.812,-58.844 0.7,-9.09 0.142,-17.246 -2.906,-23.781 0,0 6.396,-11.431 9.406,-21.094 3.836,-12.316 6.628,-26.969 11.031,-39.094 3.909,-10.764 11.224,-20.105 14.719,-29.156 3.668,-9.499 5.183,-19.008 5.906,-28.5 1.807,-23.736 -2.979,-46.641 -1.719,-54.719 -1.835,-0.041 -3.671,0.771 -4.875,2.156 0,0 -2.126,2.446 -4.469,5.625 -2.342,3.18 -6.616,6.813 -7.953,11.312 -1.583,5.323 -2.913,9.288 -3.709,11.968 -1.455,4.894 -6.899,9.56 -8.666,18 -1.831,8.75 -0.516,16.038 -1.062,22.469 -0.401,4.72 -0.897,11.05 -3.265,15.875 -3.086,6.286 -4.667,10.342 -8,15.5 -3.657,5.661 -8.698,11.551 -12.219,19.219 -2.751,5.993 -3.509,11.397 -5.156,13.969 -2.289,3.574 -6.825,6.992 -9.875,13.75 -3.131,6.939 -0.568,16.849 1.062,22.531 1.297,4.522 3.703,7.705 5.5,10.031 1.797,2.327 2.974,3.851 3.719,6.032 2.002,5.862 2.418,12.775 1.875,19.594 -1.211,15.186 -6.74,27.55 -9.145,46.523 -0.956,7.545 -3.108,17.067 0.5,26.688 1.554,4.143 1.754,6.631 5.667,8.473 3.317,1.561 12.54,0.846 15.693,0.996 9.696,1.694 2.77,1.207 11.015,4.911 2.88,0.081 4.276,0.452 7.176,0.484 2.197,-0.433 4.293,0.491 5.29,0.433 5.082,-0.291 10.751,-0.322 17.71,-0.801 1.871,-0.233 3.816,-0.502 5.718,-0.782 3.607,-0.756 3.373,-2.137 6.569,-1.952 4.193,0.241 7.33,2.117 9.467,2.351 1.781,0.194 2.62,0.929 4.295,1.566 1.621,0.617 4.707,0.851 6.382,1.303 1.552,0.418 3.251,-0.479 4.82,-0.13 1.706,0.378 2.995,1.917 4.689,2.344 1.39,0.351 2.871,0.007 4.299,0.13 1.529,0.132 3.121,0.115 4.559,0.652 2.178,0.812 3.998,2.388 5.862,3.777 0.963,0.718 2.735,2.345 2.735,2.345 l -0.651,-2.214 -5.08,-4.429 -3.648,-4.95 -3.386,-1.433 h -4.69 l -3.256,-2.214 -5.862,-0.261 z"
       fill="#dfbb90"
       fill-rule="nonzero"
       id="path10608"
       style="display:inline;fill:#000099;fill-opacity:1" />
    <path
       d="m 387.56,431.72 c -0.919,-0.271 -1.954,-0.525 -3.156,-0.781 -4.683,-0.645 -4.423,0.348 -7.969,0.406 -23.778,0.389 -55.245,-0.675 -61.312,-9.719 -2.78,-4.143 -1.527,-12.2 1.063,-22 4.641,-17.567 14.37,-40.125 15.812,-58.844 0.7,-9.09 0.141,-17.246 -2.907,-23.781 0,0 6.397,-11.431 9.407,-21.094 3.836,-12.316 6.627,-26.969 11.031,-39.094 3.909,-10.764 11.224,-20.105 14.719,-29.156 3.668,-9.499 5.183,-19.008 5.906,-28.5 1.621,-21.299 -2.35,-40.345 -2.218,-50.192 -0.073,-0.002 -0.146,-0.002 -0.219,0 -0.847,0.069 -1.662,0.482 -2.218,1.125 0,0 -2.05,2.335 -4.313,5.406 -2.263,3.072 -4.812,6.725 -5.906,10.406 -1.396,4.694 -0.986,7.665 -1.97,10.973 -1.677,5.641 -5.698,9.655 -7.281,17.219 -1.689,8.065 -0.413,15.213 -1,22.125 -0.452,5.31 -2.661,11.854 -5.156,16.938 -3.032,6.175 -4.669,10.414 -8.157,15.812 -3.799,5.881 -8.77,11.673 -12.062,18.844 -2.46,5.359 -3.164,10.91 -5.343,14.312 -2.629,4.105 -7.606,7.45 -10.294,13.406 -2.651,5.874 -1.687,12.382 -0.157,17.719 1.136,3.96 3.22,6.727 5,9.032 1.78,2.304 3.232,4.167 4.157,6.875 2.188,6.406 3.234,13.726 2.669,20.812 -1.288,16.153 -8.765,31.298 -11.059,49.398 -0.974,7.682 -2.899,16.69 0.312,25.25 1.279,3.408 0.886,5.233 4.006,7.003 3.332,1.89 7.574,1.364 10.647,1.51 3.074,0.146 5.352,-0.078 7.4,0.641 0.633,0.223 1.554,0.865 2.75,1.719 1.195,0.855 3.175,2.391 5.35,2.819 5.036,0.991 9.044,-1.028 11.812,-1.187 6.426,-0.369 13.618,1.112 21.312,-0.031 4.088,-0.608 5.465,-0.786 9.186,-1.487 4.448,-0.837 7.766,0.411 9.466,0.805 1.528,0.354 2.385,0.272 3.908,0.651 2.103,0.524 4.042,2.645 6.122,3.256 2.166,0.637 3.961,-0.393 6.122,0.261 1.648,0.499 2.645,2.384 4.299,2.866 1.959,0.57 4.094,0.106 6.122,-0.131 1.235,-0.144 3.647,-0.781 3.647,-0.781 l -2.084,-2.475 -3.387,-1.433 h -4.298 l -3.257,-2.214 -5.862,-0.261 z"
       fill="#e9d6be"
       fill-rule="nonzero"
       id="path10610"
       style="display:inline;fill:#0000b2;fill-opacity:1" />
    <path
       d="m 311.65,441.04 c 0,0 -11.442,-0.682 -15.197,-1.542 -4.833,-1.106 -6.128,-2.137 -7.048,-4.625 -1.131,-3.057 2.686,-8.302 3.524,-11.453 3.948,-14.845 3.524,-19.382 3.524,-19.382 l -10.352,27.31 v 6.387 l 5.726,3.745 8.37,1.101 z"
       fill="#b2742b"
       fill-rule="nonzero"
       id="path10612"
       style="display:inline;fill:#00004d;fill-opacity:1" />
    <path
       d="m 296.21,389.97 c -0.299,30.782 -13.632,37.866 -11.198,46.472 1.287,4.551 5.014,6.469 12.265,7.424 3.055,0.402 12.265,-1.431 12.265,-1.431 16.407,0.345 35.007,1.657 52.51,0.477 5.868,-0.396 14.646,-2.409 17.604,-1.771 3.206,0.691 9.521,3.204 14.546,4.434 4.768,1.166 9.605,1.855 14.421,2.184 l 5.082,0.721 7.966,7.329 1.833,0.877 1.115,3.505 1.832,1.115 -0.956,-7.409 c 0,0 -1.082,-0.741 -1.832,-0.796 -0.664,-0.05 -1.912,0.398 -1.912,0.398 0,0 -3.796,-4.109 -6.293,-5.178 -0.961,-0.411 -3.112,-0.377 -3.112,-0.377 -6.123,-1.559 -12.868,-2.881 -18.607,-4.285 -4.645,-1.137 -9.468,-2.822 -13.394,-3.668 -2.784,-0.601 -4.539,-0.356 -7.883,0.119 -3.344,0.474 -8.413,1.098 -11.094,1.279 -17.194,1.159 -35.247,-0.386 -52.116,-1.062 0,0 -2.59,0.118 -5.187,0.515 -2.598,0.397 -5.884,0.415 -6.375,0.35 -3.42,-0.45 -5.759,-1.152 -7.157,-1.969 -1.397,-0.817 -2.3,-1.483 -2.755,-3.092 -0.369,-1.305 -0.993,-2.517 -0.198,-4.565 0.795,-2.047 1.897,-5.448 3.484,-8.906 3.174,-6.916 6.77,-16.993 6.906,-32.844 0.012,-1.384 1.062,-11.44 -0.272,-11.069 z"
       fill="#955318"
       fill-rule="nonzero"
       id="path10614"
       style="display:inline;fill:#000026;fill-opacity:1" />
    <path
       d="m 341.77,238.37 c 0.431,-0.911 12.681,3.293 13.663,0.765 -12.064,-7.768 -5.197,-22.038 -4.691,-27.997 0.633,-7.442 -2.419,-9.69 -0.889,-17 1.382,-6.6 4.996,-7.47 6.918,-13.932 1.189,-4.002 1.116,-8.523 2.306,-12.524 1.654,-5.561 7.534,-11.12 7.534,-11.12 0.5,10.723 3.03,23.464 1.574,42.589 -0.591,7.765 -3.446,20.108 -6.823,22.267 -1.483,0.948 2.816,3.955 2.149,5.683 -2.238,5.793 -6.756,11.294 -10.743,17.326 l -6.677,-2.591 z m 9.55,8.317 c -1.674,2.71 -3.179,5.542 -4.277,8.565 -4.403,12.125 -7.195,27.7 -11.031,40.016 -1.893,6.077 -5.358,13.821 -9.757,17.046 l 2.838,4.673 c 3.048,6.536 3.62,14.691 2.919,23.781 -1.442,18.719 -11.193,41.293 -15.834,58.86 -2.589,9.801 -3.845,17.857 -1.065,22 6.067,9.044 37.548,10.113 61.326,9.724 3.546,-0.058 3.291,-1.068 7.973,-0.423 0,0 0.03,1.213 -3.746,1.889 -3.296,0.589 -10.24,0.618 -12.915,1.016 -6.934,1.03 -14.031,-0.402 -21.03,0 -3.68,0.211 -7.369,1.975 -10.985,1.264 -2.692,-0.53 -4.623,-2.171 -7.212,-3.08 -5.494,-1.93 -12.885,0.173 -17.949,-2.7 -2.414,-1.37 -2.299,-2.09 -3.274,-4.688 -2.773,-7.393 -0.409,-17.039 0.584,-24.872 2.172,-17.136 9.728,-32.336 11.101,-49.554 0.589,-7.38 0.183,-15.094 -2.21,-22.1 -2.246,-6.577 -7.212,-9.077 -9.128,-15.758 -1.422,-4.957 -2.121,-10.77 0,-15.47 2.29,-5.074 6.446,-8.284 9.448,-12.972 2.766,-4.318 3.434,-8.479 5.574,-13.139 3.041,-6.624 8.15,-12.933 12.106,-19.055 2.542,-3.936 4.153,-7.289 5.896,-11.001 0,0 1.635,1.691 2.408,2.209 2.633,1.766 8.242,3.769 8.242,3.769 z"
       fill="#f6f1e7"
       fill-rule="nonzero"
       id="path10616"
       style="display:inline;fill:#0000cc;fill-opacity:1" />
    <path
       d="m 304.04,429.7 c 0,0 1.845,2.898 3.266,3.756 1.627,0.982 3.663,1.087 5.551,1.306 3.298,0.383 6.655,-0.307 9.961,0 1.764,0.164 5.225,0.98 5.225,0.98 l 2.449,1.796 c 0,0 -4.202,-0.782 -6.531,-0.98 -3.908,-0.332 -7.863,0.96 -11.757,0.49 -2.138,-0.258 -4.51,-0.468 -6.205,-1.796 -3.386,-2.654 -1.959,-5.552 -1.959,-5.552 z"
       fill="#b2742b"
       fill-rule="nonzero"
       id="path10618"
       style="display:inline;fill:#00004d;fill-opacity:1" />
    <path
       d="m 297.05,383.13 c -1.335,-0.365 -2.887,4.049 -3.586,5.243 -2.944,5.031 -3.866,6.084 -14,13.375 -0.39,0.288 -0.713,0.665 -0.937,1.094 -5.075,9.632 -12.021,16.285 -18.31,21.638 -13.232,11.262 -27.611,14.494 -49.203,15.592 -36.29,1.844 -93.376,1.001 -132.08,-1.835 -8.003,-0.586 -24.015,-0.874 -22.6,-2.462 0.803,-0.901 14.122,-0.488 22.159,-0.777 40.295,-1.45 97.94,-1.566 128.6,-8.361 8.153,-1.807 15.146,-4.252 20.625,-7.719 5.479,-3.467 10.3,-7.858 11.773,-13.701 1.823,-7.229 -0.464,-16.246 -3.063,-25.625 -2.598,-9.379 -5.755,-19.031 -6.656,-25.906 -2.151,-16.405 -1.618,-23.047 -0.625,-33.094 0.758,-7.673 3.941,-16.92 9.562,-27.531 4.701,-8.874 12.832,-19.439 21.156,-30.5 5.361,-7.123 10.409,-13.413 15.969,-22.406 4.901,-7.925 7.884,-16.643 13.346,-22.965 5.517,-6.385 13.543,-12.899 19.192,-20.824 5.384,-7.554 6.857,-14.105 10.438,-21.375 3.681,-7.47 8.244,-15.335 16,-25.031 0.408,-0.514 0.652,-1.157 0.688,-1.812 0.116,-8.547 1.166,-21.387 5.524,-31.508 -5.369,10.241 -6.637,21.147 -7.268,31.786 -7.904,9.879 -12.648,18.036 -16.399,25.651 -3.751,7.615 -5.119,13.864 -10.143,20.913 -5.224,7.328 -13.96,14.282 -19.801,21.042 -5.841,6.76 -9.521,14.723 -14.289,22.436 -5.457,8.825 -10.434,15.024 -15.829,22.193 -8.309,11.04 -16.49,21.606 -21.407,30.888 -5.744,10.842 -9.105,20.448 -9.924,28.737 -0.996,10.085 -1.508,17.208 0.667,33.796 1.943,14.822 12.724,38.692 9.784,50.353 -2.482,9.842 -13.359,15.84 -29.218,19.354 -39.922,8.846 -111,9.068 -153.74,9.886 -3.179,0.63 -2.163,4.107 2.36,4.974 32.957,4.619 106.09,8.057 154.58,5.594 21.879,-1.112 39.237,-4.946 53.204,-16.834 6.64,-5.653 12.514,-13.141 17.74,-23.061 10.207,-7.345 12.013,-8.602 15.06,-13.708 0.504,0.601 1.34,-6.704 0.647,-7.509 z"
       fill="#854715"
       fill-rule="nonzero"
       id="path10620"
       style="display:inline;fill:#00001a;fill-opacity:1" />
    <path
       d="m 349.76,104.34 c 7.321,-2.393 20.942,1.963 28.593,5.058 -3.537,-2.883 -10.804,-5.804 -15.589,-7.232 -4.955,-1.477 -11.268,-1.221 -13.003,2.174 z"
       fill="#d4a061"
       fill-rule="nonzero"
       id="path10622"
       style="display:inline;fill:#0000b2;fill-opacity:1" />
    <path
       d="m 387.37,137.06 c 0,0 -0.323,0.288 -1.143,0.443 -1.216,0.229 -3.644,1.707 -4.869,1.882 -3.924,0.561 -8.742,-1.912 -11.881,0.186 -0.889,0.595 -1.468,1.706 -1.633,2.763 -0.115,0.742 0.503,2.197 0.503,2.197 0,0 0.369,-1.824 0.941,-2.511 0.547,-0.656 1.344,-1.313 2.198,-1.319 5.198,-0.035 15.947,1.382 15.947,1.382 l 3.704,-0.691 1.37,-1.589 1.358,-0.214 1.43,-2.145 1.43,0.572 0.644,-1.287 0.429,-9.795 -1.502,2.145 c 0,0 -0.753,1.156 -1.358,1.216 -0.745,0.072 -1.931,-1.144 -1.931,-1.144 l -2.287,-0.501 -1.43,0.286 -0.93,-0.929 c 0,0 -0.872,0.583 -0.357,1.43 1.293,2.125 3.037,0.337 4.647,2.073 1.457,1.572 1.741,4.528 0.643,6.22 -0.686,1.058 -2.645,0.786 -2.645,0.786 z"
       fill="#a4621b"
       fill-rule="nonzero"
       id="path10624"
       style="fill:#000040;fill-opacity:1" />
    <path
       d="m 392.55,140.09 -1.554,-2.02 -2.253,-1.165 -2.097,0.388 c 0,0 -1.266,0.797 -1.274,1.662 -0.005,0.591 0.55,1.155 1.088,1.399 0.826,0.375 1.48,0.42 2.361,0.202 0.608,-0.15 2.022,-0.732 2.022,-0.732 l 0.93,1.121 z"
       fill="#7d4114"
       fill-rule="nonzero"
       id="path10626"
       style="fill:#00004d;fill-opacity:1" />
    <g
       id="g27631">
      <path
         d="m 364.24,227.65 c 3.668,-9.499 5.196,-19.007 5.918,-28.499 2.07,-27.19 -4.546,-53.281 -0.769,-57.254 0.639,-0.672 1.763,-1.122 3.709,-1.108 6.21,0.046 17.993,2.976 19.549,-0.959 0.772,-0.051 1.85,-0.357 2.459,-2.379 1.953,1.559 2.216,-0.707 2.373,-1.509 0.413,-2.702 0.948,-7.638 -0.14,-10.213 -0.839,-1.983 -2.671,-2.904 -4.466,-4.093 -5.158,-3.416 -15.552,-9.076 -15.552,-9.076 0.887,-0.721 1.709,-1.584 1.391,-2.987 -0.433,-2.104 -13.77,-8.483 -22.574,-8.506 -2.62,-0.007 -4.833,0.587 -6.184,2.384 -5.196,-10.88 -14.199,-23.997 -21.56,-29.198 4.932,14.068 -1.496,29.178 12.555,42.251 -4.62,10.639 -6.553,21.279 -7.185,31.918 -7.903,9.879 -12.648,18.036 -16.399,25.651 -3.751,7.615 -5.118,13.864 -10.143,20.913 -5.223,7.328 -13.96,14.282 -19.801,21.042 -5.841,6.76 -9.52,14.723 -14.289,22.436 -5.456,8.824 -10.434,15.024 -15.829,22.193 -8.308,11.04 -16.49,21.606 -21.407,30.888 -5.743,10.842 -9.104,20.448 -9.923,28.737 -0.997,10.085 -1.508,17.208 0.666,33.796 1.943,14.822 12.724,38.692 9.784,50.353 -2.482,9.842 -13.359,15.84 -29.218,19.354 -39.922,8.846 -111,9.068 -153.74,9.885 -3.178,0.631 -2.162,4.108 2.36,4.975 32.957,4.619 106.09,8.057 154.58,5.594 21.879,-1.112 39.237,-4.947 53.204,-16.834 6.641,-5.653 12.514,-13.141 17.74,-23.061 9.722,-6.996 11.415,-8.561 14.188,-13.218 0.139,-0.233 0.591,-1.095 0.672,-1.155 -0.299,30.782 -13.632,37.866 -11.198,46.472 1.287,4.551 5.014,6.469 12.265,7.424 3.055,0.402 12.265,-1.431 12.265,-1.431 16.407,0.345 35.007,1.657 52.51,0.477 5.868,-0.396 14.646,-2.409 17.604,-1.771 3.207,0.691 9.522,3.204 14.546,4.434 5.998,1.467 12.106,2.179 18.234,2.605 4.504,0.833 6.699,6.961 10.93,8.234 0.315,1.545 0.954,4.596 2.68,4.42 0,0 0.256,-6.239 -1.441,-9.935 -0.957,-2.086 -3.534,-3.416 -5.01,-5.281 -2.164,-2.733 -3.262,-4.921 -6.348,-6.259 -2.339,-1.014 -6.067,-0.854 -6.067,-0.854 0,0 -2.457,-1.921 -3.639,-1.956 -10.361,-0.305 -8.457,-3.348 -19.129,-5.62 -4.682,-0.644 -4.427,0.366 -7.973,0.424 -23.778,0.389 -55.259,-0.68 -61.326,-9.724 -2.78,-4.143 -1.524,-12.2 1.065,-22 4.642,-17.567 14.391,-40.141 15.834,-58.86 0.701,-9.09 0.129,-17.246 -2.92,-23.781 0,0 6.401,-11.433 9.411,-21.096 3.836,-12.316 6.628,-26.957 11.031,-39.082 3.909,-10.764 11.212,-20.109 14.707,-29.16 z"
         fill="none"
         stroke="#6b3814"
         stroke-width="1px"
         id="path10628"
         style="display:inline;stroke:#000000;stroke-opacity:1;stroke-width:3.00000004;stroke-dasharray:none" />
    </g>
    <path
       d="m 334.55,87.676 c 0,0 2.16,5.976 3.657,8.503 2.509,4.234 6.774,6.746 8.96,11.155 0.447,0.901 0.677,1.922 0.732,2.926 0.211,3.873 -2.926,3.749 -2.926,3.749 0,0 -0.196,-1.974 -2.194,-3.841 -6.394,-5.972 -7.759,-14.942 -8.229,-22.492 z"
       fill="#854715"
       fill-rule="nonzero"
       id="path10630"
       style="fill:#00001a;fill-opacity:1" />
    <path
       d="m 368.69,118.58 c -2.204,1.651 -4.904,1.57 -6.738,-1.111 -0.31,-0.507 -0.655,-0.777 -1.656,-0.777 1.365,-1.309 3.372,-3.116 5.75,-2.876 2.785,0.343 3.407,3.642 3.407,3.642 0.525,0.924 -0.024,1.09 -0.763,1.122 z"
       fill="#743c1e"
       fill-rule="nonzero"
       id="path10632"
       style="fill:#000066;fill-opacity:1" />
    <path
       d="m 365.7,113.58 c -1.678,0 -3.036,1.355 -3.036,3.04 0,1.685 1.358,3.04 3.036,3.04 1.678,0 3.036,-1.355 3.036,-3.04 0,-1.685 -1.358,-3.04 -3.036,-3.04 z"
       fill="#4e250e"
       fill-rule="nonzero"
       id="path10634"
       style="display:inline" />
    <path
       d="m 365.7,114.24 c -1.319,0 -2.385,1.069 -2.385,2.382 0,1.313 1.066,2.382 2.385,2.382 1.319,0 2.385,-1.069 2.385,-2.382 0,-1.313 -1.066,-2.382 -2.385,-2.382 z"
       fill="#381805"
       fill-rule="nonzero"
       id="path10636" />
    <path
       d="m 390.79,138.45 -2.234,0.755 -1.731,-0.157 -0.41,-0.755 1.102,-0.945 1.92,0.032 z"
       fill="#472209"
       fill-rule="nonzero"
       id="path10638"
       style="display:inline;fill:#00004d;fill-opacity:1" />
    <path
       d="m 330.53,77.562 c 3.017,5.752 4.09,13.33 6.844,18.125 2.327,4.053 6.058,7.287 8.656,10.938 2.268,3.188 1.531,5.781 1.531,5.781 0,0 1.842,-2.776 -0.719,-6.375 -2.691,-3.783 -6.459,-6.939 -8.593,-10.844 -3.347,-6.122 -4.431,-14.956 -7.719,-17.625 z m 34.625,35.844 c -2.16,0.214 -3.923,1.847 -5.125,3 0,0 -0.432,0.351 -0.368,0.6 0.084,0.322 0.649,0.087 0.649,0.087 0.465,10e-4 0.706,0.068 0.875,0.157 0.17,0.088 0.301,0.213 0.438,0.437 0.968,1.414 2.199,2.18 3.5,2.344 1.3,0.164 2.645,-0.251 3.812,-1.125 0.316,-0.021 1.069,0.22 1.139,-0.135 0.21,-1.067 -0.471,-2.428 -0.92,-3.209 -0.537,-0.934 -1.519,-1.966 -3.062,-2.156 -0.325,-0.033 -0.629,-0.03 -0.938,0 z m 0.156,0.813 c 0.226,-0.019 0.454,-0.024 0.688,0 1.242,0.152 1.971,0.946 2.437,1.75 0.466,0.803 0.625,1.562 0.625,1.562 v 0.063 l 0.031,0.062 c 0.114,0.201 0.153,0.352 0.157,0.406 -0.029,0.014 -0.236,0.111 -0.563,0.125 h -0.125 l -0.125,0.063 c -1.037,0.776 -2.128,1.133 -3.187,1 -1.059,-0.134 -2.102,-0.734 -2.969,-2 -0.173,-0.283 -0.388,-0.546 -0.719,-0.719 -0.09,-0.047 -0.241,-0.03 -0.344,-0.062 1.139,-1.035 2.515,-2.12 4.094,-2.25 z m 32.094,12.031 c -0.48,0.338 -0.882,0.805 -1.156,1.281 -0.933,1.617 -0.531,3.562 -0.531,3.562 0,0 0.156,-1.513 1.969,-2.281 0.098,-0.041 0.204,-0.137 0.312,-0.187 z m -7.937,0.781 c -0.12,0.01 -0.228,0.029 -0.344,0.062 -0.522,0.149 -1.07,0.676 -1.094,1.219 -0.02,0.475 0.42,0.942 0.844,1.156 0.592,0.3 1.63,-0.066 2.281,0.063 2.824,0.556 3.188,2.344 3.188,2.344 0,0 -0.171,-2.938 -2.375,-4.094 -0.745,-0.391 -1.663,-0.824 -2.5,-0.75 z m 5.437,5.437 c 0.047,1.562 0.128,3.846 -0.406,5.375 l 0.937,0.344 c 0.553,-1.388 0.255,-4.708 -0.531,-5.719 z m -6.531,4.156 c -0.713,-0.017 -1.404,0.181 -1.969,0.625 -0.242,0.191 -0.394,0.426 -0.5,0.719 -0.106,0.293 -0.164,0.657 0.031,1 0.234,0.41 0.638,0.668 1.063,0.781 0.424,0.114 0.886,0.11 1.375,0.063 0.585,-0.056 1.227,-0.26 1.75,-0.469 0.398,-0.158 0.554,-0.248 0.687,-0.312 0.092,0.12 0.114,0.15 0.219,0.281 0.226,0.282 0.497,0.55 0.875,0.75 0.379,0.2 0.874,0.307 1.406,0.219 l -0.187,-1 c -0.347,0.057 -0.552,0.01 -0.75,-0.094 -0.198,-0.104 -0.379,-0.27 -0.563,-0.5 -0.351,-0.439 -0.673,-1.085 -1.343,-1.406 v -0.031 c -0.009,-0.005 -0.023,0.005 -0.032,0 -0.011,-0.007 -0.019,-0.025 -0.031,-0.032 -0.631,-0.368 -1.34,-0.577 -2.031,-0.593 z m 0,1 c 0.518,0.015 1.091,0.196 1.594,0.5 h 0.031 l 0.031,0.032 c 0.017,0.007 0.045,0.083 0.063,0.093 -0.142,0.064 -0.146,0.078 -0.344,0.157 -0.485,0.193 -1.092,0.401 -1.469,0.437 -0.426,0.041 -0.793,0.032 -1.031,-0.031 -0.238,-0.064 -0.341,-0.175 -0.438,-0.344 0.005,0.009 -0.01,-0.043 0.032,-0.156 0.041,-0.113 0.127,-0.234 0.187,-0.281 0.353,-0.278 0.826,-0.421 1.344,-0.407 z"
       fill="#6b3814"
       fill-rule="nonzero"
       id="path10640"
       style="display:inline;fill:#000080;fill-opacity:1" />
    <path
       d="m 397.22,126.88 c -0.265,0.255 -0.517,0.517 -0.687,0.813 -0.403,0.696 -0.535,1.465 -0.563,2.093 0.322,-0.462 0.792,-0.941 1.594,-1.281 0.002,-0.001 0.052,-0.024 0.062,-0.031 0.401,-0.364 0.469,-1.689 -0.406,-1.594 z m -7.719,0.625 c -0.094,0.008 -0.164,0.038 -0.25,0.063 -0.159,0.045 -0.353,0.156 -0.5,0.312 -0.147,0.156 -0.245,0.353 -0.25,0.469 -0.003,0.081 0.045,0.203 0.156,0.344 0.112,0.14 0.292,0.269 0.438,0.343 0.124,0.063 0.445,0.099 0.844,0.063 0.399,-0.037 0.853,-0.122 1.312,-0.031 0.813,0.16 1.441,0.417 1.938,0.718 -0.316,-0.605 -0.737,-1.195 -1.438,-1.562 -0.73,-0.383 -1.609,-0.776 -2.25,-0.719 z"
       fill="#472209"
       fill-rule="nonzero"
       id="path10642"
       style="display:inline;fill:#00004d;fill-opacity:1" />
    <path
       d="m 365.7,115.34 c -0.751,0 -1.301,0.56 -1.301,1.285 0,0.725 0.55,1.285 1.301,1.285 0.751,0 1.301,-0.56 1.301,-1.285 0,-0.725 -0.55,-1.285 -1.301,-1.285 z"
       fill="#1a1a1a"
       fill-rule="nonzero"
       id="path10644"
       style="display:inline;fill:#1a1a1a;fill-opacity:1" />
    <path
       d="m 367.66363,116.97815 c 0,0.43896 -0.36156,0.79942 -0.79942,0.79942 -0.43896,0 -0.80053,-0.36046 -0.80053,-0.79942 0,-0.43896 0.36157,-0.80053 0.79942,-0.80053 0.43897,0 0.80053,0.36157 0.80053,0.80053 z"
       fill="#ffffff"
       fill-rule="nonzero"
       id="path10646"
       style="display:inline;stroke-width:1.1057" />
    <path
       d="m 352.51,244.06 c 3.291,1.084 7.234,2.507 12.654,6.268 2.616,3.154 7.853,4.738 11.974,8.514 4.327,3.964 6.747,10.093 6.747,10.093 -2.107,7.424 2.079,13.109 0.82,23.098 0.192,3.214 1.02,3.065 1.991,5.53 0.31,1.417 -0.788,7.441 -1.149,9.061 1.429,-0.416 2.858,-0.786 4.287,-3.348 1.514,0.605 2.923,-1.155 3.207,-2.611 1.495,0.287 2.592,-1.378 2.608,-2.507 v -8.651 c 0,0 1.223,-2.766 1.339,-6.047 0.1,-2.832 -0.864,-6.047 -1.32,-8.199 -1.814,-8.552 -5.734,-15.422 -10.445,-22.786 -1.653,-2.584 -4.411,-5.672 -6.294,-8.094 -4.97,-6.39 -11.697,-11.18 -15.202,-15.987 -7.241,2.887 -12.047,9.98 -11.217,15.665 z"
       fill="#f6f1e7"
       fill-rule="nonzero"
       id="path10650"
       style="display:inline;fill:#0000cc;fill-opacity:1" />
    <path
       d="m 384.76,266.29 -7.974,-11.107 -9.968,-5.981 -14.525,-7.689 -7.69,-2.279 -3.133,-7.689 3.987,-7.405 c 0,0 -0.264,5.008 0.855,7.12 1.355,2.557 4.026,4.281 6.55,5.696 3.3,1.849 7.21,3.042 10.538,4.841 3.561,1.926 6.682,3.55 9.683,6.266 2.887,2.613 9.49,8.704 9.49,8.704 0,0 4.853,6.138 5.593,9.227 0.609,2.54 -0.958,5.184 -0.82,7.792 0.104,1.955 0.469,3.939 1.23,5.742 0.672,1.589 1.759,2.987 2.871,4.306 2.339,2.774 4.511,-2.256 4.511,-2.256 l -1.435,16.61 -6.767,5.947 v -6.972 l -1.845,-3.076 -0.41,-10.253 -1.026,-8.202 0.821,-7.382 z"
       fill="#e9d6be"
       fill-rule="nonzero"
       id="path10652"
       style="fill:#0000b2;fill-opacity:1" />
    <path
       d="m 388.37,296.91 c 0.028,0.092 0.049,0.186 0.063,0.281 0.181,0.833 0.133,1.459 0.062,2.313 -0.071,0.853 -0.199,1.813 -0.344,2.781 -0.023,0.152 -0.039,0.224 -0.062,0.375 0.072,-0.121 0.11,-0.111 0.187,-0.25 0.416,-0.751 1.416,-1.117 2.219,-0.813 0.016,0.007 -0.096,0.087 0.156,-0.156 0.253,-0.243 0.532,-0.804 0.594,-1.125 0.175,-0.935 1.192,-1.623 2.125,-1.437 0.035,0.007 0.015,0.036 0.188,-0.157 0.165,-0.184 0.271,-0.543 0.281,-0.562 v -8.656 c -0.002,-0.258 0.051,-0.515 0.156,-0.75 0,0 1.086,-2.477 1.188,-5.344 0.083,-2.365 -0.792,-5.472 -1.282,-7.781 -1.745,-8.228 -5.537,-14.87 -10.219,-22.188 -1.516,-2.371 -4.239,-5.464 -6.187,-7.969 -3.602,-4.631 -8.272,-8.491 -12,-12.312 -1.864,-1.911 -3.496,-3.808 -4.594,-5.906 -1.373,-3.334 -1.507,-7.397 1.983,-7.65 0.503,1.753 -0.12,4.002 1.403,6.277 l -0.648,2.406 c 3.48,4.846 10.275,9.661 15.284,16.101 1.883,2.422 4.641,5.51 6.294,8.094 4.711,7.365 8.631,14.234 10.445,22.786 0.456,2.152 1.42,5.368 1.32,8.199 -0.116,3.282 -1.34,6.048 -1.34,6.048 v 8.651 c -0.015,1.128 -1.112,2.793 -2.607,2.506 -0.284,1.456 -1.693,3.217 -3.207,2.611 -1.429,2.562 -2.858,2.933 -4.287,3.348 0.361,-1.62 1.459,-7.644 1.149,-9.061 -0.971,-2.465 -1.799,-2.316 -1.991,-5.53 1.259,-9.989 -2.927,-15.674 -0.82,-23.098 0,0 -2.42,-6.13 -6.747,-10.093 -4.121,-3.775 -9.358,-5.359 -11.974,-8.513 -11.463,-7.957 -16.319,-5.451 -22.378,-11.4 -3.095,-3.039 -5.165,-10.029 -5.165,-10.029 l 5.586,-7.8 c 0.228,0.677 -0.213,6.907 0.269,8.044 0.86,2.028 0.361,3.407 1.558,4.582 2.768,2.718 4.714,4.953 8.127,6.07 3.413,1.116 7.979,2.484 13.882,6.58 0.127,0.089 0.243,0.194 0.344,0.313 2.05,2.471 7.314,5.149 11.812,9.27 4.763,4.363 7.219,10.781 7.219,10.781 0.146,0.364 0.168,0.777 0.062,1.156 -0.934,3.292 -1.358,7.738 -0.729,11.319 0.615,3.503 1.34,7.597 0.75,12.719 h 0.031 c 0.087,1.455 0.216,1.822 0.469,2.312 l 1.616,-1.65 0.226,-5.657 -0.679,-5.091 c 0,0 1.866,1.851 2.263,3.055 0.721,2.184 0.437,4.642 0,6.901 -0.348,1.798 -2.051,5.099 -2.051,5.099 z"
       fill="#dfbb90"
       fill-rule="nonzero"
       id="path10654"
       style="display:inline;fill:#000099;fill-opacity:1" />
    <path
       d="m 298.49,415.66 c 0,0 -0.138,4.728 -0.653,7.021 -0.558,2.487 -2.759,4.641 -2.613,7.185 0.084,1.458 1.032,2.79 1.96,3.919 1.354,1.648 5.878,3.429 5.878,3.429 0,0 -5.164,0.772 -7.021,-0.164 -1.583,-0.797 -2.95,-2.267 -3.593,-3.918 -0.71,-1.826 -0.519,-2.846 0,-4.736 0.706,-2.565 2.89,-6.112 4.082,-8.49 0.766,-1.528 1.96,-4.246 1.96,-4.246 z"
       fill="#b2742b"
       fill-rule="nonzero"
       id="path10658"
       style="fill:#00004d;fill-opacity:1" />
    <path
       d="m 361.53,220.72 c -1.089,2.681 -0.119,5.285 1.625,7.75 0.375,0.53 0.776,1.066 1.219,1.594 l 0.844,-0.594 c -0.459,-0.538 -0.873,-1.06 -1.25,-1.594 -1.656,-2.339 -2.486,-4.588 -2.438,-7.156 z m -23.906,8.156 c 0,0 0.053,1.939 0.969,4.094 0.916,2.155 2.199,4.698 3.844,6.313 4.01,3.937 7.564,4.287 12.531,6.156 0.455,0.171 0.923,0.36 1.406,0.562 l 0.312,-0.969 c -0.468,-0.193 -0.933,-0.365 -1.375,-0.531 -5.073,-1.908 -8.365,-2.184 -12.188,-5.937 -1.45,-1.424 -2.732,-3.869 -3.625,-5.969 -0.892,-2.1 -1.875,-3.719 -1.875,-3.719 z m 50.406,53.125 c 0,0 0.34,2.73 0.469,4.75 0.104,1.63 0.061,3.54 -0.282,5.094 -0.312,1.42 -1.329,2.504 -1.75,4.219 -0.141,0.577 -0.196,1.308 -0.218,1.937 l 1,0.032 c 0.021,-0.6 0.083,-1.324 0.187,-1.75 0.348,-1.419 1.369,-2.489 1.75,-4.219 0.375,-1.701 0.421,-3.679 0.313,-5.375 -0.143,-2.233 -1.469,-4.688 -1.469,-4.688 z m 3.687,7.75 c -0.117,3.995 -0.928,5.152 -1.625,7.719 -0.185,0.683 -0.279,1.595 -0.375,2.531 -0.095,0.936 -0.205,1.892 -0.343,2.563 -0.07,0.337 -0.241,0.947 -0.375,1.125 l 0.812,0.593 c 0.388,-0.513 0.491,-1.15 0.563,-1.5 0.157,-0.763 0.248,-1.756 0.343,-2.687 0.096,-0.931 0.198,-1.835 0.344,-2.375 0.664,-2.448 1.554,-3.909 0.656,-7.969 z m 2.125,1.781 c 0,0 -0.417,1.998 -0.5,2.875 -0.122,1.303 -0.59,2.647 -0.781,4.094 -0.122,0.93 -0.187,2.656 -0.187,2.656 l 1,0.063 c 0,0 0.08,-1.778 0.187,-2.594 0.173,-1.309 0.393,-2.909 0.531,-4.375 0.101,-1.065 -0.25,-2.719 -0.25,-2.719 z m -74.062,15.094 c -0.107,0.013 -0.175,0.043 -0.187,0.094 -0.034,0.137 0.267,0.465 1.125,1.063 2.332,1.624 4.236,3.518 5.75,5.656 1.514,2.137 2.638,4.518 3.469,7.125 l 0.469,-0.156 0.5,-0.125 c -0.858,-2.691 -2.047,-5.197 -3.625,-7.438 -1.579,-2.241 -3.637,-4.588 -5.782,-5.719 -0.707,-0.372 -1.397,-0.537 -1.718,-0.5 z m -21.219,108 c 0,0 -0.5,3.658 -1.187,5.563 -0.603,1.672 -1.506,3.003 -2.313,4.406 -0.806,1.404 -1.54,2.88 -1.75,4.813 -0.193,1.788 0.22,3.485 1.063,4.812 0.843,1.327 3.388,2.57 5.437,2.313 -1.688,-0.715 -3.909,-1.767 -4.593,-2.844 -0.685,-1.077 -1.083,-2.53 -0.907,-4.156 0.189,-1.742 0.84,-3.072 1.625,-4.438 0.786,-1.365 1.725,-2.758 2.375,-4.562 0.772,-2.139 0.25,-5.907 0.25,-5.907 z m 5.407,14.219 c 0,0 -0.497,0.94 0.093,2.063 0.591,1.123 1.639,2.446 3.907,3.344 5.003,1.979 11.212,0.574 16.188,1.219 1.866,0.241 3.639,0.683 5.687,1.437 -1.163,-1.647 -3.83,-2.185 -5.562,-2.406 -5.247,-0.67 -11.389,0.624 -15.969,-1.188 -2.068,-0.818 -2.886,-1.945 -3.375,-2.875 -0.489,-0.929 -0.969,-1.593 -0.969,-1.593 z"
       fill="#6b3814"
       fill-rule="nonzero"
       id="path10660"
       style="fill:#000080;fill-opacity:1" />
    <path
       d="m 341.4,115.36 c 0,0 0.923,0.285 1.208,0 0.475,-0.475 0,-2.014 0,-2.014 0,0 -4.933,-6.019 -6.633,-9.848 -1.315,-2.959 -2.166,-7.31 -2.543,-10.527 -0.671,-5.723 -2.346,-10.644 -2.346,-10.644 0.658,7.717 0.604,13.753 2.364,19.994 1.377,4.884 3.73,9.352 7.95,13.04 z"
       fill="#e9d6be"
       fill-rule="nonzero"
       id="path10662"
       style="fill:#0000b2;fill-opacity:1" />
    <path
       d="m 393.84,126.51 c -1.74,-0.466 -2.969,-1.371 -5.866,-0.845 l -11.689,-6.279 c -2.365,-1.574 -4.535,-3.176 -4.431,-5.103 -0.233,-0.658 1.075,-2.064 3.413,-0.494 l 14.248,7.887 c 3.186,1.72 3.977,3.291 4.325,4.834 z"
       fill="#d4a061"
       fill-rule="nonzero"
       id="path10664"
       style="display:inline;fill:#0000b2;fill-opacity:1" />
    <path
       d="m 373.53,124.18 c 2.281,2.803 -1.141,7.674 -3.753,10.171 -3.46,3.307 -8.241,4.217 -12.955,3.39 -3.912,-0.686 -7.38,-2.344 -9.081,-5.933 -1.747,-3.685 -1.984,-8.712 -0.727,-12.592 0.753,-2.321 2.511,-4.35 4.601,-4.479 2.901,-0.18 -2.539,5.088 -0.484,7.143 1.37,1.37 3.932,-0.469 5.812,0 2.084,0.52 3.606,2.507 5.69,3.027 1.958,0.488 4.042,0.15 6.054,0 1.628,-0.121 3.813,-1.992 4.843,-0.726 z"
       fill="#cc8b3e"
       fill-rule="nonzero"
       id="path10666"
       style="fill:#000080;fill-opacity:1" />
    <path
       d="m 365.44,75.778 c -2.031,4.877 -5.262,9.487 -6.435,14.853 -0.343,1.565 -0.7,3.631 -0.718,5.595 -0.018,1.964 0.337,4.243 0.337,4.243 l 1.677,0.109 c 0,0 -0.498,-2.149 -0.481,-4.086 0.018,-1.937 0.212,-3.871 0.516,-5.264 1.117,-5.106 4.063,-9.998 6.01,-15.076 1.213,-3.161 1.485,-6.335 1.485,-6.335 0,0 -1.756,4.436 -2.391,5.96 z"
       fill="#a4621b"
       fill-rule="nonzero"
       id="path10668"
       style="display:inline;fill:#000040;fill-opacity:1" />
    <g
       id="g27625"
       style="display:inline">
      <path
         d="m 355.13,244.98 c 2.747,1.034 5.974,2.539 10.028,5.352 2.617,3.154 7.853,4.738 11.974,8.514 4.327,3.964 6.747,10.093 6.747,10.093 -2.107,7.424 2.079,13.109 0.82,23.098 0.192,3.214 1.02,3.065 1.991,5.53 0.31,1.417 -0.788,7.441 -1.149,9.061 1.429,-0.415 2.858,-0.786 4.287,-3.348 1.514,0.605 2.923,-1.155 3.207,-2.611 1.495,0.287 2.592,-1.378 2.608,-2.507 v -8.65 c 0,0 1.223,-2.767 1.339,-6.048 0.1,-2.832 -0.864,-6.047 -1.32,-8.199 -1.814,-8.552 -5.734,-15.422 -10.445,-22.786 -1.653,-2.584 -4.411,-5.672 -6.294,-8.094 -5.048,-6.49 -11.909,-11.33 -15.364,-16.213"
         fill="none"
         stroke="#6b3814"
         stroke-width="1px"
         id="path10656"
         style="display:inline;stroke-width:3.00000004;stroke-dasharray:none;stroke:#000000;stroke-opacity:1" />
    </g>
  </g>
</svg>
