<?xml version="1.0" encoding="UTF-8" standalone="no"?>
<!-- Created with Inkscape (http://www.inkscape.org/) -->

<svg
   width="768"
   height="512"
   viewBox="0 0 203.2 135.46667"
   version="1.1"
   id="SVGRoot"
   inkscape:version="1.2.1 (9c6d41e410, 2022-07-14)"
   sodipodi:docname="native_shieldholder.svg"
   inkscape:export-filename="native_shieldholder.png"
   inkscape:export-xdpi="96"
   inkscape:export-ydpi="96"
   xmlns:inkscape="http://www.inkscape.org/namespaces/inkscape"
   xmlns:sodipodi="http://sodipodi.sourceforge.net/DTD/sodipodi-0.dtd"
   xmlns="http://www.w3.org/2000/svg"
   xmlns:svg="http://www.w3.org/2000/svg"
   xmlns:rdf="http://www.w3.org/1999/02/22-rdf-syntax-ns#"
   xmlns:cc="http://creativecommons.org/ns#"
   xmlns:dc="http://purl.org/dc/elements/1.1/">
  <sodipodi:namedview
     id="base"
     pagecolor="#ffffff"
     bordercolor="#666666"
     borderopacity="1.0"
     inkscape:pageopacity="0.0"
     inkscape:pageshadow="2"
     inkscape:zoom="0.35"
     inkscape:cx="1412.8571"
     inkscape:cy="971.42857"
     inkscape:document-units="mm"
     inkscape:current-layer="SVGRoot"
     showgrid="false"
     inkscape:window-width="853"
     inkscape:window-height="623"
     inkscape:window-x="-8"
     inkscape:window-y="-8"
     inkscape:window-maximized="1"
     inkscape:showpageshadow="0"
     inkscape:pagecheckerboard="true"
     inkscape:deskcolor="#d1d1d1" />
  <defs
     id="defs10953" />
  <metadata
     id="metadata10956">
    <rdf:RDF>
      <cc:Work
         rdf:about="">
        <dc:format>image/svg+xml</dc:format>
        <dc:type
           rdf:resource="http://purl.org/dc/dcmitype/StillImage" />
      </cc:Work>
    </rdf:RDF>
  </metadata>
  <g
     id="g496"
     transform="matrix(0.35911586,0,0,0.35911586,62.270485,2.6455193)"
     inkscape:label="native_shieldholder">
    <g
       id="g288"
       inkscape:label="pijlenhouder">
      <g
         id="g3529"
         inkscape:label="pijlen"
         transform="translate(-3.0526144,3.0526144)">
        <g
           id="g3540"
           inkscape:label="pijlen">
          <path
             fill="#bc312e"
             stroke="#383634"
             stroke-miterlimit="10"
             d="m 166.371,52.847 c 0,0 -10.276,8.689 -10.452,28.042 0,0 10.795,-11.492 10.452,-28.042 z"
             id="path208"
             style="fill:#00ff7f;fill-opacity:1;stroke:#000000;stroke-width:1.00959;stroke-dasharray:none;stroke-opacity:1" />
          <path
             fill="#bc312e"
             stroke="#383634"
             stroke-miterlimit="10"
             d="m 176.123,47.712 c 0,0 -12.064,5.964 -16.886,24.708 0,0 13.242,-8.56 16.886,-24.708 z"
             id="path216"
             style="fill:#00ff7f;fill-opacity:1;stroke:#000000;stroke-width:1.00959;stroke-dasharray:none;stroke-opacity:1" />
          <path
             fill="#bc312e"
             stroke="#383634"
             stroke-miterlimit="10"
             d="m 177.86,48.703 c 0,0 -12.064,5.964 -16.886,24.708 0.001,0 13.242,-8.56 16.886,-24.708 z"
             id="path224"
             style="fill:#00ff7f;fill-opacity:1;stroke:#000000;stroke-width:1.00959;stroke-dasharray:none;stroke-opacity:1" />
          <path
             fill="#bc312e"
             stroke="#383634"
             stroke-miterlimit="10"
             d="m 179.598,49.693 c 0,0 -12.064,5.965 -16.886,24.708 0,0.001 13.241,-8.56 16.886,-24.708 z"
             id="path232"
             style="fill:#00ff7f;fill-opacity:1;stroke:#000000;stroke-width:1.00959;stroke-dasharray:none;stroke-opacity:1" />
          <path
             fill="#bc312e"
             stroke="#383634"
             stroke-miterlimit="10"
             d="m 181.335,50.684 c 0,0 -12.064,5.964 -16.886,24.708 0,0.001 13.241,-8.56 16.886,-24.708 z"
             id="path240"
             style="fill:#00ff7f;fill-opacity:1;stroke:#000000;stroke-width:1.00959;stroke-dasharray:none;stroke-opacity:1" />
          <path
             fill="#bc312e"
             stroke="#383634"
             stroke-miterlimit="10"
             d="m 183.073,51.675 c 0,0 -12.064,5.964 -16.886,24.708 0,0 13.241,-8.56 16.886,-24.708 z"
             id="path248"
             style="fill:#00ff7f;fill-opacity:1;stroke:#000000;stroke-width:1.00959;stroke-dasharray:none;stroke-opacity:1" />
          <path
             fill="#bc312e"
             stroke="#383634"
             stroke-miterlimit="10"
             d="m 184.81,52.666 c 0,0 -12.064,5.964 -16.886,24.708 0,0 13.242,-8.561 16.886,-24.708 z"
             id="path256"
             style="fill:#00ff7f;fill-opacity:1;stroke:#000000;stroke-width:1.00959;stroke-dasharray:none;stroke-opacity:1" />
          <path
             fill="#bc312e"
             stroke="#383634"
             stroke-miterlimit="10"
             d="m 186.547,53.656 c 0,0 -12.064,5.965 -16.886,24.708 0.001,10e-4 13.242,-8.56 16.886,-24.708 z"
             id="path264"
             style="fill:#00ff7f;fill-opacity:1;stroke:#000000;stroke-width:1.00959;stroke-dasharray:none;stroke-opacity:1" />
          <path
             fill="#bc312e"
             stroke="#383634"
             stroke-miterlimit="10"
             d="m 182.089,61.475 c 0,0 -12.064,5.964 -16.886,24.708 0,0 13.242,-8.56 16.886,-24.708 z"
             id="path272"
             style="fill:#00ff7f;fill-opacity:1;stroke:#000000;stroke-width:1.00959;stroke-dasharray:none;stroke-opacity:1" />
        </g>
        <g
           id="g3551"
           style="display:inline"
           inkscape:label="pijlen structuur">
          <path
             fill="none"
             stroke="#383634"
             stroke-miterlimit="10"
             d="m 170.229,79.078 c 0,0 4.924,-7.632 7.732,-10.364"
             id="path274"
             style="display:inline;stroke:#000000;stroke-width:1.00959;stroke-dasharray:none;stroke-opacity:1" />
        </g>
      </g>
      <g
         id="g3476"
         inkscape:label="pijlenhouder">
        <rect
           x="141.17"
           y="77.164001"
           transform="matrix(-0.8687,-0.4954,0.4954,-0.8687,230.0652,261.3197)"
           fill="#7c5b37"
           stroke="#383634"
           stroke-miterlimit="10"
           width="17.000999"
           height="46.000999"
           id="rect278"
           style="fill:#0000b2;fill-opacity:1;stroke:#000000;stroke-width:1.00956;stroke-dasharray:none;stroke-opacity:1" />
        <path
           fill="#7c5b37"
           stroke="#383634"
           stroke-miterlimit="10"
           d="m 171.053,85.875 c -0.82,1.438 -2.653,1.94 -4.092,1.12 l -14.768,-8.421 c -1.439,-0.821 -1.94,-2.653 -1.12,-4.093 v 0 c 0.82,-1.438 2.653,-1.939 4.092,-1.12 l 14.768,8.422 c 1.439,0.821 1.941,2.653 1.12,4.092 z"
           id="path280"
           style="display:inline;fill:#0000b2;fill-opacity:1;stroke:#000000;stroke-width:1.00959;stroke-dasharray:none;stroke-opacity:1" />
      </g>
      <g
         id="g3481"
         inkscape:label="pijlenhouder structuur">
        <line
           fill="none"
           stroke="#383634"
           stroke-miterlimit="10"
           x1="156.72701"
           y1="85.764"
           x2="161.939"
           y2="88.736"
           id="line282"
           style="stroke:#000000;stroke-width:1.00959;stroke-dasharray:none;stroke-opacity:1" />
        <line
           fill="none"
           stroke="#383634"
           stroke-miterlimit="10"
           x1="154.746"
           y1="89.238998"
           x2="159.95799"
           y2="92.210999"
           id="line284"
           style="stroke:#000000;stroke-width:1.00959;stroke-dasharray:none;stroke-opacity:1" />
        <line
           fill="none"
           stroke="#383634"
           stroke-miterlimit="10"
           x1="152.76401"
           y1="92.713997"
           x2="157.976"
           y2="95.685997"
           id="line286"
           style="stroke:#000000;stroke-width:1.00959;stroke-dasharray:none;stroke-opacity:1" />
      </g>
    </g>
    <g
       id="g3274"
       inkscape:label="boog achter">
      <path
         fill="none"
         stroke="#383634"
         stroke-miterlimit="10"
         d="m 53.763,93.543 c 0,0 -2.927,-28.875 2.74,-50.54"
         id="path204"
         style="display:inline;stroke:#000000;stroke-width:1.00959;stroke-dasharray:none;stroke-opacity:1"
         inkscape:label="path204" />
      <path
         fill="#bc312e"
         stroke="#383634"
         stroke-miterlimit="10"
         d="m 62.003,74.5 c 0,0 2.125,-22.166 -3.125,-30.541 0,0 0.417,-5.355 -2.542,-4.105 -2.959,1.25 -3.083,3.595 -0.958,4.97 2.125,1.375 4.226,27.676 2.801,29.676 z"
         id="path364"
         inkscape:label="boog"
         style="fill:#00ff7f;fill-opacity:1;stroke:#000000;stroke-width:1.00959;stroke-dasharray:none;stroke-opacity:1" />
    </g>
    <g
       id="g382"
       inkscape:label="benen">
      <path
         fill="#583823"
         stroke="#383634"
         stroke-miterlimit="10"
         d="m 121.503,208.5 h 27 c 0,0 -3.25,20.217 -2.75,28.357 0.5,8.142 4,25.018 7.25,28.518 3.25,3.5 3.5,19.813 2,26.313 -1.5,6.5 -0.983,25.525 0.883,29.966 1.866,4.441 4.997,10.395 7.557,11.395 0,0 1.69,2.477 0,4.727 -1.69,2.25 -11.19,7.738 -12.69,1.988 -1.5,-5.75 -5.75,-0.006 -4.75,-8.756 1,-8.75 -3.25,-10.254 -1.75,-17.254 1.5,-7 -0.75,-18.502 -3.75,-22.752 -3,-4.25 -5.25,-11.455 -4.5,-16.104 0.75,-4.647 -1,-19.396 -4,-21.646 -3,-2.25 -5.75,-17.978 -3.75,-24.988 0,-0.002 -5.75,-12.764 -6.75,-19.764 z"
         id="path372"
         style="fill:#000080;fill-opacity:1;stroke:#000000;stroke-width:1.00959;stroke-dasharray:none;stroke-opacity:1" />
      <path
         fill="#583823"
         stroke="#383634"
         stroke-miterlimit="10"
         d="m 114.503,209.5 h -29 c 0,0 0,13.749 2.667,21.75 0,0 -4,13.992 -1,23.601 0,0 -6.667,25.879 -6,34.546 0.667,8.667 -2,25.301 -5.667,29.635 0,0 -7.667,6.651 -9,11.318 0,0 -9.333,1.991 -11.667,6.325 -2.334,4.334 0.667,4.662 5,2.996 4.333,-1.666 14,-2.67 16.333,-5.669 2.333,-2.999 18.334,2.807 17.667,-5.973 -0.667,-8.778 -5.667,-9.694 -1.333,-19.028 4.334,-9.334 13,-31.335 8.667,-49.001 0,0 6.333,-7.334 4.333,-16 0,0 8,-25.334 9,-34.5 z"
         id="path384"
         style="fill:#000080;fill-opacity:1;stroke:#000000;stroke-width:1.00959;stroke-dasharray:none;stroke-opacity:1" />
    </g>
    <g
       id="g3452"
       inkscape:label="lendelap">
      <g
         id="g3262"
         inkscape:label="lendelap">
        <path
           fill="#bc312e"
           stroke="#383634"
           stroke-miterlimit="10"
           d="m 91.895,165.336 c 0,0 -7.225,-0.665 -4.725,11.836 0,0 -4.333,9.286 -6,11.561 -1.667,2.275 -4.833,13.26 -3.667,16.768 1.166,3.508 3.667,11.008 15.667,8.008 0,0 4.604,8.151 13.135,3.742 0,0 6.698,5.271 13.531,-0.652 0,0 6,4.742 15.333,-0.924 0,0 10.682,4.629 16.114,-3.264 5.432,-7.894 -0.963,-32.012 -6.796,-38.91 0,0 -2.151,-5.8 -6.317,-8.979 l -11.5,4.979 -20.204,2.5 -10.629,-2.5 z"
           id="path396"
           style="display:inline;fill:#00ff7f;fill-opacity:1;stroke:#000000;stroke-width:1.00959;stroke-dasharray:none;stroke-opacity:1" />
      </g>
      <g
         id="g410"
         inkscape:label="lendelap structuur"
         style="display:inline">
        <path
           fill="none"
           stroke="#383634"
           stroke-miterlimit="10"
           d="m 87.169,177.173 c 0,0 16.167,8.862 40.667,1.182"
           id="path398"
           style="stroke:#000000;stroke-width:1.00959;stroke-dasharray:none;stroke-opacity:1" />
        <path
           fill="none"
           stroke="#383634"
           stroke-miterlimit="10"
           d="m 144.487,173.5 c 0,0 -8.983,3.734 -11.65,4.038"
           id="path400"
           style="stroke:#000000;stroke-width:1.00959;stroke-dasharray:none;stroke-opacity:1" />
        <path
           fill="none"
           stroke="#383634"
           stroke-miterlimit="10"
           d="m 93.17,213.508 c 0,0 3.167,-11.335 3.583,-20.251"
           id="path402"
           style="stroke:#000000;stroke-width:1.00959;stroke-dasharray:none;stroke-opacity:1" />
        <path
           fill="none"
           stroke="#383634"
           stroke-miterlimit="10"
           d="m 106.305,217.25 c 0,0 2.344,-15.424 1.854,-21.75"
           id="path404"
           style="stroke:#000000;stroke-width:1.00959;stroke-dasharray:none;stroke-opacity:1" />
        <path
           fill="none"
           stroke="#383634"
           stroke-miterlimit="10"
           d="m 119.836,216.598 c 0,0 2,-12.295 -0.833,-21.109"
           id="path406"
           style="stroke:#000000;stroke-width:1.00959;stroke-dasharray:none;stroke-opacity:1" />
        <path
           fill="none"
           stroke="#383634"
           stroke-miterlimit="10"
           d="m 135.169,215.674 c 0,0 -0.666,-14.001 -2.333,-22.417"
           id="path408"
           style="stroke:#000000;stroke-width:1.00959;stroke-dasharray:none;stroke-opacity:1" />
      </g>
    </g>
    <g
       id="g3441"
       inkscape:label="torso">
      <g
         id="g3266"
         inkscape:label="torso"
         style="display:inline">
        <path
           fill="#583823"
           stroke="#383634"
           stroke-miterlimit="10"
           d="m 104.66,93.543 c 0,0 -12.658,0.537 -17.491,11.584 0,0 -11.166,6.583 -11,14.397 l -4.333,4.425 c 0,0 -5.333,-7.967 -7.333,-10.704 -2,-2.738 -8.167,-9.591 -5.167,-17.664 3,-8.074 6.5,-6.428 5.833,-13.333 -0.667,-6.906 -2.951,-12.322 -6.642,-11.031 -3.691,1.291 -13.691,3.357 -9.191,21.574 0,0 2.167,39.209 13.667,48.213 0,0 3.667,7.773 10,5.223 6.333,-2.55 5.833,-11.227 10.833,-13.139 5,-1.912 12.167,-9.05 12.917,-14.981 l 9.44,-19.351 z"
           id="path366"
           style="display:inline;fill:#000080;fill-opacity:1;stroke:#000000;stroke-width:1.00959;stroke-dasharray:none;stroke-opacity:1" />
        <path
           fill="#583823"
           stroke="#383634"
           stroke-miterlimit="10"
           d="m 151.283,122.38 c 0,0 4.637,6.948 10.97,4.12 0,0 0.427,9.096 -2.474,12.8 -2.901,3.704 -13.588,14.593 -14.922,21.649 -1.334,7.056 -8.122,17.713 -1.399,20.051 6.723,2.338 11.791,-1.338 13.087,-7.5 0,0 1.96,-2.838 -1.707,-1.5 -3.667,1.338 0.073,-8.46 1.703,-12.396 1.63,-3.935 22.6,-14.961 25.445,-24.908 2.845,-9.946 -2.483,-19.271 -8.483,-21.481 -6,-2.21 -19,-23.554 -33.667,-23.216 0,0 -6.5,-6.333 -10.167,-6 -3.667,0.333 -3.167,-7.5 -1.667,-10 L 125.335,66.832 109.003,54.5 h -8.5 c 0,0 -2.667,4.501 -3.333,6.501 0,0 -1.333,2.25 1.833,3.917 l -0.667,6.542 c 0,0 0.667,1.438 2.667,1.438 0,0 0.833,4.637 1.833,5.637 1,1 -0.5,4.483 1.5,4.983 2,0.5 6.833,-0.175 7,5.659 0,0 -7.167,-0.337 -11.167,5.996 -4,6.333 -11.333,22.568 -6,29.032 0,0 -1,3.799 0,5.297 0,0 -3.417,6.003 -1.875,8.499 1.542,2.497 -2.792,22.688 3.208,29.592 l 4.5,2.908 18.333,0.5 19.833,-6.479 c 0,0 1.667,-9.024 1,-11.858 -0.667,-2.834 2.525,-7.333 3.679,-9.333 1.154,-2.001 8.05,-13.899 8.436,-20.951 z"
           id="path412"
           style="display:inline;fill:#000080;fill-opacity:1;stroke:#000000;stroke-width:1.00959;stroke-dasharray:none;stroke-opacity:1" />
      </g>
      <g
         id="g470"
         style="display:inline"
         inkscape:label="torso structuur">
        <path
           fill="none"
           stroke="#383634"
           stroke-miterlimit="10"
           d="m 142.849,246.25 c 0,0 2.593,4.143 -3.012,7.791"
           id="path374"
           style="display:inline;stroke:#000000;stroke-width:1.00959;stroke-dasharray:none;stroke-opacity:1" />
        <path
           fill="none"
           stroke="#383634"
           stroke-miterlimit="10"
           d="m 149.836,268.483 c 0,0 4,10.518 2,18.185"
           id="path376"
           style="display:inline;stroke:#000000;stroke-width:1.00959;stroke-dasharray:none;stroke-opacity:1" />
        <path
           fill="none"
           stroke="#383634"
           stroke-miterlimit="10"
           d="m 146.836,319 c 0,0 0.333,4.001 3,6.334"
           id="path378"
           style="display:inline;stroke:#000000;stroke-width:1.00959;stroke-dasharray:none;stroke-opacity:1" />
        <path
           fill="none"
           stroke="#383634"
           stroke-miterlimit="10"
           d="m 141.642,231.5 c 0,0 -1.806,9.931 -3.806,11.049"
           id="path380"
           style="display:inline;stroke:#000000;stroke-width:1.00959;stroke-dasharray:none;stroke-opacity:1" />
        <path
           fill="none"
           stroke="#383634"
           stroke-miterlimit="10"
           d="m 95.836,248.75 c 0,0 -1.415,7.895 -5.333,8.167"
           id="path386"
           style="display:inline;stroke:#000000;stroke-width:1.00959;stroke-dasharray:none;stroke-opacity:1" />
        <path
           fill="none"
           stroke="#383634"
           stroke-miterlimit="10"
           d="m 90.503,236.108 c 0,0 5.333,-1.738 5.333,5.451"
           id="path388"
           style="display:inline;stroke:#000000;stroke-width:1.00959;stroke-dasharray:none;stroke-opacity:1" />
        <path
           fill="none"
           stroke="#383634"
           stroke-miterlimit="10"
           d="m 95.836,272.666 c 0,0 -5,24.313 -7.333,29.823"
           id="path390"
           style="display:inline;stroke:#000000;stroke-width:1.00959;stroke-dasharray:none;stroke-opacity:1" />
        <path
           fill="none"
           stroke="#383634"
           stroke-miterlimit="10"
           d="m 87.169,319 c 0,0 -1.48,4.997 -2.907,4.997"
           id="path392"
           style="display:inline;stroke:#000000;stroke-width:1.00959;stroke-dasharray:none;stroke-opacity:1" />
        <path
           fill="none"
           stroke="#383634"
           stroke-miterlimit="10"
           d="m 89.503,111.5 c 0,0 -4.837,15.272 -12.252,15.724"
           id="path368"
           style="stroke:#000000;stroke-width:1.00959;stroke-dasharray:none;stroke-opacity:1" />
        <path
           fill="none"
           stroke="#383634"
           stroke-miterlimit="10"
           d="m 66.503,133.751 c 0,0 -10,-15.456 -10.167,-25.268"
           id="path370"
           style="stroke:#000000;stroke-width:1.00959;stroke-dasharray:none;stroke-opacity:1" />
        <path
           fill="none"
           stroke="#383634"
           stroke-miterlimit="10"
           d="m 133.336,90 c 0,0 -15.167,6.338 -19,5.505"
           id="path414"
           style="stroke:#000000;stroke-width:1.00959;stroke-dasharray:none;stroke-opacity:1" />
        <path
           fill="none"
           stroke="#383634"
           stroke-miterlimit="10"
           d="m 108.503,91.505 c 0,0 -0.5,1.984 3.333,4.076"
           id="path416"
           style="stroke:#000000;stroke-width:1.00959;stroke-dasharray:none;stroke-opacity:1" />
        <path
           fill="none"
           stroke="#383634"
           stroke-miterlimit="10"
           d="m 111.836,106.545 c 0,0 -2.833,11.126 1,13.126 3.833,2 15.166,3.5 22.333,-2.833"
           id="path418"
           style="stroke:#000000;stroke-width:1.00959;stroke-dasharray:none;stroke-opacity:1" />
        <path
           fill="none"
           stroke="#383634"
           stroke-miterlimit="10"
           d="m 111.605,118.364 c 0,0 -10.436,4.266 -13.269,3.036"
           id="path420"
           style="stroke:#000000;stroke-width:1.00959;stroke-dasharray:none;stroke-opacity:1" />
        <path
           fill="none"
           stroke="#383634"
           stroke-miterlimit="10"
           d="m 108.159,126.5 c 0,0 -2.533,11.503 -1.678,14.503"
           id="path422"
           style="stroke:#000000;stroke-width:1.00959;stroke-dasharray:none;stroke-opacity:1" />
        <path
           fill="none"
           stroke="#383634"
           stroke-miterlimit="10"
           d="m 106.305,146.702 c 0,0 -1.364,5.135 0,8.635"
           id="path424"
           style="stroke:#000000;stroke-width:1.00959;stroke-dasharray:none;stroke-opacity:1" />
        <path
           fill="none"
           stroke="#383634"
           stroke-miterlimit="10"
           d="m 121.336,159.146 c 0,0 -0.997,8.909 -3,10.354"
           id="path426"
           style="stroke:#000000;stroke-width:1.00959;stroke-dasharray:none;stroke-opacity:1" />
        <path
           fill="none"
           stroke="#383634"
           stroke-miterlimit="10"
           d="m 105.699,161.336 c 0,0 -0.07,6.888 1.534,9.36"
           id="path428"
           style="stroke:#000000;stroke-width:1.00959;stroke-dasharray:none;stroke-opacity:1" />
        <path
           fill="none"
           stroke="#383634"
           stroke-miterlimit="10"
           d="m 95.169,148.836 c 0,0 1.334,4.667 1.167,6.5 -0.167,1.833 -0.333,8.167 2,10"
           id="path430"
           style="stroke:#000000;stroke-width:1.00959;stroke-dasharray:none;stroke-opacity:1" />
        <path
           fill="none"
           stroke="#383634"
           stroke-miterlimit="10"
           d="m 142.336,109.003 c 0,0 3.833,0.333 3.833,-1.667 0,-2 4.167,0.667 5.333,3"
           id="path432"
           style="stroke:#000000;stroke-width:1.00959;stroke-dasharray:none;stroke-opacity:1" />
        <path
           fill="none"
           stroke="#383634"
           stroke-miterlimit="10"
           d="m 151.283,122.38 c 0,0 -2.114,-2.71 -3.28,-5.71"
           id="path434"
           style="stroke:#000000;stroke-width:1.00959;stroke-dasharray:none;stroke-opacity:1" />
        <path
           fill="none"
           stroke="#383634"
           stroke-miterlimit="10"
           d="m 178.169,125.17 c 0,0 2.833,2 0,5.167 -2.833,3.167 -5.827,9.833 -9.164,10.667"
           id="path436"
           style="stroke:#000000;stroke-width:1.00959;stroke-dasharray:none;stroke-opacity:1" />
        <path
           fill="none"
           stroke="#383634"
           stroke-miterlimit="10"
           d="m 162.253,126.5 c 0,0 0.265,-3.41 2.257,-4.12"
           id="path438"
           style="stroke:#000000;stroke-width:1.00959;stroke-dasharray:none;stroke-opacity:1" />
        <path
           fill="none"
           stroke="#383634"
           stroke-miterlimit="10"
           d="m 149.643,172 c 0,0 0.649,6.098 3.754,7.384"
           id="path440"
           style="stroke:#000000;stroke-width:1.00959;stroke-dasharray:none;stroke-opacity:1" />
        <path
           fill="none"
           stroke="#383634"
           stroke-miterlimit="10"
           d="m 151.283,180.846 c 0,0 -6.113,-2.682 -4.947,-7.346"
           id="path442"
           style="stroke:#000000;stroke-width:1.00959;stroke-dasharray:none;stroke-opacity:1" />
        <path
           fill="none"
           stroke="#383634"
           stroke-miterlimit="10"
           d="m 145.503,179.384 c 0,0 -2.333,-0.503 -2,-3.692"
           id="path444"
           style="stroke:#000000;stroke-width:1.00959;stroke-dasharray:none;stroke-opacity:1" />
        <path
           fill="none"
           stroke="#383634"
           stroke-miterlimit="10"
           d="m 106.305,59.841 c 0,0 -3.469,0.167 -3.969,3.167 0,0 0,3 -0.833,3"
           id="path446"
           style="stroke:#000000;stroke-width:1.00959;stroke-dasharray:none;stroke-opacity:1" />
        <path
           fill="none"
           stroke="#383634"
           stroke-miterlimit="10"
           d="m 98.336,71.459 c 0,0 1.333,-0.548 3.167,0"
           id="path448"
           style="stroke:#000000;stroke-width:1.00959;stroke-dasharray:none;stroke-opacity:1" />
        <path
           fill="none"
           stroke="#383634"
           stroke-miterlimit="10"
           d="m 101.503,75.174 c 0,0 3.792,-1.334 5.729,0 0,0 -2.063,2.384 -4.396,3.359"
           id="path450"
           style="stroke:#000000;stroke-width:1.00959;stroke-dasharray:none;stroke-opacity:1" />
        <path
           fill="none"
           stroke="#383634"
           stroke-miterlimit="10"
           d="m 107.232,75.174 c 0,0 -2.777,-0.401 -5.336,1.383"
           id="path452"
           style="stroke:#000000;stroke-width:1.00959;stroke-dasharray:none;stroke-opacity:1" />
        <path
           fill="none"
           stroke="#383634"
           stroke-miterlimit="10"
           d="m 104.971,62.924 c 0,0 -0.699,0.917 0,2.417 0,0 0.489,-1.416 3.511,-1.208"
           id="path454"
           style="stroke:#000000;stroke-width:1.00959;stroke-dasharray:none;stroke-opacity:1" />
        <path
           fill="none"
           stroke="#383634"
           stroke-miterlimit="10"
           d="m 108.481,65.341 c 0,0 -1.009,1.833 -1.911,1.833"
           id="path456"
           style="stroke:#000000;stroke-width:1.00959;stroke-dasharray:none;stroke-opacity:1" />
        <path
           fill="none"
           stroke="#383634"
           stroke-miterlimit="10"
           d="m 113.169,64.133 c 0,0 -0.295,4.375 -1.564,5.208 -1.269,0.833 1.898,5.343 2.731,6.505"
           id="path458"
           style="stroke:#000000;stroke-width:1.00959;stroke-dasharray:none;stroke-opacity:1" />
        <path
           fill="none"
           stroke="#383634"
           stroke-miterlimit="10"
           d="m 103.904,83.32 c 0,0 3.222,0.021 4.577,-2.146"
           id="path460"
           style="stroke:#000000;stroke-width:1.00959;stroke-dasharray:none;stroke-opacity:1" />
        <path
           fill="none"
           stroke="#383634"
           stroke-miterlimit="10"
           d="m 98.336,61.508 c 0,0 -0.727,2.24 1.583,2.625"
           id="path462"
           style="stroke:#000000;stroke-width:1.00959;stroke-dasharray:none;stroke-opacity:1" />
        <path
           fill="none"
           stroke="#383634"
           stroke-miterlimit="10"
           d="m 114.336,83.32 c 0,0 2.333,0.688 0.833,5.021"
           id="path464"
           style="stroke:#000000;stroke-width:1.00959;stroke-dasharray:none;stroke-opacity:1" />
        <path
           fill="none"
           stroke="#383634"
           stroke-miterlimit="10"
           d="m 142.336,120.674 c 0,0 -3.167,4.766 -7.167,6.55"
           id="path466"
           style="stroke:#000000;stroke-width:1.00959;stroke-dasharray:none;stroke-opacity:1" />
        <path
           fill="none"
           stroke="#383634"
           stroke-miterlimit="10"
           d="m 139.361,124.202 c 0,0 1.64,6.127 -2.026,9.549"
           id="path468"
           style="stroke:#000000;stroke-width:1.00959;stroke-dasharray:none;stroke-opacity:1" />
      </g>
    </g>
    <g
       id="g3152"
       inkscape:label="haar">
      <path
         fill="#382723"
         stroke="#383634"
         stroke-miterlimit="10"
         d="m 99.92,50.168 c 0,0 -4.786,1.819 -3.167,5 0,0 -1.25,5.333 4.75,3.167 6,-2.166 6.813,-2.666 8.656,-1.333 1.843,1.333 0.233,9.399 5.513,10.172 5.28,0.771 1.331,4.328 5.664,5.994 4.333,1.666 1.5,7.942 10.667,3.388 9.167,-4.554 4,-5.888 3.167,-7.555 -0.833,-1.667 2.333,-2.196 0,-6.183 -2.333,-3.985 -16.5,-15.65 -35.25,-12.65 z"
         id="path474"
         style="display:inline;fill:#00004d;fill-opacity:1;stroke:#000000;stroke-width:1.00959;stroke-dasharray:none;stroke-opacity:1" />
    </g>
    <g
       id="g3149"
       inkscape:label="oorring">
      <path
         fill="#958131"
         stroke="#383634"
         stroke-miterlimit="10"
         d="m 117.503,74.581 c 0,0 0.336,-5.421 -2.499,0 -2.835,5.421 4.102,7.938 7.995,6.593 3.893,-1.345 1.663,-9.999 0,-9.002 -1.663,0.997 1.504,4.997 -1.663,5.497 -3.167,0.5 -3.528,-0.837 -3.833,-3.088 z"
         id="path476"
         style="fill:#00ff7f;fill-opacity:1;stroke:#000000;stroke-width:1.00959;stroke-dasharray:none;stroke-opacity:1" />
    </g>
    <g
       id="g3311"
       inkscape:label="verenkroon"
       style="display:inline">
      <g
         id="g3395"
         inkscape:label="verenkroon">
        <path
           fill="#bc312e"
           stroke="#383634"
           stroke-miterlimit="10"
           d="m 129.503,27.836 c 0,0 -7.525,11.157 -2.429,29.829 0,0 7.262,-13.996 2.429,-29.829 z"
           id="path302"
           style="fill:#00ff80;fill-opacity:1;stroke:#000000;stroke-width:1.00959;stroke-dasharray:none;stroke-opacity:1" />
        <path
           fill="#bc312e"
           stroke="#383634"
           stroke-miterlimit="10"
           d="m 125.503,26.836 c 0,0 -7.525,11.157 -2.429,29.829 0,0 7.262,-13.996 2.429,-29.829 z"
           id="path310"
           style="fill:#00ff80;fill-opacity:1;stroke:#000000;stroke-width:1.00959;stroke-dasharray:none;stroke-opacity:1" />
        <path
           fill="#bc312e"
           stroke="#383634"
           stroke-miterlimit="10"
           d="m 121.503,25.836 c 0,0 -7.525,11.157 -2.429,29.829 0,0 7.262,-13.996 2.429,-29.829 z"
           id="path318"
           style="fill:#00ff80;fill-opacity:1;stroke:#000000;stroke-width:1.00959;stroke-dasharray:none;stroke-opacity:1" />
        <path
           fill="#bc312e"
           stroke="#383634"
           stroke-miterlimit="10"
           d="m 117.503,24.836 c 0,0 -7.525,11.157 -2.429,29.829 0,0 7.262,-13.996 2.429,-29.829 z"
           id="path326"
           style="fill:#00ff80;fill-opacity:1;stroke:#000000;stroke-width:1.00959;stroke-dasharray:none;stroke-opacity:1" />
        <path
           fill="#bc312e"
           stroke="#383634"
           stroke-miterlimit="10"
           d="m 113.503,23.836 c 0,0 -7.525,11.157 -2.429,29.829 0,0 7.262,-13.996 2.429,-29.829 z"
           id="path334"
           style="fill:#00ff80;fill-opacity:1;stroke:#000000;stroke-width:1.00959;stroke-dasharray:none;stroke-opacity:1" />
        <path
           fill="#bc312e"
           stroke="#383634"
           stroke-miterlimit="10"
           d="m 109.503,22.836 c 0,0 -7.525,11.157 -2.429,29.829 0,0 7.262,-13.996 2.429,-29.829 z"
           id="path342"
           style="fill:#00ff80;fill-opacity:1;stroke:#000000;stroke-width:1.00959;stroke-dasharray:none;stroke-opacity:1" />
        <path
           fill="#bc312e"
           stroke="#383634"
           stroke-miterlimit="10"
           d="m 105.503,21.836 c 0,0 -7.525,11.157 -2.429,29.829 0,0 7.262,-13.996 2.429,-29.829 z"
           id="path350"
           style="fill:#00ff80;fill-opacity:1;stroke:#000000;stroke-width:1.00959;stroke-dasharray:none;stroke-opacity:1" />
        <path
           fill="#bc312e"
           stroke="#383634"
           stroke-miterlimit="10"
           d="m 101.503,20.836 c 0,0 -7.525,11.157 -2.429,29.829 0,0 7.262,-13.996 2.429,-29.829 z"
           id="path358"
           style="display:inline;fill:#00ff80;fill-opacity:1;stroke:#000000;stroke-width:1.00959;stroke-dasharray:none;stroke-opacity:1" />
      </g>
      <g
         id="g3405"
         inkscape:label="verenkroon structuur">
        <path
           fill="none"
           stroke="#383634"
           stroke-miterlimit="10"
           d="m 127.92,49.003 c 0,0 0.498,-9.068 1.583,-12.833"
           id="path304"
           style="stroke:#000000;stroke-width:1.00959;stroke-dasharray:none;stroke-opacity:1" />
        <path
           fill="none"
           stroke="#383634"
           stroke-miterlimit="10"
           d="m 123.92,48.003 c 0,0 0.498,-9.068 1.583,-12.833"
           id="path312"
           style="stroke:#000000;stroke-width:1.00959;stroke-dasharray:none;stroke-opacity:1" />
        <path
           fill="none"
           stroke="#383634"
           stroke-miterlimit="10"
           d="m 119.92,47.003 c 0,0 0.498,-9.068 1.583,-12.833"
           id="path320"
           style="stroke:#000000;stroke-width:1.00959;stroke-dasharray:none;stroke-opacity:1" />
        <path
           fill="none"
           stroke="#383634"
           stroke-miterlimit="10"
           d="m 115.92,46.003 c 0,0 0.498,-9.068 1.583,-12.833"
           id="path328"
           style="stroke:#000000;stroke-width:1.00959;stroke-dasharray:none;stroke-opacity:1" />
        <path
           fill="none"
           stroke="#383634"
           stroke-miterlimit="10"
           d="m 111.92,45.003 c 0,0 0.498,-9.068 1.583,-12.833"
           id="path336"
           style="stroke:#000000;stroke-width:1.00959;stroke-dasharray:none;stroke-opacity:1" />
        <path
           fill="none"
           stroke="#383634"
           stroke-miterlimit="10"
           d="m 107.92,44.003 c 0,0 0.498,-9.068 1.583,-12.833"
           id="path344"
           style="stroke:#000000;stroke-width:1.00959;stroke-dasharray:none;stroke-opacity:1" />
        <path
           fill="none"
           stroke="#383634"
           stroke-miterlimit="10"
           d="m 103.92,43.003 c 0,0 0.498,-9.068 1.583,-12.833"
           id="path352"
           style="stroke:#000000;stroke-width:1.00959;stroke-dasharray:none;stroke-opacity:1" />
        <path
           fill="none"
           stroke="#383634"
           stroke-miterlimit="10"
           d="m 99.92,42.003 c 0,0 0.498,-9.068 1.583,-12.833"
           id="path360"
           style="display:inline;stroke:#000000;stroke-width:1.00959;stroke-dasharray:none;stroke-opacity:1" />
      </g>
    </g>
    <g
       id="g3135"
       inkscape:label="banden">
      <path
         fill="#d3cec2"
         stroke="#383634"
         stroke-miterlimit="10"
         d="m 92.853,161.336 c 0,0 -3.35,3.03 -2.35,4.68 1,1.65 4.979,9.484 17.656,8.65 12.677,-0.834 27.177,-3.494 31.677,-9.331 4.5,-5.837 -3,-3.206 -4,-2.688 -1,0.518 -32.134,15.026 -42.983,-1.311 z"
         id="path472"
         style="display:inline;fill:#ff0078;fill-opacity:1;stroke:#000000;stroke-width:1.00959;stroke-dasharray:none;stroke-opacity:1"
         inkscape:label="heupband" />
      <path
         fill="#d3cec2"
         stroke="#383634"
         stroke-miterlimit="10"
         d="m 105.073,90.73 c 0,0 -7.61,37.984 34.654,65.434 0,0 1.853,2.28 -1.585,3.78 -3.438,1.5 -44.534,-21.759 -37.254,-65.946 -0.001,-0.001 0.58,-3.999 4.185,-3.268 z"
         id="path478"
         style="display:inline;fill:#ff0078;fill-opacity:1;stroke:#000000;stroke-width:1.00959;stroke-dasharray:none;stroke-opacity:1"
         inkscape:label="borstband" />
      <path
         fill="#d3cec2"
         stroke="#383634"
         stroke-miterlimit="10"
         d="m 129.525,54.321 c -0.112,0.906 -0.795,2.071 -1.896,1.937 L 97.44,52.534 c -1.102,-0.136 -2.332,-1.537 -2.22,-2.443 l 0.058,-0.469 c 0.112,-0.906 1.55,-1.194 2.652,-1.059 l 30.188,3.724 c 1.1,0.136 1.576,0.659 1.464,1.565 z"
         id="path488"
         inkscape:label="hoofdband"
         style="fill:#ff0078;fill-opacity:1;stroke:#000000;stroke-width:1.00959;stroke-dasharray:none;stroke-opacity:1" />
    </g>
    <g
       id="g3141"
       inkscape:label="vingers">
      <path
         fill="none"
         stroke="#383634"
         stroke-miterlimit="10"
         d="m 56.503,87.5 c 0,0 -1.772,-0.5 -2.574,1.75"
         id="path480"
         inkscape:label="path480"
         style="stroke:#000000;stroke-width:1.00959;stroke-dasharray:none;stroke-opacity:1" />
      <path
         fill="none"
         stroke="#383634"
         stroke-miterlimit="10"
         d="m 65.241,83.32 c 0,0 -6.988,-3.305 -10.738,0"
         id="path482"
         style="stroke:#000000;stroke-width:1.00959;stroke-dasharray:none;stroke-opacity:1" />
      <path
         fill="none"
         stroke="#383634"
         stroke-miterlimit="10"
         d="m 64.775,79.349 c 0,0 -6.221,-2.599 -9.559,0.526"
         id="path484"
         style="stroke:#000000;stroke-width:1.00959;stroke-dasharray:none;stroke-opacity:1" />
      <path
         fill="none"
         stroke="#383634"
         stroke-miterlimit="10"
         d="m 63.649,75.135 c 0,0 -6.096,-2.319 -8.434,0.71"
         id="path486"
         style="stroke:#000000;stroke-width:1.00959;stroke-dasharray:none;stroke-opacity:1" />
    </g>
    <g
       id="g3132"
       inkscape:label="boog voor">
      <path
         fill="none"
         stroke="#383634"
         stroke-miterlimit="10"
         d="m 50.836,121.118 c 0,0 9.333,82.798 -5.333,131.007"
         id="path490"
         style="stroke:#000000;stroke-width:1.00959;stroke-dasharray:none;stroke-opacity:1" />
      <path
         fill="none"
         stroke="#383634"
         stroke-miterlimit="10"
         d="m 45.503,253.917 c 0,0 -15.284,53.084 2.691,81.417"
         id="path492"
         style="stroke:#000000;stroke-width:1.00959;stroke-dasharray:none;stroke-opacity:1" />
      <path
         fill="#bc312e"
         stroke="#383634"
         stroke-miterlimit="10"
         d="m 56.503,87.5 h 5 c 0,0 -12.333,46.587 -15.667,58.75 -3.334,12.163 -6.951,78.379 2.358,106.25 9.309,27.871 13.309,83.813 -3.691,88.538 0,0 -4,1.191 -3.333,-2.476 0.667,-3.667 1.333,-5.033 4.5,-4.532 3.167,0.501 11.167,-31.182 1.167,-70.432 -10,-39.25 -15.333,-75.598 -8.333,-110.842 7,-35.244 14.665,-45.256 17.999,-65.256 z"
         id="path494"
         style="display:inline;fill:#00ff7f;fill-opacity:1;stroke:#000000;stroke-width:1.00959;stroke-dasharray:none;stroke-opacity:1"
         inkscape:label="boog" />
    </g>
  </g>
</svg>
