<?xml version="1.0" encoding="UTF-8" standalone="no"?>
<!-- Created with Inkscape (http://www.inkscape.org/) -->

<svg
   width="768mm"
   height="512mm"
   viewBox="0 0 768 512"
   version="1.1"
   id="SVGRoot"
   inkscape:version="1.2.1 (9c6d41e410, 2022-07-14)"
   sodipodi:docname="voortrekker_wagon.svg"
   inkscape:export-filename="voortrekker_wagon.png"
   inkscape:export-xdpi="96"
   inkscape:export-ydpi="96"
   xmlns:inkscape="http://www.inkscape.org/namespaces/inkscape"
   xmlns:sodipodi="http://sodipodi.sourceforge.net/DTD/sodipodi-0.dtd"
   xmlns:xlink="http://www.w3.org/1999/xlink"
   xmlns="http://www.w3.org/2000/svg"
   xmlns:svg="http://www.w3.org/2000/svg"
   xmlns:rdf="http://www.w3.org/1999/02/22-rdf-syntax-ns#"
   xmlns:cc="http://creativecommons.org/ns#"
   xmlns:dc="http://purl.org/dc/elements/1.1/">
  <sodipodi:namedview
     id="base"
     pagecolor="#ffffff"
     bordercolor="#666666"
     borderopacity="1.0"
     inkscape:pageopacity="0.0"
     inkscape:pageshadow="2"
     inkscape:zoom="0.35"
     inkscape:cx="1444.2857"
     inkscape:cy="971.42857"
     inkscape:document-units="mm"
     inkscape:current-layer="SVGRoot"
     showgrid="false"
     inkscape:window-width="853"
     inkscape:window-height="623"
     inkscape:window-x="-8"
     inkscape:window-y="-8"
     inkscape:window-maximized="1"
     inkscape:showpageshadow="0"
     inkscape:pagecheckerboard="true"
     inkscape:deskcolor="#d1d1d1" />
  <defs
     id="defs10953">
    <linearGradient
       inkscape:collect="always"
       id="linearGradient5567">
      <stop
         style="stop-color:#00001a;stop-opacity:1;"
         offset="0"
         id="stop5563" />
      <stop
         style="stop-color:#00001a;stop-opacity:0;"
         offset="1"
         id="stop5565" />
    </linearGradient>
    <linearGradient
       inkscape:collect="always"
       id="linearGradient5527">
      <stop
         style="stop-color:#000080;stop-opacity:1;"
         offset="0.13854352"
         id="stop5523" />
      <stop
         style="stop-color:#0000cc;stop-opacity:1;"
         offset="0.57548845"
         id="stop5535" />
      <stop
         style="stop-color:#000080;stop-opacity:1;"
         offset="0.92184722"
         id="stop5525" />
    </linearGradient>
    <linearGradient
       inkscape:collect="always"
       xlink:href="#linearGradient5527"
       id="linearGradient5531"
       x1="387.94305"
       y1="503.37302"
       x2="388.10571"
       y2="498.46652"
       gradientUnits="userSpaceOnUse" />
    <linearGradient
       inkscape:collect="always"
       xlink:href="#linearGradient5527"
       id="linearGradient5545"
       x1="344.16428"
       y1="518.81897"
       x2="344.59958"
       y2="515.44958"
       gradientUnits="userSpaceOnUse" />
    <linearGradient
       inkscape:collect="always"
       xlink:href="#linearGradient5527"
       id="linearGradient5561"
       x1="380.08539"
       y1="457.74387"
       x2="373.36026"
       y2="475.66528"
       gradientUnits="userSpaceOnUse" />
    <linearGradient
       inkscape:collect="always"
       xlink:href="#linearGradient5567"
       id="linearGradient5569"
       x1="339.31472"
       y1="478.62206"
       x2="372.074"
       y2="497.53563"
       gradientUnits="userSpaceOnUse" />
  </defs>
  <metadata
     id="metadata10956">
    <rdf:RDF>
      <cc:Work
         rdf:about="">
        <dc:format>image/svg+xml</dc:format>
        <dc:type
           rdf:resource="http://purl.org/dc/dcmitype/StillImage" />
      </cc:Work>
    </rdf:RDF>
  </metadata>
  <g
     id="g1205"
     transform="matrix(5.2645114,0,0,5.2645114,-1491.7049,-2333.3212)">
    <g
       id="g1207">
      <path
         id="path1209"
         fill="#e7e7e7"
         stroke="#000000"
         stroke-width="0.5"
         stroke-miterlimit="2.6131"
         d="m 368.699,510.308 c 3.658,0 6.646,-4.205 6.646,-9.358 0,-5.155 -2.981,-9.36 -6.646,-9.36 -3.659,0 -6.646,4.205 -6.646,9.36 10e-4,5.153 2.986,9.358 6.646,9.358 z"
         style="fill:#000080;fill-opacity:1" />
      <path
         id="path1211"
         stroke="#000000"
         stroke-width="0.5"
         stroke-miterlimit="2.6131"
         d="m 368.7,507.167 c 2.434,0 4.417,-2.795 4.417,-6.222 0,-3.43 -1.983,-6.225 -4.417,-6.225 -2.435,0 -4.418,2.795 -4.418,6.225 0,3.427 1.986,6.222 4.418,6.222 z" />
      <path
         id="path1213"
         fill="#fbfaf5"
         stroke="#000000"
         stroke-width="0.5"
         stroke-miterlimit="2.6131"
         d="m 362.056,500.946 c 0,-5.172 2.977,-9.36 6.646,-9.36 -2.389,-0.031 -3.496,0.206 -4.51,0.886 -5.123,3.431 -5.494,15.403 1.607,17.956 0,0 1.136,0.215 2.898,-0.119 -3.667,-0.001 -6.641,-4.193 -6.641,-9.363 z"
         style="fill:#00004d;fill-opacity:1" />
      <path
         id="path1215"
         fill="#bebebe"
         d="m 368.607,497.701 c 0,0 -0.343,-1.666 -0.619,-2.896 -0.646,0.146 -1.248,0.493 -1.771,0.992 l 1.447,2.975 -2.181,-2.095 c -0.352,0.521 -0.639,1.131 -0.843,1.801 l 2.824,2.243 -3.104,-0.979 c -0.054,0.39 -0.082,0.792 -0.082,1.204 0,0.262 0.014,0.52 0.033,0.771 l 3.271,0.146 -3.037,1.22 c 0.212,0.816 0.544,1.559 0.964,2.175 l 2.622,-2.134 -1.732,3.138 c 0.658,0.565 1.435,0.896 2.261,0.905 l 0.377,-3.622 0.646,3.468 c 0.777,-0.25 1.479,-0.789 2.039,-1.534 l -1.514,-2.478 2.09,1.545 c 0.245,-0.484 0.44,-1.022 0.58,-1.602 l -2.344,-2.131 2.515,1.181 c 0.042,-0.343 0.063,-0.69 0.063,-1.052 0,-0.641 -0.068,-1.259 -0.196,-1.84 l -1.802,0.199 1.652,-0.77 c -0.21,-0.705 -0.511,-1.346 -0.879,-1.892 l -1.836,1.437 1.139,-2.271 c -0.574,-0.56 -1.252,-0.929 -1.979,-1.048 z"
         style="fill:#0000b2;fill-opacity:1" />
    </g>
    <g
       id="g1217"
       style="display:inline">
      <path
         id="path1219"
         fill="#e7e7e7"
         stroke="#000000"
         stroke-width="0.5"
         stroke-miterlimit="2.6131"
         d="m 323.952,519.08 c 3.66,0 6.646,-4.205 6.646,-9.358 0,-5.155 -2.983,-9.357 -6.646,-9.357 -3.657,0 -6.646,4.202 -6.646,9.357 0.002,5.152 2.988,9.358 6.646,9.358 z"
         style="fill:#000080;fill-opacity:1" />
      <path
         id="path1221"
         stroke="#000000"
         stroke-width="0.5"
         stroke-miterlimit="2.6131"
         d="m 323.952,515.942 c 2.435,0 4.418,-2.795 4.418,-6.223 0,-3.429 -1.983,-6.224 -4.418,-6.224 -2.432,0 -4.416,2.795 -4.416,6.224 0,3.428 1.985,6.223 4.416,6.223 z" />
      <path
         id="path1223"
         fill="#fbfaf5"
         stroke="#000000"
         stroke-width="0.5"
         stroke-miterlimit="2.6131"
         d="m 317.309,509.722 c 0,-5.17 2.976,-9.36 6.646,-9.36 -2.389,-0.031 -3.493,0.206 -4.508,0.886 -5.124,3.432 -5.494,15.403 1.608,17.956 0,0 1.136,0.214 2.897,-0.12 -3.668,-0.004 -6.643,-4.193 -6.643,-9.362 z"
         style="display:inline;fill:#00004d;fill-opacity:1" />
      <path
         id="path1225"
         fill="#bebebe"
         d="m 323.861,506.477 c 0,0 -0.342,-1.667 -0.619,-2.896 -0.646,0.146 -1.25,0.495 -1.771,0.994 l 1.448,2.973 -2.182,-2.095 c -0.351,0.521 -0.637,1.131 -0.842,1.8 l 2.824,2.243 -3.104,-0.979 c -0.055,0.392 -0.084,0.792 -0.084,1.204 0,0.262 0.013,0.521 0.035,0.771 l 3.271,0.146 -3.037,1.219 c 0.213,0.818 0.544,1.56 0.964,2.176 l 2.622,-2.134 -1.733,3.138 c 0.66,0.564 1.435,0.896 2.262,0.904 l 0.378,-3.62 0.646,3.467 c 0.776,-0.25 1.479,-0.79 2.039,-1.534 l -1.515,-2.477 2.09,1.544 c 0.245,-0.485 0.44,-1.022 0.581,-1.601 l -2.344,-2.132 2.515,1.181 c 0.041,-0.341 0.063,-0.69 0.063,-1.05 0,-0.643 -0.068,-1.262 -0.195,-1.843 l -1.801,0.2 1.652,-0.77 c -0.209,-0.705 -0.512,-1.347 -0.88,-1.892 l -1.834,1.437 1.138,-2.271 c -0.574,-0.56 -1.25,-0.929 -1.979,-1.048 z"
         style="display:inline;fill:#0000b2;fill-opacity:1" />
    </g>
    <path
       id="path1227"
       fill="#e7e7e7"
       stroke="#000000"
       stroke-width="0.5"
       stroke-miterlimit="2.6131"
       d="m 348.208,469.49 c 0.438,2.065 2.785,2.892 2.785,2.892 0,0 0.199,-0.321 0.615,-0.805 v 10.007 l -36.521,10.701 4.757,4.162 c 0,0 -1.104,1.653 -1.021,3.607 0.029,0.698 0.271,1.323 0.574,1.838 -1.912,1.484 -2.674,3.675 -2.674,3.675 l 12.68,6.86 c 1.764,-1.915 3.761,-2.241 6.334,-1.642 0.664,-1.285 1.537,-2.361 2.6,-3.094 1.095,-0.753 2.293,-1.021 4.877,-0.98 1.438,0 2.773,0.609 3.896,1.661 l 5.432,-1.557 3.058,2.123 7.05,-2.379 -0.041,-3.396 1.313,-0.255 0.979,1.314 8.909,-2.886 c 0.07,-1.448 0.307,-3.019 0.751,-4.708 0.313,-1.184 0.729,-2.425 1.267,-3.727 l 0.646,-0.077 3.82,-5.353 1.979,-0.438 2.638,0.156 c 0.598,-0.105 1.203,-0.13 1.813,-0.056 4.974,0.607 8.328,7.29 7.498,14.922 -0.021,0.177 -0.04,0.351 -0.063,0.521 l 2.906,-1.081 1.229,-2.591 -0.089,-0.48 1.744,-0.324 0.596,-0.765 -0.723,-4.246 -1.063,-0.512 -1.563,0.425 -0.136,-0.723 -2.633,-0.17 0.813,-3.979 -3.442,0.906 3.547,-0.938 3.546,-0.935 -0.17,-2.251 -2.251,0.085 -2.146,-1.515 -0.444,-7.28 -0.085,-11.554 c 0,0 -0.085,-1.865 -2.038,-2.973 -1.952,-1.105 -13.249,-5.689 -13.249,-5.689 0,0 -1.698,0.938 -3.734,1.529 -0.736,0.213 -1.494,0.207 -2.162,0.11 -1.186,-0.171 -2.084,-0.621 -2.084,-0.621 0,0 -1.953,2.123 -3.651,2.208 -1.697,0.085 -4.331,0 -4.331,0 -0.771,2.118 -7.068,1.842 -8.961,1.571 l -4.411,6.143 c -0.213,0.043 -0.429,0.083 -0.646,0.118 -0.403,0.976 -0.462,1.776 -0.32,2.446 z"
       style="display:inline;fill:#000080;fill-opacity:1" />
    <path
       id="path1229"
       fill="none"
       stroke="#000000"
       stroke-width="0.5"
       stroke-miterlimit="2.6131"
       d="m 351.609,471.224 v 10.359 l -36.521,10.701 4.757,4.161 c 0,0 -1.104,1.654 -1.02,3.608 0.084,1.951 1.826,3.313 1.826,3.313 0,0 1.568,-0.215 1.78,-0.937 0.216,-0.724 -0.637,-0.682 -0.637,-1.826 0,-1.146 0.552,-2.888 0.552,-2.888 l 9.979,3.692 c 0,0 -0.825,3.164 -0.57,4.501 0.255,1.338 0.893,1.739 1.911,1.527 1.021,-0.212 1.063,-0.978 0.849,-1.781 -0.212,-0.81 -0.359,-1.442 0,-2.508 0.361,-1.063 0.598,-1.611 0.598,-1.611 l 7.261,0.681 31.597,-9.09 2.508,-0.298 3.82,-5.353 8.067,-1.781 3.438,3.354 7.093,-1.869 -0.17,-2.251 -2.252,0.085 -4.415,1.23 -2.762,-2.848 -11.508,2.336 -3.229,4.631"
       style="display:inline" />
    <path
       id="path1231"
       fill="#e7e7e7"
       stroke="#000000"
       stroke-width="0.5"
       stroke-miterlimit="2.6131"
       d="m 386.727,487.15 c 4.975,0.609 8.328,7.29 7.497,14.924 -0.83,7.631 -5.534,13.322 -10.508,12.715 -4.974,-0.606 -8.33,-7.289 -7.499,-14.921 0.831,-7.634 5.537,-13.327 10.51,-12.718 z"
       style="display:inline;fill:#000080;fill-opacity:1" />
    <path
       id="path1233"
       fill="#e7e7e7"
       stroke="#000000"
       stroke-width="0.5"
       stroke-miterlimit="2.6131"
       d="m 343.217,527.524 c 3.959,0 7.188,-4.674 7.188,-10.402 0,-5.729 -3.229,-10.404 -7.188,-10.404 -3.959,0 -7.188,4.676 -7.188,10.404 0,5.729 3.228,10.402 7.188,10.402 z"
       style="display:inline;fill:#000080;fill-opacity:1" />
    <path
       id="path1235"
       stroke="#000000"
       stroke-width="0.5"
       stroke-miterlimit="2.6131"
       d="m 343.217,524.036 c 2.632,0 4.778,-3.104 4.778,-6.916 0,-3.812 -2.146,-6.917 -4.778,-6.917 -2.632,0 -4.778,3.105 -4.778,6.917 0,3.811 2.146,6.916 4.778,6.916 z"
       style="display:inline" />
    <path
       id="path1237"
       stroke="#000000"
       stroke-width="0.5"
       stroke-miterlimit="2.6131"
       d="m 386.289,491.164 c 3.527,0.434 5.911,5.172 5.319,10.588 -0.59,5.415 -3.93,9.455 -7.455,9.021 -3.527,-0.432 -5.911,-5.172 -5.321,-10.588 0.59,-5.414 3.929,-9.454 7.457,-9.021 z"
       style="display:inline" />
    <path
       id="path1239"
       fill="#fbfaf5"
       stroke="#000000"
       stroke-width="0.5"
       stroke-miterlimit="2.6131"
       d="m 336.029,517.12 c 0,-5.746 3.22,-10.404 7.188,-10.404 -2.584,-0.035 -3.781,0.229 -4.877,0.982 -5.545,3.813 -5.942,17.122 1.737,19.959 0,0 1.229,0.236 3.14,-0.135 -3.97,0.002 -7.188,-4.656 -7.188,-10.402 z"
       style="display:inline;fill:#00004d;fill-opacity:1;stroke:#00001a;stroke-opacity:1" />
    <polygon
       id="polygon1241"
       fill="#fbfaf5"
       stroke="#000000"
       stroke-width="0.5"
       stroke-miterlimit="2.6131"
       points="311.886,505.83 334.095,517.764 337.068,516.573 315.325,504.811 "
       style="fill:#0000b2;fill-opacity:1;stroke:#00004d;stroke-opacity:1" />
    <path
       id="path1243"
       fill="#fbfaf5"
       d="m 384.94,491.211 -0.019,5.021 -1.028,-4.687 c -0.64,0.286 -1.247,0.714 -1.81,1.258 l 1.287,3.683 -2.181,-2.669 c -0.425,0.563 -0.81,1.207 -1.14,1.91 l 3.273,2.925 -3.748,-1.773 c -0.256,0.717 -0.458,1.479 -0.604,2.274 l 3.883,1.837 -4.058,-0.552 c -0.073,0.807 -0.083,1.595 -0.031,2.354 l 4.089,0.063 -3.845,1.76 c 0.169,0.816 0.41,1.585 0.716,2.279 l 3.598,-2.001 -2.847,3.379 c 0.289,0.436 0.609,0.82 0.959,1.154 l 2.904,-3.896 -1.953,4.628 c 0.543,0.325 1.133,0.539 1.758,0.613 0.057,0.009 0.107,0.015 0.163,0.019 l 1.046,-4.58 -0.027,4.545 c 0.802,-0.123 1.573,-0.47 2.292,-0.996 l -1.024,-4.566 2.188,3.494 c 0.426,-0.479 0.814,-1.025 1.163,-1.636 l -1.862,-2.75 2.438,1.604 c 0.239,-0.551 0.447,-1.134 0.621,-1.744 l -1.783,-1.338 1.98,0.545 c 0.114,-0.521 0.204,-1.063 0.266,-1.617 0.155,-1.436 0.104,-2.818 -0.123,-4.093 l -1.36,0.864 1.229,-1.51 c -0.164,-0.709 -0.386,-1.376 -0.655,-1.987 l -2.146,2.353 1.681,-3.271 c -0.414,-0.712 -0.903,-1.318 -1.459,-1.799 l -2.175,4.009 1.135,-4.71 c -0.454,-0.229 -0.938,-0.381 -1.443,-0.441 -0.453,-0.059 -0.904,-0.041 -1.348,0.045 z"
       style="display:inline;fill:#0000b2;fill-opacity:1" />
    <path
       id="path1245"
       fill="#fbfaf5"
       stroke="#000000"
       stroke-width="0.5"
       stroke-miterlimit="2.6131"
       d="m 385.617,497.622 c 4.148,0.236 6.491,2.923 6.491,2.923 0,0 -0.935,1.629 -3.218,2.473 -2.285,0.841 -3.048,0.909 -3.048,0.909 0,0 -2.319,-3.027 -0.225,-6.305 z"
       style="fill:url(#linearGradient5531);fill-opacity:1;stroke:#00004d;stroke-opacity:1" />
    <path
       id="path1247"
       fill="#959595"
       stroke="#000000"
       stroke-width="0.5"
       stroke-miterlimit="2.6131"
       d="m 376.218,499.866 c 0.729,-6.693 4.438,-11.896 8.693,-12.662 l -2.639,-0.156 -1.979,0.438 -3.821,5.353 -0.646,0.077 c -5.929,14.373 2.896,21.401 3.362,21.743 0.47,0.34 3.896,0.904 5.947,0.136 -0.471,0.056 -0.946,0.056 -1.425,-0.005 -4.966,-0.61 -8.323,-7.293 -7.492,-14.924 z"
       style="fill:#00004d;fill-opacity:1;stroke:#00001a;stroke-opacity:1" />
    <path
       id="path1249"
       fill="#bebebe"
       d="m 343.116,513.514 c 0,0 -0.369,-1.854 -0.67,-3.222 -0.701,0.165 -1.354,0.552 -1.916,1.104 l 1.565,3.307 -2.356,-2.329 c -0.379,0.581 -0.688,1.259 -0.912,2.002 l 3.059,2.493 -3.357,-1.086 c -0.06,0.434 -0.09,0.88 -0.09,1.338 0,0.291 0.012,0.578 0.037,0.857 l 3.539,0.162 -3.285,1.354 c 0.229,0.91 0.588,1.729 1.043,2.416 l 2.838,-2.37 -1.877,3.483 c 0.713,0.632 1.549,0.997 2.443,1.01 l 0.409,-4.023 0.7,3.854 c 0.842,-0.278 1.6,-0.88 2.205,-1.705 l -1.637,-2.752 2.262,1.717 c 0.267,-0.541 0.479,-1.141 0.627,-1.776 l -2.535,-2.368 2.722,1.313 c 0.044,-0.379 0.067,-0.771 0.067,-1.167 0,-0.712 -0.074,-1.397 -0.213,-2.046 l -1.947,0.222 1.79,-0.854 c -0.229,-0.783 -0.554,-1.493 -0.952,-2.101 l -1.984,1.594 1.23,-2.521 c -0.624,-0.62 -1.354,-1.031 -2.146,-1.165 z"
       style="fill:#0000b2;fill-opacity:1" />
    <path
       id="path1251"
       fill="#e7e7e7"
       stroke="#000000"
       stroke-width="0.5"
       stroke-miterlimit="2.6131"
       d="m 343.466,514.959 c -1.188,1.953 0.169,4.034 0.169,4.034 l 4.12,-2.42 z"
       style="fill:url(#linearGradient5545);fill-opacity:1;stroke:#00004d;stroke-opacity:1" />
    <polygon
       id="polygon1253"
       fill="none"
       stroke="#000000"
       stroke-width="0.5"
       stroke-miterlimit="2.6131"
       points="337.086,494.399 338.362,493.894 329.698,490.071 323.286,492.237 333.224,495.933 "
       style="fill:#00004d;fill-opacity:1;stroke:#00004d;stroke-opacity:1" />
    <line
       id="line1255"
       fill="none"
       stroke="#000000"
       stroke-width="0.5"
       stroke-miterlimit="2.6131"
       x1="337.08701"
       y1="496.95099"
       x2="337.086"
       y2="494.39899"
       style="stroke:#000033;stroke-opacity:1" />
    <polyline
       id="polyline1257"
       fill="none"
       stroke="#000000"
       stroke-width="0.5"
       stroke-miterlimit="2.6131"
       points="339.381,497.759    371.824,488.839 371.824,482.811 354.753,478.479 354.753,482.387  "
       style="display:inline;fill:url(#linearGradient5569);fill-opacity:1" />
    <line
       id="line1259"
       fill="none"
       stroke="#000000"
       stroke-width="0.5"
       stroke-miterlimit="2.6131"
       x1="356.70599"
       y1="480.349"
       x2="356.664"
       y2="483.23499"
       style="stroke:#00001a;stroke-opacity:1" />
    <line
       id="line1261"
       fill="none"
       stroke="#000000"
       stroke-width="0.5"
       stroke-miterlimit="2.6131"
       x1="340.69601"
       y1="498.98901"
       x2="372.375"
       y2="490.242"
       style="fill:none;fill-opacity:1;stroke:#00001a;stroke-opacity:1" />
    <line
       id="line1263"
       fill="none"
       stroke="#000000"
       stroke-width="0.5"
       stroke-miterlimit="2.6131"
       x1="343.92401"
       y1="499.83801"
       x2="372.63"
       y2="491.686"
       style="fill:none;fill-opacity:1;stroke:#00001a;stroke-opacity:1" />
    <polyline
       id="polyline1265"
       fill="none"
       stroke="#000000"
       stroke-width="0.5"
       stroke-miterlimit="2.6131"
       points="320.652,503.369    319.93,504.682 326.852,507.95 329.357,506.421 332.335,507.186  "
       style="fill:#00004d;fill-opacity:1;stroke:#00001a;stroke-opacity:1" />
    <polyline
       id="polyline1267"
       fill="none"
       stroke="#000000"
       stroke-width="0.5"
       stroke-miterlimit="2.6131"
       points="322.437,507.78    326.852,509.861 331.055,508.12  "
       style="fill:#00004d;fill-opacity:1;stroke:#00001a;stroke-opacity:1" />
    <path
       id="path1269"
       fill="none"
       stroke="#000000"
       stroke-width="0.5"
       stroke-miterlimit="2.6131"
       d="m 329.407,512.431 c 1.763,-1.915 3.76,-2.241 6.334,-1.642"
       style="display:inline;stroke:#00001a;stroke-opacity:1" />
    <path
       id="path1271"
       fill="none"
       stroke="#000000"
       stroke-width="0.5"
       stroke-miterlimit="2.6131"
       d="m 341.72,502.16 c -2.171,0.776 -1.662,2.815 -1.662,2.815"
       style="stroke:#00004d;stroke-opacity:1" />
    <path
       id="path1273"
       fill="none"
       stroke="#000000"
       stroke-width="0.5"
       stroke-miterlimit="2.6131"
       d="m 353.134,499.126 c -1.652,0.839 -1.482,2.58 -1.482,2.58"
       style="stroke:#00004d;stroke-opacity:1" />
    <path
       id="path1275"
       fill="none"
       stroke="#000000"
       stroke-width="0.5"
       stroke-miterlimit="2.6131"
       d="m 365.309,495.625 c -2.086,1.729 -1.659,3.192 -1.659,3.192"
       style="stroke:#00004d;stroke-opacity:1" />
    <line
       id="line1277"
       fill="none"
       stroke="#000000"
       stroke-width="0.5"
       stroke-miterlimit="2.6131"
       x1="323.28601"
       y1="492.237"
       x2="323.34799"
       y2="494.61499"
       style="stroke:#00004d;stroke-opacity:1" />
    <line
       id="line1279"
       fill="none"
       stroke="#000000"
       stroke-width="0.5"
       stroke-miterlimit="2.6131"
       x1="327.892"
       y1="493.94901"
       x2="327.72198"
       y2="495.93301"
       style="stroke:#00004d;stroke-opacity:1" />
    <line
       id="line1281"
       fill="none"
       stroke="#000000"
       stroke-width="0.5"
       stroke-miterlimit="2.6131"
       x1="333.224"
       y1="495.93301"
       x2="333.284"
       y2="497.672"
       style="stroke:#00004d;stroke-opacity:1" />
    <polygon
       id="polygon1283"
       fill="#414141"
       stroke="#000000"
       stroke-width="0.5"
       stroke-miterlimit="2.6131"
       points="369.919,489.364 371.824,488.839 371.824,482.811 354.753,478.479 354.753,479.708 369.935,484.167 "
       style="display:inline;fill:#00004d;fill-opacity:1;stroke:#00001a;stroke-opacity:1" />
    <path
       id="path1285"
       fill="none"
       stroke="#000000"
       stroke-width="0.5"
       stroke-miterlimit="2.6131"
       d="m 372.44,481.62 c 1.021,-3.187 5.689,-1.442 5.689,-1.442 0,0 -0.171,-1.229 2.548,-2.464 2.719,-1.23 4.288,0.299 4.288,0.299 0,0 0.596,-2.678 3.948,-3.187 3.354,-0.512 4.97,1.398 4.97,1.398 l -0.085,-11.55 c 0,0 -0.085,-1.868 -2.038,-2.976 -1.952,-1.104 -13.249,-5.688 -13.249,-5.688 0,0 -1.698,0.936 -3.736,1.527 -2.036,0.596 -4.244,-0.512 -4.244,-0.512 0,0 -1.953,2.123 -3.651,2.209 -1.698,0.084 -4.331,0 -4.331,0 -0.771,2.117 -7.068,1.842 -8.961,1.57 l -4.411,6.145"
       style="display:inline;fill:url(#linearGradient5561);fill-opacity:1" />
    <path
       id="path1287"
       fill="none"
       stroke="#000000"
       stroke-width="0.5"
       stroke-miterlimit="2.6131"
       d="m 378.768,472.956 c -0.023,-0.127 0.032,-7.011 -0.075,-7.146 -1.721,-2.157 -13.313,-5.377 -16.146,-6.569"
       style="display:inline;stroke:#000033;stroke-opacity:1" />
    <path
       id="path1289"
       fill="none"
       stroke="#000000"
       stroke-width="0.5"
       stroke-miterlimit="2.6131"
       d="m 372.613,457.654 c 8.256,3.476 12.418,5.047 12.418,5.047"
       style="stroke:#000033;stroke-opacity:1" />
    <path
       id="path1291"
       fill="none"
       stroke="#000000"
       stroke-width="0.5"
       stroke-miterlimit="2.6131"
       d="m 386.135,471.788 c 0.085,-5.521 -0.255,-7.56 -0.255,-7.56"
       style="stroke:#000033;stroke-opacity:1" />
    <line
       id="line1293"
       fill="none"
       stroke="#000000"
       stroke-width="0.5"
       stroke-miterlimit="2.6131"
       x1="384.96701"
       y1="478.01199"
       x2="385.129"
       y2="484.254"
       style="stroke:#000033;stroke-opacity:1" />
    <line
       id="line1295"
       fill="none"
       stroke="#000000"
       stroke-width="0.5"
       stroke-miterlimit="2.6131"
       x1="391.00101"
       y1="474.81299"
       x2="391.061"
       y2="481.853"
       style="stroke:#000033;stroke-opacity:1" />
    <line
       id="line1297"
       fill="none"
       stroke="#000000"
       stroke-width="0.5"
       stroke-miterlimit="2.6131"
       x1="378.13101"
       y1="480.177"
       x2="378.16699"
       y2="485.66699"
       style="stroke:#000033;stroke-opacity:1" />
    <path
       id="path1299"
       fill="none"
       stroke="#000000"
       stroke-width="0.5"
       stroke-miterlimit="2.6131"
       d="m 374.287,483.977 c 2.677,-0.468 3.859,-1.057 3.859,-1.057"
       style="stroke:#000033;stroke-opacity:1" />
    <path
       id="path1301"
       fill="none"
       stroke="#000000"
       stroke-width="0.5"
       stroke-miterlimit="2.6131"
       d="m 381.209,482.532 c 2.761,-0.682 3.827,-1.825 3.827,-1.825"
       style="stroke:#000033;stroke-opacity:1" />
    <path
       id="path1303"
       fill="none"
       stroke="#000000"
       stroke-width="0.5"
       stroke-miterlimit="2.6131"
       d="m 387.281,480.621 c 2.718,0 3.765,-0.681 3.765,-0.681"
       style="stroke:#000033;stroke-opacity:1" />
    <polyline
       id="polyline1305"
       fill="none"
       stroke="#000000"
       stroke-width="0.5"
       stroke-miterlimit="2.6131"
       points="396.478,485.021    394.33,483.51 393.885,476.227  "
       style="stroke:#000033;stroke-opacity:1" />
    <path
       id="path1307"
       fill="none"
       stroke="#000000"
       stroke-width="0.5"
       stroke-miterlimit="2.6131"
       d="m 393.037,475.545 c 0.696,5.969 -0.915,8.092 -0.915,8.092 l 2.208,-0.128"
       style="stroke:#000033;stroke-opacity:1" />
    <polyline
       id="polyline1309"
       fill="none"
       stroke="#000000"
       stroke-width="0.5"
       stroke-miterlimit="2.6131"
       points="362.609,503.169    362.652,506.566 355.602,508.945 352.545,506.822 347.116,508.376  "
       style="display:inline;fill:#00004d;fill-opacity:1;stroke:#00001a;stroke-opacity:1" />
    <polyline
       id="polyline1311"
       fill="none"
       stroke="#000000"
       stroke-width="0.5"
       stroke-miterlimit="2.6131"
       points="373.813,501.347    364.902,504.231 363.926,502.914 362.609,503.169  "
       style="fill:#00004d;fill-opacity:1;stroke:#00001a;stroke-opacity:1" />
    <line
       id="line1313"
       fill="none"
       stroke="#000000"
       stroke-width="0.5"
       stroke-miterlimit="2.6131"
       x1="336.20999"
       y1="492.944"
       x2="369.103"
       y2="483.92401"
       style="fill:none;fill-opacity:1;stroke:#00001a;stroke-opacity:1" />
    <line
       id="line1315"
       fill="none"
       stroke="#000000"
       stroke-width="0.5"
       stroke-miterlimit="2.6131"
       x1="333.33099"
       y1="491.67401"
       x2="356.323"
       y2="485.418"
       style="fill:none;fill-opacity:1;stroke:#000033;stroke-opacity:1" />
    <line
       id="line1317"
       fill="none"
       stroke="#000000"
       stroke-width="0.5"
       stroke-miterlimit="2.6131"
       x1="358.33301"
       y1="480.76199"
       x2="358.27701"
       y2="484.314" />
    <line
       id="line1319"
       fill="none"
       stroke="#000000"
       stroke-width="0.5"
       stroke-miterlimit="2.6131"
       x1="330.78201"
       y1="490.54901"
       x2="352.67099"
       y2="484.14499"
       style="fill:none;fill-opacity:1;stroke:#00004d;stroke-opacity:1" />
    <path
       id="path1321"
       fill="none"
       stroke="#000000"
       stroke-width="0.5"
       stroke-miterlimit="2.6131"
       d="m 370.932,466.564 c -3.396,1.967 -3.187,2.969 -2.973,4.119 0.212,0.851 1.295,0.613 1.655,0.231 0.357,-0.382 0.401,-2.146 1.465,-2.779 1.063,-0.64 1.764,-0.276 1.764,-0.276 0,0 0.553,-0.699 0.021,-1.188 -0.532,-0.489 -1.932,-0.107 -1.932,-0.107 z"
       style="fill:#00004d;fill-opacity:1;stroke:#00001a;stroke-opacity:1" />
    <path
       id="path1323"
       fill="none"
       stroke="#000000"
       stroke-width="0.5"
       stroke-miterlimit="2.6131"
       d="m 377.131,472.381 c 0.681,3.524 -1.527,4.289 -2.505,4.459 -0.979,0.172 -2.38,-0.425 -1.954,-1.782 0.425,-1.356 1.443,-2.038 2.124,-1.868 0.681,0.17 0.808,0.937 0.425,1.399 -0.383,0.47 -0.936,0.045 -0.936,0.045"
       style="display:inline;fill:#00004d;fill-opacity:1;stroke:#00001a;stroke-opacity:1" />
    <path
       id="path1325"
       fill="none"
       stroke="#000000"
       stroke-width="0.5"
       stroke-miterlimit="2.6131"
       d="m 372.843,467.859 c 1.697,2.229 4.288,4.521 4.288,4.521"
       style="fill:#0000b2;fill-opacity:1;stroke:#00004d;stroke-opacity:1" />
    <path
       id="path1327"
       fill="none"
       stroke="#000000"
       stroke-width="0.5"
       stroke-miterlimit="2.6131"
       d="m 369.615,470.916 c 2.208,2.524 3.143,5.22 3.143,5.22"
       style="display:inline;stroke:#00004d;stroke-opacity:1" />
    <path
       id="path1329"
       fill="none"
       stroke="#000000"
       stroke-width="0.5"
       stroke-miterlimit="2.6131"
       d="m 370.476,468.843 c 4.021,2.37 4.93,4.922 4.93,4.922"
       style="display:inline;stroke:#00004d;stroke-opacity:1" />
    <path
       id="path1331"
       fill="none"
       stroke="#000000"
       stroke-width="0.5"
       stroke-miterlimit="2.6131"
       d="m 370.932,466.564 c -3.844,-0.213 -10.299,-3.271 -10.299,-3.271"
       style="stroke:#00004d;stroke-opacity:1" />
    <path
       id="path1333"
       fill="none"
       stroke="#000000"
       stroke-width="0.5"
       stroke-miterlimit="2.6131"
       d="m 367.896,470.33 c -5.438,-0.327 -9.387,-3.087 -9.387,-3.087"
       style="stroke:#00004d;stroke-opacity:1" />
    <path
       id="path1335"
       fill="none"
       stroke="#000000"
       stroke-width="0.5"
       stroke-miterlimit="2.6131"
       d="m 358.893,462.996 c -3.187,0.979 -3.059,3.566 -2.889,4.544 0.17,0.979 0.894,1.146 1.655,1.104 0.764,-0.042 1.336,-1.093 1.336,-1.093"
       style="fill:#00004d;fill-opacity:1;stroke:#00001a;stroke-opacity:1" />
    <path
       id="path1337"
       fill="none"
       stroke="#000000"
       stroke-width="0.5"
       stroke-miterlimit="2.6131"
       d="m 358.995,467.553 c 0,0 -1.207,-0.818 -1.08,-1.925 0.128,-1.104 2.718,-2.335 2.718,-2.335 0,0 -0.765,-1.104 -1.74,-0.299"
       style="fill:#00004d;fill-opacity:1;stroke:#00001a;stroke-opacity:1" />
    <path
       id="path1339"
       fill="none"
       stroke="#000000"
       stroke-width="0.5"
       stroke-miterlimit="2.6131"
       d="m 348.53,467.073 c 4.375,-0.724 8.541,-3.091 8.541,-3.091"
       style="fill:none;fill-opacity:1;stroke:#00004d;stroke-opacity:1" />
    <path
       id="path1341"
       fill="none"
       stroke="#000000"
       stroke-width="0.5"
       stroke-miterlimit="2.6131"
       d="m 356.34,468.271 c -3.688,1.438 -5.347,4.109 -5.347,4.109 0,0 -2.351,-0.822 -2.785,-2.892 -0.143,-0.672 -0.083,-1.473 0.322,-2.417"
       style="display:inline;stroke:#00004d;stroke-opacity:1" />
    <path
       id="path1343"
       fill="none"
       stroke="#000000"
       stroke-width="0.5"
       stroke-miterlimit="2.6131"
       d="m 356.495,464.665 c -3.081,2.193 -8.286,4.824 -8.286,4.824"
       style="stroke:#00004d;stroke-opacity:1" />
    <polyline
       id="polyline1345"
       fill="none"
       stroke="#000000"
       stroke-width="0.5"
       stroke-miterlimit="2.6131"
       points="336.088,507.839    352.396,502.403 352.545,506.822  "
       style="fill:#00004d;fill-opacity:1;stroke:#00001a;stroke-opacity:1" />
    <polygon
       id="polygon1347"
       fill="none"
       stroke="#000000"
       stroke-width="0.5"
       stroke-miterlimit="2.6131"
       points="352.396,502.403 360.421,500.238 363.352,502.149 362.161,502.574 355.409,504.442 "
       style="fill:#00004d;fill-opacity:1;stroke:#00001a;stroke-opacity:1" />
    <line
       id="line1349"
       fill="none"
       stroke="#000000"
       stroke-width="0.5"
       stroke-miterlimit="2.6131"
       x1="365.26199"
       y1="501.64099"
       x2="372.56601"
       y2="499.34799"
       style="fill:none;fill-opacity:1;stroke:#00004d;stroke-opacity:1" />
    <line
       id="line1351"
       fill="none"
       stroke="#000000"
       stroke-width="0.5"
       stroke-miterlimit="2.6131"
       x1="362.33099"
       y1="500.323"
       x2="374.564"
       y2="496.63901"
       style="fill:none;fill-opacity:1;stroke:#00004d;stroke-opacity:1" />
    <line
       id="line1353"
       fill="none"
       stroke="#000000"
       stroke-width="0.5"
       stroke-miterlimit="2.6131"
       x1="323.30701"
       y1="503.25201"
       x2="328.021"
       y2="505.375"
       style="fill:none;fill-opacity:1;stroke:#00004d;stroke-opacity:1" />
    <line
       id="line1355"
       fill="none"
       stroke="#000000"
       stroke-width="0.5"
       stroke-miterlimit="2.6131"
       x1="355.03201"
       y1="468.86801"
       x2="355.02899"
       y2="476.07501"
       style="stroke:#00004d;stroke-opacity:1" />
    <line
       id="line1357"
       fill="none"
       stroke="#000000"
       stroke-width="0.5"
       stroke-miterlimit="2.6131"
       x1="360.84201"
       y1="468.51999"
       x2="360.84799"
       y2="474.92999"
       style="stroke:#00004d;stroke-opacity:1" />
    <line
       id="line1359"
       fill="none"
       stroke="#000000"
       stroke-width="0.5"
       stroke-miterlimit="2.6131"
       x1="366.39801"
       y1="470.17801"
       x2="366.409"
       y2="474.67401"
       style="stroke:#00004d;stroke-opacity:1" />
    <polyline
       id="polyline1361"
       fill="none"
       stroke="#000000"
       stroke-width="0.5"
       stroke-miterlimit="2.6131"
       points="355.03,474.376    360.846,472.764 366.404,472.747  "
       style="fill:#00004d;fill-opacity:1;stroke:#00004d;stroke-opacity:1" />
    <line
       id="line1363"
       fill="none"
       stroke="#000000"
       stroke-width="0.5"
       stroke-miterlimit="2.6131"
       x1="371.71899"
       y1="473.922"
       x2="371.82401"
       y2="482.811"
       style="stroke:#00004d;stroke-opacity:1" />
    <polyline
       id="polyline1365"
       fill="none"
       stroke="#000000"
       stroke-width="0.5"
       stroke-miterlimit="2.6131"
       points="395.395,487.442    394.437,492.126 397.069,492.296 397.203,493.018 398.301,498.921 397.069,501.514 393.757,502.744  "
       style="fill:#00004d;fill-opacity:1;stroke:#00004d;stroke-opacity:1" />
    <polyline
       id="polyline1367"
       fill="none"
       stroke="#000000"
       stroke-width="0.5"
       stroke-miterlimit="2.6131"
       points="398.212,498.439    399.956,498.115 400.552,497.352 399.83,493.104 398.768,492.596 397.203,493.018  "
       style="fill:#0000b2;fill-opacity:1;stroke:#00004d;stroke-opacity:1" />
    <path
       id="path1369"
       fill="none"
       stroke="#000000"
       stroke-width="0.5"
       stroke-miterlimit="2.6131"
       d="m 319.4,501.895 c -1.912,1.484 -2.673,3.675 -2.673,3.675"
       style="display:inline;stroke:#00004d;stroke-opacity:1" />
    <path
       id="path1371"
       fill="#414141"
       stroke="#000000"
       stroke-width="0.5"
       stroke-miterlimit="2.6131"
       d="m 362.652,506.566 -7.049,2.381 -3.059,-2.123 -5.43,1.555 c 0.352,0.328 0.682,0.7 0.983,1.109 l 3.976,-1.196 2.72,1.868 8.11,-2.635 0.978,-1.484 9.916,-3.143 c -0.019,-0.501 -0.013,-1.021 0.017,-1.553 l -8.91,2.886 -0.979,-1.314 -1.314,0.255 z"
       style="fill:#00004d;fill-opacity:1" />
    <path
       id="path1373"
       fill="#828282"
       stroke="#000000"
       stroke-width="0.5"
       stroke-miterlimit="2.6131"
       d="m 334.398,515.129 c 0.228,-1.563 0.68,-3.055 1.344,-4.34 -2.065,-0.48 -3.762,-0.367 -5.262,0.688 -0.063,0.479 -0.154,0.938 -0.269,1.391 z"
       style="fill:#00004d;fill-opacity:1" />
    <path
       id="path1375"
       fill="#414141"
       stroke="#000000"
       stroke-width="0.5"
       stroke-miterlimit="2.6131"
       d="m 321.982,499.147 9.998,3.85 c 0.168,-0.88 0.35,-1.58 0.35,-1.58 l -9.979,-3.692 c 10e-4,-0.003 -0.208,0.65 -0.369,1.422 z"
       style="fill:#00004d;fill-opacity:1" />
  </g>
</svg>
